<?xml version="1.0" standalone="no"?>
 <!DOCTYPE svg PUBLIC "-//W3C//DTD SVG 1.1//EN" 
 "http://www.w3.org/Graphics/SVG/1.1/DTD/svg11.dtd"> 
<svg xmlns="http://www.w3.org/2000/svg" version="1.1" 
    width="29.7002cm" height="21.0007cm" viewBox="0 0 116930 82680 ">
<title>SVG Picture created as neo8_adapter-F_Paste.svg date 2020/02/13 12:15:50 </title>
  <desc>Picture generated by PCBNEW </desc>
<g style="fill:#000000; fill-opacity:1;stroke:#000000; stroke-opacity:1;
stroke-linecap:round; stroke-linejoin:round; "
 transform="translate(0 0) scale(1 1)">
</g>
<g style="fill:#000000; fill-opacity:0.0; 
stroke:#000000; stroke-width:-0.000393701; stroke-opacity:1; 
stroke-linecap:round; stroke-linejoin:round;">
<g >
</g>
<g >
</g>
<g >
</g>
<g >
</g>
<g style="fill:#000000; fill-opacity:0.0; 
stroke:#000000; stroke-width:-0.000393701; stroke-opacity:1; 
stroke-linecap:round; stroke-linejoin:round;">
</g>
<g style="fill:#000000; fill-opacity:0.0; 
stroke:#000000; stroke-width:0; stroke-opacity:1; 
stroke-linecap:round; stroke-linejoin:round;">
</g>
<g style="fill:#000000; fill-opacity:1.0; 
stroke:#000000; stroke-width:0; stroke-opacity:1; 
stroke-linecap:round; stroke-linejoin:round;">
<path style="fill:#000000; fill-opacity:1.0; 
stroke:#000000; stroke-width:0; stroke-opacity:1; 
stroke-linecap:round; stroke-linejoin:round;fill-rule:evenodd;"
d="M 65007,38401
65007,38086
65716,38086
65716,38401
65007,38401
Z" /> 
<path style="fill:#000000; fill-opacity:1.0; 
stroke:#000000; stroke-width:0; stroke-opacity:1; 
stroke-linecap:round; stroke-linejoin:round;fill-rule:evenodd;"
d="M 65007,39267
65007,38952
65716,38952
65716,39267
65007,39267
Z" /> 
<path style="fill:#000000; fill-opacity:1.0; 
stroke:#000000; stroke-width:0; stroke-opacity:1; 
stroke-linecap:round; stroke-linejoin:round;fill-rule:evenodd;"
d="M 65007,39700
65007,39385
65716,39385
65716,39700
65007,39700
Z" /> 
<path style="fill:#000000; fill-opacity:1.0; 
stroke:#000000; stroke-width:0; stroke-opacity:1; 
stroke-linecap:round; stroke-linejoin:round;fill-rule:evenodd;"
d="M 65007,40133
65007,39818
65716,39818
65716,40133
65007,40133
Z" /> 
<path style="fill:#000000; fill-opacity:1.0; 
stroke:#000000; stroke-width:0; stroke-opacity:1; 
stroke-linecap:round; stroke-linejoin:round;fill-rule:evenodd;"
d="M 65007,40566
65007,40251
65716,40251
65716,40566
65007,40566
Z" /> 
<path style="fill:#000000; fill-opacity:1.0; 
stroke:#000000; stroke-width:0; stroke-opacity:1; 
stroke-linecap:round; stroke-linejoin:round;fill-rule:evenodd;"
d="M 65007,41000
65007,40685
65716,40685
65716,41000
65007,41000
Z" /> 
<path style="fill:#000000; fill-opacity:1.0; 
stroke:#000000; stroke-width:0; stroke-opacity:1; 
stroke-linecap:round; stroke-linejoin:round;fill-rule:evenodd;"
d="M 65007,42181
65007,41866
65716,41866
65716,42181
65007,42181
Z" /> 
<path style="fill:#000000; fill-opacity:1.0; 
stroke:#000000; stroke-width:0; stroke-opacity:1; 
stroke-linecap:round; stroke-linejoin:round;fill-rule:evenodd;"
d="M 65007,42614
65007,42299
65716,42299
65716,42614
65007,42614
Z" /> 
<path style="fill:#000000; fill-opacity:1.0; 
stroke:#000000; stroke-width:0; stroke-opacity:1; 
stroke-linecap:round; stroke-linejoin:round;fill-rule:evenodd;"
d="M 65007,43047
65007,42732
65716,42732
65716,43047
65007,43047
Z" /> 
<path style="fill:#000000; fill-opacity:1.0; 
stroke:#000000; stroke-width:0; stroke-opacity:1; 
stroke-linecap:round; stroke-linejoin:round;fill-rule:evenodd;"
d="M 65007,43480
65007,43165
65716,43165
65716,43480
65007,43480
Z" /> 
<path style="fill:#000000; fill-opacity:1.0; 
stroke:#000000; stroke-width:0; stroke-opacity:1; 
stroke-linecap:round; stroke-linejoin:round;fill-rule:evenodd;"
d="M 65007,43913
65007,43598
65716,43598
65716,43913
65007,43913
Z" /> 
<path style="fill:#000000; fill-opacity:1.0; 
stroke:#000000; stroke-width:0; stroke-opacity:1; 
stroke-linecap:round; stroke-linejoin:round;fill-rule:evenodd;"
d="M 60283,43913
60283,43598
60992,43598
60992,43913
60283,43913
Z" /> 
<path style="fill:#000000; fill-opacity:1.0; 
stroke:#000000; stroke-width:0; stroke-opacity:1; 
stroke-linecap:round; stroke-linejoin:round;fill-rule:evenodd;"
d="M 60283,43480
60283,43165
60992,43165
60992,43480
60283,43480
Z" /> 
<path style="fill:#000000; fill-opacity:1.0; 
stroke:#000000; stroke-width:0; stroke-opacity:1; 
stroke-linecap:round; stroke-linejoin:round;fill-rule:evenodd;"
d="M 60283,43047
60283,42732
60992,42732
60992,43047
60283,43047
Z" /> 
<path style="fill:#000000; fill-opacity:1.0; 
stroke:#000000; stroke-width:0; stroke-opacity:1; 
stroke-linecap:round; stroke-linejoin:round;fill-rule:evenodd;"
d="M 60283,42614
60283,42299
60992,42299
60992,42614
60283,42614
Z" /> 
<path style="fill:#000000; fill-opacity:1.0; 
stroke:#000000; stroke-width:0; stroke-opacity:1; 
stroke-linecap:round; stroke-linejoin:round;fill-rule:evenodd;"
d="M 60283,42181
60283,41866
60992,41866
60992,42181
60283,42181
Z" /> 
<path style="fill:#000000; fill-opacity:1.0; 
stroke:#000000; stroke-width:0; stroke-opacity:1; 
stroke-linecap:round; stroke-linejoin:round;fill-rule:evenodd;"
d="M 60283,41000
60283,40685
60992,40685
60992,41000
60283,41000
Z" /> 
<path style="fill:#000000; fill-opacity:1.0; 
stroke:#000000; stroke-width:0; stroke-opacity:1; 
stroke-linecap:round; stroke-linejoin:round;fill-rule:evenodd;"
d="M 60283,40566
60283,40251
60992,40251
60992,40566
60283,40566
Z" /> 
<path style="fill:#000000; fill-opacity:1.0; 
stroke:#000000; stroke-width:0; stroke-opacity:1; 
stroke-linecap:round; stroke-linejoin:round;fill-rule:evenodd;"
d="M 60283,40133
60283,39818
60992,39818
60992,40133
60283,40133
Z" /> 
<path style="fill:#000000; fill-opacity:1.0; 
stroke:#000000; stroke-width:0; stroke-opacity:1; 
stroke-linecap:round; stroke-linejoin:round;fill-rule:evenodd;"
d="M 60283,39700
60283,39385
60992,39385
60992,39700
60283,39700
Z" /> 
<path style="fill:#000000; fill-opacity:1.0; 
stroke:#000000; stroke-width:0; stroke-opacity:1; 
stroke-linecap:round; stroke-linejoin:round;fill-rule:evenodd;"
d="M 60283,39267
60283,38952
60992,38952
60992,39267
60283,39267
Z" /> 
<path style="fill:#000000; fill-opacity:1.0; 
stroke:#000000; stroke-width:0; stroke-opacity:1; 
stroke-linecap:round; stroke-linejoin:round;fill-rule:evenodd;"
d="M 60283,38834
60283,38519
60992,38519
60992,38834
60283,38834
Z" /> 
<path style="fill:#000000; fill-opacity:1.0; 
stroke:#000000; stroke-width:0; stroke-opacity:1; 
stroke-linecap:round; stroke-linejoin:round;fill-rule:evenodd;"
d="M 60283,38401
60283,38086
60992,38086
60992,38401
60283,38401
Z" /> 
</g>
<g >
</g>
<g >
</g>
<g >
</g>
<g style="fill:#000000; fill-opacity:1.0; 
stroke:#000000; stroke-width:0; stroke-opacity:1; 
stroke-linecap:round; stroke-linejoin:round;">
<path style="fill:#000000; fill-opacity:1.0; 
stroke:#000000; stroke-width:0; stroke-opacity:1; 
stroke-linecap:round; stroke-linejoin:round;fill-rule:evenodd;"
d="M 63144,36024
63154,36026
63163,36028
63172,36031
63181,36036
63189,36040
63197,36046
63204,36053
63211,36060
63216,36068
63221,36076
63225,36085
63229,36094
63231,36103
63232,36113
63233,36122
63233,36477
63232,36486
63231,36496
63229,36505
63225,36514
63221,36523
63216,36531
63211,36539
63204,36546
63197,36553
63189,36559
63181,36563
63172,36568
63163,36571
63154,36573
63144,36575
63135,36575
62879,36575
62869,36575
62859,36573
62850,36571
62841,36568
62832,36563
62824,36559
62816,36553
62809,36546
62803,36539
62797,36531
62792,36523
62788,36514
62784,36505
62782,36496
62781,36486
62780,36477
62780,36122
62781,36113
62782,36103
62784,36094
62788,36085
62792,36076
62797,36068
62803,36060
62809,36053
62816,36046
62824,36040
62832,36036
62841,36031
62850,36028
62859,36026
62869,36024
62879,36024
63135,36024
63144,36024
Z" /> 
<path style="fill:#000000; fill-opacity:1.0; 
stroke:#000000; stroke-width:0; stroke-opacity:1; 
stroke-linecap:round; stroke-linejoin:round;fill-rule:evenodd;"
d="M 62337,36024
62347,36026
62356,36028
62365,36031
62374,36036
62382,36040
62390,36046
62397,36053
62404,36060
62409,36068
62414,36076
62418,36085
62422,36094
62424,36103
62425,36113
62426,36122
62426,36477
62425,36486
62424,36496
62422,36505
62418,36514
62414,36523
62409,36531
62404,36539
62397,36546
62390,36553
62382,36559
62374,36563
62365,36568
62356,36571
62347,36573
62337,36575
62327,36575
62072,36575
62062,36575
62052,36573
62043,36571
62034,36568
62025,36563
62017,36559
62009,36553
62002,36546
61995,36539
61990,36531
61985,36523
61981,36514
61977,36505
61975,36496
61974,36486
61973,36477
61973,36122
61974,36113
61975,36103
61977,36094
61981,36085
61985,36076
61990,36068
61995,36060
62002,36053
62009,36046
62017,36040
62025,36036
62034,36031
62043,36028
62052,36026
62062,36024
62072,36024
62327,36024
62337,36024
Z" /> 
</g>
<g >
</g>
<g style="fill:#000000; fill-opacity:1.0; 
stroke:#000000; stroke-width:0; stroke-opacity:1; 
stroke-linecap:round; stroke-linejoin:round;">
<path style="fill:#000000; fill-opacity:1.0; 
stroke:#000000; stroke-width:0; stroke-opacity:1; 
stroke-linecap:round; stroke-linejoin:round;fill-rule:evenodd;"
d="M 63890,44239
63900,44241
63909,44243
63918,44246
63927,44251
63935,44255
63943,44261
63950,44268
63956,44275
63962,44283
63967,44291
63971,44300
63975,44309
63977,44318
63978,44328
63979,44337
63979,44692
63978,44701
63977,44711
63975,44720
63971,44729
63967,44738
63962,44746
63956,44754
63950,44761
63943,44768
63935,44774
63927,44778
63918,44783
63909,44786
63900,44788
63890,44790
63880,44790
63624,44790
63615,44790
63605,44788
63596,44786
63587,44783
63578,44778
63570,44774
63562,44768
63555,44761
63548,44754
63543,44746
63538,44738
63534,44729
63530,44720
63528,44711
63527,44701
63526,44692
63526,44337
63527,44328
63528,44318
63530,44309
63534,44300
63538,44291
63543,44283
63548,44275
63555,44268
63562,44261
63570,44255
63578,44251
63587,44246
63596,44243
63605,44241
63615,44239
63624,44239
63880,44239
63890,44239
Z" /> 
<path style="fill:#000000; fill-opacity:1.0; 
stroke:#000000; stroke-width:0; stroke-opacity:1; 
stroke-linecap:round; stroke-linejoin:round;fill-rule:evenodd;"
d="M 64697,44239
64707,44241
64716,44243
64725,44246
64734,44251
64742,44255
64750,44261
64757,44268
64764,44275
64769,44283
64774,44291
64778,44300
64782,44309
64784,44318
64785,44328
64786,44337
64786,44692
64785,44701
64784,44711
64782,44720
64778,44729
64774,44738
64769,44746
64764,44754
64757,44761
64750,44768
64742,44774
64734,44778
64725,44783
64716,44786
64707,44788
64697,44790
64687,44790
64432,44790
64422,44790
64412,44788
64403,44786
64394,44783
64385,44778
64377,44774
64369,44768
64362,44761
64355,44754
64350,44746
64345,44738
64341,44729
64337,44720
64335,44711
64334,44701
64333,44692
64333,44337
64334,44328
64335,44318
64337,44309
64341,44300
64345,44291
64350,44283
64355,44275
64362,44268
64369,44261
64377,44255
64385,44251
64394,44246
64403,44243
64412,44241
64422,44239
64432,44239
64687,44239
64697,44239
Z" /> 
</g>
<g >
</g>
<g >
</g>
<g style="fill:#000000; fill-opacity:1.0; 
stroke:#000000; stroke-width:0; stroke-opacity:1; 
stroke-linecap:round; stroke-linejoin:round;">
<path style="fill:#000000; fill-opacity:1.0; 
stroke:#000000; stroke-width:0; stroke-opacity:1; 
stroke-linecap:round; stroke-linejoin:round;fill-rule:evenodd;"
d="M 60226,45194
60236,45195
60245,45197
60254,45201
60263,45205
60271,45210
60279,45215
60286,45222
60293,45229
60299,45237
60303,45245
60308,45254
60311,45263
60313,45272
60315,45282
60315,45292
60315,45547
60315,45557
60313,45567
60311,45576
60308,45585
60303,45594
60299,45602
60293,45610
60286,45617
60279,45624
60271,45629
60263,45634
60254,45638
60245,45642
60236,45644
60226,45645
60217,45646
59862,45646
59853,45645
59843,45644
59834,45642
59825,45638
59816,45634
59808,45629
59800,45624
59793,45617
59786,45610
59780,45602
59776,45594
59771,45585
59768,45576
59766,45567
59764,45557
59764,45547
59764,45292
59764,45282
59766,45272
59768,45263
59771,45254
59776,45245
59780,45237
59786,45229
59793,45222
59800,45215
59808,45210
59816,45205
59825,45201
59834,45197
59843,45195
59853,45194
59862,45193
60217,45193
60226,45194
Z" /> 
<path style="fill:#000000; fill-opacity:1.0; 
stroke:#000000; stroke-width:0; stroke-opacity:1; 
stroke-linecap:round; stroke-linejoin:round;fill-rule:evenodd;"
d="M 60226,44387
60236,44388
60245,44390
60254,44394
60263,44398
60271,44403
60279,44408
60286,44415
60293,44422
60299,44430
60303,44438
60308,44447
60311,44456
60313,44465
60315,44475
60315,44484
60315,44740
60315,44750
60313,44760
60311,44769
60308,44778
60303,44787
60299,44795
60293,44803
60286,44810
60279,44816
60271,44822
60263,44827
60254,44831
60245,44835
60236,44837
60226,44838
60217,44839
59862,44839
59853,44838
59843,44837
59834,44835
59825,44831
59816,44827
59808,44822
59800,44816
59793,44810
59786,44803
59780,44795
59776,44787
59771,44778
59768,44769
59766,44760
59764,44750
59764,44740
59764,44484
59764,44475
59766,44465
59768,44456
59771,44447
59776,44438
59780,44430
59786,44422
59793,44415
59800,44408
59808,44403
59816,44398
59825,44394
59834,44390
59843,44388
59853,44387
59862,44386
60217,44386
60226,44387
Z" /> 
</g>
<g >
</g>
<g >
</g>
<g style="fill:#000000; fill-opacity:1.0; 
stroke:#000000; stroke-width:0; stroke-opacity:1; 
stroke-linecap:round; stroke-linejoin:round;">
<path style="fill:#000000; fill-opacity:1.0; 
stroke:#000000; stroke-width:0; stroke-opacity:1; 
stroke-linecap:round; stroke-linejoin:round;fill-rule:evenodd;"
d="M 60137,36024
60147,36026
60156,36028
60165,36031
60174,36036
60182,36040
60190,36046
60197,36053
60204,36060
60209,36068
60214,36076
60218,36085
60222,36094
60224,36103
60225,36113
60226,36122
60226,36477
60225,36486
60224,36496
60222,36505
60218,36514
60214,36523
60209,36531
60204,36539
60197,36546
60190,36553
60182,36559
60174,36563
60165,36568
60156,36571
60147,36573
60137,36575
60127,36575
59872,36575
59862,36575
59852,36573
59843,36571
59834,36568
59825,36563
59817,36559
59809,36553
59802,36546
59795,36539
59790,36531
59785,36523
59781,36514
59777,36505
59775,36496
59774,36486
59773,36477
59773,36122
59774,36113
59775,36103
59777,36094
59781,36085
59785,36076
59790,36068
59795,36060
59802,36053
59809,36046
59817,36040
59825,36036
59834,36031
59843,36028
59852,36026
59862,36024
59872,36024
60127,36024
60137,36024
Z" /> 
<path style="fill:#000000; fill-opacity:1.0; 
stroke:#000000; stroke-width:0; stroke-opacity:1; 
stroke-linecap:round; stroke-linejoin:round;fill-rule:evenodd;"
d="M 60944,36024
60954,36026
60963,36028
60972,36031
60981,36036
60989,36040
60997,36046
61004,36053
61011,36060
61016,36068
61021,36076
61025,36085
61029,36094
61031,36103
61032,36113
61033,36122
61033,36477
61032,36486
61031,36496
61029,36505
61025,36514
61021,36523
61016,36531
61011,36539
61004,36546
60997,36553
60989,36559
60981,36563
60972,36568
60963,36571
60954,36573
60944,36575
60935,36575
60679,36575
60669,36575
60659,36573
60650,36571
60641,36568
60632,36563
60624,36559
60616,36553
60609,36546
60603,36539
60597,36531
60592,36523
60588,36514
60584,36505
60582,36496
60581,36486
60580,36477
60580,36122
60581,36113
60582,36103
60584,36094
60588,36085
60592,36076
60597,36068
60603,36060
60609,36053
60616,36046
60624,36040
60632,36036
60641,36031
60650,36028
60659,36026
60669,36024
60679,36024
60935,36024
60944,36024
Z" /> 
</g>
<g >
</g>
<g >
</g>
<g >
</g>
<g style="fill:#000000; fill-opacity:1.0; 
stroke:#000000; stroke-width:0; stroke-opacity:1; 
stroke-linecap:round; stroke-linejoin:round;">
<path style="fill:#000000; fill-opacity:1.0; 
stroke:#000000; stroke-width:0; stroke-opacity:1; 
stroke-linecap:round; stroke-linejoin:round;fill-rule:evenodd;"
d="M 67250,35000
67250,33000
68200,33000
68200,35000
67250,35000
Z" /> 
<path style="fill:#000000; fill-opacity:1.0; 
stroke:#000000; stroke-width:0; stroke-opacity:1; 
stroke-linecap:round; stroke-linejoin:round;fill-rule:evenodd;"
d="M 65550,35000
65550,33000
66450,33000
66450,35000
65550,35000
Z" /> 
<path style="fill:#000000; fill-opacity:1.0; 
stroke:#000000; stroke-width:0; stroke-opacity:1; 
stroke-linecap:round; stroke-linejoin:round;fill-rule:evenodd;"
d="M 63800,35000
63800,33000
64750,33000
64750,35000
63800,35000
Z" /> 
</g>
<g >
</g>
<g style="fill:#000000; fill-opacity:1.0; 
stroke:#000000; stroke-width:0; stroke-opacity:1; 
stroke-linecap:round; stroke-linejoin:round;">
<path style="fill:#000000; fill-opacity:1.0; 
stroke:#000000; stroke-width:0; stroke-opacity:1; 
stroke-linecap:round; stroke-linejoin:round;fill-rule:evenodd;"
d="M 61250,35000
61250,33000
62200,33000
62200,35000
61250,35000
Z" /> 
<path style="fill:#000000; fill-opacity:1.0; 
stroke:#000000; stroke-width:0; stroke-opacity:1; 
stroke-linecap:round; stroke-linejoin:round;fill-rule:evenodd;"
d="M 59550,35000
59550,33000
60450,33000
60450,35000
59550,35000
Z" /> 
<path style="fill:#000000; fill-opacity:1.0; 
stroke:#000000; stroke-width:0; stroke-opacity:1; 
stroke-linecap:round; stroke-linejoin:round;fill-rule:evenodd;"
d="M 57800,35000
57800,33000
58750,33000
58750,35000
57800,35000
Z" /> 
</g>
<g >
</g>
<g >
</g>
<g style="fill:#000000; fill-opacity:1.0; 
stroke:#000000; stroke-width:0; stroke-opacity:1; 
stroke-linecap:round; stroke-linejoin:round;">
<path style="fill:#000000; fill-opacity:1.0; 
stroke:#000000; stroke-width:0; stroke-opacity:1; 
stroke-linecap:round; stroke-linejoin:round;fill-rule:evenodd;"
d="M 61092,46358
61092,46460
60836,46460
60836,46358
61092,46358
Z" /> 
<path style="fill:#000000; fill-opacity:1.0; 
stroke:#000000; stroke-width:0; stroke-opacity:1; 
stroke-linecap:round; stroke-linejoin:round;fill-rule:evenodd;"
d="M 61092,47161
61092,47263
60836,47263
60836,47161
61092,47161
Z" /> 
<path style="fill:#000000; fill-opacity:1.0; 
stroke:#000000; stroke-width:0; stroke-opacity:1; 
stroke-linecap:round; stroke-linejoin:round;fill-rule:evenodd;"
d="M 61092,46358
61092,47263
60994,47263
60994,46358
61092,46358
Z" /> 
<path style="fill:#000000; fill-opacity:1.0; 
stroke:#000000; stroke-width:0; stroke-opacity:1; 
stroke-linecap:round; stroke-linejoin:round;fill-rule:evenodd;"
d="M 65183,47161
65183,47263
64927,47263
64927,47161
65183,47161
Z" /> 
<path style="fill:#000000; fill-opacity:1.0; 
stroke:#000000; stroke-width:0; stroke-opacity:1; 
stroke-linecap:round; stroke-linejoin:round;fill-rule:evenodd;"
d="M 65183,46358
65183,46460
64927,46460
64927,46358
65183,46358
Z" /> 
<path style="fill:#000000; fill-opacity:1.0; 
stroke:#000000; stroke-width:0; stroke-opacity:1; 
stroke-linecap:round; stroke-linejoin:round;fill-rule:evenodd;"
d="M 65005,46358
65005,47263
64907,47263
64907,46358
65005,46358
Z" /> 
</g>
<g >
</g>
<g >
</g>
<g >
</g>
<g style="fill:#000000; fill-opacity:1.0; 
stroke:#000000; stroke-width:0; stroke-opacity:1; 
stroke-linecap:round; stroke-linejoin:round;">
<path style="fill:#000000; fill-opacity:1.0; 
stroke:#000000; stroke-width:0; stroke-opacity:1; 
stroke-linecap:round; stroke-linejoin:round;fill-rule:evenodd;"
d="M 60130,36924
60140,36926
60149,36928
60158,36931
60167,36936
60175,36940
60183,36946
60190,36953
60196,36960
60202,36968
60207,36976
60211,36985
60215,36994
60217,37003
60218,37013
60219,37022
60219,37377
60218,37386
60217,37396
60215,37405
60211,37414
60207,37423
60202,37431
60196,37439
60190,37446
60183,37453
60175,37459
60167,37463
60158,37468
60149,37471
60140,37473
60130,37475
60120,37475
59864,37475
59855,37475
59845,37473
59836,37471
59827,37468
59818,37463
59810,37459
59802,37453
59795,37446
59788,37439
59783,37431
59778,37423
59774,37414
59770,37405
59768,37396
59767,37386
59766,37377
59766,37022
59767,37013
59768,37003
59770,36994
59774,36985
59778,36976
59783,36968
59788,36960
59795,36953
59802,36946
59810,36940
59818,36936
59827,36931
59836,36928
59845,36926
59855,36924
59864,36924
60120,36924
60130,36924
Z" /> 
<path style="fill:#000000; fill-opacity:1.0; 
stroke:#000000; stroke-width:0; stroke-opacity:1; 
stroke-linecap:round; stroke-linejoin:round;fill-rule:evenodd;"
d="M 60937,36924
60947,36926
60956,36928
60965,36931
60974,36936
60982,36940
60990,36946
60997,36953
61004,36960
61009,36968
61014,36976
61018,36985
61022,36994
61024,37003
61025,37013
61026,37022
61026,37377
61025,37386
61024,37396
61022,37405
61018,37414
61014,37423
61009,37431
61004,37439
60997,37446
60990,37453
60982,37459
60974,37463
60965,37468
60956,37471
60947,37473
60937,37475
60927,37475
60672,37475
60662,37475
60652,37473
60643,37471
60634,37468
60625,37463
60617,37459
60609,37453
60602,37446
60595,37439
60590,37431
60585,37423
60581,37414
60577,37405
60575,37396
60574,37386
60573,37377
60573,37022
60574,37013
60575,37003
60577,36994
60581,36985
60585,36976
60590,36968
60595,36960
60602,36953
60609,36946
60617,36940
60625,36936
60634,36931
60643,36928
60652,36926
60662,36924
60672,36924
60927,36924
60937,36924
Z" /> 
</g>
<g >
</g>
<g >
</g>
<g >
</g>
<g >
</g>
</g> 
</svg>
