G04 #@! TF.GenerationSoftware,KiCad,Pcbnew,(5.1.4-0-10_14)*
G04 #@! TF.CreationDate,2020-02-10T15:43:12-05:00*
G04 #@! TF.ProjectId,neo8_adapter,6e656f38-5f61-4646-9170-7465722e6b69,rev?*
G04 #@! TF.SameCoordinates,Original*
G04 #@! TF.FileFunction,Paste,Bot*
G04 #@! TF.FilePolarity,Positive*
%FSLAX46Y46*%
G04 Gerber Fmt 4.6, Leading zero omitted, Abs format (unit mm)*
G04 Created by KiCad (PCBNEW (5.1.4-0-10_14)) date 2020-02-10 15:43:12*
%MOMM*%
%LPD*%
G04 APERTURE LIST*
%ADD10R,3.800000X2.200000*%
%ADD11R,1.500000X2.200000*%
%ADD12C,0.100000*%
%ADD13C,0.600000*%
%ADD14C,1.150000*%
%ADD15R,2.413000X5.080000*%
%ADD16R,0.650000X0.260000*%
%ADD17R,0.250000X2.300000*%
%ADD18R,0.460000X0.850000*%
%ADD19R,0.230000X0.850000*%
G04 APERTURE END LIST*
D10*
X166268400Y-99872400D03*
D11*
X168568400Y-106172400D03*
X166268400Y-106172400D03*
X163968400Y-106172400D03*
D12*
G36*
X162089703Y-105200722D02*
G01*
X162104264Y-105202882D01*
X162118543Y-105206459D01*
X162132403Y-105211418D01*
X162145710Y-105217712D01*
X162158336Y-105225280D01*
X162170159Y-105234048D01*
X162181066Y-105243934D01*
X162190952Y-105254841D01*
X162199720Y-105266664D01*
X162207288Y-105279290D01*
X162213582Y-105292597D01*
X162218541Y-105306457D01*
X162222118Y-105320736D01*
X162224278Y-105335297D01*
X162225000Y-105350000D01*
X162225000Y-107000000D01*
X162224278Y-107014703D01*
X162222118Y-107029264D01*
X162218541Y-107043543D01*
X162213582Y-107057403D01*
X162207288Y-107070710D01*
X162199720Y-107083336D01*
X162190952Y-107095159D01*
X162181066Y-107106066D01*
X162170159Y-107115952D01*
X162158336Y-107124720D01*
X162145710Y-107132288D01*
X162132403Y-107138582D01*
X162118543Y-107143541D01*
X162104264Y-107147118D01*
X162089703Y-107149278D01*
X162075000Y-107150000D01*
X161775000Y-107150000D01*
X161760297Y-107149278D01*
X161745736Y-107147118D01*
X161731457Y-107143541D01*
X161717597Y-107138582D01*
X161704290Y-107132288D01*
X161691664Y-107124720D01*
X161679841Y-107115952D01*
X161668934Y-107106066D01*
X161659048Y-107095159D01*
X161650280Y-107083336D01*
X161642712Y-107070710D01*
X161636418Y-107057403D01*
X161631459Y-107043543D01*
X161627882Y-107029264D01*
X161625722Y-107014703D01*
X161625000Y-107000000D01*
X161625000Y-105350000D01*
X161625722Y-105335297D01*
X161627882Y-105320736D01*
X161631459Y-105306457D01*
X161636418Y-105292597D01*
X161642712Y-105279290D01*
X161650280Y-105266664D01*
X161659048Y-105254841D01*
X161668934Y-105243934D01*
X161679841Y-105234048D01*
X161691664Y-105225280D01*
X161704290Y-105217712D01*
X161717597Y-105211418D01*
X161731457Y-105206459D01*
X161745736Y-105202882D01*
X161760297Y-105200722D01*
X161775000Y-105200000D01*
X162075000Y-105200000D01*
X162089703Y-105200722D01*
X162089703Y-105200722D01*
G37*
D13*
X161925000Y-106175000D03*
D12*
G36*
X160819703Y-105200722D02*
G01*
X160834264Y-105202882D01*
X160848543Y-105206459D01*
X160862403Y-105211418D01*
X160875710Y-105217712D01*
X160888336Y-105225280D01*
X160900159Y-105234048D01*
X160911066Y-105243934D01*
X160920952Y-105254841D01*
X160929720Y-105266664D01*
X160937288Y-105279290D01*
X160943582Y-105292597D01*
X160948541Y-105306457D01*
X160952118Y-105320736D01*
X160954278Y-105335297D01*
X160955000Y-105350000D01*
X160955000Y-107000000D01*
X160954278Y-107014703D01*
X160952118Y-107029264D01*
X160948541Y-107043543D01*
X160943582Y-107057403D01*
X160937288Y-107070710D01*
X160929720Y-107083336D01*
X160920952Y-107095159D01*
X160911066Y-107106066D01*
X160900159Y-107115952D01*
X160888336Y-107124720D01*
X160875710Y-107132288D01*
X160862403Y-107138582D01*
X160848543Y-107143541D01*
X160834264Y-107147118D01*
X160819703Y-107149278D01*
X160805000Y-107150000D01*
X160505000Y-107150000D01*
X160490297Y-107149278D01*
X160475736Y-107147118D01*
X160461457Y-107143541D01*
X160447597Y-107138582D01*
X160434290Y-107132288D01*
X160421664Y-107124720D01*
X160409841Y-107115952D01*
X160398934Y-107106066D01*
X160389048Y-107095159D01*
X160380280Y-107083336D01*
X160372712Y-107070710D01*
X160366418Y-107057403D01*
X160361459Y-107043543D01*
X160357882Y-107029264D01*
X160355722Y-107014703D01*
X160355000Y-107000000D01*
X160355000Y-105350000D01*
X160355722Y-105335297D01*
X160357882Y-105320736D01*
X160361459Y-105306457D01*
X160366418Y-105292597D01*
X160372712Y-105279290D01*
X160380280Y-105266664D01*
X160389048Y-105254841D01*
X160398934Y-105243934D01*
X160409841Y-105234048D01*
X160421664Y-105225280D01*
X160434290Y-105217712D01*
X160447597Y-105211418D01*
X160461457Y-105206459D01*
X160475736Y-105202882D01*
X160490297Y-105200722D01*
X160505000Y-105200000D01*
X160805000Y-105200000D01*
X160819703Y-105200722D01*
X160819703Y-105200722D01*
G37*
D13*
X160655000Y-106175000D03*
D12*
G36*
X159549703Y-105200722D02*
G01*
X159564264Y-105202882D01*
X159578543Y-105206459D01*
X159592403Y-105211418D01*
X159605710Y-105217712D01*
X159618336Y-105225280D01*
X159630159Y-105234048D01*
X159641066Y-105243934D01*
X159650952Y-105254841D01*
X159659720Y-105266664D01*
X159667288Y-105279290D01*
X159673582Y-105292597D01*
X159678541Y-105306457D01*
X159682118Y-105320736D01*
X159684278Y-105335297D01*
X159685000Y-105350000D01*
X159685000Y-107000000D01*
X159684278Y-107014703D01*
X159682118Y-107029264D01*
X159678541Y-107043543D01*
X159673582Y-107057403D01*
X159667288Y-107070710D01*
X159659720Y-107083336D01*
X159650952Y-107095159D01*
X159641066Y-107106066D01*
X159630159Y-107115952D01*
X159618336Y-107124720D01*
X159605710Y-107132288D01*
X159592403Y-107138582D01*
X159578543Y-107143541D01*
X159564264Y-107147118D01*
X159549703Y-107149278D01*
X159535000Y-107150000D01*
X159235000Y-107150000D01*
X159220297Y-107149278D01*
X159205736Y-107147118D01*
X159191457Y-107143541D01*
X159177597Y-107138582D01*
X159164290Y-107132288D01*
X159151664Y-107124720D01*
X159139841Y-107115952D01*
X159128934Y-107106066D01*
X159119048Y-107095159D01*
X159110280Y-107083336D01*
X159102712Y-107070710D01*
X159096418Y-107057403D01*
X159091459Y-107043543D01*
X159087882Y-107029264D01*
X159085722Y-107014703D01*
X159085000Y-107000000D01*
X159085000Y-105350000D01*
X159085722Y-105335297D01*
X159087882Y-105320736D01*
X159091459Y-105306457D01*
X159096418Y-105292597D01*
X159102712Y-105279290D01*
X159110280Y-105266664D01*
X159119048Y-105254841D01*
X159128934Y-105243934D01*
X159139841Y-105234048D01*
X159151664Y-105225280D01*
X159164290Y-105217712D01*
X159177597Y-105211418D01*
X159191457Y-105206459D01*
X159205736Y-105202882D01*
X159220297Y-105200722D01*
X159235000Y-105200000D01*
X159535000Y-105200000D01*
X159549703Y-105200722D01*
X159549703Y-105200722D01*
G37*
D13*
X159385000Y-106175000D03*
D12*
G36*
X158279703Y-105200722D02*
G01*
X158294264Y-105202882D01*
X158308543Y-105206459D01*
X158322403Y-105211418D01*
X158335710Y-105217712D01*
X158348336Y-105225280D01*
X158360159Y-105234048D01*
X158371066Y-105243934D01*
X158380952Y-105254841D01*
X158389720Y-105266664D01*
X158397288Y-105279290D01*
X158403582Y-105292597D01*
X158408541Y-105306457D01*
X158412118Y-105320736D01*
X158414278Y-105335297D01*
X158415000Y-105350000D01*
X158415000Y-107000000D01*
X158414278Y-107014703D01*
X158412118Y-107029264D01*
X158408541Y-107043543D01*
X158403582Y-107057403D01*
X158397288Y-107070710D01*
X158389720Y-107083336D01*
X158380952Y-107095159D01*
X158371066Y-107106066D01*
X158360159Y-107115952D01*
X158348336Y-107124720D01*
X158335710Y-107132288D01*
X158322403Y-107138582D01*
X158308543Y-107143541D01*
X158294264Y-107147118D01*
X158279703Y-107149278D01*
X158265000Y-107150000D01*
X157965000Y-107150000D01*
X157950297Y-107149278D01*
X157935736Y-107147118D01*
X157921457Y-107143541D01*
X157907597Y-107138582D01*
X157894290Y-107132288D01*
X157881664Y-107124720D01*
X157869841Y-107115952D01*
X157858934Y-107106066D01*
X157849048Y-107095159D01*
X157840280Y-107083336D01*
X157832712Y-107070710D01*
X157826418Y-107057403D01*
X157821459Y-107043543D01*
X157817882Y-107029264D01*
X157815722Y-107014703D01*
X157815000Y-107000000D01*
X157815000Y-105350000D01*
X157815722Y-105335297D01*
X157817882Y-105320736D01*
X157821459Y-105306457D01*
X157826418Y-105292597D01*
X157832712Y-105279290D01*
X157840280Y-105266664D01*
X157849048Y-105254841D01*
X157858934Y-105243934D01*
X157869841Y-105234048D01*
X157881664Y-105225280D01*
X157894290Y-105217712D01*
X157907597Y-105211418D01*
X157921457Y-105206459D01*
X157935736Y-105202882D01*
X157950297Y-105200722D01*
X157965000Y-105200000D01*
X158265000Y-105200000D01*
X158279703Y-105200722D01*
X158279703Y-105200722D01*
G37*
D13*
X158115000Y-106175000D03*
D12*
G36*
X158279703Y-110150722D02*
G01*
X158294264Y-110152882D01*
X158308543Y-110156459D01*
X158322403Y-110161418D01*
X158335710Y-110167712D01*
X158348336Y-110175280D01*
X158360159Y-110184048D01*
X158371066Y-110193934D01*
X158380952Y-110204841D01*
X158389720Y-110216664D01*
X158397288Y-110229290D01*
X158403582Y-110242597D01*
X158408541Y-110256457D01*
X158412118Y-110270736D01*
X158414278Y-110285297D01*
X158415000Y-110300000D01*
X158415000Y-111950000D01*
X158414278Y-111964703D01*
X158412118Y-111979264D01*
X158408541Y-111993543D01*
X158403582Y-112007403D01*
X158397288Y-112020710D01*
X158389720Y-112033336D01*
X158380952Y-112045159D01*
X158371066Y-112056066D01*
X158360159Y-112065952D01*
X158348336Y-112074720D01*
X158335710Y-112082288D01*
X158322403Y-112088582D01*
X158308543Y-112093541D01*
X158294264Y-112097118D01*
X158279703Y-112099278D01*
X158265000Y-112100000D01*
X157965000Y-112100000D01*
X157950297Y-112099278D01*
X157935736Y-112097118D01*
X157921457Y-112093541D01*
X157907597Y-112088582D01*
X157894290Y-112082288D01*
X157881664Y-112074720D01*
X157869841Y-112065952D01*
X157858934Y-112056066D01*
X157849048Y-112045159D01*
X157840280Y-112033336D01*
X157832712Y-112020710D01*
X157826418Y-112007403D01*
X157821459Y-111993543D01*
X157817882Y-111979264D01*
X157815722Y-111964703D01*
X157815000Y-111950000D01*
X157815000Y-110300000D01*
X157815722Y-110285297D01*
X157817882Y-110270736D01*
X157821459Y-110256457D01*
X157826418Y-110242597D01*
X157832712Y-110229290D01*
X157840280Y-110216664D01*
X157849048Y-110204841D01*
X157858934Y-110193934D01*
X157869841Y-110184048D01*
X157881664Y-110175280D01*
X157894290Y-110167712D01*
X157907597Y-110161418D01*
X157921457Y-110156459D01*
X157935736Y-110152882D01*
X157950297Y-110150722D01*
X157965000Y-110150000D01*
X158265000Y-110150000D01*
X158279703Y-110150722D01*
X158279703Y-110150722D01*
G37*
D13*
X158115000Y-111125000D03*
D12*
G36*
X159549703Y-110150722D02*
G01*
X159564264Y-110152882D01*
X159578543Y-110156459D01*
X159592403Y-110161418D01*
X159605710Y-110167712D01*
X159618336Y-110175280D01*
X159630159Y-110184048D01*
X159641066Y-110193934D01*
X159650952Y-110204841D01*
X159659720Y-110216664D01*
X159667288Y-110229290D01*
X159673582Y-110242597D01*
X159678541Y-110256457D01*
X159682118Y-110270736D01*
X159684278Y-110285297D01*
X159685000Y-110300000D01*
X159685000Y-111950000D01*
X159684278Y-111964703D01*
X159682118Y-111979264D01*
X159678541Y-111993543D01*
X159673582Y-112007403D01*
X159667288Y-112020710D01*
X159659720Y-112033336D01*
X159650952Y-112045159D01*
X159641066Y-112056066D01*
X159630159Y-112065952D01*
X159618336Y-112074720D01*
X159605710Y-112082288D01*
X159592403Y-112088582D01*
X159578543Y-112093541D01*
X159564264Y-112097118D01*
X159549703Y-112099278D01*
X159535000Y-112100000D01*
X159235000Y-112100000D01*
X159220297Y-112099278D01*
X159205736Y-112097118D01*
X159191457Y-112093541D01*
X159177597Y-112088582D01*
X159164290Y-112082288D01*
X159151664Y-112074720D01*
X159139841Y-112065952D01*
X159128934Y-112056066D01*
X159119048Y-112045159D01*
X159110280Y-112033336D01*
X159102712Y-112020710D01*
X159096418Y-112007403D01*
X159091459Y-111993543D01*
X159087882Y-111979264D01*
X159085722Y-111964703D01*
X159085000Y-111950000D01*
X159085000Y-110300000D01*
X159085722Y-110285297D01*
X159087882Y-110270736D01*
X159091459Y-110256457D01*
X159096418Y-110242597D01*
X159102712Y-110229290D01*
X159110280Y-110216664D01*
X159119048Y-110204841D01*
X159128934Y-110193934D01*
X159139841Y-110184048D01*
X159151664Y-110175280D01*
X159164290Y-110167712D01*
X159177597Y-110161418D01*
X159191457Y-110156459D01*
X159205736Y-110152882D01*
X159220297Y-110150722D01*
X159235000Y-110150000D01*
X159535000Y-110150000D01*
X159549703Y-110150722D01*
X159549703Y-110150722D01*
G37*
D13*
X159385000Y-111125000D03*
D12*
G36*
X160819703Y-110150722D02*
G01*
X160834264Y-110152882D01*
X160848543Y-110156459D01*
X160862403Y-110161418D01*
X160875710Y-110167712D01*
X160888336Y-110175280D01*
X160900159Y-110184048D01*
X160911066Y-110193934D01*
X160920952Y-110204841D01*
X160929720Y-110216664D01*
X160937288Y-110229290D01*
X160943582Y-110242597D01*
X160948541Y-110256457D01*
X160952118Y-110270736D01*
X160954278Y-110285297D01*
X160955000Y-110300000D01*
X160955000Y-111950000D01*
X160954278Y-111964703D01*
X160952118Y-111979264D01*
X160948541Y-111993543D01*
X160943582Y-112007403D01*
X160937288Y-112020710D01*
X160929720Y-112033336D01*
X160920952Y-112045159D01*
X160911066Y-112056066D01*
X160900159Y-112065952D01*
X160888336Y-112074720D01*
X160875710Y-112082288D01*
X160862403Y-112088582D01*
X160848543Y-112093541D01*
X160834264Y-112097118D01*
X160819703Y-112099278D01*
X160805000Y-112100000D01*
X160505000Y-112100000D01*
X160490297Y-112099278D01*
X160475736Y-112097118D01*
X160461457Y-112093541D01*
X160447597Y-112088582D01*
X160434290Y-112082288D01*
X160421664Y-112074720D01*
X160409841Y-112065952D01*
X160398934Y-112056066D01*
X160389048Y-112045159D01*
X160380280Y-112033336D01*
X160372712Y-112020710D01*
X160366418Y-112007403D01*
X160361459Y-111993543D01*
X160357882Y-111979264D01*
X160355722Y-111964703D01*
X160355000Y-111950000D01*
X160355000Y-110300000D01*
X160355722Y-110285297D01*
X160357882Y-110270736D01*
X160361459Y-110256457D01*
X160366418Y-110242597D01*
X160372712Y-110229290D01*
X160380280Y-110216664D01*
X160389048Y-110204841D01*
X160398934Y-110193934D01*
X160409841Y-110184048D01*
X160421664Y-110175280D01*
X160434290Y-110167712D01*
X160447597Y-110161418D01*
X160461457Y-110156459D01*
X160475736Y-110152882D01*
X160490297Y-110150722D01*
X160505000Y-110150000D01*
X160805000Y-110150000D01*
X160819703Y-110150722D01*
X160819703Y-110150722D01*
G37*
D13*
X160655000Y-111125000D03*
D12*
G36*
X162089703Y-110150722D02*
G01*
X162104264Y-110152882D01*
X162118543Y-110156459D01*
X162132403Y-110161418D01*
X162145710Y-110167712D01*
X162158336Y-110175280D01*
X162170159Y-110184048D01*
X162181066Y-110193934D01*
X162190952Y-110204841D01*
X162199720Y-110216664D01*
X162207288Y-110229290D01*
X162213582Y-110242597D01*
X162218541Y-110256457D01*
X162222118Y-110270736D01*
X162224278Y-110285297D01*
X162225000Y-110300000D01*
X162225000Y-111950000D01*
X162224278Y-111964703D01*
X162222118Y-111979264D01*
X162218541Y-111993543D01*
X162213582Y-112007403D01*
X162207288Y-112020710D01*
X162199720Y-112033336D01*
X162190952Y-112045159D01*
X162181066Y-112056066D01*
X162170159Y-112065952D01*
X162158336Y-112074720D01*
X162145710Y-112082288D01*
X162132403Y-112088582D01*
X162118543Y-112093541D01*
X162104264Y-112097118D01*
X162089703Y-112099278D01*
X162075000Y-112100000D01*
X161775000Y-112100000D01*
X161760297Y-112099278D01*
X161745736Y-112097118D01*
X161731457Y-112093541D01*
X161717597Y-112088582D01*
X161704290Y-112082288D01*
X161691664Y-112074720D01*
X161679841Y-112065952D01*
X161668934Y-112056066D01*
X161659048Y-112045159D01*
X161650280Y-112033336D01*
X161642712Y-112020710D01*
X161636418Y-112007403D01*
X161631459Y-111993543D01*
X161627882Y-111979264D01*
X161625722Y-111964703D01*
X161625000Y-111950000D01*
X161625000Y-110300000D01*
X161625722Y-110285297D01*
X161627882Y-110270736D01*
X161631459Y-110256457D01*
X161636418Y-110242597D01*
X161642712Y-110229290D01*
X161650280Y-110216664D01*
X161659048Y-110204841D01*
X161668934Y-110193934D01*
X161679841Y-110184048D01*
X161691664Y-110175280D01*
X161704290Y-110167712D01*
X161717597Y-110161418D01*
X161731457Y-110156459D01*
X161745736Y-110152882D01*
X161760297Y-110150722D01*
X161775000Y-110150000D01*
X162075000Y-110150000D01*
X162089703Y-110150722D01*
X162089703Y-110150722D01*
G37*
D13*
X161925000Y-111125000D03*
D12*
G36*
X166472905Y-94678204D02*
G01*
X166497173Y-94681804D01*
X166520972Y-94687765D01*
X166544071Y-94696030D01*
X166566250Y-94706520D01*
X166587293Y-94719132D01*
X166606999Y-94733747D01*
X166625177Y-94750223D01*
X166641653Y-94768401D01*
X166656268Y-94788107D01*
X166668880Y-94809150D01*
X166679370Y-94831329D01*
X166687635Y-94854428D01*
X166693596Y-94878227D01*
X166697196Y-94902495D01*
X166698400Y-94926999D01*
X166698400Y-95827001D01*
X166697196Y-95851505D01*
X166693596Y-95875773D01*
X166687635Y-95899572D01*
X166679370Y-95922671D01*
X166668880Y-95944850D01*
X166656268Y-95965893D01*
X166641653Y-95985599D01*
X166625177Y-96003777D01*
X166606999Y-96020253D01*
X166587293Y-96034868D01*
X166566250Y-96047480D01*
X166544071Y-96057970D01*
X166520972Y-96066235D01*
X166497173Y-96072196D01*
X166472905Y-96075796D01*
X166448401Y-96077000D01*
X165798399Y-96077000D01*
X165773895Y-96075796D01*
X165749627Y-96072196D01*
X165725828Y-96066235D01*
X165702729Y-96057970D01*
X165680550Y-96047480D01*
X165659507Y-96034868D01*
X165639801Y-96020253D01*
X165621623Y-96003777D01*
X165605147Y-95985599D01*
X165590532Y-95965893D01*
X165577920Y-95944850D01*
X165567430Y-95922671D01*
X165559165Y-95899572D01*
X165553204Y-95875773D01*
X165549604Y-95851505D01*
X165548400Y-95827001D01*
X165548400Y-94926999D01*
X165549604Y-94902495D01*
X165553204Y-94878227D01*
X165559165Y-94854428D01*
X165567430Y-94831329D01*
X165577920Y-94809150D01*
X165590532Y-94788107D01*
X165605147Y-94768401D01*
X165621623Y-94750223D01*
X165639801Y-94733747D01*
X165659507Y-94719132D01*
X165680550Y-94706520D01*
X165702729Y-94696030D01*
X165725828Y-94687765D01*
X165749627Y-94681804D01*
X165773895Y-94678204D01*
X165798399Y-94677000D01*
X166448401Y-94677000D01*
X166472905Y-94678204D01*
X166472905Y-94678204D01*
G37*
D14*
X166123400Y-95377000D03*
D12*
G36*
X168522905Y-94678204D02*
G01*
X168547173Y-94681804D01*
X168570972Y-94687765D01*
X168594071Y-94696030D01*
X168616250Y-94706520D01*
X168637293Y-94719132D01*
X168656999Y-94733747D01*
X168675177Y-94750223D01*
X168691653Y-94768401D01*
X168706268Y-94788107D01*
X168718880Y-94809150D01*
X168729370Y-94831329D01*
X168737635Y-94854428D01*
X168743596Y-94878227D01*
X168747196Y-94902495D01*
X168748400Y-94926999D01*
X168748400Y-95827001D01*
X168747196Y-95851505D01*
X168743596Y-95875773D01*
X168737635Y-95899572D01*
X168729370Y-95922671D01*
X168718880Y-95944850D01*
X168706268Y-95965893D01*
X168691653Y-95985599D01*
X168675177Y-96003777D01*
X168656999Y-96020253D01*
X168637293Y-96034868D01*
X168616250Y-96047480D01*
X168594071Y-96057970D01*
X168570972Y-96066235D01*
X168547173Y-96072196D01*
X168522905Y-96075796D01*
X168498401Y-96077000D01*
X167848399Y-96077000D01*
X167823895Y-96075796D01*
X167799627Y-96072196D01*
X167775828Y-96066235D01*
X167752729Y-96057970D01*
X167730550Y-96047480D01*
X167709507Y-96034868D01*
X167689801Y-96020253D01*
X167671623Y-96003777D01*
X167655147Y-95985599D01*
X167640532Y-95965893D01*
X167627920Y-95944850D01*
X167617430Y-95922671D01*
X167609165Y-95899572D01*
X167603204Y-95875773D01*
X167599604Y-95851505D01*
X167598400Y-95827001D01*
X167598400Y-94926999D01*
X167599604Y-94902495D01*
X167603204Y-94878227D01*
X167609165Y-94854428D01*
X167617430Y-94831329D01*
X167627920Y-94809150D01*
X167640532Y-94788107D01*
X167655147Y-94768401D01*
X167671623Y-94750223D01*
X167689801Y-94733747D01*
X167709507Y-94719132D01*
X167730550Y-94706520D01*
X167752729Y-94696030D01*
X167775828Y-94687765D01*
X167799627Y-94681804D01*
X167823895Y-94678204D01*
X167848399Y-94677000D01*
X168498401Y-94677000D01*
X168522905Y-94678204D01*
X168522905Y-94678204D01*
G37*
D14*
X168173400Y-95377000D03*
D12*
G36*
X158642305Y-100850404D02*
G01*
X158666573Y-100854004D01*
X158690372Y-100859965D01*
X158713471Y-100868230D01*
X158735650Y-100878720D01*
X158756693Y-100891332D01*
X158776399Y-100905947D01*
X158794577Y-100922423D01*
X158811053Y-100940601D01*
X158825668Y-100960307D01*
X158838280Y-100981350D01*
X158848770Y-101003529D01*
X158857035Y-101026628D01*
X158862996Y-101050427D01*
X158866596Y-101074695D01*
X158867800Y-101099199D01*
X158867800Y-101999201D01*
X158866596Y-102023705D01*
X158862996Y-102047973D01*
X158857035Y-102071772D01*
X158848770Y-102094871D01*
X158838280Y-102117050D01*
X158825668Y-102138093D01*
X158811053Y-102157799D01*
X158794577Y-102175977D01*
X158776399Y-102192453D01*
X158756693Y-102207068D01*
X158735650Y-102219680D01*
X158713471Y-102230170D01*
X158690372Y-102238435D01*
X158666573Y-102244396D01*
X158642305Y-102247996D01*
X158617801Y-102249200D01*
X157967799Y-102249200D01*
X157943295Y-102247996D01*
X157919027Y-102244396D01*
X157895228Y-102238435D01*
X157872129Y-102230170D01*
X157849950Y-102219680D01*
X157828907Y-102207068D01*
X157809201Y-102192453D01*
X157791023Y-102175977D01*
X157774547Y-102157799D01*
X157759932Y-102138093D01*
X157747320Y-102117050D01*
X157736830Y-102094871D01*
X157728565Y-102071772D01*
X157722604Y-102047973D01*
X157719004Y-102023705D01*
X157717800Y-101999201D01*
X157717800Y-101099199D01*
X157719004Y-101074695D01*
X157722604Y-101050427D01*
X157728565Y-101026628D01*
X157736830Y-101003529D01*
X157747320Y-100981350D01*
X157759932Y-100960307D01*
X157774547Y-100940601D01*
X157791023Y-100922423D01*
X157809201Y-100905947D01*
X157828907Y-100891332D01*
X157849950Y-100878720D01*
X157872129Y-100868230D01*
X157895228Y-100859965D01*
X157919027Y-100854004D01*
X157943295Y-100850404D01*
X157967799Y-100849200D01*
X158617801Y-100849200D01*
X158642305Y-100850404D01*
X158642305Y-100850404D01*
G37*
D14*
X158292800Y-101549200D03*
D12*
G36*
X156592305Y-100850404D02*
G01*
X156616573Y-100854004D01*
X156640372Y-100859965D01*
X156663471Y-100868230D01*
X156685650Y-100878720D01*
X156706693Y-100891332D01*
X156726399Y-100905947D01*
X156744577Y-100922423D01*
X156761053Y-100940601D01*
X156775668Y-100960307D01*
X156788280Y-100981350D01*
X156798770Y-101003529D01*
X156807035Y-101026628D01*
X156812996Y-101050427D01*
X156816596Y-101074695D01*
X156817800Y-101099199D01*
X156817800Y-101999201D01*
X156816596Y-102023705D01*
X156812996Y-102047973D01*
X156807035Y-102071772D01*
X156798770Y-102094871D01*
X156788280Y-102117050D01*
X156775668Y-102138093D01*
X156761053Y-102157799D01*
X156744577Y-102175977D01*
X156726399Y-102192453D01*
X156706693Y-102207068D01*
X156685650Y-102219680D01*
X156663471Y-102230170D01*
X156640372Y-102238435D01*
X156616573Y-102244396D01*
X156592305Y-102247996D01*
X156567801Y-102249200D01*
X155917799Y-102249200D01*
X155893295Y-102247996D01*
X155869027Y-102244396D01*
X155845228Y-102238435D01*
X155822129Y-102230170D01*
X155799950Y-102219680D01*
X155778907Y-102207068D01*
X155759201Y-102192453D01*
X155741023Y-102175977D01*
X155724547Y-102157799D01*
X155709932Y-102138093D01*
X155697320Y-102117050D01*
X155686830Y-102094871D01*
X155678565Y-102071772D01*
X155672604Y-102047973D01*
X155669004Y-102023705D01*
X155667800Y-101999201D01*
X155667800Y-101099199D01*
X155669004Y-101074695D01*
X155672604Y-101050427D01*
X155678565Y-101026628D01*
X155686830Y-101003529D01*
X155697320Y-100981350D01*
X155709932Y-100960307D01*
X155724547Y-100940601D01*
X155741023Y-100922423D01*
X155759201Y-100905947D01*
X155778907Y-100891332D01*
X155799950Y-100878720D01*
X155822129Y-100868230D01*
X155845228Y-100859965D01*
X155869027Y-100854004D01*
X155893295Y-100850404D01*
X155917799Y-100849200D01*
X156567801Y-100849200D01*
X156592305Y-100850404D01*
X156592305Y-100850404D01*
G37*
D14*
X156242800Y-101549200D03*
D12*
G36*
X150826505Y-106870204D02*
G01*
X150850773Y-106873804D01*
X150874572Y-106879765D01*
X150897671Y-106888030D01*
X150919850Y-106898520D01*
X150940893Y-106911132D01*
X150960599Y-106925747D01*
X150978777Y-106942223D01*
X150995253Y-106960401D01*
X151009868Y-106980107D01*
X151022480Y-107001150D01*
X151032970Y-107023329D01*
X151041235Y-107046428D01*
X151047196Y-107070227D01*
X151050796Y-107094495D01*
X151052000Y-107118999D01*
X151052000Y-108019001D01*
X151050796Y-108043505D01*
X151047196Y-108067773D01*
X151041235Y-108091572D01*
X151032970Y-108114671D01*
X151022480Y-108136850D01*
X151009868Y-108157893D01*
X150995253Y-108177599D01*
X150978777Y-108195777D01*
X150960599Y-108212253D01*
X150940893Y-108226868D01*
X150919850Y-108239480D01*
X150897671Y-108249970D01*
X150874572Y-108258235D01*
X150850773Y-108264196D01*
X150826505Y-108267796D01*
X150802001Y-108269000D01*
X150151999Y-108269000D01*
X150127495Y-108267796D01*
X150103227Y-108264196D01*
X150079428Y-108258235D01*
X150056329Y-108249970D01*
X150034150Y-108239480D01*
X150013107Y-108226868D01*
X149993401Y-108212253D01*
X149975223Y-108195777D01*
X149958747Y-108177599D01*
X149944132Y-108157893D01*
X149931520Y-108136850D01*
X149921030Y-108114671D01*
X149912765Y-108091572D01*
X149906804Y-108067773D01*
X149903204Y-108043505D01*
X149902000Y-108019001D01*
X149902000Y-107118999D01*
X149903204Y-107094495D01*
X149906804Y-107070227D01*
X149912765Y-107046428D01*
X149921030Y-107023329D01*
X149931520Y-107001150D01*
X149944132Y-106980107D01*
X149958747Y-106960401D01*
X149975223Y-106942223D01*
X149993401Y-106925747D01*
X150013107Y-106911132D01*
X150034150Y-106898520D01*
X150056329Y-106888030D01*
X150079428Y-106879765D01*
X150103227Y-106873804D01*
X150127495Y-106870204D01*
X150151999Y-106869000D01*
X150802001Y-106869000D01*
X150826505Y-106870204D01*
X150826505Y-106870204D01*
G37*
D14*
X150477000Y-107569000D03*
D12*
G36*
X152876505Y-106870204D02*
G01*
X152900773Y-106873804D01*
X152924572Y-106879765D01*
X152947671Y-106888030D01*
X152969850Y-106898520D01*
X152990893Y-106911132D01*
X153010599Y-106925747D01*
X153028777Y-106942223D01*
X153045253Y-106960401D01*
X153059868Y-106980107D01*
X153072480Y-107001150D01*
X153082970Y-107023329D01*
X153091235Y-107046428D01*
X153097196Y-107070227D01*
X153100796Y-107094495D01*
X153102000Y-107118999D01*
X153102000Y-108019001D01*
X153100796Y-108043505D01*
X153097196Y-108067773D01*
X153091235Y-108091572D01*
X153082970Y-108114671D01*
X153072480Y-108136850D01*
X153059868Y-108157893D01*
X153045253Y-108177599D01*
X153028777Y-108195777D01*
X153010599Y-108212253D01*
X152990893Y-108226868D01*
X152969850Y-108239480D01*
X152947671Y-108249970D01*
X152924572Y-108258235D01*
X152900773Y-108264196D01*
X152876505Y-108267796D01*
X152852001Y-108269000D01*
X152201999Y-108269000D01*
X152177495Y-108267796D01*
X152153227Y-108264196D01*
X152129428Y-108258235D01*
X152106329Y-108249970D01*
X152084150Y-108239480D01*
X152063107Y-108226868D01*
X152043401Y-108212253D01*
X152025223Y-108195777D01*
X152008747Y-108177599D01*
X151994132Y-108157893D01*
X151981520Y-108136850D01*
X151971030Y-108114671D01*
X151962765Y-108091572D01*
X151956804Y-108067773D01*
X151953204Y-108043505D01*
X151952000Y-108019001D01*
X151952000Y-107118999D01*
X151953204Y-107094495D01*
X151956804Y-107070227D01*
X151962765Y-107046428D01*
X151971030Y-107023329D01*
X151981520Y-107001150D01*
X151994132Y-106980107D01*
X152008747Y-106960401D01*
X152025223Y-106942223D01*
X152043401Y-106925747D01*
X152063107Y-106911132D01*
X152084150Y-106898520D01*
X152106329Y-106888030D01*
X152129428Y-106879765D01*
X152153227Y-106873804D01*
X152177495Y-106870204D01*
X152201999Y-106869000D01*
X152852001Y-106869000D01*
X152876505Y-106870204D01*
X152876505Y-106870204D01*
G37*
D14*
X152527000Y-107569000D03*
D15*
X163258500Y-86360000D03*
X172021500Y-86360000D03*
X148018500Y-86360000D03*
X156781500Y-86360000D03*
D16*
X165240000Y-117880000D03*
D17*
X164990000Y-118900000D03*
D18*
X156105000Y-113375000D03*
D19*
X156620000Y-113375000D03*
X157020000Y-113375000D03*
X157420000Y-113375000D03*
X157820000Y-113375000D03*
X158220000Y-113375000D03*
X158620000Y-113375000D03*
X159020000Y-113375000D03*
X159420000Y-113375000D03*
X159820000Y-113375000D03*
X160220000Y-113375000D03*
X160620000Y-113375000D03*
X161020000Y-113375000D03*
X161420000Y-113375000D03*
X161820000Y-113375000D03*
X162220000Y-113375000D03*
X162620000Y-113375000D03*
X163020000Y-113375000D03*
D18*
X163935000Y-113375000D03*
D19*
X163420000Y-113375000D03*
D16*
X165240000Y-119920000D03*
D17*
X155050000Y-118900000D03*
D16*
X154850000Y-117880000D03*
X154850000Y-119920000D03*
D12*
G36*
X168522905Y-96761004D02*
G01*
X168547173Y-96764604D01*
X168570972Y-96770565D01*
X168594071Y-96778830D01*
X168616250Y-96789320D01*
X168637293Y-96801932D01*
X168656999Y-96816547D01*
X168675177Y-96833023D01*
X168691653Y-96851201D01*
X168706268Y-96870907D01*
X168718880Y-96891950D01*
X168729370Y-96914129D01*
X168737635Y-96937228D01*
X168743596Y-96961027D01*
X168747196Y-96985295D01*
X168748400Y-97009799D01*
X168748400Y-97909801D01*
X168747196Y-97934305D01*
X168743596Y-97958573D01*
X168737635Y-97982372D01*
X168729370Y-98005471D01*
X168718880Y-98027650D01*
X168706268Y-98048693D01*
X168691653Y-98068399D01*
X168675177Y-98086577D01*
X168656999Y-98103053D01*
X168637293Y-98117668D01*
X168616250Y-98130280D01*
X168594071Y-98140770D01*
X168570972Y-98149035D01*
X168547173Y-98154996D01*
X168522905Y-98158596D01*
X168498401Y-98159800D01*
X167848399Y-98159800D01*
X167823895Y-98158596D01*
X167799627Y-98154996D01*
X167775828Y-98149035D01*
X167752729Y-98140770D01*
X167730550Y-98130280D01*
X167709507Y-98117668D01*
X167689801Y-98103053D01*
X167671623Y-98086577D01*
X167655147Y-98068399D01*
X167640532Y-98048693D01*
X167627920Y-98027650D01*
X167617430Y-98005471D01*
X167609165Y-97982372D01*
X167603204Y-97958573D01*
X167599604Y-97934305D01*
X167598400Y-97909801D01*
X167598400Y-97009799D01*
X167599604Y-96985295D01*
X167603204Y-96961027D01*
X167609165Y-96937228D01*
X167617430Y-96914129D01*
X167627920Y-96891950D01*
X167640532Y-96870907D01*
X167655147Y-96851201D01*
X167671623Y-96833023D01*
X167689801Y-96816547D01*
X167709507Y-96801932D01*
X167730550Y-96789320D01*
X167752729Y-96778830D01*
X167775828Y-96770565D01*
X167799627Y-96764604D01*
X167823895Y-96761004D01*
X167848399Y-96759800D01*
X168498401Y-96759800D01*
X168522905Y-96761004D01*
X168522905Y-96761004D01*
G37*
D14*
X168173400Y-97459800D03*
D12*
G36*
X166472905Y-96761004D02*
G01*
X166497173Y-96764604D01*
X166520972Y-96770565D01*
X166544071Y-96778830D01*
X166566250Y-96789320D01*
X166587293Y-96801932D01*
X166606999Y-96816547D01*
X166625177Y-96833023D01*
X166641653Y-96851201D01*
X166656268Y-96870907D01*
X166668880Y-96891950D01*
X166679370Y-96914129D01*
X166687635Y-96937228D01*
X166693596Y-96961027D01*
X166697196Y-96985295D01*
X166698400Y-97009799D01*
X166698400Y-97909801D01*
X166697196Y-97934305D01*
X166693596Y-97958573D01*
X166687635Y-97982372D01*
X166679370Y-98005471D01*
X166668880Y-98027650D01*
X166656268Y-98048693D01*
X166641653Y-98068399D01*
X166625177Y-98086577D01*
X166606999Y-98103053D01*
X166587293Y-98117668D01*
X166566250Y-98130280D01*
X166544071Y-98140770D01*
X166520972Y-98149035D01*
X166497173Y-98154996D01*
X166472905Y-98158596D01*
X166448401Y-98159800D01*
X165798399Y-98159800D01*
X165773895Y-98158596D01*
X165749627Y-98154996D01*
X165725828Y-98149035D01*
X165702729Y-98140770D01*
X165680550Y-98130280D01*
X165659507Y-98117668D01*
X165639801Y-98103053D01*
X165621623Y-98086577D01*
X165605147Y-98068399D01*
X165590532Y-98048693D01*
X165577920Y-98027650D01*
X165567430Y-98005471D01*
X165559165Y-97982372D01*
X165553204Y-97958573D01*
X165549604Y-97934305D01*
X165548400Y-97909801D01*
X165548400Y-97009799D01*
X165549604Y-96985295D01*
X165553204Y-96961027D01*
X165559165Y-96937228D01*
X165567430Y-96914129D01*
X165577920Y-96891950D01*
X165590532Y-96870907D01*
X165605147Y-96851201D01*
X165621623Y-96833023D01*
X165639801Y-96816547D01*
X165659507Y-96801932D01*
X165680550Y-96789320D01*
X165702729Y-96778830D01*
X165725828Y-96770565D01*
X165749627Y-96764604D01*
X165773895Y-96761004D01*
X165798399Y-96759800D01*
X166448401Y-96759800D01*
X166472905Y-96761004D01*
X166472905Y-96761004D01*
G37*
D14*
X166123400Y-97459800D03*
D12*
G36*
X166033705Y-110375404D02*
G01*
X166057973Y-110379004D01*
X166081772Y-110384965D01*
X166104871Y-110393230D01*
X166127050Y-110403720D01*
X166148093Y-110416332D01*
X166167799Y-110430947D01*
X166185977Y-110447423D01*
X166202453Y-110465601D01*
X166217068Y-110485307D01*
X166229680Y-110506350D01*
X166240170Y-110528529D01*
X166248435Y-110551628D01*
X166254396Y-110575427D01*
X166257996Y-110599695D01*
X166259200Y-110624199D01*
X166259200Y-111524201D01*
X166257996Y-111548705D01*
X166254396Y-111572973D01*
X166248435Y-111596772D01*
X166240170Y-111619871D01*
X166229680Y-111642050D01*
X166217068Y-111663093D01*
X166202453Y-111682799D01*
X166185977Y-111700977D01*
X166167799Y-111717453D01*
X166148093Y-111732068D01*
X166127050Y-111744680D01*
X166104871Y-111755170D01*
X166081772Y-111763435D01*
X166057973Y-111769396D01*
X166033705Y-111772996D01*
X166009201Y-111774200D01*
X165359199Y-111774200D01*
X165334695Y-111772996D01*
X165310427Y-111769396D01*
X165286628Y-111763435D01*
X165263529Y-111755170D01*
X165241350Y-111744680D01*
X165220307Y-111732068D01*
X165200601Y-111717453D01*
X165182423Y-111700977D01*
X165165947Y-111682799D01*
X165151332Y-111663093D01*
X165138720Y-111642050D01*
X165128230Y-111619871D01*
X165119965Y-111596772D01*
X165114004Y-111572973D01*
X165110404Y-111548705D01*
X165109200Y-111524201D01*
X165109200Y-110624199D01*
X165110404Y-110599695D01*
X165114004Y-110575427D01*
X165119965Y-110551628D01*
X165128230Y-110528529D01*
X165138720Y-110506350D01*
X165151332Y-110485307D01*
X165165947Y-110465601D01*
X165182423Y-110447423D01*
X165200601Y-110430947D01*
X165220307Y-110416332D01*
X165241350Y-110403720D01*
X165263529Y-110393230D01*
X165286628Y-110384965D01*
X165310427Y-110379004D01*
X165334695Y-110375404D01*
X165359199Y-110374200D01*
X166009201Y-110374200D01*
X166033705Y-110375404D01*
X166033705Y-110375404D01*
G37*
D14*
X165684200Y-111074200D03*
D12*
G36*
X163983705Y-110375404D02*
G01*
X164007973Y-110379004D01*
X164031772Y-110384965D01*
X164054871Y-110393230D01*
X164077050Y-110403720D01*
X164098093Y-110416332D01*
X164117799Y-110430947D01*
X164135977Y-110447423D01*
X164152453Y-110465601D01*
X164167068Y-110485307D01*
X164179680Y-110506350D01*
X164190170Y-110528529D01*
X164198435Y-110551628D01*
X164204396Y-110575427D01*
X164207996Y-110599695D01*
X164209200Y-110624199D01*
X164209200Y-111524201D01*
X164207996Y-111548705D01*
X164204396Y-111572973D01*
X164198435Y-111596772D01*
X164190170Y-111619871D01*
X164179680Y-111642050D01*
X164167068Y-111663093D01*
X164152453Y-111682799D01*
X164135977Y-111700977D01*
X164117799Y-111717453D01*
X164098093Y-111732068D01*
X164077050Y-111744680D01*
X164054871Y-111755170D01*
X164031772Y-111763435D01*
X164007973Y-111769396D01*
X163983705Y-111772996D01*
X163959201Y-111774200D01*
X163309199Y-111774200D01*
X163284695Y-111772996D01*
X163260427Y-111769396D01*
X163236628Y-111763435D01*
X163213529Y-111755170D01*
X163191350Y-111744680D01*
X163170307Y-111732068D01*
X163150601Y-111717453D01*
X163132423Y-111700977D01*
X163115947Y-111682799D01*
X163101332Y-111663093D01*
X163088720Y-111642050D01*
X163078230Y-111619871D01*
X163069965Y-111596772D01*
X163064004Y-111572973D01*
X163060404Y-111548705D01*
X163059200Y-111524201D01*
X163059200Y-110624199D01*
X163060404Y-110599695D01*
X163064004Y-110575427D01*
X163069965Y-110551628D01*
X163078230Y-110528529D01*
X163088720Y-110506350D01*
X163101332Y-110485307D01*
X163115947Y-110465601D01*
X163132423Y-110447423D01*
X163150601Y-110430947D01*
X163170307Y-110416332D01*
X163191350Y-110403720D01*
X163213529Y-110393230D01*
X163236628Y-110384965D01*
X163260427Y-110379004D01*
X163284695Y-110375404D01*
X163309199Y-110374200D01*
X163959201Y-110374200D01*
X163983705Y-110375404D01*
X163983705Y-110375404D01*
G37*
D14*
X163634200Y-111074200D03*
M02*
