<?xml version="1.0" standalone="no"?>
 <!DOCTYPE svg PUBLIC "-//W3C//DTD SVG 1.1//EN" 
 "http://www.w3.org/Graphics/SVG/1.1/DTD/svg11.dtd"> 
<svg xmlns="http://www.w3.org/2000/svg" version="1.1" 
    width="29.7002cm" height="21.0007cm" viewBox="0 0 116930 82680 ">
<title>SVG Picture created as neo8_adapter-B_Cu.svg date 2020/02/13 12:15:50 </title>
  <desc>Picture generated by PCBNEW </desc>
<g style="fill:#000000; fill-opacity:1;stroke:#000000; stroke-opacity:1;
stroke-linecap:round; stroke-linejoin:round; "
 transform="translate(0 0) scale(1 1)">
</g>
<g style="fill:#000000; fill-opacity:0.0; 
stroke:#000000; stroke-width:-0.000393701; stroke-opacity:1; 
stroke-linecap:round; stroke-linejoin:round;">
<g >
</g>
<g >
</g>
<g >
</g>
<g style="fill:#000000; fill-opacity:0.0; 
stroke:#000000; stroke-width:-0.000393701; stroke-opacity:1; 
stroke-linecap:round; stroke-linejoin:round;">
</g>
<g style="fill:#000000; fill-opacity:0.0; 
stroke:#000000; stroke-width:0; stroke-opacity:1; 
stroke-linecap:round; stroke-linejoin:round;">
</g>
<g style="fill:#000000; fill-opacity:1.0; 
stroke:#000000; stroke-width:0; stroke-opacity:1; 
stroke-linecap:round; stroke-linejoin:round;">
<path style="fill:#000000; fill-opacity:1.0; 
stroke:#000000; stroke-width:0; stroke-opacity:1; 
stroke-linecap:round; stroke-linejoin:round;fill-rule:evenodd;"
d="M 66208,38886
66208,39752
64711,39752
64711,38886
66208,38886
Z" /> 
<path style="fill:#000000; fill-opacity:1.0; 
stroke:#000000; stroke-width:0; stroke-opacity:1; 
stroke-linecap:round; stroke-linejoin:round;fill-rule:evenodd;"
d="M 66660,41367
66660,42233
66070,42233
66070,41367
66660,41367
Z" /> 
<path style="fill:#000000; fill-opacity:1.0; 
stroke:#000000; stroke-width:0; stroke-opacity:1; 
stroke-linecap:round; stroke-linejoin:round;fill-rule:evenodd;"
d="M 65755,41367
65755,42233
65164,42233
65164,41367
65755,41367
Z" /> 
<path style="fill:#000000; fill-opacity:1.0; 
stroke:#000000; stroke-width:0; stroke-opacity:1; 
stroke-linecap:round; stroke-linejoin:round;fill-rule:evenodd;"
d="M 64849,41367
64849,42233
64259,42233
64259,41367
64849,41367
Z" /> 
</g>
<g >
</g>
<g >
</g>
<g style="fill:#000000; fill-opacity:1.0; 
stroke:#000000; stroke-width:0; stroke-opacity:1; 
stroke-linecap:round; stroke-linejoin:round;">
<path style="fill:#000000; fill-opacity:1.0; 
stroke:#000000; stroke-width:0; stroke-opacity:1; 
stroke-linecap:round; stroke-linejoin:round;fill-rule:evenodd;"
d="M 63814,41417
63820,41418
63826,41419
63831,41421
63836,41424
63841,41427
63846,41430
63850,41434
63854,41438
63858,41443
63861,41448
63863,41453
63865,41459
63866,41464
63867,41470
63868,41476
63868,42125
63867,42131
63866,42137
63865,42143
63863,42148
63861,42153
63858,42158
63854,42163
63850,42167
63846,42171
63841,42175
63836,42178
63831,42180
63826,42182
63820,42183
63814,42184
63809,42185
63690,42185
63685,42184
63679,42183
63673,42182
63668,42180
63663,42178
63658,42175
63653,42171
63649,42167
63645,42163
63641,42158
63638,42153
63636,42148
63634,42143
63633,42137
63632,42131
63631,42125
63631,41476
63632,41470
63633,41464
63634,41459
63636,41453
63638,41448
63641,41443
63645,41438
63649,41434
63653,41430
63658,41427
63663,41424
63668,41421
63673,41419
63679,41418
63685,41417
63690,41417
63809,41417
63814,41417
Z" /> 
<path style="fill:#000000; fill-opacity:1.0; 
stroke:#000000; stroke-width:0; stroke-opacity:1; 
stroke-linecap:round; stroke-linejoin:round;fill-rule:evenodd;"
d="M 63314,41417
63320,41418
63326,41419
63331,41421
63336,41424
63341,41427
63346,41430
63350,41434
63354,41438
63358,41443
63361,41448
63363,41453
63365,41459
63366,41464
63367,41470
63368,41476
63368,42125
63367,42131
63366,42137
63365,42143
63363,42148
63361,42153
63358,42158
63354,42163
63350,42167
63346,42171
63341,42175
63336,42178
63331,42180
63326,42182
63320,42183
63314,42184
63309,42185
63190,42185
63185,42184
63179,42183
63173,42182
63168,42180
63163,42178
63158,42175
63153,42171
63149,42167
63145,42163
63141,42158
63138,42153
63136,42148
63134,42143
63133,42137
63132,42131
63131,42125
63131,41476
63132,41470
63133,41464
63134,41459
63136,41453
63138,41448
63141,41443
63145,41438
63149,41434
63153,41430
63158,41427
63163,41424
63168,41421
63173,41419
63179,41418
63185,41417
63190,41417
63309,41417
63314,41417
Z" /> 
<path style="fill:#000000; fill-opacity:1.0; 
stroke:#000000; stroke-width:0; stroke-opacity:1; 
stroke-linecap:round; stroke-linejoin:round;fill-rule:evenodd;"
d="M 62814,41417
62820,41418
62826,41419
62831,41421
62836,41424
62841,41427
62846,41430
62850,41434
62854,41438
62858,41443
62861,41448
62863,41453
62865,41459
62866,41464
62867,41470
62868,41476
62868,42125
62867,42131
62866,42137
62865,42143
62863,42148
62861,42153
62858,42158
62854,42163
62850,42167
62846,42171
62841,42175
62836,42178
62831,42180
62826,42182
62820,42183
62814,42184
62809,42185
62690,42185
62685,42184
62679,42183
62673,42182
62668,42180
62663,42178
62658,42175
62653,42171
62649,42167
62645,42163
62641,42158
62638,42153
62636,42148
62634,42143
62633,42137
62632,42131
62631,42125
62631,41476
62632,41470
62633,41464
62634,41459
62636,41453
62638,41448
62641,41443
62645,41438
62649,41434
62653,41430
62658,41427
62663,41424
62668,41421
62673,41419
62679,41418
62685,41417
62690,41417
62809,41417
62814,41417
Z" /> 
<path style="fill:#000000; fill-opacity:1.0; 
stroke:#000000; stroke-width:0; stroke-opacity:1; 
stroke-linecap:round; stroke-linejoin:round;fill-rule:evenodd;"
d="M 62314,41417
62320,41418
62326,41419
62331,41421
62336,41424
62341,41427
62346,41430
62350,41434
62354,41438
62358,41443
62361,41448
62363,41453
62365,41459
62366,41464
62367,41470
62368,41476
62368,42125
62367,42131
62366,42137
62365,42143
62363,42148
62361,42153
62358,42158
62354,42163
62350,42167
62346,42171
62341,42175
62336,42178
62331,42180
62326,42182
62320,42183
62314,42184
62309,42185
62190,42185
62185,42184
62179,42183
62173,42182
62168,42180
62163,42178
62158,42175
62153,42171
62149,42167
62145,42163
62141,42158
62138,42153
62136,42148
62134,42143
62133,42137
62132,42131
62131,42125
62131,41476
62132,41470
62133,41464
62134,41459
62136,41453
62138,41448
62141,41443
62145,41438
62149,41434
62153,41430
62158,41427
62163,41424
62168,41421
62173,41419
62179,41418
62185,41417
62190,41417
62309,41417
62314,41417
Z" /> 
<path style="fill:#000000; fill-opacity:1.0; 
stroke:#000000; stroke-width:0; stroke-opacity:1; 
stroke-linecap:round; stroke-linejoin:round;fill-rule:evenodd;"
d="M 62314,43366
62320,43367
62326,43368
62331,43370
62336,43373
62341,43376
62346,43379
62350,43383
62354,43387
62358,43392
62361,43397
62363,43402
62365,43408
62366,43413
62367,43419
62368,43425
62368,44074
62367,44080
62366,44086
62365,44091
62363,44097
62361,44102
62358,44107
62354,44112
62350,44116
62346,44120
62341,44123
62336,44126
62331,44129
62326,44131
62320,44132
62314,44133
62309,44133
62190,44133
62185,44133
62179,44132
62173,44131
62168,44129
62163,44126
62158,44123
62153,44120
62149,44116
62145,44112
62141,44107
62138,44102
62136,44097
62134,44091
62133,44086
62132,44080
62131,44074
62131,43425
62132,43419
62133,43413
62134,43408
62136,43402
62138,43397
62141,43392
62145,43387
62149,43383
62153,43379
62158,43376
62163,43373
62168,43370
62173,43368
62179,43367
62185,43366
62190,43366
62309,43366
62314,43366
Z" /> 
<path style="fill:#000000; fill-opacity:1.0; 
stroke:#000000; stroke-width:0; stroke-opacity:1; 
stroke-linecap:round; stroke-linejoin:round;fill-rule:evenodd;"
d="M 62814,43366
62820,43367
62826,43368
62831,43370
62836,43373
62841,43376
62846,43379
62850,43383
62854,43387
62858,43392
62861,43397
62863,43402
62865,43408
62866,43413
62867,43419
62868,43425
62868,44074
62867,44080
62866,44086
62865,44091
62863,44097
62861,44102
62858,44107
62854,44112
62850,44116
62846,44120
62841,44123
62836,44126
62831,44129
62826,44131
62820,44132
62814,44133
62809,44133
62690,44133
62685,44133
62679,44132
62673,44131
62668,44129
62663,44126
62658,44123
62653,44120
62649,44116
62645,44112
62641,44107
62638,44102
62636,44097
62634,44091
62633,44086
62632,44080
62631,44074
62631,43425
62632,43419
62633,43413
62634,43408
62636,43402
62638,43397
62641,43392
62645,43387
62649,43383
62653,43379
62658,43376
62663,43373
62668,43370
62673,43368
62679,43367
62685,43366
62690,43366
62809,43366
62814,43366
Z" /> 
<path style="fill:#000000; fill-opacity:1.0; 
stroke:#000000; stroke-width:0; stroke-opacity:1; 
stroke-linecap:round; stroke-linejoin:round;fill-rule:evenodd;"
d="M 63314,43366
63320,43367
63326,43368
63331,43370
63336,43373
63341,43376
63346,43379
63350,43383
63354,43387
63358,43392
63361,43397
63363,43402
63365,43408
63366,43413
63367,43419
63368,43425
63368,44074
63367,44080
63366,44086
63365,44091
63363,44097
63361,44102
63358,44107
63354,44112
63350,44116
63346,44120
63341,44123
63336,44126
63331,44129
63326,44131
63320,44132
63314,44133
63309,44133
63190,44133
63185,44133
63179,44132
63173,44131
63168,44129
63163,44126
63158,44123
63153,44120
63149,44116
63145,44112
63141,44107
63138,44102
63136,44097
63134,44091
63133,44086
63132,44080
63131,44074
63131,43425
63132,43419
63133,43413
63134,43408
63136,43402
63138,43397
63141,43392
63145,43387
63149,43383
63153,43379
63158,43376
63163,43373
63168,43370
63173,43368
63179,43367
63185,43366
63190,43366
63309,43366
63314,43366
Z" /> 
<path style="fill:#000000; fill-opacity:1.0; 
stroke:#000000; stroke-width:0; stroke-opacity:1; 
stroke-linecap:round; stroke-linejoin:round;fill-rule:evenodd;"
d="M 63814,43366
63820,43367
63826,43368
63831,43370
63836,43373
63841,43376
63846,43379
63850,43383
63854,43387
63858,43392
63861,43397
63863,43402
63865,43408
63866,43413
63867,43419
63868,43425
63868,44074
63867,44080
63866,44086
63865,44091
63863,44097
63861,44102
63858,44107
63854,44112
63850,44116
63846,44120
63841,44123
63836,44126
63831,44129
63826,44131
63820,44132
63814,44133
63809,44133
63690,44133
63685,44133
63679,44132
63673,44131
63668,44129
63663,44126
63658,44123
63653,44120
63649,44116
63645,44112
63641,44107
63638,44102
63636,44097
63634,44091
63633,44086
63632,44080
63631,44074
63631,43425
63632,43419
63633,43413
63634,43408
63636,43402
63638,43397
63641,43392
63645,43387
63649,43383
63653,43379
63658,43376
63663,43373
63668,43370
63673,43368
63679,43367
63685,43366
63690,43366
63809,43366
63814,43366
Z" /> 
</g>
<g >
</g>
<g style="fill:#000000; fill-opacity:1.0; 
stroke:#000000; stroke-width:0; stroke-opacity:1; 
stroke-linecap:round; stroke-linejoin:round;">
<path style="fill:#000000; fill-opacity:1.0; 
stroke:#000000; stroke-width:0; stroke-opacity:1; 
stroke-linecap:round; stroke-linejoin:round;fill-rule:evenodd;"
d="M 65540,37274
65550,37276
65559,37278
65568,37281
65577,37286
65585,37290
65593,37296
65600,37303
65606,37310
65612,37318
65617,37326
65621,37335
65625,37344
65627,37353
65628,37363
65629,37372
65629,37727
65628,37736
65627,37746
65625,37755
65621,37764
65617,37773
65612,37781
65606,37789
65600,37796
65593,37803
65585,37809
65577,37813
65568,37818
65559,37821
65550,37823
65540,37825
65530,37825
65274,37825
65265,37825
65255,37823
65246,37821
65237,37818
65228,37813
65220,37809
65212,37803
65205,37796
65198,37789
65193,37781
65188,37773
65184,37764
65180,37755
65178,37746
65177,37736
65176,37727
65176,37372
65177,37363
65178,37353
65180,37344
65184,37335
65188,37326
65193,37318
65198,37310
65205,37303
65212,37296
65220,37290
65228,37286
65237,37281
65246,37278
65255,37276
65265,37274
65274,37274
65530,37274
65540,37274
Z" /> 
<path style="fill:#000000; fill-opacity:1.0; 
stroke:#000000; stroke-width:0; stroke-opacity:1; 
stroke-linecap:round; stroke-linejoin:round;fill-rule:evenodd;"
d="M 66347,37274
66357,37276
66366,37278
66375,37281
66384,37286
66392,37290
66400,37296
66407,37303
66414,37310
66419,37318
66424,37326
66428,37335
66432,37344
66434,37353
66435,37363
66436,37372
66436,37727
66435,37736
66434,37746
66432,37755
66428,37764
66424,37773
66419,37781
66414,37789
66407,37796
66400,37803
66392,37809
66384,37813
66375,37818
66366,37821
66357,37823
66347,37825
66337,37825
66082,37825
66072,37825
66062,37823
66053,37821
66044,37818
66035,37813
66027,37809
66019,37803
66012,37796
66005,37789
66000,37781
65995,37773
65991,37764
65987,37755
65985,37746
65984,37736
65983,37727
65983,37372
65984,37363
65985,37353
65987,37344
65991,37335
65995,37326
66000,37318
66005,37310
66012,37303
66019,37296
66027,37290
66035,37286
66044,37281
66053,37278
66062,37276
66072,37274
66082,37274
66337,37274
66347,37274
Z" /> 
</g>
<g >
</g>
<g >
</g>
<g >
</g>
<g style="fill:#000000; fill-opacity:1.0; 
stroke:#000000; stroke-width:0; stroke-opacity:1; 
stroke-linecap:round; stroke-linejoin:round;">
<path style="fill:#000000; fill-opacity:1.0; 
stroke:#000000; stroke-width:0; stroke-opacity:1; 
stroke-linecap:round; stroke-linejoin:round;fill-rule:evenodd;"
d="M 62457,39704
62467,39706
62476,39708
62485,39711
62494,39716
62502,39720
62510,39726
62517,39733
62524,39740
62529,39748
62534,39756
62538,39765
62542,39774
62544,39783
62545,39793
62546,39802
62546,40157
62545,40166
62544,40176
62542,40185
62538,40194
62534,40203
62529,40211
62524,40219
62517,40226
62510,40233
62502,40239
62494,40243
62485,40248
62476,40251
62467,40253
62457,40255
62447,40255
62192,40255
62182,40255
62172,40253
62163,40251
62154,40248
62145,40243
62137,40239
62129,40233
62122,40226
62115,40219
62110,40211
62105,40203
62101,40194
62097,40185
62095,40176
62094,40166
62093,40157
62093,39802
62094,39793
62095,39783
62097,39774
62101,39765
62105,39756
62110,39748
62115,39740
62122,39733
62129,39726
62137,39720
62145,39716
62154,39711
62163,39708
62172,39706
62182,39704
62192,39704
62447,39704
62457,39704
Z" /> 
<path style="fill:#000000; fill-opacity:1.0; 
stroke:#000000; stroke-width:0; stroke-opacity:1; 
stroke-linecap:round; stroke-linejoin:round;fill-rule:evenodd;"
d="M 61650,39704
61660,39706
61669,39708
61678,39711
61687,39716
61695,39720
61703,39726
61710,39733
61716,39740
61722,39748
61727,39756
61731,39765
61735,39774
61737,39783
61738,39793
61739,39802
61739,40157
61738,40166
61737,40176
61735,40185
61731,40194
61727,40203
61722,40211
61716,40219
61710,40226
61703,40233
61695,40239
61687,40243
61678,40248
61669,40251
61660,40253
61650,40255
61640,40255
61384,40255
61375,40255
61365,40253
61356,40251
61347,40248
61338,40243
61330,40239
61322,40233
61315,40226
61308,40219
61303,40211
61298,40203
61294,40194
61290,40185
61288,40176
61287,40166
61286,40157
61286,39802
61287,39793
61288,39783
61290,39774
61294,39765
61298,39756
61303,39748
61308,39740
61315,39733
61322,39726
61330,39720
61338,39716
61347,39711
61356,39708
61365,39706
61375,39704
61384,39704
61640,39704
61650,39704
Z" /> 
</g>
<g >
</g>
<g >
</g>
<g style="fill:#000000; fill-opacity:1.0; 
stroke:#000000; stroke-width:0; stroke-opacity:1; 
stroke-linecap:round; stroke-linejoin:round;">
<path style="fill:#000000; fill-opacity:1.0; 
stroke:#000000; stroke-width:0; stroke-opacity:1; 
stroke-linecap:round; stroke-linejoin:round;fill-rule:evenodd;"
d="M 59380,42074
59390,42076
59399,42078
59408,42081
59417,42086
59425,42090
59433,42096
59440,42103
59446,42110
59452,42118
59457,42126
59461,42135
59465,42144
59467,42153
59468,42163
59469,42172
59469,42527
59468,42536
59467,42546
59465,42555
59461,42564
59457,42573
59452,42581
59446,42589
59440,42596
59433,42603
59425,42609
59417,42613
59408,42618
59399,42621
59390,42623
59380,42625
59370,42625
59114,42625
59105,42625
59095,42623
59086,42621
59077,42618
59068,42613
59060,42609
59052,42603
59045,42596
59038,42589
59033,42581
59028,42573
59024,42564
59020,42555
59018,42546
59017,42536
59016,42527
59016,42172
59017,42163
59018,42153
59020,42144
59024,42135
59028,42126
59033,42118
59038,42110
59045,42103
59052,42096
59060,42090
59068,42086
59077,42081
59086,42078
59095,42076
59105,42074
59114,42074
59370,42074
59380,42074
Z" /> 
<path style="fill:#000000; fill-opacity:1.0; 
stroke:#000000; stroke-width:0; stroke-opacity:1; 
stroke-linecap:round; stroke-linejoin:round;fill-rule:evenodd;"
d="M 60187,42074
60197,42076
60206,42078
60215,42081
60224,42086
60232,42090
60240,42096
60247,42103
60254,42110
60259,42118
60264,42126
60268,42135
60272,42144
60274,42153
60275,42163
60276,42172
60276,42527
60275,42536
60274,42546
60272,42555
60268,42564
60264,42573
60259,42581
60254,42589
60247,42596
60240,42603
60232,42609
60224,42613
60215,42618
60206,42621
60197,42623
60187,42625
60177,42625
59922,42625
59912,42625
59902,42623
59893,42621
59884,42618
59875,42613
59867,42609
59859,42603
59852,42596
59845,42589
59840,42581
59835,42573
59831,42564
59827,42555
59825,42546
59824,42536
59823,42527
59823,42172
59824,42163
59825,42153
59827,42144
59831,42135
59835,42126
59840,42118
59845,42110
59852,42103
59859,42096
59867,42090
59875,42086
59884,42081
59893,42078
59902,42076
59912,42074
59922,42074
60177,42074
60187,42074
Z" /> 
</g>
<g >
</g>
<g >
</g>
<g >
</g>
<g >
</g>
<g style="fill:#000000; fill-opacity:1.0; 
stroke:#000000; stroke-width:0; stroke-opacity:1; 
stroke-linecap:round; stroke-linejoin:round;">
<path style="fill:#000000; fill-opacity:1.0; 
stroke:#000000; stroke-width:0; stroke-opacity:1; 
stroke-linecap:round; stroke-linejoin:round;fill-rule:evenodd;"
d="M 63800,35000
63800,33000
64750,33000
64750,35000
63800,35000
Z" /> 
<path style="fill:#000000; fill-opacity:1.0; 
stroke:#000000; stroke-width:0; stroke-opacity:1; 
stroke-linecap:round; stroke-linejoin:round;fill-rule:evenodd;"
d="M 67250,35000
67250,33000
68200,33000
68200,35000
67250,35000
Z" /> 
</g>
<g >
</g>
<g style="fill:#000000; fill-opacity:1.0; 
stroke:#000000; stroke-width:0; stroke-opacity:1; 
stroke-linecap:round; stroke-linejoin:round;">
<path style="fill:#000000; fill-opacity:1.0; 
stroke:#000000; stroke-width:0; stroke-opacity:1; 
stroke-linecap:round; stroke-linejoin:round;fill-rule:evenodd;"
d="M 57800,35000
57800,33000
58750,33000
58750,35000
57800,35000
Z" /> 
<path style="fill:#000000; fill-opacity:1.0; 
stroke:#000000; stroke-width:0; stroke-opacity:1; 
stroke-linecap:round; stroke-linejoin:round;fill-rule:evenodd;"
d="M 61250,35000
61250,33000
62200,33000
62200,35000
61250,35000
Z" /> 
</g>
<g >
</g>
<g style="fill:#000000; fill-opacity:1.0; 
stroke:#000000; stroke-width:0; stroke-opacity:1; 
stroke-linecap:round; stroke-linejoin:round;">
</g>
<g style="fill:#000000; fill-opacity:1.0; 
stroke:#000000; stroke-width:669.291; stroke-opacity:1; 
stroke-linecap:round; stroke-linejoin:round;">
</g>
<g style="fill:#000000; fill-opacity:0.0; 
stroke:#000000; stroke-width:669.291; stroke-opacity:1; 
stroke-linecap:round; stroke-linejoin:round;">
<path d="M68000 46000
L68000 46000
" />
<path d="M68000 45000
L68000 45000
" />
<path d="M68000 44000
L68000 44000
" />
<path d="M68000 43000
L68000 43000
" />
<path d="M68000 42000
L68000 42000
" />
<path d="M68000 41000
L68000 41000
" />
<path d="M68000 40000
L68000 40000
" />
<path d="M68000 39000
L68000 39000
" />
<path d="M68000 38000
L68000 38000
" />
</g>
<g style="fill:#000000; fill-opacity:0.0; 
stroke:#000000; stroke-width:0; stroke-opacity:1; 
stroke-linecap:round; stroke-linejoin:round;">
</g>
<g style="fill:#000000; fill-opacity:1.0; 
stroke:#000000; stroke-width:0; stroke-opacity:1; 
stroke-linecap:round; stroke-linejoin:round;">
<path style="fill:#000000; fill-opacity:1.0; 
stroke:#000000; stroke-width:0; stroke-opacity:1; 
stroke-linecap:round; stroke-linejoin:round;fill-rule:evenodd;"
d="M 67665,37334
67665,36665
68334,36665
68334,37334
67665,37334
Z" /> 
</g>
<g >
</g>
<g style="fill:#000000; fill-opacity:1.0; 
stroke:#000000; stroke-width:0; stroke-opacity:1; 
stroke-linecap:round; stroke-linejoin:round;">
<path style="fill:#000000; fill-opacity:1.0; 
stroke:#000000; stroke-width:0; stroke-opacity:1; 
stroke-linecap:round; stroke-linejoin:round;fill-rule:evenodd;"
d="M 65183,46358
65183,46460
64927,46460
64927,46358
65183,46358
Z" /> 
<path style="fill:#000000; fill-opacity:1.0; 
stroke:#000000; stroke-width:0; stroke-opacity:1; 
stroke-linecap:round; stroke-linejoin:round;fill-rule:evenodd;"
d="M 65005,46358
65005,47263
64907,47263
64907,46358
65005,46358
Z" /> 
</g>
<g style="fill:#000000; fill-opacity:1.0; 
stroke:#000000; stroke-width:472.441; stroke-opacity:1; 
stroke-linecap:round; stroke-linejoin:round;">
</g>
<g style="fill:#000000; fill-opacity:0.0; 
stroke:#000000; stroke-width:472.441; stroke-opacity:1; 
stroke-linecap:round; stroke-linejoin:round;">
<path d="M60814 47027
L60814 46594
" />
<path d="M65185 47027
L65185 46594
" />
<path d="M60814 45039
L60814 44606
" />
<path d="M65185 45039
L65185 44606
" />
</g>
<g style="fill:#000000; fill-opacity:0.0; 
stroke:#000000; stroke-width:0; stroke-opacity:1; 
stroke-linecap:round; stroke-linejoin:round;">
</g>
<g style="fill:#000000; fill-opacity:1.0; 
stroke:#000000; stroke-width:0; stroke-opacity:1; 
stroke-linecap:round; stroke-linejoin:round;">
<path style="fill:#000000; fill-opacity:1.0; 
stroke:#000000; stroke-width:0; stroke-opacity:1; 
stroke-linecap:round; stroke-linejoin:round;fill-rule:evenodd;"
d="M 61549,44468
61549,44803
61368,44803
61368,44468
61549,44468
Z" /> 
<path style="fill:#000000; fill-opacity:1.0; 
stroke:#000000; stroke-width:0; stroke-opacity:1; 
stroke-linecap:round; stroke-linejoin:round;fill-rule:evenodd;"
d="M 61706,44468
61706,44803
61616,44803
61616,44468
61706,44468
Z" /> 
<path style="fill:#000000; fill-opacity:1.0; 
stroke:#000000; stroke-width:0; stroke-opacity:1; 
stroke-linecap:round; stroke-linejoin:round;fill-rule:evenodd;"
d="M 61864,44468
61864,44803
61773,44803
61773,44468
61864,44468
Z" /> 
<path style="fill:#000000; fill-opacity:1.0; 
stroke:#000000; stroke-width:0; stroke-opacity:1; 
stroke-linecap:round; stroke-linejoin:round;fill-rule:evenodd;"
d="M 62021,44468
62021,44803
61931,44803
61931,44468
62021,44468
Z" /> 
<path style="fill:#000000; fill-opacity:1.0; 
stroke:#000000; stroke-width:0; stroke-opacity:1; 
stroke-linecap:round; stroke-linejoin:round;fill-rule:evenodd;"
d="M 62179,44468
62179,44803
62088,44803
62088,44468
62179,44468
Z" /> 
<path style="fill:#000000; fill-opacity:1.0; 
stroke:#000000; stroke-width:0; stroke-opacity:1; 
stroke-linecap:round; stroke-linejoin:round;fill-rule:evenodd;"
d="M 62336,44468
62336,44803
62246,44803
62246,44468
62336,44468
Z" /> 
<path style="fill:#000000; fill-opacity:1.0; 
stroke:#000000; stroke-width:0; stroke-opacity:1; 
stroke-linecap:round; stroke-linejoin:round;fill-rule:evenodd;"
d="M 62494,44468
62494,44803
62403,44803
62403,44468
62494,44468
Z" /> 
<path style="fill:#000000; fill-opacity:1.0; 
stroke:#000000; stroke-width:0; stroke-opacity:1; 
stroke-linecap:round; stroke-linejoin:round;fill-rule:evenodd;"
d="M 62651,44468
62651,44803
62561,44803
62561,44468
62651,44468
Z" /> 
<path style="fill:#000000; fill-opacity:1.0; 
stroke:#000000; stroke-width:0; stroke-opacity:1; 
stroke-linecap:round; stroke-linejoin:round;fill-rule:evenodd;"
d="M 62809,44468
62809,44803
62718,44803
62718,44468
62809,44468
Z" /> 
<path style="fill:#000000; fill-opacity:1.0; 
stroke:#000000; stroke-width:0; stroke-opacity:1; 
stroke-linecap:round; stroke-linejoin:round;fill-rule:evenodd;"
d="M 62966,44468
62966,44803
62875,44803
62875,44468
62966,44468
Z" /> 
<path style="fill:#000000; fill-opacity:1.0; 
stroke:#000000; stroke-width:0; stroke-opacity:1; 
stroke-linecap:round; stroke-linejoin:round;fill-rule:evenodd;"
d="M 63124,44468
63124,44803
63033,44803
63033,44468
63124,44468
Z" /> 
<path style="fill:#000000; fill-opacity:1.0; 
stroke:#000000; stroke-width:0; stroke-opacity:1; 
stroke-linecap:round; stroke-linejoin:round;fill-rule:evenodd;"
d="M 63281,44468
63281,44803
63190,44803
63190,44468
63281,44468
Z" /> 
<path style="fill:#000000; fill-opacity:1.0; 
stroke:#000000; stroke-width:0; stroke-opacity:1; 
stroke-linecap:round; stroke-linejoin:round;fill-rule:evenodd;"
d="M 63438,44468
63438,44803
63348,44803
63348,44468
63438,44468
Z" /> 
<path style="fill:#000000; fill-opacity:1.0; 
stroke:#000000; stroke-width:0; stroke-opacity:1; 
stroke-linecap:round; stroke-linejoin:round;fill-rule:evenodd;"
d="M 63596,44468
63596,44803
63505,44803
63505,44468
63596,44468
Z" /> 
<path style="fill:#000000; fill-opacity:1.0; 
stroke:#000000; stroke-width:0; stroke-opacity:1; 
stroke-linecap:round; stroke-linejoin:round;fill-rule:evenodd;"
d="M 63753,44468
63753,44803
63663,44803
63663,44468
63753,44468
Z" /> 
<path style="fill:#000000; fill-opacity:1.0; 
stroke:#000000; stroke-width:0; stroke-opacity:1; 
stroke-linecap:round; stroke-linejoin:round;fill-rule:evenodd;"
d="M 63911,44468
63911,44803
63820,44803
63820,44468
63911,44468
Z" /> 
<path style="fill:#000000; fill-opacity:1.0; 
stroke:#000000; stroke-width:0; stroke-opacity:1; 
stroke-linecap:round; stroke-linejoin:round;fill-rule:evenodd;"
d="M 64068,44468
64068,44803
63978,44803
63978,44468
64068,44468
Z" /> 
<path style="fill:#000000; fill-opacity:1.0; 
stroke:#000000; stroke-width:0; stroke-opacity:1; 
stroke-linecap:round; stroke-linejoin:round;fill-rule:evenodd;"
d="M 64226,44468
64226,44803
64135,44803
64135,44468
64226,44468
Z" /> 
<path style="fill:#000000; fill-opacity:1.0; 
stroke:#000000; stroke-width:0; stroke-opacity:1; 
stroke-linecap:round; stroke-linejoin:round;fill-rule:evenodd;"
d="M 64631,44468
64631,44803
64450,44803
64450,44468
64631,44468
Z" /> 
<circle cx="62212.6" cy="45000" r="118.11" /> 
</g>
<g style="fill:#000000; fill-opacity:1.0; 
stroke:#000000; stroke-width:39.3701; stroke-opacity:1; 
stroke-linecap:round; stroke-linejoin:round;">
</g>
<g style="fill:#000000; fill-opacity:1.0; 
stroke:#000000; stroke-width:0; stroke-opacity:1; 
stroke-linecap:round; stroke-linejoin:round;">
<circle cx="62527.6" cy="45000" r="118.11" /> 
</g>
<g style="fill:#000000; fill-opacity:1.0; 
stroke:#000000; stroke-width:39.3701; stroke-opacity:1; 
stroke-linecap:round; stroke-linejoin:round;">
</g>
<g style="fill:#000000; fill-opacity:1.0; 
stroke:#000000; stroke-width:0; stroke-opacity:1; 
stroke-linecap:round; stroke-linejoin:round;">
<circle cx="62842.5" cy="45000" r="118.11" /> 
</g>
<g style="fill:#000000; fill-opacity:1.0; 
stroke:#000000; stroke-width:39.3701; stroke-opacity:1; 
stroke-linecap:round; stroke-linejoin:round;">
</g>
<g style="fill:#000000; fill-opacity:1.0; 
stroke:#000000; stroke-width:0; stroke-opacity:1; 
stroke-linecap:round; stroke-linejoin:round;">
<circle cx="63157.5" cy="45000" r="118.11" /> 
</g>
<g style="fill:#000000; fill-opacity:1.0; 
stroke:#000000; stroke-width:39.3701; stroke-opacity:1; 
stroke-linecap:round; stroke-linejoin:round;">
</g>
<g style="fill:#000000; fill-opacity:1.0; 
stroke:#000000; stroke-width:0; stroke-opacity:1; 
stroke-linecap:round; stroke-linejoin:round;">
<circle cx="63472.4" cy="45000" r="118.11" /> 
</g>
<g style="fill:#000000; fill-opacity:1.0; 
stroke:#000000; stroke-width:39.3701; stroke-opacity:1; 
stroke-linecap:round; stroke-linejoin:round;">
</g>
<g style="fill:#000000; fill-opacity:1.0; 
stroke:#000000; stroke-width:0; stroke-opacity:1; 
stroke-linecap:round; stroke-linejoin:round;">
<circle cx="63787.4" cy="45000" r="118.11" /> 
</g>
<g style="fill:#000000; fill-opacity:1.0; 
stroke:#000000; stroke-width:39.3701; stroke-opacity:1; 
stroke-linecap:round; stroke-linejoin:round;">
</g>
<g style="fill:#000000; fill-opacity:1.0; 
stroke:#000000; stroke-width:0; stroke-opacity:1; 
stroke-linecap:round; stroke-linejoin:round;">
<path style="fill:#000000; fill-opacity:1.0; 
stroke:#000000; stroke-width:0; stroke-opacity:1; 
stroke-linecap:round; stroke-linejoin:round;fill-rule:evenodd;"
d="M 64383,44468
64383,44803
64293,44803
64293,44468
64383,44468
Z" /> 
<path style="fill:#000000; fill-opacity:1.0; 
stroke:#000000; stroke-width:0; stroke-opacity:1; 
stroke-linecap:round; stroke-linejoin:round;fill-rule:evenodd;"
d="M 65183,47161
65183,47263
64927,47263
64927,47161
65183,47161
Z" /> 
<path style="fill:#000000; fill-opacity:1.0; 
stroke:#000000; stroke-width:0; stroke-opacity:1; 
stroke-linecap:round; stroke-linejoin:round;fill-rule:evenodd;"
d="M 61092,46358
61092,47263
60994,47263
60994,46358
61092,46358
Z" /> 
<path style="fill:#000000; fill-opacity:1.0; 
stroke:#000000; stroke-width:0; stroke-opacity:1; 
stroke-linecap:round; stroke-linejoin:round;fill-rule:evenodd;"
d="M 61092,46358
61092,46460
60836,46460
60836,46358
61092,46358
Z" /> 
<path style="fill:#000000; fill-opacity:1.0; 
stroke:#000000; stroke-width:0; stroke-opacity:1; 
stroke-linecap:round; stroke-linejoin:round;fill-rule:evenodd;"
d="M 61092,47161
61092,47263
60836,47263
60836,47161
61092,47161
Z" /> 
</g>
<g >
</g>
<g style="fill:#000000; fill-opacity:1.0; 
stroke:#000000; stroke-width:0; stroke-opacity:1; 
stroke-linecap:round; stroke-linejoin:round;">
</g>
<g style="fill:#000000; fill-opacity:1.0; 
stroke:#000000; stroke-width:669.291; stroke-opacity:1; 
stroke-linecap:round; stroke-linejoin:round;">
</g>
<g style="fill:#000000; fill-opacity:0.0; 
stroke:#000000; stroke-width:669.291; stroke-opacity:1; 
stroke-linecap:round; stroke-linejoin:round;">
<path d="M58000 46000
L58000 46000
" />
<path d="M58000 45000
L58000 45000
" />
<path d="M58000 44000
L58000 44000
" />
<path d="M58000 43000
L58000 43000
" />
<path d="M58000 42000
L58000 42000
" />
<path d="M58000 41000
L58000 41000
" />
<path d="M58000 40000
L58000 40000
" />
<path d="M58000 39000
L58000 39000
" />
<path d="M58000 38000
L58000 38000
" />
</g>
<g style="fill:#000000; fill-opacity:0.0; 
stroke:#000000; stroke-width:0; stroke-opacity:1; 
stroke-linecap:round; stroke-linejoin:round;">
</g>
<g style="fill:#000000; fill-opacity:1.0; 
stroke:#000000; stroke-width:0; stroke-opacity:1; 
stroke-linecap:round; stroke-linejoin:round;">
<path style="fill:#000000; fill-opacity:1.0; 
stroke:#000000; stroke-width:0; stroke-opacity:1; 
stroke-linecap:round; stroke-linejoin:round;fill-rule:evenodd;"
d="M 57665,37334
57665,36665
58334,36665
58334,37334
57665,37334
Z" /> 
</g>
<g >
</g>
<g style="fill:#000000; fill-opacity:1.0; 
stroke:#000000; stroke-width:0; stroke-opacity:1; 
stroke-linecap:round; stroke-linejoin:round;">
<path style="fill:#000000; fill-opacity:1.0; 
stroke:#000000; stroke-width:0; stroke-opacity:1; 
stroke-linecap:round; stroke-linejoin:round;fill-rule:evenodd;"
d="M 66347,38094
66357,38096
66366,38098
66375,38101
66384,38106
66392,38110
66400,38116
66407,38123
66414,38130
66419,38138
66424,38146
66428,38155
66432,38164
66434,38173
66435,38183
66436,38192
66436,38547
66435,38556
66434,38566
66432,38575
66428,38584
66424,38593
66419,38601
66414,38609
66407,38616
66400,38623
66392,38629
66384,38633
66375,38638
66366,38641
66357,38643
66347,38645
66337,38645
66082,38645
66072,38645
66062,38643
66053,38641
66044,38638
66035,38633
66027,38629
66019,38623
66012,38616
66005,38609
66000,38601
65995,38593
65991,38584
65987,38575
65985,38566
65984,38556
65983,38547
65983,38192
65984,38183
65985,38173
65987,38164
65991,38155
65995,38146
66000,38138
66005,38130
66012,38123
66019,38116
66027,38110
66035,38106
66044,38101
66053,38098
66062,38096
66072,38094
66082,38094
66337,38094
66347,38094
Z" /> 
<path style="fill:#000000; fill-opacity:1.0; 
stroke:#000000; stroke-width:0; stroke-opacity:1; 
stroke-linecap:round; stroke-linejoin:round;fill-rule:evenodd;"
d="M 65540,38094
65550,38096
65559,38098
65568,38101
65577,38106
65585,38110
65593,38116
65600,38123
65606,38130
65612,38138
65617,38146
65621,38155
65625,38164
65627,38173
65628,38183
65629,38192
65629,38547
65628,38556
65627,38566
65625,38575
65621,38584
65617,38593
65612,38601
65606,38609
65600,38616
65593,38623
65585,38629
65577,38633
65568,38638
65559,38641
65550,38643
65540,38645
65530,38645
65274,38645
65265,38645
65255,38643
65246,38641
65237,38638
65228,38633
65220,38629
65212,38623
65205,38616
65198,38609
65193,38601
65188,38593
65184,38584
65180,38575
65178,38566
65177,38556
65176,38547
65176,38192
65177,38183
65178,38173
65180,38164
65184,38155
65188,38146
65193,38138
65198,38130
65205,38123
65212,38116
65220,38110
65228,38106
65237,38101
65246,38098
65255,38096
65265,38094
65274,38094
65530,38094
65540,38094
Z" /> 
</g>
<g >
</g>
<g >
</g>
<g style="fill:#000000; fill-opacity:1.0; 
stroke:#000000; stroke-width:0; stroke-opacity:1; 
stroke-linecap:round; stroke-linejoin:round;">
<path style="fill:#000000; fill-opacity:1.0; 
stroke:#000000; stroke-width:0; stroke-opacity:1; 
stroke-linecap:round; stroke-linejoin:round;fill-rule:evenodd;"
d="M 65367,43454
65377,43456
65386,43458
65395,43461
65404,43466
65412,43470
65420,43476
65427,43483
65434,43490
65439,43498
65444,43506
65448,43515
65452,43524
65454,43533
65455,43543
65456,43552
65456,43907
65455,43916
65454,43926
65452,43935
65448,43944
65444,43953
65439,43961
65434,43969
65427,43976
65420,43983
65412,43989
65404,43993
65395,43998
65386,44001
65377,44003
65367,44005
65357,44005
65102,44005
65092,44005
65082,44003
65073,44001
65064,43998
65055,43993
65047,43989
65039,43983
65032,43976
65025,43969
65020,43961
65015,43953
65011,43944
65007,43935
65005,43926
65004,43916
65003,43907
65003,43552
65004,43543
65005,43533
65007,43524
65011,43515
65015,43506
65020,43498
65025,43490
65032,43483
65039,43476
65047,43470
65055,43466
65064,43461
65073,43458
65082,43456
65092,43454
65102,43454
65357,43454
65367,43454
Z" /> 
<path style="fill:#000000; fill-opacity:1.0; 
stroke:#000000; stroke-width:0; stroke-opacity:1; 
stroke-linecap:round; stroke-linejoin:round;fill-rule:evenodd;"
d="M 64560,43454
64570,43456
64579,43458
64588,43461
64597,43466
64605,43470
64613,43476
64620,43483
64626,43490
64632,43498
64637,43506
64641,43515
64645,43524
64647,43533
64648,43543
64649,43552
64649,43907
64648,43916
64647,43926
64645,43935
64641,43944
64637,43953
64632,43961
64626,43969
64620,43976
64613,43983
64605,43989
64597,43993
64588,43998
64579,44001
64570,44003
64560,44005
64550,44005
64294,44005
64285,44005
64275,44003
64266,44001
64257,43998
64248,43993
64240,43989
64232,43983
64225,43976
64218,43969
64213,43961
64208,43953
64204,43944
64200,43935
64198,43926
64197,43916
64196,43907
64196,43552
64197,43543
64198,43533
64200,43524
64204,43515
64208,43506
64213,43498
64218,43490
64225,43483
64232,43476
64240,43470
64248,43466
64257,43461
64266,43458
64275,43456
64285,43454
64294,43454
64550,43454
64560,43454
Z" /> 
</g>
<g >
</g>
<g style="fill:#000000; fill-opacity:1.0; 
stroke:#000000; stroke-width:0; stroke-opacity:1; 
stroke-linecap:round; stroke-linejoin:round;">
<circle cx="59680" cy="40370" r="100" /> 
</g>
<g style="fill:#000000; fill-opacity:1.0; 
stroke:#000000; stroke-width:39.3701; stroke-opacity:1; 
stroke-linecap:round; stroke-linejoin:round;">
</g>
<g style="fill:#000000; fill-opacity:1.0; 
stroke:#000000; stroke-width:0; stroke-opacity:1; 
stroke-linecap:round; stroke-linejoin:round;">
<circle cx="64567.1" cy="44318.5" r="100" /> 
</g>
<g style="fill:#000000; fill-opacity:1.0; 
stroke:#000000; stroke-width:39.3701; stroke-opacity:1; 
stroke-linecap:round; stroke-linejoin:round;">
</g>
<g style="fill:#000000; fill-opacity:1.0; 
stroke:#000000; stroke-width:0; stroke-opacity:1; 
stroke-linecap:round; stroke-linejoin:round;">
<circle cx="66670" cy="38370" r="100" /> 
</g>
<g style="fill:#000000; fill-opacity:1.0; 
stroke:#000000; stroke-width:39.3701; stroke-opacity:1; 
stroke-linecap:round; stroke-linejoin:round;">
</g>
<g style="fill:#000000; fill-opacity:1.0; 
stroke:#000000; stroke-width:0; stroke-opacity:1; 
stroke-linecap:round; stroke-linejoin:round;">
<circle cx="61570" cy="42310" r="100" /> 
</g>
<g style="fill:#000000; fill-opacity:1.0; 
stroke:#000000; stroke-width:39.3701; stroke-opacity:1; 
stroke-linecap:round; stroke-linejoin:round;">
</g>
<g style="fill:#000000; fill-opacity:1.0; 
stroke:#000000; stroke-width:0; stroke-opacity:1; 
stroke-linecap:round; stroke-linejoin:round;">
<circle cx="59900" cy="43800" r="100" /> 
</g>
<g style="fill:#000000; fill-opacity:1.0; 
stroke:#000000; stroke-width:39.3701; stroke-opacity:1; 
stroke-linecap:round; stroke-linejoin:round;">
</g>
<g style="fill:#000000; fill-opacity:1.0; 
stroke:#000000; stroke-width:0; stroke-opacity:1; 
stroke-linecap:round; stroke-linejoin:round;">
<circle cx="61730" cy="35330" r="100" /> 
</g>
<g style="fill:#000000; fill-opacity:1.0; 
stroke:#000000; stroke-width:39.3701; stroke-opacity:1; 
stroke-linecap:round; stroke-linejoin:round;">
</g>
<g style="fill:#000000; fill-opacity:1.0; 
stroke:#000000; stroke-width:0; stroke-opacity:1; 
stroke-linecap:round; stroke-linejoin:round;">
<circle cx="58280" cy="35320" r="100" /> 
</g>
<g style="fill:#000000; fill-opacity:1.0; 
stroke:#000000; stroke-width:39.3701; stroke-opacity:1; 
stroke-linecap:round; stroke-linejoin:round;">
</g>
<g style="fill:#000000; fill-opacity:1.0; 
stroke:#000000; stroke-width:0; stroke-opacity:1; 
stroke-linecap:round; stroke-linejoin:round;">
<circle cx="64270" cy="35320" r="100" /> 
</g>
<g style="fill:#000000; fill-opacity:1.0; 
stroke:#000000; stroke-width:39.3701; stroke-opacity:1; 
stroke-linecap:round; stroke-linejoin:round;">
</g>
<g style="fill:#000000; fill-opacity:1.0; 
stroke:#000000; stroke-width:0; stroke-opacity:1; 
stroke-linecap:round; stroke-linejoin:round;">
<circle cx="67740" cy="35330" r="100" /> 
</g>
<g style="fill:#000000; fill-opacity:1.0; 
stroke:#000000; stroke-width:39.3701; stroke-opacity:1; 
stroke-linecap:round; stroke-linejoin:round;">
</g>
<g style="fill:#000000; fill-opacity:1.0; 
stroke:#000000; stroke-width:0; stroke-opacity:1; 
stroke-linecap:round; stroke-linejoin:round;">
<circle cx="63750" cy="43750" r="100" /> 
</g>
<g style="fill:#000000; fill-opacity:1.0; 
stroke:#000000; stroke-width:39.3701; stroke-opacity:1; 
stroke-linecap:round; stroke-linejoin:round;">
</g>
<g style="fill:#000000; fill-opacity:1.0; 
stroke:#000000; stroke-width:0; stroke-opacity:1; 
stroke-linecap:round; stroke-linejoin:round;">
<circle cx="61991.4" cy="44208.5" r="100" /> 
</g>
<g style="fill:#000000; fill-opacity:1.0; 
stroke:#000000; stroke-width:39.3701; stroke-opacity:1; 
stroke-linecap:round; stroke-linejoin:round;">
</g>
<g style="fill:#000000; fill-opacity:1.0; 
stroke:#000000; stroke-width:0; stroke-opacity:1; 
stroke-linecap:round; stroke-linejoin:round;">
<circle cx="63530" cy="36620" r="100" /> 
</g>
<g style="fill:#000000; fill-opacity:1.0; 
stroke:#000000; stroke-width:39.3701; stroke-opacity:1; 
stroke-linecap:round; stroke-linejoin:round;">
</g>
<g style="fill:#000000; fill-opacity:1.0; 
stroke:#000000; stroke-width:0; stroke-opacity:1; 
stroke-linecap:round; stroke-linejoin:round;">
<circle cx="65460" cy="41716.1" r="100" /> 
</g>
<g style="fill:#000000; fill-opacity:1.0; 
stroke:#000000; stroke-width:39.3701; stroke-opacity:1; 
stroke-linecap:round; stroke-linejoin:round;">
</g>
<g style="fill:#000000; fill-opacity:1.0; 
stroke:#000000; stroke-width:0; stroke-opacity:1; 
stroke-linecap:round; stroke-linejoin:round;">
<circle cx="66330" cy="39652.9" r="100" /> 
</g>
<g style="fill:#000000; fill-opacity:1.0; 
stroke:#000000; stroke-width:39.3701; stroke-opacity:1; 
stroke-linecap:round; stroke-linejoin:round;">
</g>
<g style="fill:#000000; fill-opacity:1.0; 
stroke:#000000; stroke-width:0; stroke-opacity:1; 
stroke-linecap:round; stroke-linejoin:round;">
<circle cx="65341.6" cy="38708.4" r="100" /> 
</g>
<g style="fill:#000000; fill-opacity:1.0; 
stroke:#000000; stroke-width:39.3701; stroke-opacity:1; 
stroke-linecap:round; stroke-linejoin:round;">
</g>
<g style="fill:#000000; fill-opacity:1.0; 
stroke:#000000; stroke-width:0; stroke-opacity:1; 
stroke-linecap:round; stroke-linejoin:round;">
<circle cx="61630" cy="43142.8" r="100" /> 
</g>
<g style="fill:#000000; fill-opacity:1.0; 
stroke:#000000; stroke-width:39.3701; stroke-opacity:1; 
stroke-linecap:round; stroke-linejoin:round;">
</g>
<g style="fill:#000000; fill-opacity:1.0; 
stroke:#000000; stroke-width:0; stroke-opacity:1; 
stroke-linecap:round; stroke-linejoin:round;">
<circle cx="62790" cy="42960" r="100" /> 
</g>
<g style="fill:#000000; fill-opacity:1.0; 
stroke:#000000; stroke-width:39.3701; stroke-opacity:1; 
stroke-linecap:round; stroke-linejoin:round;">
</g>
<g style="fill:#000000; fill-opacity:1.0; 
stroke:#000000; stroke-width:0; stroke-opacity:1; 
stroke-linecap:round; stroke-linejoin:round;">
<circle cx="61252.1" cy="40862.1" r="100" /> 
</g>
<g style="fill:#000000; fill-opacity:1.0; 
stroke:#000000; stroke-width:39.3701; stroke-opacity:1; 
stroke-linecap:round; stroke-linejoin:round;">
</g>
<g style="fill:#000000; fill-opacity:1.0; 
stroke:#000000; stroke-width:0; stroke-opacity:1; 
stroke-linecap:round; stroke-linejoin:round;">
<circle cx="64700" cy="40180" r="100" /> 
</g>
<g style="fill:#000000; fill-opacity:1.0; 
stroke:#000000; stroke-width:39.3701; stroke-opacity:1; 
stroke-linecap:round; stroke-linejoin:round;">
</g>
<g style="fill:#000000; fill-opacity:1.0; 
stroke:#000000; stroke-width:0; stroke-opacity:1; 
stroke-linecap:round; stroke-linejoin:round;">
<circle cx="61428.1" cy="39550" r="100" /> 
</g>
<g style="fill:#000000; fill-opacity:1.0; 
stroke:#000000; stroke-width:39.3701; stroke-opacity:1; 
stroke-linecap:round; stroke-linejoin:round;">
</g>
<g style="fill:#000000; fill-opacity:1.0; 
stroke:#000000; stroke-width:0; stroke-opacity:1; 
stroke-linecap:round; stroke-linejoin:round;">
<circle cx="63790" cy="38980" r="100" /> 
</g>
<g style="fill:#000000; fill-opacity:1.0; 
stroke:#000000; stroke-width:39.3701; stroke-opacity:1; 
stroke-linecap:round; stroke-linejoin:round;">
</g>
<g style="fill:#000000; fill-opacity:1.0; 
stroke:#000000; stroke-width:0; stroke-opacity:1; 
stroke-linecap:round; stroke-linejoin:round;">
<circle cx="62880" cy="44336.3" r="100" /> 
</g>
<g style="fill:#000000; fill-opacity:1.0; 
stroke:#000000; stroke-width:39.3701; stroke-opacity:1; 
stroke-linecap:round; stroke-linejoin:round;">
</g>
<g style="fill:#000000; fill-opacity:1.0; 
stroke:#000000; stroke-width:0; stroke-opacity:1; 
stroke-linecap:round; stroke-linejoin:round;">
<circle cx="63049.7" cy="43955.1" r="100" /> 
</g>
<g style="fill:#000000; fill-opacity:1.0; 
stroke:#000000; stroke-width:39.3701; stroke-opacity:1; 
stroke-linecap:round; stroke-linejoin:round;">
</g>
<g style="fill:#000000; fill-opacity:1.0; 
stroke:#000000; stroke-width:0; stroke-opacity:1; 
stroke-linecap:round; stroke-linejoin:round;">
<circle cx="63230" cy="44350" r="100" /> 
</g>
<g style="fill:#000000; fill-opacity:1.0; 
stroke:#000000; stroke-width:39.3701; stroke-opacity:1; 
stroke-linecap:round; stroke-linejoin:round;">
</g>
<g style="fill:#000000; fill-opacity:1.0; 
stroke:#000000; stroke-width:0; stroke-opacity:1; 
stroke-linecap:round; stroke-linejoin:round;">
<circle cx="59250" cy="43370" r="100" /> 
</g>
<g style="fill:#000000; fill-opacity:1.0; 
stroke:#000000; stroke-width:39.3701; stroke-opacity:1; 
stroke-linecap:round; stroke-linejoin:round;">
</g>
<g style="fill:#000000; fill-opacity:1.0; 
stroke:#000000; stroke-width:0; stroke-opacity:1; 
stroke-linecap:round; stroke-linejoin:round;">
<circle cx="60183.7" cy="43360.9" r="100" /> 
</g>
<g style="fill:#000000; fill-opacity:1.0; 
stroke:#000000; stroke-width:39.3701; stroke-opacity:1; 
stroke-linecap:round; stroke-linejoin:round;">
</g>
<g style="fill:#000000; fill-opacity:1.0; 
stroke:#000000; stroke-width:0; stroke-opacity:1; 
stroke-linecap:round; stroke-linejoin:round;">
<circle cx="61893" cy="41271.6" r="100" /> 
</g>
<g style="fill:#000000; fill-opacity:1.0; 
stroke:#000000; stroke-width:39.3701; stroke-opacity:1; 
stroke-linecap:round; stroke-linejoin:round;">
</g>
<g style="fill:#000000; fill-opacity:1.0; 
stroke:#000000; stroke-width:0; stroke-opacity:1; 
stroke-linecap:round; stroke-linejoin:round;">
<circle cx="66090" cy="43020" r="100" /> 
</g>
<g style="fill:#000000; fill-opacity:1.0; 
stroke:#000000; stroke-width:39.3701; stroke-opacity:1; 
stroke-linecap:round; stroke-linejoin:round;">
</g>
<g style="fill:#000000; fill-opacity:1.0; 
stroke:#000000; stroke-width:0; stroke-opacity:1; 
stroke-linecap:round; stroke-linejoin:round;">
<circle cx="60730" cy="41310" r="100" /> 
</g>
<g style="fill:#000000; fill-opacity:1.0; 
stroke:#000000; stroke-width:39.3701; stroke-opacity:1; 
stroke-linecap:round; stroke-linejoin:round;">
</g>
<g style="fill:#000000; fill-opacity:1.0; 
stroke:#000000; stroke-width:0; stroke-opacity:1; 
stroke-linecap:round; stroke-linejoin:round;">
<circle cx="66100" cy="42590" r="100" /> 
</g>
<g style="fill:#000000; fill-opacity:1.0; 
stroke:#000000; stroke-width:39.3701; stroke-opacity:1; 
stroke-linecap:round; stroke-linejoin:round;">
</g>
<g style="fill:#000000; fill-opacity:1.0; 
stroke:#000000; stroke-width:0; stroke-opacity:1; 
stroke-linecap:round; stroke-linejoin:round;">
<circle cx="62380" cy="41096" r="100" /> 
</g>
<g style="fill:#000000; fill-opacity:1.0; 
stroke:#000000; stroke-width:39.3701; stroke-opacity:1; 
stroke-linecap:round; stroke-linejoin:round;">
</g>
<g style="fill:#000000; fill-opacity:1.0; 
stroke:#000000; stroke-width:0; stroke-opacity:1; 
stroke-linecap:round; stroke-linejoin:round;">
<circle cx="60750" cy="41640" r="100" /> 
</g>
<g style="fill:#000000; fill-opacity:1.0; 
stroke:#000000; stroke-width:39.3701; stroke-opacity:1; 
stroke-linecap:round; stroke-linejoin:round;">
</g>
<g style="fill:#000000; fill-opacity:1.0; 
stroke:#000000; stroke-width:0; stroke-opacity:1; 
stroke-linecap:round; stroke-linejoin:round;">
<circle cx="64420" cy="40750" r="100" /> 
</g>
<g style="fill:#000000; fill-opacity:1.0; 
stroke:#000000; stroke-width:39.3701; stroke-opacity:1; 
stroke-linecap:round; stroke-linejoin:round;">
</g>
<g style="fill:#000000; fill-opacity:1.0; 
stroke:#000000; stroke-width:0; stroke-opacity:1; 
stroke-linecap:round; stroke-linejoin:round;">
<circle cx="62391.4" cy="40625.9" r="100" /> 
</g>
<g style="fill:#000000; fill-opacity:1.0; 
stroke:#000000; stroke-width:39.3701; stroke-opacity:1; 
stroke-linecap:round; stroke-linejoin:round;">
</g>
<g style="fill:#000000; fill-opacity:1.0; 
stroke:#000000; stroke-width:0; stroke-opacity:1; 
stroke-linecap:round; stroke-linejoin:round;">
<circle cx="61512.9" cy="39980" r="100" /> 
</g>
<g style="fill:#000000; fill-opacity:1.0; 
stroke:#000000; stroke-width:39.3701; stroke-opacity:1; 
stroke-linecap:round; stroke-linejoin:round;">
</g>
<g style="fill:#000000; fill-opacity:1.0; 
stroke:#000000; stroke-width:0; stroke-opacity:1; 
stroke-linecap:round; stroke-linejoin:round;">
<circle cx="61430" cy="39300" r="100" /> 
</g>
<g style="fill:#000000; fill-opacity:1.0; 
stroke:#000000; stroke-width:39.3701; stroke-opacity:1; 
stroke-linecap:round; stroke-linejoin:round;">
</g>
<g style="fill:#000000; fill-opacity:1.0; 
stroke:#000000; stroke-width:0; stroke-opacity:1; 
stroke-linecap:round; stroke-linejoin:round;">
<circle cx="63870" cy="39340" r="100" /> 
</g>
<g style="fill:#000000; fill-opacity:1.0; 
stroke:#000000; stroke-width:39.3701; stroke-opacity:1; 
stroke-linecap:round; stroke-linejoin:round;">
</g>
<g style="fill:#000000; fill-opacity:1.0; 
stroke:#000000; stroke-width:0; stroke-opacity:1; 
stroke-linecap:round; stroke-linejoin:round;">
<circle cx="66770" cy="37890" r="100" /> 
</g>
<g style="fill:#000000; fill-opacity:1.0; 
stroke:#000000; stroke-width:39.3701; stroke-opacity:1; 
stroke-linecap:round; stroke-linejoin:round;">
</g>
<g style="fill:#000000; fill-opacity:1.0; 
stroke:#000000; stroke-width:0; stroke-opacity:1; 
stroke-linecap:round; stroke-linejoin:round;">
<circle cx="66820" cy="37530" r="100" /> 
</g>
<g style="fill:#000000; fill-opacity:1.0; 
stroke:#000000; stroke-width:39.3701; stroke-opacity:1; 
stroke-linecap:round; stroke-linejoin:round;">
</g>
<g style="fill:#000000; fill-opacity:1.0; 
stroke:#000000; stroke-width:0; stroke-opacity:1; 
stroke-linecap:round; stroke-linejoin:round;">
<circle cx="62750" cy="41800" r="100" /> 
</g>
<g style="fill:#000000; fill-opacity:1.0; 
stroke:#000000; stroke-width:39.3701; stroke-opacity:1; 
stroke-linecap:round; stroke-linejoin:round;">
</g>
<g style="fill:#000000; fill-opacity:1.0; 
stroke:#000000; stroke-width:0; stroke-opacity:1; 
stroke-linecap:round; stroke-linejoin:round;">
<circle cx="62760" cy="40740" r="100" /> 
</g>
<g style="fill:#000000; fill-opacity:1.0; 
stroke:#000000; stroke-width:39.3701; stroke-opacity:1; 
stroke-linecap:round; stroke-linejoin:round;">
</g>
<g >
</g>
<g style="fill:#000000; fill-opacity:1.0; 
stroke:#000000; stroke-width:39.3701; stroke-opacity:1; 
stroke-linecap:round; stroke-linejoin:round;">
</g>
<g style="fill:#000000; fill-opacity:1.0; 
stroke:#000000; stroke-width:60; stroke-opacity:1; 
stroke-linecap:round; stroke-linejoin:round;">
</g>
<g style="fill:#000000; fill-opacity:0.0; 
stroke:#000000; stroke-width:60; stroke-opacity:1; 
stroke-linecap:round; stroke-linejoin:round;">
<path d="M64428 44318
L64567 44318
" />
<path d="M64338 44408
L64428 44318
" />
<path d="M64338 44635
L64338 44408
" />
<path d="M63956 44318
L64428 44318
" />
<path d="M63866 44408
L63956 44318
" />
<path d="M63866 44635
L63866 44408
" />
<path d="M62133 44635
L62133 44408
" />
<path d="M62113 44388
L61681 44388
" />
<path d="M61661 44635
L61661 44181
" />
<path d="M61661 44408
L61661 44635
" />
<path d="M61681 44388
L61661 44408
" />
<path d="M62092 43750
L62250 43750
" />
<path d="M62133 44408
L62113 44388
" />
<path d="M61661 44181
L62092 43750
" />
<path d="M64641 44318
L64567 44318
" />
<path d="M65230 43730
L64641 44318
" />
<path d="M66365 42293
L66560 42487
" />
<path d="M66365 41800
L66365 42293
" />
<path d="M61111 44822
L60814 44822
" />
<path d="M61171 44883
L61111 44822
" />
<path d="M61641 44883
L61171 44883
" />
<path d="M61661 44863
L61641 44883
" />
<path d="M61661 44635
L61661 44863
" />
<path d="M63604 44198
L63604 43895
" />
<path d="M63604 43895
L63750 43750
" />
<path d="M63393 44635
L63413 44615
" />
<path d="M63413 44615
L63413 44388
" />
<path d="M63413 44388
L63604 44198
" />
<path d="M62454 44256
L62180 44256
" />
<path d="M62180 44256
L62132 44208
" />
<path d="M62132 44208
L61991 44208
" />
<path d="M62606 44635
L62606 44408
" />
<path d="M62606 44408
L62454 44256
" />
<path d="M62454 43465
L62454 44256
" />
<path d="M63366 43286
L62633 43286
" />
<path d="M63604 43523
L63366 43286
" />
<path d="M63604 43604
L63604 43523
" />
<path d="M62633 43286
L62454 43465
" />
<path d="M63750 43750
L63604 43604
" />
<path d="M65460 38427
L65402 38370
" />
<path d="M65460 39319
L65460 38427
" />
<path d="M64472 36620
L65402 37550
" />
<path d="M63530 36620
L64472 36620
" />
<path d="M65402 37550
L65402 38370
" />
<path d="M65460 38826
L65460 39319
" />
<path d="M64633 38000
L65341 38708
" />
<path d="M58000 38000
L64633 38000
" />
<path d="M66239 39319
L66250 39330
" />
<path d="M65460 39319
L66239 39319
" />
<path d="M65460 39319
L66268 39319
" />
<path d="M66330 39381
L66330 39652
" />
<path d="M66268 39319
L66330 39381
" />
<path d="M65341 38708
L65460 38826
" />
<path d="M58000 44000
L60772 44000
" />
<path d="M60772 44000
L61630 43142
" />
<path d="M61546 42960
L62790 42960
" />
<path d="M58000 43000
L61506 43000
" />
<path d="M61506 43000
L61546 42960
" />
<path d="M58000 42000
L59137 40862
" />
<path d="M59137 40862
L61252 40862
" />
<path d="M62693 40940
L62866 40940
" />
<path d="M62304 40805
L62559 40805
" />
<path d="M58334 40665
L61321 40665
" />
<path d="M61446 40789
L62289 40789
" />
<path d="M63626 40180
L64700 40180
" />
<path d="M62289 40789
L62304 40805
" />
<path d="M61321 40665
L61446 40789
" />
<path d="M62866 40940
L63626 40180
" />
<path d="M62559 40805
L62693 40940
" />
<path d="M58000 41000
L58334 40665
" />
<path d="M58450 39549
L61428 39549
" />
<path d="M58000 40000
L58450 39549
" />
<path d="M63770 39000
L63790 38980
" />
<path d="M58000 39000
L63770 39000
" />
</g>
<g style="fill:#000000; fill-opacity:0.0; 
stroke:#000000; stroke-width:50; stroke-opacity:1; 
stroke-linecap:round; stroke-linejoin:round;">
<path d="M62750 44173
L62921 44344
" />
<path d="M62921 44344
L62921 44635
" />
<path d="M62750 43750
L62750 44173
" />
<path d="M63054 44612
L63078 44635
" />
<path d="M63054 43945
L63054 44612
" />
<path d="M63250 43750
L63054 43945
" />
</g>
<g style="fill:#000000; fill-opacity:0.0; 
stroke:#000000; stroke-width:60; stroke-opacity:1; 
stroke-linecap:round; stroke-linejoin:round;">
<path d="M63230 44350
L63230 44629
" />
<path d="M63230 44629
L63236 44635
" />
<path d="M59250 43370
L60174 43370
" />
<path d="M60174 43370
L60183 43360
" />
<path d="M67585 43585
L67585 42147
" />
<path d="M65047 41110
L64867 40929
" />
<path d="M67585 42147
L66547 41110
" />
<path d="M66547 41110
L65047 41110
" />
<path d="M62248 40915
L61892 41271
" />
<path d="M62648 41050
L62513 40915
" />
<path d="M63031 40929
L62911 41050
" />
<path d="M62513 40915
L62248 40915
" />
<path d="M62911 41050
L62648 41050
" />
<path d="M68000 44000
L67585 43585
" />
<path d="M64867 40929
L63031 40929
" />
<path d="M65651 43020
L64929 42297
" />
<path d="M64913 41287
L62143 41287
" />
<path d="M66090 43020
L65651 43020
" />
<path d="M64929 42297
L64929 41303
" />
<path d="M62143 41287
L61979 41451
" />
<path d="M64929 41303
L64913 41287
" />
<path d="M60871 41451
L60730 41310
" />
<path d="M61979 41451
L60871 41451
" />
<path d="M62957 41160
L62585 41160
" />
<path d="M62585 41160
L62521 41095
" />
<path d="M65039 42252
L65039 41257
" />
<path d="M62521 41095
L62380 41095
" />
<path d="M66100 42590
L65377 42590
" />
<path d="M65039 41257
L64862 41080
" />
<path d="M64862 41080
L63037 41080
" />
<path d="M63037 41080
L62957 41160
" />
<path d="M65377 42590
L65039 42252
" />
<path d="M60050 42340
L60050 42350
" />
<path d="M60750 41640
L60050 42340
" />
<path d="M64843 40749
L64420 40749
" />
<path d="M65093 41000
L64843 40749
" />
<path d="M68000 41000
L65093 41000
" />
<path d="M62158 40625
L62391 40625
" />
<path d="M61512 39980
L62158 40625
" />
<path d="M68000 40000
L62897 40000
" />
<path d="M62197 39300
L61430 39300
" />
<path d="M62897 40000
L62197 39300
" />
<path d="M67167 39832
L68000 39000
" />
<path d="M63870 39340
L64362 39832
" />
<path d="M64362 39832
L67167 39832
" />
<path d="M67890 37890
L68000 38000
" />
<path d="M66770 37890
L67890 37890
" />
<path d="M67864 37530
L68000 37394
" />
<path d="M68000 37394
L68000 37000
" />
<path d="M66820 37530
L67864 37530
" />
<path d="M59598 42705
L59242 42350
" />
<path d="M63250 42224
L62768 42705
" />
<path d="M62768 42705
L59598 42705
" />
<path d="M63250 41801
L63250 42224
" />
<path d="M62320 40300
L62320 39980
" />
<path d="M62760 40740
L62320 40300
" />
</g>
<g >
</g>
<g style="fill:#000000; fill-opacity:0.0; 
stroke:#000000; stroke-width:60; stroke-opacity:1; 
stroke-linecap:round; stroke-linejoin:round;">
</g>
<g style="fill:#000000; fill-opacity:1.0; 
stroke:#000000; stroke-width:100; stroke-opacity:1; 
stroke-linecap:round; stroke-linejoin:round;">
<path style="fill:#000000; fill-opacity:1.0; 
stroke:#000000; stroke-width:100; stroke-opacity:1; 
stroke-linecap:round; stroke-linejoin:round;fill-rule:evenodd;"
d="M 64604,41750
64612,41750
64612,41850
64604,41850
64604,42420
64660,42476
64660,43204
64649,43203
64535,43204
64472,43266
64472,43680
64480,43680
64480,43780
64472,43780
64472,43787
64372,43787
64372,43780
64009,43780
63989,43800
63800,43800
63800,43807
63700,43807
63700,43800
63692,43800
63692,43700
63700,43700
63700,43178
63800,43178
63800,43700
64055,43700
64075,43680
64372,43680
64372,43266
64310,43204
64196,43203
64147,43208
64100,43222
64080,43233
64076,43226
64045,43188
64007,43157
63964,43134
63917,43119
63868,43114
63862,43116
63800,43178
63700,43178
63637,43116
63631,43114
63590,43119
63590,42432
63631,42436
63637,42435
63700,42372
63700,41851
63800,41851
63800,42372
63862,42435
63868,42436
63917,42431
63964,42417
64007,42393
64045,42363
64050,42372
64081,42410
64119,42442
64163,42465
64210,42479
64259,42484
64441,42483
64504,42420
64504,41850
64071,41850
64063,41858
64055,41851
63800,41851
63700,41851
63692,41851
63692,41751
63700,41751
63700,41743
63800,41743
63800,41751
64055,41751
64064,41742
64071,41750
64504,41750
64504,41742
64604,41742
64604,41750
Z" /> 
<path style="fill:#000000; fill-opacity:1.0; 
stroke:#000000; stroke-width:100; stroke-opacity:1; 
stroke-linecap:round; stroke-linejoin:round;fill-rule:evenodd;"
d="M 57550,33887
57612,33950
58225,33950
58225,33942
58325,33942
58325,33950
58937,33950
59000,33887
59001,33038
60998,33038
61000,33887
61062,33950
61675,33950
61675,33942
61775,33942
61775,33950
62387,33950
62450,33887
62451,33038
63548,33038
63550,33887
63612,33950
64225,33950
64225,33942
64325,33942
64325,33950
64937,33950
65000,33887
65001,33038
66998,33038
67000,33887
67062,33950
67675,33950
67675,33942
67775,33942
67775,33950
68387,33950
68450,33887
68451,33038
68861,33038
68861,47686
64988,47686
64988,47513
65006,47513
65006,47501
65019,47513
65057,47509
65104,47494
65133,47479
65135,47481
65135,47513
65167,47513
65176,47514
65192,47513
65235,47513
65235,47508
65273,47498
65294,47487
65310,47497
65324,47495
65413,47459
65493,47406
65561,47339
65615,47259
65652,47171
65671,47077
65671,46861
65235,46861
65235,46868
65201,46868
65193,46861
64988,46861
64988,46761
65193,46761
65201,46753
65235,46753
65235,46761
65671,46761
65671,46544
65652,46450
65615,46362
65561,46282
65493,46215
65413,46162
65324,46126
65310,46124
65294,46134
65273,46123
65235,46113
65235,46108
65192,46108
65176,46107
65167,46108
65135,46108
65135,46140
65133,46142
65104,46127
65057,46112
65019,46108
65006,46120
65006,46108
64988,46108
64988,45484
65045,45507
65059,45509
65135,45460
65135,44872
65235,44872
65235,45460
65310,45509
65324,45507
65413,45471
65493,45418
65561,45351
65615,45271
65652,45183
65660,45140
67432,45140
67450,45198
67499,45301
67567,45393
67653,45470
67751,45529
67845,45562
67821,45569
67741,45612
67670,45670
67612,45741
67569,45821
67543,45909
67534,46000
67543,46090
67569,46178
67612,46258
67670,46329
67741,46387
67821,46430
67909,46456
67977,46463
68022,46463
68090,46456
68178,46430
68258,46387
68329,46329
68387,46258
68430,46178
68456,46090
68465,46000
68456,45909
68430,45821
68387,45741
68329,45670
68258,45612
68178,45569
68154,45562
68248,45529
68346,45470
68432,45393
68500,45301
68549,45198
68567,45140
68519,45050
68050,45050
68050,45057
67950,45057
67950,45050
67480,45050
67432,45140
65660,45140
65671,45089
65671,44872
65235,44872
65135,44872
65127,44872
65127,44772
65135,44772
65135,44238
65180,44193
65180,44185
65235,44185
65235,44772
65671,44772
65671,44556
65652,44462
65615,44374
65561,44294
65515,44248
65552,44237
65595,44214
65634,44183
65665,44145
65688,44101
65702,44054
65707,44005
65706,43842
65643,43780
65280,43780
65280,44156
65235,44185
65180,44185
65180,43780
65172,43780
65172,43680
65180,43680
65180,43266
65280,43266
65280,43680
65643,43680
65706,43617
65707,43454
65702,43405
65688,43358
65665,43314
65634,43276
65595,43245
65552,43222
65505,43208
65456,43203
65342,43204
65280,43266
65180,43266
65117,43204
65003,43203
64960,43207
64960,42552
65534,43126
65539,43132
65563,43152
65590,43167
65620,43176
65644,43178
65644,43178
65651,43179
65659,43178
65925,43178
65944,43197
65981,43222
66023,43239
66067,43248
66112,43248
66156,43239
66198,43222
66235,43197
66267,43165
66292,43128
66309,43086
66318,43042
66318,42997
66309,42953
66292,42911
66267,42874
66235,42842
66198,42817
66173,42807
66208,42792
66245,42767
66277,42735
66302,42698
66319,42656
66328,42612
66328,42567
66319,42523
66302,42481
66283,42452
66315,42420
66315,41850
66415,41850
66415,42420
66478,42483
66660,42484
66709,42479
66756,42465
66800,42442
66838,42410
66869,42372
66892,42329
66907,42282
66911,42233
66910,41912
66848,41850
66415,41850
66315,41850
66307,41850
66307,41750
66315,41750
66315,41742
66415,41742
66415,41750
66848,41750
66905,41692
67426,42213
67426,43577
67425,43585
67426,43593
67426,43593
67428,43616
67437,43646
67452,43673
67472,43698
67478,43703
67579,43803
67569,43821
67543,43909
67534,44000
67543,44090
67569,44178
67612,44258
67670,44329
67741,44387
67821,44430
67845,44437
67751,44470
67653,44529
67567,44606
67499,44698
67450,44801
67432,44859
67480,44950
67950,44950
67950,44942
68050,44942
68050,44950
68519,44950
68567,44859
68549,44801
68500,44698
68432,44606
68346,44529
68248,44470
68154,44437
68178,44430
68258,44387
68329,44329
68387,44258
68430,44178
68456,44090
68465,44000
68456,43909
68430,43821
68387,43741
68329,43670
68258,43612
68178,43569
68090,43543
68022,43536
67977,43536
67909,43543
67821,43569
67803,43579
67744,43519
67744,43388
67821,43430
67909,43456
67977,43463
68022,43463
68090,43456
68178,43430
68258,43387
68329,43329
68387,43258
68430,43178
68456,43090
68465,43000
68456,42909
68430,42821
68387,42741
68329,42670
68258,42612
68178,42569
68090,42543
68022,42536
67977,42536
67909,42543
67821,42569
67744,42611
67744,42388
67821,42430
67909,42456
67977,42463
68022,42463
68090,42456
68178,42430
68258,42387
68329,42329
68387,42258
68430,42178
68456,42090
68465,42000
68456,41909
68430,41821
68387,41741
68329,41670
68258,41612
68178,41569
68090,41543
68022,41536
67977,41536
67909,41543
67821,41569
67741,41612
67670,41670
67612,41741
67569,41821
67549,41887
66820,41158
67563,41158
67569,41178
67612,41258
67670,41329
67741,41387
67821,41430
67909,41456
67977,41463
68022,41463
68090,41456
68178,41430
68258,41387
68329,41329
68387,41258
68430,41178
68456,41090
68465,41000
68456,40909
68430,40821
68387,40741
68329,40670
68258,40612
68178,40569
68090,40543
68022,40536
67977,40536
67909,40543
67821,40569
67741,40612
67670,40670
67612,40741
67569,40821
67563,40841
65159,40841
64961,40643
64956,40637
64931,40617
64904,40602
64874,40593
64851,40591
64851,40591
64843,40590
64835,40591
64584,40591
64565,40572
64528,40547
64486,40530
64442,40521
64397,40521
64353,40530
64311,40547
64274,40572
64242,40604
64217,40641
64200,40683
64191,40727
64191,40771
63259,40771
63692,40338
64535,40338
64554,40357
64591,40382
64633,40399
64677,40408
64722,40408
64766,40399
64808,40382
64845,40357
64877,40325
64902,40288
64919,40246
64928,40202
64928,40158
67563,40158
67569,40178
67612,40258
67670,40329
67741,40387
67821,40430
67909,40456
67977,40463
68022,40463
68090,40456
68178,40430
68258,40387
68329,40329
68387,40258
68430,40178
68456,40090
68465,40000
68456,39909
68430,39821
68387,39741
68329,39670
68258,39612
68178,39569
68090,39543
68022,39536
67977,39536
67909,39543
67821,39569
67741,39612
67670,39670
67612,39741
67569,39821
67563,39841
67383,39841
67803,39420
67821,39430
67909,39456
67977,39463
68022,39463
68090,39456
68178,39430
68258,39387
68329,39329
68387,39258
68430,39178
68456,39090
68465,39000
68456,38909
68430,38821
68387,38741
68329,38670
68258,38612
68178,38569
68090,38543
68022,38536
67977,38536
67909,38543
67821,38569
67741,38612
67670,38670
67612,38741
67569,38821
67543,38909
67534,39000
67543,39090
67569,39178
67579,39196
67101,39674
66558,39674
66558,39630
66549,39586
66532,39544
66507,39507
66488,39488
66488,39389
66489,39381
66488,39374
66488,39374
66486,39350
66477,39320
66462,39293
66442,39269
66436,39264
66385,39213
66380,39207
66356,39187
66337,39176
66337,38895
66436,38896
66485,38891
66532,38877
66575,38854
66614,38823
66645,38785
66668,38741
66682,38694
66687,38645
66686,38482
66623,38420
66260,38420
66260,38427
66160,38427
66160,38420
66152,38420
66152,38320
66160,38320
66160,37600
66152,37600
66152,37500
66160,37500
66160,37086
66260,37086
66260,37500
66267,37500
66267,37600
66260,37600
66260,38320
66623,38320
66686,38257
66687,38103
66703,38109
66747,38118
66792,38118
66836,38109
66878,38092
66915,38067
66934,38048
67539,38048
67543,38090
67569,38178
67612,38258
67670,38329
67741,38387
67821,38430
67909,38456
67977,38463
68022,38463
68090,38456
68178,38430
68258,38387
68329,38329
68387,38258
68430,38178
68456,38090
68465,38000
68456,37909
68430,37821
68387,37741
68329,37670
68258,37612
68178,37569
68090,37543
68077,37541
68106,37512
68112,37507
68119,37498
68132,37483
68142,37464
68334,37464
68359,37461
68384,37454
68406,37442
68426,37426
68442,37406
68454,37384
68461,37359
68464,37334
68464,36665
68461,36640
68454,36615
68442,36593
68426,36573
68406,36557
68384,36545
68359,36538
68334,36535
67665,36535
67640,36538
67615,36545
67593,36557
67573,36573
67557,36593
67545,36615
67538,36640
67535,36665
67535,37334
67538,37359
67541,37371
66984,37371
66965,37352
66928,37327
66886,37310
66842,37301
66797,37301
66753,37310
66711,37327
66687,37343
66687,37274
66682,37225
66668,37178
66645,37134
66614,37096
66575,37065
66532,37042
66485,37028
66436,37023
66322,37024
66260,37086
66160,37086
66097,37024
65983,37023
65934,37028
65887,37042
65844,37065
65805,37096
65774,37134
65751,37178
65737,37225
65732,37269
65720,37246
65691,37211
65657,37183
65618,37162
65575,37149
65530,37145
65274,37145
65230,37149
65227,37150
64590,36513
64585,36507
64561,36487
64533,36472
64504,36463
64480,36461
64480,36461
64472,36460
64465,36461
63694,36461
63675,36442
63638,36417
63596,36400
63552,36391
63507,36391
63463,36400
63421,36417
63384,36442
63352,36474
63327,36511
63310,36553
63301,36597
63301,36642
63310,36686
63327,36728
63352,36765
63384,36797
63421,36822
63463,36839
63507,36848
63552,36848
63596,36839
63638,36822
63675,36797
63694,36778
64407,36778
65047,37418
65047,37727
65051,37771
65064,37814
65085,37853
65113,37888
65148,37916
65187,37937
65230,37950
65244,37951
65244,37968
65230,37969
65187,37982
65148,38003
65113,38031
65085,38066
65064,38105
65051,38148
65047,38189
64750,37893
64746,37887
64721,37867
64694,37852
64664,37843
64641,37841
64641,37841
64633,37840
64625,37841
58436,37841
58430,37821
58387,37741
58329,37670
58258,37612
58206,37585
58334,37585
58383,37581
58430,37566
58474,37543
58512,37512
58543,37474
58566,37430
58581,37383
58585,37334
58584,37112
58522,37050
58050,37050
58050,37057
57950,37057
57950,37050
57477,37050
57415,37112
57414,37334
57418,37383
57433,37430
57456,37474
57487,37512
57525,37543
57569,37566
57616,37581
57665,37585
57793,37585
57741,37612
57670,37670
57612,37741
57569,37821
57543,37909
57534,38000
57543,38090
57569,38178
57612,38258
57670,38329
57741,38387
57821,38430
57909,38456
57977,38463
58022,38463
58090,38456
58178,38430
58258,38387
58329,38329
58387,38258
58430,38178
58436,38158
64567,38158
65099,38691
65112,38706
65112,38730
65118,38757
64711,38757
64686,38759
64662,38767
64640,38779
64620,38795
64604,38814
64592,38837
64585,38861
64582,38886
64582,39674
64428,39674
64098,39344
64098,39317
64089,39273
64072,39231
64047,39194
64015,39162
63978,39137
63962,39130
63967,39125
63992,39088
64009,39046
64018,39002
64018,38957
64009,38913
63992,38871
63967,38834
63935,38802
63898,38777
63856,38760
63812,38751
63767,38751
63723,38760
63681,38777
63644,38802
63612,38834
63607,38841
58436,38841
58430,38821
58387,38741
58329,38670
58258,38612
58178,38569
58090,38543
58022,38536
57977,38536
57909,38543
57821,38569
57741,38612
57670,38670
57612,38741
57569,38821
57543,38909
57534,39000
57543,39090
57569,39178
57612,39258
57670,39329
57741,39387
57821,39430
57909,39456
57977,39463
58022,39463
58090,39456
58178,39430
58258,39387
58329,39329
58387,39258
58430,39178
58436,39158
61249,39158
61227,39191
61210,39233
61201,39277
61201,39322
61210,39366
61220,39391
58457,39391
58450,39390
58442,39391
58442,39391
58418,39393
58388,39402
58361,39417
58343,39432
58343,39432
58337,39437
58332,39443
58196,39579
58178,39569
58090,39543
58022,39536
57977,39536
57909,39543
57821,39569
57741,39612
57670,39670
57612,39741
57569,39821
57543,39909
57534,40000
57543,40090
57569,40178
57612,40258
57670,40329
57741,40387
57821,40430
57909,40456
57977,40463
58022,40463
58090,40456
58178,40430
58258,40387
58329,40329
58387,40258
58430,40178
58456,40090
58465,40000
58456,39909
58430,39821
58420,39803
58515,39708
61178,39708
61174,39715
61161,39758
61157,39802
61157,40157
61161,40201
61174,40244
61195,40283
61223,40318
61258,40346
61297,40367
61340,40380
61384,40384
61640,40384
61685,40380
61688,40379
61939,40631
61512,40631
61439,40558
61434,40552
61410,40532
61382,40517
61352,40508
61329,40506
61329,40506
61321,40505
61313,40506
58342,40506
58334,40505
58326,40506
58326,40506
58303,40508
58273,40517
58246,40532
58246,40532
58246,40532
58228,40547
58221,40552
58216,40558
58196,40579
58178,40569
58090,40543
58022,40536
57977,40536
57909,40543
57821,40569
57741,40612
57670,40670
57612,40741
57569,40821
57543,40909
57534,41000
57543,41090
57569,41178
57612,41258
57670,41329
57741,41387
57821,41430
57909,41456
57977,41463
58022,41463
58090,41456
58178,41430
58258,41387
58329,41329
58387,41258
58430,41178
58456,41090
58465,41000
58456,40909
58430,40824
58951,40824
58196,41579
58178,41569
58090,41543
58022,41536
57977,41536
57909,41543
57821,41569
57741,41612
57670,41670
57612,41741
57569,41821
57543,41909
57534,42000
57543,42090
57569,42178
57612,42258
57670,42329
57741,42387
57821,42430
57909,42456
57977,42463
58022,42463
58090,42456
58178,42430
58258,42387
58329,42329
58387,42258
58430,42178
58456,42090
58465,42000
58456,41909
58430,41821
58420,41803
59203,41020
61087,41020
61106,41039
61143,41064
61185,41082
61229,41090
61274,41090
61318,41082
61360,41064
61397,41039
61429,41007
61454,40970
61463,40948
61991,40948
61897,41042
61870,41042
61826,41051
61784,41068
61747,41093
61715,41125
61690,41163
61673,41204
61664,41249
61664,41292
60958,41292
60958,41287
60949,41243
60932,41201
60907,41164
60875,41132
60838,41107
60796,41090
60752,41081
60707,41081
60663,41090
60621,41107
60584,41132
60552,41164
60527,41201
60510,41243
60501,41287
60501,41332
60510,41376
60527,41418
60552,41455
60581,41485
60572,41494
60547,41531
60530,41573
60521,41617
60521,41644
60216,41948
60177,41945
59922,41945
59877,41949
59834,41962
59795,41983
59760,42011
59732,42046
59711,42085
59698,42128
59694,42172
59694,42527
59696,42546
59664,42546
59598,42481
59598,42172
59594,42128
59581,42085
59560,42046
59531,42011
59497,41983
59458,41962
59415,41949
59370,41945
59114,41945
59070,41949
59027,41962
58988,41983
58953,42011
58925,42046
58904,42085
58891,42128
58887,42172
58887,42527
58891,42571
58904,42614
58925,42653
58953,42688
58988,42716
59027,42737
59070,42750
59114,42754
59370,42754
59415,42750
59418,42749
59480,42812
59485,42818
59491,42823
59491,42823
59509,42838
59509,42838
59515,42841
58436,42841
58430,42821
58387,42741
58329,42670
58258,42612
58178,42569
58090,42543
58022,42536
57977,42536
57909,42543
57821,42569
57741,42612
57670,42670
57612,42741
57569,42821
57543,42909
57534,43000
57543,43090
57569,43178
57612,43258
57670,43329
57741,43387
57821,43430
57909,43456
57977,43463
58022,43463
58090,43456
58178,43430
58258,43387
58329,43329
58387,43258
58430,43178
58436,43158
59162,43158
59141,43167
59104,43192
59072,43224
59047,43261
59030,43303
59021,43347
59021,43392
59030,43436
59047,43478
59072,43515
59104,43547
59141,43572
59183,43589
59227,43598
59272,43598
59316,43589
59358,43572
59395,43547
59414,43528
60028,43528
60037,43538
60075,43563
60116,43580
60161,43589
60206,43589
60250,43580
60292,43563
60329,43538
60361,43506
60386,43469
60403,43427
60412,43383
60412,43338
60403,43294
60386,43252
60361,43215
60329,43183
60292,43158
61389,43158
60707,43841
58436,43841
58430,43821
58387,43741
58329,43670
58258,43612
58178,43569
58090,43543
58022,43536
57977,43536
57909,43543
57821,43569
57741,43612
57670,43670
57612,43741
57569,43821
57543,43909
57534,44000
57543,44090
57569,44178
57612,44258
57670,44329
57741,44387
57821,44430
57909,44456
57977,44463
58022,44463
58090,44456
58178,44430
58258,44387
58329,44329
58387,44258
58430,44178
58436,44158
60624,44158
60586,44174
60506,44227
60438,44294
60384,44374
60347,44462
60328,44556
60328,44772
60764,44772
60764,44764
60864,44764
60864,44772
60872,44772
60872,44872
60864,44872
60864,45460
60940,45509
60954,45507
61011,45484
61011,46108
60993,46108
60993,46120
60980,46108
60942,46112
60895,46127
60879,46135
60852,46108
60842,46107
60793,46110
60746,46123
60713,46140
60689,46124
60675,46126
60586,46162
60506,46215
60438,46282
60384,46362
60347,46450
60328,46544
60328,46761
60764,46761
60764,46719
60806,46761
61011,46761
61011,46861
60806,46861
60764,46902
60764,46861
60328,46861
60328,47077
60347,47171
60384,47259
60438,47339
60506,47406
60586,47459
60675,47495
60689,47497
60713,47481
60746,47498
60793,47511
60842,47514
60852,47513
60879,47486
60895,47494
60942,47509
60980,47513
60993,47501
60993,47513
61011,47513
61011,47686
57138,47686
57138,46140
57432,46140
57450,46198
57499,46301
57567,46393
57653,46470
57751,46529
57859,46567
57950,46520
57950,46050
58050,46050
58050,46520
58140,46567
58248,46529
58346,46470
58432,46393
58500,46301
58549,46198
58567,46140
58519,46050
58050,46050
57950,46050
57480,46050
57432,46140
57138,46140
57138,45859
57432,45859
57480,45950
57950,45950
57950,45942
58050,45942
58050,45950
58519,45950
58567,45859
58549,45801
58500,45698
58432,45606
58346,45529
58248,45470
58154,45437
58178,45430
58258,45387
58329,45329
58387,45258
58430,45178
58456,45090
58465,45000
58456,44909
58445,44872
60328,44872
60328,45089
60347,45183
60384,45271
60438,45351
60506,45418
60586,45471
60675,45507
60689,45509
60764,45460
60764,44872
60328,44872
58445,44872
58430,44821
58387,44741
58329,44670
58258,44612
58178,44569
58090,44543
58022,44536
57977,44536
57909,44543
57821,44569
57741,44612
57670,44670
57612,44741
57569,44821
57543,44909
57534,45000
57543,45090
57569,45178
57612,45258
57670,45329
57741,45387
57821,45430
57845,45437
57751,45470
57653,45529
57567,45606
57499,45698
57450,45801
57432,45859
57138,45859
57138,36665
57414,36665
57415,36887
57477,36950
57950,36950
57950,36477
58050,36477
58050,36950
58522,36950
58584,36887
58585,36665
58581,36616
58566,36569
58543,36525
58512,36487
58474,36456
58430,36433
58383,36418
58334,36414
58112,36415
58050,36477
57950,36477
57887,36415
57665,36414
57616,36418
57569,36433
57525,36456
57487,36487
57456,36525
57433,36569
57418,36616
57414,36665
57138,36665
57138,35000
57548,35000
57553,35049
57567,35096
57591,35139
57622,35177
57660,35208
57703,35232
57750,35246
57800,35251
58162,35250
58225,35187
58225,34050
58325,34050
58325,35187
58387,35250
58750,35251
58799,35246
58846,35232
58889,35208
58927,35177
58958,35139
58982,35096
58996,35049
59001,35000
60998,35000
61003,35049
61017,35096
61041,35139
61072,35177
61110,35208
61153,35232
61200,35246
61250,35251
61612,35250
61675,35187
61675,34050
61775,34050
61775,35187
61837,35250
62200,35251
62249,35246
62296,35232
62339,35208
62377,35177
62408,35139
62432,35096
62446,35049
62451,35000
63548,35000
63553,35049
63567,35096
63591,35139
63622,35177
63660,35208
63703,35232
63750,35246
63800,35251
64162,35250
64225,35187
64225,34050
64325,34050
64325,35187
64387,35250
64750,35251
64799,35246
64846,35232
64889,35208
64927,35177
64958,35139
64982,35096
64996,35049
65001,35000
66998,35000
67003,35049
67017,35096
67041,35139
67072,35177
67110,35208
67153,35232
67200,35246
67250,35251
67612,35250
67675,35187
67675,34050
67775,34050
67775,35187
67837,35250
68200,35251
68249,35246
68296,35232
68339,35208
68377,35177
68408,35139
68432,35096
68446,35049
68451,35000
68450,34112
68387,34050
67775,34050
67675,34050
67062,34050
67000,34112
66998,35000
65001,35000
65000,34112
64937,34050
64325,34050
64225,34050
63612,34050
63550,34112
63548,35000
62451,35000
62450,34112
62387,34050
61775,34050
61675,34050
61062,34050
61000,34112
60998,35000
59001,35000
59000,34112
58937,34050
58325,34050
58225,34050
57612,34050
57550,34112
57548,35000
57138,35000
57138,33038
57548,33038
57550,33887
Z" /> 
<path style="fill:#000000; fill-opacity:1.0; 
stroke:#000000; stroke-width:100; stroke-opacity:1; 
stroke-linecap:round; stroke-linejoin:round;fill-rule:evenodd;"
d="M 64808,44294
64754,44374
64742,44402
64739,44396
64723,44377
64703,44360
64681,44348
64657,44341
64631,44339
64598,44339
64596,44335
64577,44310
64710,44310
64758,44305
64805,44290
64819,44283
64808,44294
Z" /> 
<path style="fill:#000000; fill-opacity:1.0; 
stroke:#000000; stroke-width:100; stroke-opacity:1; 
stroke-linecap:round; stroke-linejoin:round;fill-rule:evenodd;"
d="M 62082,43119
62035,43134
61992,43157
61954,43188
61923,43226
61899,43270
61885,43317
61880,43366
61881,43637
61944,43700
62200,43700
62200,43692
62295,43692
62295,43807
62200,43807
62200,43800
61944,43800
61881,43862
61881,44006
61845,44030
61813,44062
61788,44100
61771,44141
61762,44185
61762,44223
61723,44218
61661,44281
61598,44218
61559,44223
61513,44239
61470,44263
61433,44296
61403,44335
61401,44339
61368,44339
61342,44341
61318,44348
61296,44360
61276,44377
61260,44396
61257,44402
61245,44374
61191,44294
61123,44227
61043,44174
60954,44137
60940,44136
60864,44185
60864,44129
60885,44112
60890,44106
61625,43371
61652,43371
61696,43362
61738,43345
61775,43320
61807,43288
61832,43251
61849,43209
61858,43165
61858,43120
61858,43118
62093,43118
62082,43119
Z" /> 
<path style="fill:#000000; fill-opacity:1.0; 
stroke:#000000; stroke-width:100; stroke-opacity:1; 
stroke-linecap:round; stroke-linejoin:round;fill-rule:evenodd;"
d="M 63002,41476
63002,42125
63006,42162
63016,42198
63029,42220
62703,42546
60403,42546
60405,42527
60405,42208
60429,42185
61880,42185
61885,42234
61899,42281
61923,42324
61954,42362
61992,42393
62035,42417
62082,42431
62131,42436
62137,42435
62200,42372
62200,41851
61944,41851
61881,41913
61880,42185
60429,42185
60745,41868
60772,41868
60816,41859
60858,41842
60895,41817
60927,41785
60952,41748
60969,41706
60978,41662
60978,41617
60977,41610
61881,41610
61881,41688
61944,41751
62200,41751
62200,41743
62300,41743
62300,41751
62307,41751
62307,41851
62300,41851
62300,42372
62362,42435
62368,42436
62417,42431
62464,42417
62507,42393
62545,42362
62576,42324
62596,42288
62618,42300
62654,42310
62690,42314
62809,42314
62845,42310
62881,42300
62913,42282
62942,42259
62965,42230
62983,42198
62993,42162
62997,42125
62997,41476
62994,41445
63005,41445
63002,41476
Z" /> 
</g>
</g> 
</svg>
