<?xml version="1.0" standalone="no"?>
 <!DOCTYPE svg PUBLIC "-//W3C//DTD SVG 1.1//EN" 
 "http://www.w3.org/Graphics/SVG/1.1/DTD/svg11.dtd"> 
<svg xmlns="http://www.w3.org/2000/svg" version="1.1" 
    width="29.7002cm" height="21.0007cm" viewBox="0 0 116930 82680 ">
<title>SVG Picture created as neo8_adapter-B_Mask.svg date 2020/02/13 12:15:50 </title>
  <desc>Picture generated by PCBNEW </desc>
<g style="fill:#000000; fill-opacity:1;stroke:#000000; stroke-opacity:1;
stroke-linecap:round; stroke-linejoin:round; "
 transform="translate(0 0) scale(1 1)">
</g>
<g style="fill:#000000; fill-opacity:0.0; 
stroke:#000000; stroke-width:-0.000393701; stroke-opacity:1; 
stroke-linecap:round; stroke-linejoin:round;">
</g>
<g style="fill:#000000; fill-opacity:1.0; 
stroke:#000000; stroke-width:0; stroke-opacity:1; 
stroke-linecap:round; stroke-linejoin:round;">
<path style="fill:#000000; fill-opacity:1.0; 
stroke:#000000; stroke-width:0; stroke-opacity:1; 
stroke-linecap:round; stroke-linejoin:round;fill-rule:evenodd;"
d="M 60825,46337
60829,46338
61112,46338
61112,47283
60829,47283
60825,47284
60814,47285
60804,47284
60799,47283
60784,47283
60776,47281
60772,47280
60764,47280
60728,47269
60716,47265
60671,47241
60632,47209
60600,47170
60577,47126
60573,47113
60562,47077
60558,47040
60558,46581
60562,46544
60577,46495
60577,46495
60600,46451
60632,46412
60671,46380
60716,46356
60739,46349
60764,46341
60772,46341
60781,46339
60784,46338
60799,46338
60804,46337
60814,46336
60825,46337
Z" /> 
<path style="fill:#000000; fill-opacity:1.0; 
stroke:#000000; stroke-width:0; stroke-opacity:1; 
stroke-linecap:round; stroke-linejoin:round;fill-rule:evenodd;"
d="M 65195,46337
65200,46338
65228,46338
65233,46341
65238,46342
65283,46356
65283,46356
65328,46380
65367,46412
65399,46451
65422,46495
65422,46495
65437,46544
65441,46581
65441,47040
65437,47077
65426,47113
65422,47126
65399,47170
65367,47209
65328,47241
65283,47265
65238,47279
65229,47282
65227,47283
65200,47283
65195,47284
65185,47285
65174,47284
65170,47283
64887,47283
64887,46338
65170,46338
65174,46337
65185,46336
65195,46337
Z" /> 
<path style="fill:#000000; fill-opacity:1.0; 
stroke:#000000; stroke-width:0; stroke-opacity:1; 
stroke-linecap:round; stroke-linejoin:round;fill-rule:evenodd;"
d="M 68043,45647
68069,45650
68136,45670
68198,45703
68212,45715
68252,45747
68284,45787
68296,45801
68329,45863
68349,45930
68356,46000
68349,46069
68329,46136
68296,46198
68284,46212
68252,46252
68212,46284
68198,46296
68136,46329
68069,46349
68043,46352
68017,46354
67982,46354
67956,46352
67930,46349
67863,46329
67801,46296
67787,46284
67747,46252
67715,46212
67703,46198
67670,46136
67650,46069
67643,46000
67650,45930
67670,45863
67703,45801
67715,45787
67747,45747
67787,45715
67801,45703
67863,45670
67930,45650
67956,45647
67982,45645
68017,45645
68043,45647
Z" /> 
<path style="fill:#000000; fill-opacity:1.0; 
stroke:#000000; stroke-width:0; stroke-opacity:1; 
stroke-linecap:round; stroke-linejoin:round;fill-rule:evenodd;"
d="M 58043,45647
58069,45650
58136,45670
58198,45703
58212,45715
58252,45747
58284,45787
58296,45801
58329,45863
58349,45930
58356,46000
58349,46069
58329,46136
58296,46198
58284,46212
58252,46252
58212,46284
58198,46296
58136,46329
58069,46349
58043,46352
58017,46354
57982,46354
57956,46352
57930,46349
57863,46329
57801,46296
57787,46284
57747,46252
57715,46212
57703,46198
57670,46136
57650,46069
57643,46000
57650,45930
57670,45863
57703,45801
57715,45787
57747,45747
57787,45715
57801,45703
57863,45670
57930,45650
57956,45647
57982,45645
58017,45645
58043,45647
Z" /> 
<path style="fill:#000000; fill-opacity:1.0; 
stroke:#000000; stroke-width:0; stroke-opacity:1; 
stroke-linecap:round; stroke-linejoin:round;fill-rule:evenodd;"
d="M 68043,44647
68069,44650
68136,44670
68198,44703
68212,44715
68252,44747
68284,44787
68296,44801
68329,44863
68349,44930
68356,45000
68349,45069
68329,45136
68296,45198
68284,45212
68252,45252
68212,45284
68198,45296
68136,45329
68069,45349
68043,45352
68017,45354
67982,45354
67956,45352
67930,45349
67863,45329
67801,45296
67787,45284
67747,45252
67715,45212
67703,45198
67670,45136
67650,45069
67643,45000
67650,44930
67670,44863
67703,44801
67715,44787
67747,44747
67787,44715
67801,44703
67863,44670
67930,44650
67956,44647
67982,44645
68017,44645
68043,44647
Z" /> 
<path style="fill:#000000; fill-opacity:1.0; 
stroke:#000000; stroke-width:0; stroke-opacity:1; 
stroke-linecap:round; stroke-linejoin:round;fill-rule:evenodd;"
d="M 58043,44647
58069,44650
58136,44670
58198,44703
58212,44715
58252,44747
58284,44787
58296,44801
58329,44863
58349,44930
58356,45000
58349,45069
58329,45136
58296,45198
58284,45212
58252,45252
58212,45284
58198,45296
58136,45329
58069,45349
58043,45352
58017,45354
57982,45354
57956,45352
57930,45349
57863,45329
57801,45296
57787,45284
57747,45252
57715,45212
57703,45198
57670,45136
57650,45069
57643,45000
57650,44930
57670,44863
57703,44801
57715,44787
57747,44747
57787,44715
57801,44703
57863,44670
57930,44650
57956,44647
57982,44645
58017,44645
58043,44647
Z" /> 
<path style="fill:#000000; fill-opacity:1.0; 
stroke:#000000; stroke-width:0; stroke-opacity:1; 
stroke-linecap:round; stroke-linejoin:round;fill-rule:evenodd;"
d="M 60865,44353
60900,44364
60913,44368
60958,44392
60997,44424
61029,44463
61052,44507
61052,44507
61067,44556
61071,44593
61071,45051
61067,45089
61057,45122
61052,45137
61029,45182
60997,45221
60958,45253
60913,45277
60900,45281
60865,45291
60814,45296
60764,45291
60728,45281
60716,45277
60671,45253
60632,45221
60600,45182
60577,45137
60567,45107
60562,45089
60558,45051
60558,44593
60562,44556
60577,44507
60577,44507
60600,44463
60632,44424
60671,44392
60716,44368
60728,44364
60764,44353
60814,44348
60865,44353
Z" /> 
<path style="fill:#000000; fill-opacity:1.0; 
stroke:#000000; stroke-width:0; stroke-opacity:1; 
stroke-linecap:round; stroke-linejoin:round;fill-rule:evenodd;"
d="M 65235,44353
65271,44364
65283,44368
65328,44392
65367,44424
65399,44463
65422,44507
65422,44507
65437,44556
65441,44593
65441,45051
65437,45089
65427,45122
65422,45137
65399,45182
65367,45221
65328,45253
65283,45277
65271,45281
65235,45291
65185,45296
65134,45291
65099,45281
65086,45277
65041,45253
65002,45221
64970,45182
64947,45137
64937,45107
64932,45089
64928,45051
64928,44593
64932,44556
64947,44507
64947,44507
64970,44463
65002,44424
65041,44392
65086,44368
65099,44364
65134,44353
65185,44348
65235,44353
Z" /> 
<path style="fill:#000000; fill-opacity:1.0; 
stroke:#000000; stroke-width:0; stroke-opacity:1; 
stroke-linecap:round; stroke-linejoin:round;fill-rule:evenodd;"
d="M 64651,44823
63924,44823
63915,44824
63906,44826
63897,44831
63890,44837
63883,44845
63879,44853
63876,44862
63875,44872
63876,44882
63879,44891
63883,44899
63890,44907
63894,44911
63909,44934
63914,44946
63920,44959
63925,44986
63925,45013
63920,45040
63920,45040
63909,45065
63894,45088
63875,45107
63852,45122
63832,45130
63827,45132
63801,45138
63773,45138
63747,45132
63742,45130
63721,45122
63699,45107
63680,45088
63670,45074
63664,45066
63657,45060
63648,45056
63639,45053
63629,45052
63620,45053
63611,45056
63602,45060
63595,45066
63589,45074
63579,45088
63560,45107
63537,45122
63517,45130
63512,45132
63486,45138
63458,45138
63432,45132
63427,45130
63406,45122
63384,45107
63365,45088
63355,45074
63349,45066
63342,45060
63333,45056
63324,45053
63314,45052
63305,45053
63296,45056
63287,45060
63280,45066
63274,45074
63264,45088
63245,45107
63222,45122
63202,45130
63197,45132
63171,45138
63143,45138
63117,45132
63112,45130
63092,45122
63069,45107
63050,45088
63040,45074
63034,45066
63027,45060
63018,45056
63009,45053
63000,45052
62990,45053
62981,45056
62972,45060
62965,45066
62959,45074
62949,45088
62930,45107
62907,45122
62887,45130
62882,45132
62856,45138
62828,45138
62802,45132
62797,45130
62777,45122
62754,45107
62735,45088
62725,45074
62719,45066
62712,45060
62703,45056
62694,45053
62685,45052
62675,45053
62666,45056
62657,45060
62650,45066
62644,45074
62634,45088
62615,45107
62593,45122
62572,45130
62567,45132
62541,45138
62513,45138
62487,45132
62482,45130
62462,45122
62439,45107
62420,45088
62410,45074
62404,45066
62397,45060
62388,45056
62379,45053
62370,45052
62360,45053
62351,45056
62342,45060
62335,45066
62329,45074
62319,45088
62300,45107
62278,45122
62257,45130
62252,45132
62226,45138
62198,45138
62172,45132
62167,45130
62147,45122
62124,45107
62105,45088
62090,45065
62079,45040
62079,45040
62074,45013
62074,44986
62079,44959
62085,44946
62090,44934
62105,44911
62109,44907
62116,44899
62120,44891
62123,44882
62124,44872
62300,44872
62301,44882
62304,44891
62309,44899
62315,44907
62319,44911
62329,44925
62335,44933
62342,44939
62351,44943
62360,44946
62370,44947
62379,44946
62388,44943
62397,44939
62404,44933
62410,44925
62420,44911
62424,44907
62431,44899
62435,44891
62438,44882
62439,44872
62615,44872
62616,44882
62619,44891
62624,44899
62630,44907
62634,44911
62644,44925
62650,44933
62657,44939
62666,44943
62675,44946
62685,44947
62694,44946
62703,44943
62712,44939
62719,44933
62725,44925
62735,44911
62739,44907
62745,44899
62750,44891
62753,44882
62754,44872
62930,44872
62931,44882
62934,44891
62939,44899
62945,44907
62949,44911
62959,44925
62965,44933
62972,44939
62981,44943
62990,44946
63000,44947
63009,44946
63018,44943
63027,44939
63034,44933
63040,44925
63050,44911
63054,44907
63060,44899
63065,44891
63068,44882
63069,44872
63245,44872
63246,44882
63249,44891
63254,44899
63260,44907
63264,44911
63274,44925
63280,44933
63287,44939
63296,44943
63305,44946
63314,44947
63324,44946
63333,44943
63342,44939
63349,44933
63355,44925
63365,44911
63369,44907
63375,44899
63380,44891
63383,44882
63384,44872
63560,44872
63561,44882
63564,44891
63568,44899
63575,44907
63579,44911
63589,44925
63595,44933
63602,44939
63611,44943
63620,44946
63629,44947
63639,44946
63648,44943
63657,44939
63664,44933
63670,44925
63680,44911
63684,44907
63690,44899
63695,44891
63698,44882
63699,44872
63698,44862
63695,44853
63690,44845
63684,44837
63677,44831
63668,44826
63659,44824
63649,44823
63609,44823
63600,44824
63591,44826
63582,44831
63575,44837
63568,44845
63564,44853
63561,44862
63560,44872
63384,44872
63383,44862
63380,44853
63375,44845
63369,44837
63362,44831
63353,44826
63344,44824
63334,44823
63294,44823
63285,44824
63276,44826
63267,44831
63260,44837
63254,44845
63249,44853
63246,44862
63245,44872
63069,44872
63068,44862
63065,44853
63060,44845
63054,44837
63047,44831
63038,44826
63029,44824
63020,44823
62979,44823
62970,44824
62961,44826
62952,44831
62945,44837
62939,44845
62934,44853
62931,44862
62930,44872
62754,44872
62753,44862
62750,44853
62745,44845
62739,44837
62732,44831
62723,44826
62714,44824
62705,44823
62665,44823
62655,44824
62646,44826
62637,44831
62630,44837
62624,44845
62619,44853
62616,44862
62615,44872
62439,44872
62438,44862
62435,44853
62431,44845
62424,44837
62417,44831
62408,44826
62399,44824
62390,44823
62350,44823
62340,44824
62331,44826
62322,44831
62315,44837
62309,44845
62304,44853
62301,44862
62300,44872
62124,44872
62123,44862
62120,44853
62116,44845
62109,44837
62102,44831
62093,44826
62084,44824
62075,44823
61348,44823
61348,44448
64651,44448
64651,44823
Z" /> 
<path style="fill:#000000; fill-opacity:1.0; 
stroke:#000000; stroke-width:0; stroke-opacity:1; 
stroke-linecap:round; stroke-linejoin:round;fill-rule:evenodd;"
d="M 58043,43647
58069,43650
58136,43670
58198,43703
58212,43715
58252,43747
58284,43787
58296,43801
58329,43863
58349,43930
58356,44000
58349,44069
58330,44134
58329,44136
58321,44150
58296,44198
58284,44212
58252,44252
58212,44284
58198,44296
58136,44329
58069,44349
58043,44352
58017,44354
57982,44354
57956,44352
57930,44349
57863,44329
57801,44296
57787,44284
57747,44252
57715,44212
57703,44198
57678,44150
57670,44136
57669,44134
57650,44069
57643,44000
57650,43930
57670,43863
57703,43801
57715,43787
57747,43747
57787,43715
57801,43703
57863,43670
57930,43650
57956,43647
57982,43645
58017,43645
58043,43647
Z" /> 
<path style="fill:#000000; fill-opacity:1.0; 
stroke:#000000; stroke-width:0; stroke-opacity:1; 
stroke-linecap:round; stroke-linejoin:round;fill-rule:evenodd;"
d="M 68043,43647
68069,43650
68136,43670
68198,43703
68212,43715
68252,43747
68284,43787
68296,43801
68329,43863
68349,43930
68356,44000
68349,44069
68330,44134
68329,44136
68321,44150
68296,44198
68284,44212
68252,44252
68212,44284
68198,44296
68136,44329
68069,44349
68043,44352
68017,44354
67982,44354
67956,44352
67930,44349
67863,44329
67801,44296
67787,44284
67747,44252
67715,44212
67703,44198
67678,44150
67670,44136
67669,44134
67650,44069
67643,44000
67650,43930
67670,43863
67703,43801
67715,43787
67747,43747
67787,43715
67801,43703
67863,43670
67930,43650
67956,43647
67982,43645
68017,43645
68043,43647
Z" /> 
<path style="fill:#000000; fill-opacity:1.0; 
stroke:#000000; stroke-width:0; stroke-opacity:1; 
stroke-linecap:round; stroke-linejoin:round;fill-rule:evenodd;"
d="M 63352,43347
63360,43349
63368,43353
63374,43359
63380,43365
63384,43373
63387,43381
63388,43392
63388,44107
63387,44118
63384,44126
63380,44134
63374,44140
63368,44146
63360,44150
63352,44152
63341,44153
63158,44153
63147,44152
63139,44150
63131,44146
63125,44140
63119,44134
63115,44126
63112,44118
63111,44107
63111,43392
63112,43381
63115,43373
63119,43365
63125,43359
63131,43353
63139,43349
63147,43347
63158,43346
63341,43346
63352,43347
Z" /> 
<path style="fill:#000000; fill-opacity:1.0; 
stroke:#000000; stroke-width:0; stroke-opacity:1; 
stroke-linecap:round; stroke-linejoin:round;fill-rule:evenodd;"
d="M 63852,43347
63860,43349
63868,43353
63874,43359
63880,43365
63884,43373
63887,43381
63888,43392
63888,44107
63887,44118
63884,44126
63880,44134
63874,44140
63868,44146
63860,44150
63852,44152
63841,44153
63658,44153
63647,44152
63639,44150
63631,44146
63625,44140
63619,44134
63615,44126
63612,44118
63611,44107
63611,43392
63612,43381
63615,43373
63619,43365
63625,43359
63631,43353
63639,43349
63647,43347
63658,43346
63841,43346
63852,43347
Z" /> 
<path style="fill:#000000; fill-opacity:1.0; 
stroke:#000000; stroke-width:0; stroke-opacity:1; 
stroke-linecap:round; stroke-linejoin:round;fill-rule:evenodd;"
d="M 62352,43347
62360,43349
62368,43353
62374,43359
62380,43365
62384,43373
62387,43381
62388,43392
62388,44107
62387,44118
62384,44126
62380,44134
62374,44140
62368,44146
62360,44150
62352,44152
62341,44153
62158,44153
62147,44152
62139,44150
62131,44146
62125,44140
62119,44134
62115,44126
62112,44118
62111,44107
62111,43392
62112,43381
62115,43373
62119,43365
62125,43359
62131,43353
62139,43349
62147,43347
62158,43346
62341,43346
62352,43347
Z" /> 
<path style="fill:#000000; fill-opacity:1.0; 
stroke:#000000; stroke-width:0; stroke-opacity:1; 
stroke-linecap:round; stroke-linejoin:round;fill-rule:evenodd;"
d="M 62852,43347
62860,43349
62868,43353
62874,43359
62880,43365
62884,43373
62887,43381
62888,43392
62888,44107
62887,44118
62884,44126
62880,44134
62874,44140
62868,44146
62860,44150
62852,44152
62841,44153
62658,44153
62647,44152
62639,44150
62631,44146
62625,44140
62619,44134
62615,44126
62612,44118
62611,44107
62611,43392
62612,43381
62615,43373
62619,43365
62625,43359
62631,43353
62639,43349
62647,43347
62658,43346
62841,43346
62852,43347
Z" /> 
<path style="fill:#000000; fill-opacity:1.0; 
stroke:#000000; stroke-width:0; stroke-opacity:1; 
stroke-linecap:round; stroke-linejoin:round;fill-rule:evenodd;"
d="M 64605,43436
64620,43440
64633,43447
64645,43457
64655,43469
64663,43483
64667,43498
64669,43516
64669,43943
64667,43961
64663,43976
64655,43990
64645,44002
64633,44012
64620,44019
64605,44023
64587,44025
64258,44025
64240,44023
64225,44019
64211,44012
64199,44002
64190,43990
64182,43976
64178,43961
64176,43943
64176,43516
64178,43498
64182,43483
64190,43469
64199,43457
64211,43447
64225,43440
64240,43436
64258,43434
64587,43434
64605,43436
Z" /> 
<path style="fill:#000000; fill-opacity:1.0; 
stroke:#000000; stroke-width:0; stroke-opacity:1; 
stroke-linecap:round; stroke-linejoin:round;fill-rule:evenodd;"
d="M 65412,43436
65427,43440
65441,43447
65453,43457
65462,43469
65470,43483
65474,43498
65476,43516
65476,43943
65474,43961
65470,43976
65462,43990
65453,44002
65441,44012
65427,44019
65412,44023
65394,44025
65065,44025
65047,44023
65032,44019
65018,44012
65006,44002
64997,43990
64989,43976
64985,43961
64983,43943
64983,43516
64985,43498
64989,43483
64997,43469
65006,43457
65018,43447
65032,43440
65047,43436
65065,43434
65394,43434
65412,43436
Z" /> 
<path style="fill:#000000; fill-opacity:1.0; 
stroke:#000000; stroke-width:0; stroke-opacity:1; 
stroke-linecap:round; stroke-linejoin:round;fill-rule:evenodd;"
d="M 58043,42647
58069,42650
58136,42670
58198,42703
58212,42715
58252,42747
58284,42787
58296,42801
58329,42863
58349,42930
58356,43000
58349,43069
58329,43136
58296,43198
58284,43212
58252,43252
58212,43284
58198,43296
58136,43329
58069,43349
58043,43352
58017,43354
57982,43354
57956,43352
57930,43349
57863,43329
57801,43296
57787,43284
57747,43252
57715,43212
57703,43198
57670,43136
57650,43069
57643,43000
57650,42930
57670,42863
57703,42801
57715,42787
57747,42747
57787,42715
57801,42703
57863,42670
57930,42650
57956,42647
57982,42645
58017,42645
58043,42647
Z" /> 
<path style="fill:#000000; fill-opacity:1.0; 
stroke:#000000; stroke-width:0; stroke-opacity:1; 
stroke-linecap:round; stroke-linejoin:round;fill-rule:evenodd;"
d="M 68043,42647
68069,42650
68136,42670
68198,42703
68212,42715
68252,42747
68284,42787
68296,42801
68329,42863
68349,42930
68356,43000
68349,43069
68329,43136
68296,43198
68284,43212
68252,43252
68212,43284
68198,43296
68136,43329
68069,43349
68043,43352
68017,43354
67982,43354
67956,43352
67930,43349
67863,43329
67801,43296
67787,43284
67747,43252
67715,43212
67703,43198
67670,43136
67650,43069
67643,43000
67650,42930
67670,42863
67703,42801
67715,42787
67747,42747
67787,42715
67801,42703
67863,42670
67930,42650
67956,42647
67982,42645
68017,42645
68043,42647
Z" /> 
<path style="fill:#000000; fill-opacity:1.0; 
stroke:#000000; stroke-width:0; stroke-opacity:1; 
stroke-linecap:round; stroke-linejoin:round;fill-rule:evenodd;"
d="M 59425,42056
59440,42060
59453,42067
59465,42077
59475,42089
59483,42103
59487,42118
59489,42136
59489,42563
59487,42581
59483,42596
59475,42610
59465,42622
59453,42632
59440,42639
59425,42643
59407,42645
59078,42645
59060,42643
59045,42639
59031,42632
59019,42622
59010,42610
59002,42596
58998,42581
58996,42563
58996,42136
58998,42118
59002,42103
59010,42089
59019,42077
59031,42067
59045,42060
59060,42056
59078,42054
59407,42054
59425,42056
Z" /> 
<path style="fill:#000000; fill-opacity:1.0; 
stroke:#000000; stroke-width:0; stroke-opacity:1; 
stroke-linecap:round; stroke-linejoin:round;fill-rule:evenodd;"
d="M 60232,42056
60247,42060
60261,42067
60273,42077
60282,42089
60290,42103
60294,42118
60296,42136
60296,42563
60294,42581
60290,42596
60282,42610
60273,42622
60261,42632
60247,42639
60232,42643
60214,42645
59885,42645
59867,42643
59852,42639
59838,42632
59826,42622
59817,42610
59809,42596
59805,42581
59803,42563
59803,42136
59805,42118
59809,42103
59817,42089
59826,42077
59838,42067
59852,42060
59867,42056
59885,42054
60214,42054
60232,42056
Z" /> 
<path style="fill:#000000; fill-opacity:1.0; 
stroke:#000000; stroke-width:0; stroke-opacity:1; 
stroke-linecap:round; stroke-linejoin:round;fill-rule:evenodd;"
d="M 58043,41647
58069,41650
58136,41670
58198,41703
58212,41715
58252,41747
58284,41787
58296,41801
58329,41863
58349,41930
58356,42000
58349,42069
58329,42136
58296,42198
58290,42205
58252,42252
58212,42284
58198,42296
58136,42329
58069,42349
58043,42352
58017,42354
57982,42354
57956,42352
57930,42349
57863,42329
57801,42296
57787,42284
57747,42252
57709,42205
57703,42198
57670,42136
57650,42069
57643,42000
57650,41930
57670,41863
57703,41801
57715,41787
57747,41747
57787,41715
57801,41703
57863,41670
57930,41650
57956,41647
57982,41645
58017,41645
58043,41647
Z" /> 
<path style="fill:#000000; fill-opacity:1.0; 
stroke:#000000; stroke-width:0; stroke-opacity:1; 
stroke-linecap:round; stroke-linejoin:round;fill-rule:evenodd;"
d="M 68043,41647
68069,41650
68136,41670
68198,41703
68212,41715
68252,41747
68284,41787
68296,41801
68329,41863
68349,41930
68356,42000
68349,42069
68329,42136
68296,42198
68290,42205
68252,42252
68212,42284
68198,42296
68136,42329
68069,42349
68043,42352
68017,42354
67982,42354
67956,42352
67930,42349
67863,42329
67801,42296
67787,42284
67747,42252
67709,42205
67703,42198
67670,42136
67650,42069
67643,42000
67650,41930
67670,41863
67703,41801
67715,41787
67747,41747
67787,41715
67801,41703
67863,41670
67930,41650
67956,41647
67982,41645
68017,41645
68043,41647
Z" /> 
<path style="fill:#000000; fill-opacity:1.0; 
stroke:#000000; stroke-width:0; stroke-opacity:1; 
stroke-linecap:round; stroke-linejoin:round;fill-rule:evenodd;"
d="M 64869,42253
64239,42253
64239,41347
64869,41347
64869,42253
Z" /> 
<path style="fill:#000000; fill-opacity:1.0; 
stroke:#000000; stroke-width:0; stroke-opacity:1; 
stroke-linecap:round; stroke-linejoin:round;fill-rule:evenodd;"
d="M 65775,42253
65144,42253
65144,41347
65775,41347
65775,42253
Z" /> 
<path style="fill:#000000; fill-opacity:1.0; 
stroke:#000000; stroke-width:0; stroke-opacity:1; 
stroke-linecap:round; stroke-linejoin:round;fill-rule:evenodd;"
d="M 66680,42253
66050,42253
66050,41347
66680,41347
66680,42253
Z" /> 
<path style="fill:#000000; fill-opacity:1.0; 
stroke:#000000; stroke-width:0; stroke-opacity:1; 
stroke-linecap:round; stroke-linejoin:round;fill-rule:evenodd;"
d="M 63352,41398
63360,41400
63368,41404
63374,41410
63380,41417
63384,41424
63387,41433
63388,41444
63388,42158
63387,42169
63384,42177
63380,42185
63374,42191
63368,42197
63360,42201
63352,42204
63341,42205
63158,42205
63147,42204
63139,42201
63131,42197
63125,42191
63119,42185
63115,42177
63112,42169
63111,42158
63111,41444
63112,41433
63115,41424
63119,41417
63125,41410
63131,41404
63139,41400
63147,41398
63158,41397
63341,41397
63352,41398
Z" /> 
<path style="fill:#000000; fill-opacity:1.0; 
stroke:#000000; stroke-width:0; stroke-opacity:1; 
stroke-linecap:round; stroke-linejoin:round;fill-rule:evenodd;"
d="M 63852,41398
63860,41400
63868,41404
63874,41410
63880,41417
63884,41424
63887,41433
63888,41444
63888,42158
63887,42169
63884,42177
63880,42185
63874,42191
63868,42197
63860,42201
63852,42204
63841,42205
63658,42205
63647,42204
63639,42201
63631,42197
63625,42191
63619,42185
63615,42177
63612,42169
63611,42158
63611,41444
63612,41433
63615,41424
63619,41417
63625,41410
63631,41404
63639,41400
63647,41398
63658,41397
63841,41397
63852,41398
Z" /> 
<path style="fill:#000000; fill-opacity:1.0; 
stroke:#000000; stroke-width:0; stroke-opacity:1; 
stroke-linecap:round; stroke-linejoin:round;fill-rule:evenodd;"
d="M 62852,41398
62860,41400
62868,41404
62874,41410
62880,41417
62884,41424
62887,41433
62888,41444
62888,42158
62887,42169
62884,42177
62880,42185
62874,42191
62868,42197
62860,42201
62852,42204
62841,42205
62658,42205
62647,42204
62639,42201
62631,42197
62625,42191
62619,42185
62615,42177
62612,42169
62611,42158
62611,41444
62612,41433
62615,41424
62619,41417
62625,41410
62631,41404
62639,41400
62647,41398
62658,41397
62841,41397
62852,41398
Z" /> 
<path style="fill:#000000; fill-opacity:1.0; 
stroke:#000000; stroke-width:0; stroke-opacity:1; 
stroke-linecap:round; stroke-linejoin:round;fill-rule:evenodd;"
d="M 62352,41398
62360,41400
62368,41404
62374,41410
62380,41417
62384,41424
62387,41433
62388,41444
62388,42158
62387,42169
62384,42177
62380,42185
62374,42191
62368,42197
62360,42201
62352,42204
62341,42205
62158,42205
62147,42204
62139,42201
62131,42197
62125,42191
62119,42185
62115,42177
62112,42169
62111,42158
62111,41444
62112,41433
62115,41424
62119,41417
62125,41410
62131,41404
62139,41400
62147,41398
62158,41397
62341,41397
62352,41398
Z" /> 
<path style="fill:#000000; fill-opacity:1.0; 
stroke:#000000; stroke-width:0; stroke-opacity:1; 
stroke-linecap:round; stroke-linejoin:round;fill-rule:evenodd;"
d="M 68043,40647
68069,40650
68136,40670
68198,40703
68212,40715
68252,40747
68284,40787
68296,40801
68329,40863
68349,40930
68356,41000
68349,41069
68329,41136
68296,41198
68284,41212
68252,41252
68212,41284
68198,41296
68136,41329
68069,41349
68043,41352
68017,41354
67982,41354
67956,41352
67930,41349
67863,41329
67801,41296
67787,41284
67747,41252
67715,41212
67703,41198
67670,41136
67650,41069
67643,41000
67650,40930
67670,40863
67703,40801
67715,40787
67747,40747
67787,40715
67801,40703
67863,40670
67930,40650
67956,40647
67982,40645
68017,40645
68043,40647
Z" /> 
<path style="fill:#000000; fill-opacity:1.0; 
stroke:#000000; stroke-width:0; stroke-opacity:1; 
stroke-linecap:round; stroke-linejoin:round;fill-rule:evenodd;"
d="M 58043,40647
58069,40650
58136,40670
58198,40703
58212,40715
58252,40747
58284,40787
58296,40801
58329,40863
58349,40930
58356,41000
58349,41069
58329,41136
58296,41198
58284,41212
58252,41252
58212,41284
58198,41296
58136,41329
58069,41349
58043,41352
58017,41354
57982,41354
57956,41352
57930,41349
57863,41329
57801,41296
57787,41284
57747,41252
57715,41212
57703,41198
57670,41136
57650,41069
57643,41000
57650,40930
57670,40863
57703,40801
57715,40787
57747,40747
57787,40715
57801,40703
57863,40670
57930,40650
57956,40647
57982,40645
58017,40645
58043,40647
Z" /> 
<path style="fill:#000000; fill-opacity:1.0; 
stroke:#000000; stroke-width:0; stroke-opacity:1; 
stroke-linecap:round; stroke-linejoin:round;fill-rule:evenodd;"
d="M 68043,39647
68069,39650
68136,39670
68198,39703
68212,39715
68252,39747
68284,39787
68296,39801
68329,39863
68349,39930
68356,40000
68349,40069
68329,40136
68296,40198
68285,40211
68252,40252
68212,40284
68198,40296
68136,40329
68069,40349
68043,40352
68017,40354
67982,40354
67956,40352
67930,40349
67863,40329
67801,40296
67787,40284
67747,40252
67714,40211
67703,40198
67670,40136
67650,40069
67643,40000
67650,39930
67670,39863
67703,39801
67715,39787
67747,39747
67787,39715
67801,39703
67863,39670
67930,39650
67956,39647
67982,39645
68017,39645
68043,39647
Z" /> 
<path style="fill:#000000; fill-opacity:1.0; 
stroke:#000000; stroke-width:0; stroke-opacity:1; 
stroke-linecap:round; stroke-linejoin:round;fill-rule:evenodd;"
d="M 58043,39647
58069,39650
58136,39670
58198,39703
58212,39715
58252,39747
58284,39787
58296,39801
58329,39863
58349,39930
58356,40000
58349,40069
58329,40136
58296,40198
58285,40211
58252,40252
58212,40284
58198,40296
58136,40329
58069,40349
58043,40352
58017,40354
57982,40354
57956,40352
57930,40349
57863,40329
57801,40296
57787,40284
57747,40252
57714,40211
57703,40198
57670,40136
57650,40069
57643,40000
57650,39930
57670,39863
57703,39801
57715,39787
57747,39747
57787,39715
57801,39703
57863,39670
57930,39650
57956,39647
57982,39645
58017,39645
58043,39647
Z" /> 
<path style="fill:#000000; fill-opacity:1.0; 
stroke:#000000; stroke-width:0; stroke-opacity:1; 
stroke-linecap:round; stroke-linejoin:round;fill-rule:evenodd;"
d="M 61695,39686
61710,39690
61723,39697
61735,39707
61745,39719
61753,39733
61757,39748
61759,39766
61759,40193
61757,40211
61753,40226
61745,40240
61735,40252
61723,40262
61710,40269
61695,40273
61677,40275
61348,40275
61330,40273
61315,40269
61301,40262
61289,40252
61280,40240
61272,40226
61268,40211
61266,40193
61266,39766
61268,39748
61272,39733
61280,39719
61289,39707
61301,39697
61315,39690
61330,39686
61348,39684
61677,39684
61695,39686
Z" /> 
<path style="fill:#000000; fill-opacity:1.0; 
stroke:#000000; stroke-width:0; stroke-opacity:1; 
stroke-linecap:round; stroke-linejoin:round;fill-rule:evenodd;"
d="M 62502,39686
62517,39690
62531,39697
62543,39707
62552,39719
62560,39733
62564,39748
62566,39766
62566,40193
62564,40211
62560,40226
62552,40240
62543,40252
62531,40262
62517,40269
62502,40273
62484,40275
62155,40275
62137,40273
62122,40269
62108,40262
62096,40252
62087,40240
62079,40226
62075,40211
62073,40193
62073,39766
62075,39748
62079,39733
62087,39719
62096,39707
62108,39697
62122,39690
62137,39686
62155,39684
62484,39684
62502,39686
Z" /> 
<path style="fill:#000000; fill-opacity:1.0; 
stroke:#000000; stroke-width:0; stroke-opacity:1; 
stroke-linecap:round; stroke-linejoin:round;fill-rule:evenodd;"
d="M 66228,39772
64691,39772
64691,38866
66228,38866
66228,39772
Z" /> 
<path style="fill:#000000; fill-opacity:1.0; 
stroke:#000000; stroke-width:0; stroke-opacity:1; 
stroke-linecap:round; stroke-linejoin:round;fill-rule:evenodd;"
d="M 58043,38647
58069,38650
58136,38670
58198,38703
58212,38715
58252,38747
58284,38787
58296,38801
58329,38863
58349,38930
58356,39000
58349,39069
58329,39136
58296,39198
58284,39212
58252,39252
58212,39284
58198,39296
58136,39329
58069,39349
58043,39352
58017,39354
57982,39354
57956,39352
57930,39349
57863,39329
57801,39296
57787,39284
57747,39252
57715,39212
57703,39198
57670,39136
57650,39069
57643,39000
57650,38930
57670,38863
57703,38801
57715,38787
57747,38747
57787,38715
57801,38703
57863,38670
57930,38650
57956,38647
57982,38645
58017,38645
58043,38647
Z" /> 
<path style="fill:#000000; fill-opacity:1.0; 
stroke:#000000; stroke-width:0; stroke-opacity:1; 
stroke-linecap:round; stroke-linejoin:round;fill-rule:evenodd;"
d="M 68043,38647
68069,38650
68136,38670
68198,38703
68212,38715
68252,38747
68284,38787
68296,38801
68329,38863
68349,38930
68356,39000
68349,39069
68329,39136
68296,39198
68284,39212
68252,39252
68212,39284
68198,39296
68136,39329
68069,39349
68043,39352
68017,39354
67982,39354
67956,39352
67930,39349
67863,39329
67801,39296
67787,39284
67747,39252
67715,39212
67703,39198
67670,39136
67650,39069
67643,39000
67650,38930
67670,38863
67703,38801
67715,38787
67747,38747
67787,38715
67801,38703
67863,38670
67930,38650
67956,38647
67982,38645
68017,38645
68043,38647
Z" /> 
<path style="fill:#000000; fill-opacity:1.0; 
stroke:#000000; stroke-width:0; stroke-opacity:1; 
stroke-linecap:round; stroke-linejoin:round;fill-rule:evenodd;"
d="M 66392,38076
66407,38080
66421,38087
66433,38097
66442,38109
66450,38123
66454,38138
66456,38156
66456,38583
66454,38601
66450,38616
66442,38630
66433,38642
66421,38652
66407,38659
66392,38663
66374,38665
66045,38665
66027,38663
66012,38659
65998,38652
65986,38642
65977,38630
65969,38616
65965,38601
65963,38583
65963,38156
65965,38138
65969,38123
65977,38109
65986,38097
65998,38087
66012,38080
66027,38076
66045,38074
66374,38074
66392,38076
Z" /> 
<path style="fill:#000000; fill-opacity:1.0; 
stroke:#000000; stroke-width:0; stroke-opacity:1; 
stroke-linecap:round; stroke-linejoin:round;fill-rule:evenodd;"
d="M 65585,38076
65600,38080
65613,38087
65625,38097
65635,38109
65643,38123
65647,38138
65649,38156
65649,38583
65647,38601
65643,38616
65635,38630
65625,38642
65613,38652
65600,38659
65585,38663
65567,38665
65238,38665
65220,38663
65205,38659
65191,38652
65179,38642
65170,38630
65162,38616
65158,38601
65156,38583
65156,38156
65158,38138
65162,38123
65170,38109
65179,38097
65191,38087
65205,38080
65220,38076
65238,38074
65567,38074
65585,38076
Z" /> 
<path style="fill:#000000; fill-opacity:1.0; 
stroke:#000000; stroke-width:0; stroke-opacity:1; 
stroke-linecap:round; stroke-linejoin:round;fill-rule:evenodd;"
d="M 68043,37647
68069,37650
68136,37670
68198,37703
68212,37715
68252,37747
68277,37779
68296,37801
68329,37863
68349,37930
68356,38000
68349,38069
68329,38136
68296,38198
68284,38212
68252,38252
68212,38284
68198,38296
68136,38329
68069,38349
68043,38352
68017,38354
67982,38354
67956,38352
67930,38349
67863,38329
67801,38296
67787,38284
67747,38252
67715,38212
67703,38198
67670,38136
67650,38069
67643,38000
67650,37930
67670,37863
67703,37801
67722,37779
67747,37747
67787,37715
67801,37703
67863,37670
67930,37650
67956,37647
67982,37645
68017,37645
68043,37647
Z" /> 
<path style="fill:#000000; fill-opacity:1.0; 
stroke:#000000; stroke-width:0; stroke-opacity:1; 
stroke-linecap:round; stroke-linejoin:round;fill-rule:evenodd;"
d="M 58043,37647
58069,37650
58136,37670
58198,37703
58212,37715
58252,37747
58277,37779
58296,37801
58329,37863
58349,37930
58356,38000
58349,38069
58329,38136
58296,38198
58284,38212
58252,38252
58212,38284
58198,38296
58136,38329
58069,38349
58043,38352
58017,38354
57982,38354
57956,38352
57930,38349
57863,38329
57801,38296
57787,38284
57747,38252
57715,38212
57703,38198
57670,38136
57650,38069
57643,38000
57650,37930
57670,37863
57703,37801
57722,37779
57747,37747
57787,37715
57801,37703
57863,37670
57930,37650
57956,37647
57982,37645
58017,37645
58043,37647
Z" /> 
<path style="fill:#000000; fill-opacity:1.0; 
stroke:#000000; stroke-width:0; stroke-opacity:1; 
stroke-linecap:round; stroke-linejoin:round;fill-rule:evenodd;"
d="M 65585,37256
65600,37260
65613,37267
65625,37277
65635,37289
65643,37303
65647,37318
65649,37336
65649,37763
65647,37781
65643,37796
65635,37810
65625,37822
65613,37832
65600,37839
65585,37843
65567,37845
65238,37845
65220,37843
65205,37839
65191,37832
65179,37822
65170,37810
65162,37796
65158,37781
65156,37763
65156,37336
65158,37318
65162,37303
65170,37289
65179,37277
65191,37267
65205,37260
65220,37256
65238,37254
65567,37254
65585,37256
Z" /> 
<path style="fill:#000000; fill-opacity:1.0; 
stroke:#000000; stroke-width:0; stroke-opacity:1; 
stroke-linecap:round; stroke-linejoin:round;fill-rule:evenodd;"
d="M 66392,37256
66407,37260
66421,37267
66433,37277
66442,37289
66450,37303
66454,37318
66456,37336
66456,37763
66454,37781
66450,37796
66442,37810
66433,37822
66421,37832
66407,37839
66392,37843
66374,37845
66045,37845
66027,37843
66012,37839
65998,37832
65986,37822
65977,37810
65969,37796
65965,37781
65963,37763
65963,37336
65965,37318
65969,37303
65977,37289
65986,37277
65998,37267
66012,37260
66027,37256
66045,37254
66374,37254
66392,37256
Z" /> 
<path style="fill:#000000; fill-opacity:1.0; 
stroke:#000000; stroke-width:0; stroke-opacity:1; 
stroke-linecap:round; stroke-linejoin:round;fill-rule:evenodd;"
d="M 58354,37354
57645,37354
57645,36645
58354,36645
58354,37354
Z" /> 
<path style="fill:#000000; fill-opacity:1.0; 
stroke:#000000; stroke-width:0; stroke-opacity:1; 
stroke-linecap:round; stroke-linejoin:round;fill-rule:evenodd;"
d="M 68354,37354
67645,37354
67645,36645
68354,36645
68354,37354
Z" /> 
<path style="fill:#000000; fill-opacity:1.0; 
stroke:#000000; stroke-width:0; stroke-opacity:1; 
stroke-linecap:round; stroke-linejoin:round;fill-rule:evenodd;"
d="M 64770,35020
63779,35020
63779,32979
64770,32979
64770,35020
Z" /> 
<path style="fill:#000000; fill-opacity:1.0; 
stroke:#000000; stroke-width:0; stroke-opacity:1; 
stroke-linecap:round; stroke-linejoin:round;fill-rule:evenodd;"
d="M 68220,35020
67229,35020
67229,32979
68220,32979
68220,35020
Z" /> 
<path style="fill:#000000; fill-opacity:1.0; 
stroke:#000000; stroke-width:0; stroke-opacity:1; 
stroke-linecap:round; stroke-linejoin:round;fill-rule:evenodd;"
d="M 58770,35020
57779,35020
57779,32979
58770,32979
58770,35020
Z" /> 
<path style="fill:#000000; fill-opacity:1.0; 
stroke:#000000; stroke-width:0; stroke-opacity:1; 
stroke-linecap:round; stroke-linejoin:round;fill-rule:evenodd;"
d="M 62220,35020
61229,35020
61229,32979
62220,32979
62220,35020
Z" /> 
</g> 
</svg>
