<?xml version="1.0" standalone="no"?>
 <!DOCTYPE svg PUBLIC "-//W3C//DTD SVG 1.1//EN" 
 "http://www.w3.org/Graphics/SVG/1.1/DTD/svg11.dtd"> 
<svg xmlns="http://www.w3.org/2000/svg" version="1.1" 
    width="29.7002cm" height="21.0007cm" viewBox="0 0 116930 82680 ">
<title>SVG Picture created as neo8_adapter-F_SilkS.svg date 2020/02/13 12:15:50 </title>
  <desc>Picture generated by PCBNEW </desc>
<g style="fill:#000000; fill-opacity:1;stroke:#000000; stroke-opacity:1;
stroke-linecap:round; stroke-linejoin:round; "
 transform="translate(0 0) scale(1 1)">
</g>
<g style="fill:#000000; fill-opacity:0.0; 
stroke:#000000; stroke-width:-0.000393701; stroke-opacity:1; 
stroke-linecap:round; stroke-linejoin:round;">
</g>
<g style="fill:#000000; fill-opacity:0.0; 
stroke:#000000; stroke-width:47.2441; stroke-opacity:1; 
stroke-linecap:round; stroke-linejoin:round;">
<path d="M60073.7 40300.3 A275.591 275.591 0.0 0 0 59798.1 40024.7 " />
<path d="M59561.9 40024.7 A275.591 275.591 0.0 0 0 59286.3 40300.3 " />
<path d="M59286.3 41363.3 A275.591 275.591 0.0 0 0 59561.9 41638.9 " />
<path d="M59798.1 41638.9 A275.591 275.591 0.0 0 0 60073.7 41363.3 " />
<path d="M60073 40280
L60073 41382
" />
<path d="M59798 41638
L59561 41638
" />
<path d="M59286 41382
L59286 40280
" />
<path d="M59561 40024
L59798 40024
" />
<path d="M65444 43952
L65444 44188
" />
<path d="M65444 37807
L65444 38047
" />
<path d="M60555 43952
L60555 44192
" />
<path d="M60598 37807
L65444 37807
" />
<path d="M60555 44192
L65444 44192
" />
<path d="M65444 41039
L65444 41826
" />
<path d="M60555 41039
L60555 41826
" />
<path d="M62500 36579
L62706 36579
" />
<path d="M62500 36020
L62706 36020
" />
<path d="M64259 44235
L64053 44235
" />
<path d="M64259 44794
L64053 44794
" />
<path d="M59760 44913
L59760 45119
" />
<path d="M60319 44913
L60319 45119
" />
<path d="M60506 36020
L60300 36020
" />
<path d="M60506 36579
L60300 36579
" />
<path d="M66206 36495
L66206 35944
" />
<path d="M66481 35668
L66718 35668
" />
<path d="M66993 35944
L66993 36495
" />
<path d="M66718 36771
L66481 36771
" />
<path d="M66206.3 36495.6 A275.591 275.591 0.0 0 0 66481.9 36771.2 " />
<path d="M66718.1 36771.2 A275.591 275.591 0.0 0 0 66993.7 36495.6 " />
<path d="M66993.7 35944.4 A275.591 275.591 0.0 0 0 66718.1 35668.8 " />
<path d="M66481.9 35668.8 A275.591 275.591 0.0 0 0 66206.3 35944.4 " />
<path d="M66723 39134
L66723 39685
" />
<path d="M66448 39961
L66211 39961
" />
<path d="M65936 39685
L65936 39134
" />
<path d="M66211 38858
L66448 38858
" />
<path d="M66723.7 39134.4 A275.591 275.591 0.0 0 0 66448.1 38858.8 " />
<path d="M66211.9 38858.8 A275.591 275.591 0.0 0 0 65936.3 39134.4 " />
<path d="M65936.3 39685.6 A275.591 275.591 0.0 0 0 66211.9 39961.2 " />
<path d="M66448.1 39961.2 A275.591 275.591 0.0 0 0 66723.7 39685.6 " />
<path d="M67476 36476
L68000 36476
" />
<path d="M67476 37000
L67476 36476
" />
<path d="M67476 37500
L68523 37500
" />
<path d="M68523 37500
L68523 46523
" />
<path d="M67476 37500
L67476 46523
" />
<path d="M67476 46523
L68523 46523
" />
<path d="M57476 36476
L58000 36476
" />
<path d="M57476 37000
L57476 36476
" />
<path d="M57476 37500
L58523 37500
" />
<path d="M58523 37500
L58523 46523
" />
<path d="M57476 37500
L57476 46523
" />
<path d="M57476 46523
L58523 46523
" />
<path d="M60499 36920
L60293 36920
" />
<path d="M60499 37479
L60293 37479
" />
</g>
<g style="fill:#000000; fill-opacity:0.0; 
stroke:#000000; stroke-width:59.0551; stroke-opacity:1; 
stroke-linecap:round; stroke-linejoin:round;">
<path d="M58719 42208
L59000 42208
L59056 42226
L59094 42264
L59113 42320
L59113 42358
" />
<path d="M59113 42020
L58719 42020
L58719 41870
L58738 41833
L58756 41814
L58794 41795
L58850 41795
L58888 41814
L58906 41833
L58925 41870
L58925 42020
" />
<path d="M58719 41664
L58719 41420
L58869 41551
L58869 41495
L58888 41458
L58906 41439
L58944 41420
L59038 41420
L59075 41439
L59094 41458
L59113 41495
L59113 41608
L59094 41645
L59075 41664
" />
<path d="M58739 41051
L59058 41051
L59095 41033
L59114 41014
L59133 40976
L59133 40901
L59114 40864
L59095 40845
L59058 40826
L58739 40826
" />
<path d="M59114 40658
L59133 40601
L59133 40508
L59114 40470
L59095 40451
L59058 40433
L59020 40433
L58983 40451
L58964 40470
L58945 40508
L58926 40583
L58908 40620
L58889 40639
L58851 40658
L58814 40658
L58776 40639
L58758 40620
L58739 40583
L58739 40489
L58758 40433
" />
<path d="M58926 40133
L58945 40076
L58964 40058
L59001 40039
L59058 40039
L59095 40058
L59114 40076
L59133 40114
L59133 40264
L58739 40264
L58739 40133
L58758 40095
L58776 40076
L58814 40058
L58851 40058
L58889 40076
L58908 40095
L58926 40133
L58926 40264
" />
<path d="M59848 39617
L59848 39842
" />
<path d="M59848 39729
L59454 39729
L59510 39767
L59548 39804
L59566 39842
" />
<path d="M59848 39148
L59454 39148
L59454 39055
L59473 38998
L59510 38961
L59548 38942
L59623 38923
L59679 38923
L59754 38942
L59791 38961
L59829 38998
L59848 39055
L59848 39148
" />
<path d="M59848 38755
L59585 38755
" />
<path d="M59454 38755
L59473 38773
L59491 38755
L59473 38736
L59454 38755
L59491 38755
" />
<path d="M59829 38586
L59848 38548
L59848 38473
L59829 38436
L59791 38417
L59773 38417
L59735 38436
L59716 38473
L59716 38530
L59698 38567
L59660 38586
L59641 38586
L59604 38567
L59585 38530
L59585 38473
L59604 38436
" />
<path d="M59474 43047
L59474 42803
L59624 42934
L59624 42878
L59643 42841
L59661 42822
L59699 42803
L59793 42803
L59830 42822
L59849 42841
L59868 42878
L59868 42991
L59849 43028
L59830 43047
" />
<path d="M59661 42335
L59661 42203
" />
<path d="M59868 42147
L59868 42335
L59474 42335
L59474 42147
" />
<path d="M59605 41978
L59868 41978
" />
<path d="M59643 41978
L59624 41960
L59605 41922
L59605 41866
L59624 41828
L59661 41810
L59868 41810
" />
<path d="M62700 38284
L62700 38603
L62718 38640
L62737 38659
L62775 38678
L62850 38678
L62887 38659
L62906 38640
L62925 38603
L62925 38284
" />
<path d="M63093 38321
L63112 38303
L63149 38284
L63243 38284
L63281 38303
L63299 38321
L63318 38359
L63318 38396
L63299 38453
L63074 38678
L63318 38678
" />
<path d="M63634 36478
L63503 36290
" />
<path d="M63409 36478
L63409 36084
L63559 36084
L63596 36103
L63615 36121
L63634 36159
L63634 36215
L63615 36253
L63596 36271
L63559 36290
L63409 36290
" />
<path d="M63990 36084
L63803 36084
L63784 36271
L63803 36253
L63840 36234
L63934 36234
L63971 36253
L63990 36271
L64009 36309
L64009 36403
L63990 36440
L63971 36459
L63934 36478
L63840 36478
L63803 36459
L63784 36440
" />
<path d="M62964 44768
L62833 44580
" />
<path d="M62739 44768
L62739 44374
L62889 44374
L62926 44393
L62945 44411
L62964 44449
L62964 44505
L62945 44543
L62926 44561
L62889 44580
L62739 44580
" />
<path d="M63301 44505
L63301 44768
" />
<path d="M63208 44355
L63114 44636
L63358 44636
" />
<path d="M59568 45035
L59380 45166
" />
<path d="M59568 45260
L59174 45260
L59174 45110
L59193 45073
L59211 45054
L59249 45035
L59305 45035
L59343 45054
L59361 45073
L59380 45110
L59380 45260
" />
<path d="M59211 44885
L59193 44866
L59174 44829
L59174 44735
L59193 44698
L59211 44679
L59249 44660
L59286 44660
L59343 44679
L59568 44904
L59568 44660
" />
<path d="M61434 36478
L61246 36478
L61246 36084
" />
<path d="M61771 36478
L61546 36478
" />
<path d="M61659 36478
L61659 36084
L61621 36140
L61584 36178
L61546 36196
" />
<path d="M67104 36238
L67385 36238
L67441 36256
L67479 36294
L67498 36350
L67498 36388
" />
<path d="M67498 36050
L67104 36050
L67104 35900
L67123 35863
L67141 35844
L67179 35825
L67235 35825
L67273 35844
L67291 35863
L67310 35900
L67310 36050
" />
<path d="M67141 35675
L67123 35656
L67104 35619
L67104 35525
L67123 35488
L67141 35469
L67179 35450
L67216 35450
L67273 35469
L67498 35694
L67498 35450
" />
<path d="M66019 37147
L66038 37091
L66038 36997
L66019 36959
L66000 36941
L65963 36922
L65925 36922
L65888 36941
L65869 36959
L65850 36997
L65831 37072
L65813 37109
L65794 37128
L65756 37147
L65719 37147
L65681 37128
L65663 37109
L65644 37072
L65644 36978
L65663 36922
" />
<path d="M66038 36753
L65644 36753
L65644 36603
L65663 36566
L65681 36547
L65719 36528
L65775 36528
L65813 36547
L65831 36566
L65850 36603
L65850 36753
" />
<path d="M66038 36359
L65644 36359
" />
<path d="M66075 36266
L66075 35966
" />
<path d="M65831 35872
L65831 35741
" />
<path d="M66038 35685
L66038 35872
L65644 35872
L65644 35685
" />
<path d="M66038 35516
L65644 35516
L66038 35291
L65644 35291
" />
<path d="M66823 39738
L67104 39738
L67160 39756
L67198 39794
L67216 39850
L67216 39888
" />
<path d="M67216 39550
L66823 39550
L66823 39400
L66841 39363
L66860 39344
L66898 39325
L66954 39325
L66991 39344
L67010 39363
L67029 39400
L67029 39550
" />
<path d="M67216 38950
L67216 39175
" />
<path d="M67216 39063
L66823 39063
L66879 39100
L66916 39138
L66935 39175
" />
<path d="M66518 41978
L66124 41978
L66518 41753
L66124 41753
" />
<path d="M66518 41509
L66499 41546
L66480 41565
L66443 41584
L66330 41584
L66293 41565
L66274 41546
L66255 41509
L66255 41453
L66274 41415
L66293 41396
L66330 41378
L66443 41378
L66480 41396
L66499 41415
L66518 41453
L66518 41509
" />
<path d="M66311 40778
L66330 40721
L66349 40703
L66386 40684
L66443 40684
L66480 40703
L66499 40721
L66518 40759
L66518 40909
L66124 40909
L66124 40778
L66143 40740
L66161 40721
L66199 40703
L66236 40703
L66274 40721
L66293 40740
L66311 40778
L66311 40909
" />
<path d="M66518 40346
L66311 40346
L66274 40365
L66255 40403
L66255 40478
L66274 40515
" />
<path d="M66499 40346
L66518 40384
L66518 40478
L66499 40515
L66461 40534
L66424 40534
L66386 40515
L66368 40478
L66368 40384
L66349 40346
" />
<path d="M66255 40215
L66255 40065
" />
<path d="M66124 40159
L66461 40159
L66499 40140
L66518 40103
L66518 40065
" />
<path d="M66669 34166
L66950 34166
L67006 34184
L67044 34222
L67063 34278
L67063 34316
" />
<path d="M66669 33791
L66669 33978
L66856 33997
L66838 33978
L66819 33941
L66819 33847
L66838 33810
L66856 33791
L66894 33772
L66988 33772
L67025 33791
L67044 33810
L67063 33847
L67063 33941
L67044 33978
L67025 33997
" />
<path d="M64964 36377
L64964 36152
" />
<path d="M65358 36264
L64964 36264
" />
<path d="M65358 36021
L64964 36021
" />
<path d="M65358 35833
L64964 35833
L65245 35702
L64964 35571
L65358 35571
" />
<path d="M65151 35383
L65151 35252
" />
<path d="M65358 35196
L65358 35383
L64964 35383
L64964 35196
" />
<path d="M65358 35027
L64964 35027
L64964 34877
L64983 34840
L65001 34821
L65039 34802
L65095 34802
L65133 34821
L65151 34840
L65170 34877
L65170 35027
" />
<path d="M64964 34633
L65283 34633
L65320 34615
L65339 34596
L65358 34558
L65358 34483
L65339 34446
L65320 34427
L65283 34408
L64964 34408
" />
<path d="M65358 34033
L65358 34221
L64964 34221
" />
<path d="M65339 33921
L65358 33865
L65358 33771
L65339 33733
L65320 33715
L65283 33696
L65245 33696
L65208 33715
L65189 33733
L65170 33771
L65151 33846
L65133 33883
L65114 33902
L65076 33921
L65039 33921
L65001 33902
L64983 33883
L64964 33846
L64964 33752
L64983 33696
" />
<path d="M65151 33527
L65151 33396
" />
<path d="M65358 33340
L65358 33527
L64964 33527
L64964 33340
" />
<path d="M58944 34201
L59225 34201
L59281 34219
L59319 34257
L59338 34313
L59338 34351
" />
<path d="M59075 33845
L59338 33845
" />
<path d="M58925 33938
L59206 34032
L59206 33788
" />
<path d="M60930 34584
L60930 34397
" />
<path d="M61043 34622
L60649 34491
L61043 34359
" />
<path d="M61043 34228
L60649 34228
L61043 34003
L60649 34003
" />
<path d="M60649 33872
L60649 33647
" />
<path d="M61043 33760
L60649 33760
" />
<path d="M61434 37340
L61415 37359
L61359 37378
L61321 37378
L61265 37359
L61228 37321
L61209 37284
L61190 37209
L61190 37153
L61209 37078
L61228 37040
L61265 37003
L61321 36984
L61359 36984
L61415 37003
L61434 37021
" />
<path d="M61584 37021
L61603 37003
L61640 36984
L61734 36984
L61771 37003
L61790 37021
L61809 37059
L61809 37096
L61790 37153
L61565 37378
L61809 37378
" />
<g >
</g>
</g> 
</svg>
