G04 #@! TF.GenerationSoftware,KiCad,Pcbnew,(5.1.4-0-10_14)*
G04 #@! TF.CreationDate,2020-02-10T15:43:12-05:00*
G04 #@! TF.ProjectId,neo8_adapter,6e656f38-5f61-4646-9170-7465722e6b69,rev?*
G04 #@! TF.SameCoordinates,Original*
G04 #@! TF.FileFunction,Soldermask,Top*
G04 #@! TF.FilePolarity,Negative*
%FSLAX46Y46*%
G04 Gerber Fmt 4.6, Leading zero omitted, Abs format (unit mm)*
G04 Created by KiCad (PCBNEW (5.1.4-0-10_14)) date 2020-02-10 15:43:12*
%MOMM*%
%LPD*%
G04 APERTURE LIST*
%ADD10C,0.100000*%
G04 APERTURE END LIST*
D10*
G36*
X154495862Y-117698398D02*
G01*
X154508114Y-117699000D01*
X155226000Y-117699000D01*
X155226000Y-120101000D01*
X154508114Y-120101000D01*
X154495862Y-120101602D01*
X154470000Y-120104149D01*
X154444138Y-120101602D01*
X154431886Y-120101000D01*
X154392382Y-120101000D01*
X154373387Y-120095238D01*
X154361262Y-120093439D01*
X154342382Y-120091580D01*
X154251596Y-120064040D01*
X154219664Y-120054354D01*
X154106575Y-119993906D01*
X154007447Y-119912554D01*
X153926094Y-119813424D01*
X153865646Y-119700335D01*
X153855960Y-119668403D01*
X153828420Y-119577617D01*
X153819000Y-119481972D01*
X153819001Y-118318027D01*
X153828421Y-118222382D01*
X153865646Y-118099668D01*
X153865647Y-118099664D01*
X153926095Y-117986575D01*
X154007447Y-117887446D01*
X154106576Y-117806094D01*
X154219665Y-117745646D01*
X154277959Y-117727963D01*
X154342383Y-117708420D01*
X154361256Y-117706561D01*
X154385285Y-117701782D01*
X154392002Y-117699000D01*
X154431886Y-117699000D01*
X154444138Y-117698398D01*
X154470000Y-117695851D01*
X154495862Y-117698398D01*
X154495862Y-117698398D01*
G37*
G36*
X165595862Y-117698398D02*
G01*
X165608114Y-117699000D01*
X165679244Y-117699000D01*
X165693164Y-117706440D01*
X165704706Y-117710570D01*
X165820332Y-117745645D01*
X165820335Y-117745646D01*
X165933425Y-117806094D01*
X166032554Y-117887446D01*
X166113906Y-117986575D01*
X166174354Y-118099664D01*
X166174355Y-118099668D01*
X166211580Y-118222382D01*
X166221000Y-118318027D01*
X166221000Y-119481973D01*
X166211580Y-119577618D01*
X166184040Y-119668404D01*
X166174354Y-119700336D01*
X166113906Y-119813425D01*
X166032554Y-119912553D01*
X165933424Y-119993906D01*
X165820334Y-120054354D01*
X165704714Y-120089427D01*
X165682075Y-120098805D01*
X165678790Y-120101000D01*
X165608114Y-120101000D01*
X165595862Y-120101602D01*
X165570000Y-120104149D01*
X165544138Y-120101602D01*
X165531886Y-120101000D01*
X164814000Y-120101000D01*
X164814000Y-117699000D01*
X165531886Y-117699000D01*
X165544138Y-117698398D01*
X165570000Y-117695851D01*
X165595862Y-117698398D01*
X165595862Y-117698398D01*
G37*
G36*
X172830442Y-115945518D02*
G01*
X172896627Y-115952037D01*
X173066466Y-116003557D01*
X173222991Y-116087222D01*
X173258729Y-116116552D01*
X173360186Y-116199814D01*
X173443448Y-116301271D01*
X173472778Y-116337009D01*
X173556443Y-116493534D01*
X173607963Y-116663373D01*
X173625359Y-116840000D01*
X173607963Y-117016627D01*
X173556443Y-117186466D01*
X173472778Y-117342991D01*
X173443448Y-117378729D01*
X173360186Y-117480186D01*
X173258729Y-117563448D01*
X173222991Y-117592778D01*
X173066466Y-117676443D01*
X172896627Y-117727963D01*
X172830442Y-117734482D01*
X172764260Y-117741000D01*
X172675740Y-117741000D01*
X172609558Y-117734482D01*
X172543373Y-117727963D01*
X172373534Y-117676443D01*
X172217009Y-117592778D01*
X172181271Y-117563448D01*
X172079814Y-117480186D01*
X171996552Y-117378729D01*
X171967222Y-117342991D01*
X171883557Y-117186466D01*
X171832037Y-117016627D01*
X171814641Y-116840000D01*
X171832037Y-116663373D01*
X171883557Y-116493534D01*
X171967222Y-116337009D01*
X171996552Y-116301271D01*
X172079814Y-116199814D01*
X172181271Y-116116552D01*
X172217009Y-116087222D01*
X172373534Y-116003557D01*
X172543373Y-115952037D01*
X172609558Y-115945518D01*
X172675740Y-115939000D01*
X172764260Y-115939000D01*
X172830442Y-115945518D01*
X172830442Y-115945518D01*
G37*
G36*
X147430442Y-115945518D02*
G01*
X147496627Y-115952037D01*
X147666466Y-116003557D01*
X147822991Y-116087222D01*
X147858729Y-116116552D01*
X147960186Y-116199814D01*
X148043448Y-116301271D01*
X148072778Y-116337009D01*
X148156443Y-116493534D01*
X148207963Y-116663373D01*
X148225359Y-116840000D01*
X148207963Y-117016627D01*
X148156443Y-117186466D01*
X148072778Y-117342991D01*
X148043448Y-117378729D01*
X147960186Y-117480186D01*
X147858729Y-117563448D01*
X147822991Y-117592778D01*
X147666466Y-117676443D01*
X147496627Y-117727963D01*
X147430442Y-117734482D01*
X147364260Y-117741000D01*
X147275740Y-117741000D01*
X147209558Y-117734482D01*
X147143373Y-117727963D01*
X146973534Y-117676443D01*
X146817009Y-117592778D01*
X146781271Y-117563448D01*
X146679814Y-117480186D01*
X146596552Y-117378729D01*
X146567222Y-117342991D01*
X146483557Y-117186466D01*
X146432037Y-117016627D01*
X146414641Y-116840000D01*
X146432037Y-116663373D01*
X146483557Y-116493534D01*
X146567222Y-116337009D01*
X146596552Y-116301271D01*
X146679814Y-116199814D01*
X146781271Y-116116552D01*
X146817009Y-116087222D01*
X146973534Y-116003557D01*
X147143373Y-115952037D01*
X147209558Y-115945518D01*
X147275740Y-115939000D01*
X147364260Y-115939000D01*
X147430442Y-115945518D01*
X147430442Y-115945518D01*
G37*
G36*
X153090274Y-114745265D02*
G01*
X153127967Y-114756699D01*
X153162703Y-114775266D01*
X153193148Y-114800252D01*
X153218134Y-114830697D01*
X153236701Y-114865433D01*
X153248135Y-114903126D01*
X153252600Y-114948461D01*
X153252600Y-115785139D01*
X153248135Y-115830474D01*
X153236701Y-115868167D01*
X153218134Y-115902903D01*
X153193148Y-115933348D01*
X153162703Y-115958334D01*
X153127967Y-115976901D01*
X153090274Y-115988335D01*
X153044939Y-115992800D01*
X151958261Y-115992800D01*
X151912926Y-115988335D01*
X151875233Y-115976901D01*
X151840497Y-115958334D01*
X151810052Y-115933348D01*
X151785066Y-115902903D01*
X151766499Y-115868167D01*
X151755065Y-115830474D01*
X151750600Y-115785139D01*
X151750600Y-114948461D01*
X151755065Y-114903126D01*
X151766499Y-114865433D01*
X151785066Y-114830697D01*
X151810052Y-114800252D01*
X151840497Y-114775266D01*
X151875233Y-114756699D01*
X151912926Y-114745265D01*
X151958261Y-114740800D01*
X153044939Y-114740800D01*
X153090274Y-114745265D01*
X153090274Y-114745265D01*
G37*
G36*
X147430443Y-113405519D02*
G01*
X147496627Y-113412037D01*
X147666466Y-113463557D01*
X147822991Y-113547222D01*
X147858729Y-113576552D01*
X147960186Y-113659814D01*
X148029853Y-113744705D01*
X148072778Y-113797009D01*
X148156443Y-113953534D01*
X148207963Y-114123373D01*
X148225359Y-114300000D01*
X148207963Y-114476627D01*
X148156443Y-114646466D01*
X148072778Y-114802991D01*
X148058394Y-114820518D01*
X147960186Y-114940186D01*
X147871493Y-115012973D01*
X147822991Y-115052778D01*
X147666466Y-115136443D01*
X147496627Y-115187963D01*
X147430442Y-115194482D01*
X147364260Y-115201000D01*
X147275740Y-115201000D01*
X147209558Y-115194482D01*
X147143373Y-115187963D01*
X146973534Y-115136443D01*
X146817009Y-115052778D01*
X146768507Y-115012973D01*
X146679814Y-114940186D01*
X146581606Y-114820518D01*
X146567222Y-114802991D01*
X146483557Y-114646466D01*
X146432037Y-114476627D01*
X146414641Y-114300000D01*
X146432037Y-114123373D01*
X146483557Y-113953534D01*
X146567222Y-113797009D01*
X146610147Y-113744705D01*
X146679814Y-113659814D01*
X146781271Y-113576552D01*
X146817009Y-113547222D01*
X146973534Y-113463557D01*
X147143373Y-113412037D01*
X147209557Y-113405519D01*
X147275740Y-113399000D01*
X147364260Y-113399000D01*
X147430443Y-113405519D01*
X147430443Y-113405519D01*
G37*
G36*
X172830443Y-113405519D02*
G01*
X172896627Y-113412037D01*
X173066466Y-113463557D01*
X173222991Y-113547222D01*
X173258729Y-113576552D01*
X173360186Y-113659814D01*
X173429853Y-113744705D01*
X173472778Y-113797009D01*
X173556443Y-113953534D01*
X173607963Y-114123373D01*
X173625359Y-114300000D01*
X173607963Y-114476627D01*
X173556443Y-114646466D01*
X173472778Y-114802991D01*
X173458394Y-114820518D01*
X173360186Y-114940186D01*
X173271493Y-115012973D01*
X173222991Y-115052778D01*
X173066466Y-115136443D01*
X172896627Y-115187963D01*
X172830442Y-115194482D01*
X172764260Y-115201000D01*
X172675740Y-115201000D01*
X172609558Y-115194482D01*
X172543373Y-115187963D01*
X172373534Y-115136443D01*
X172217009Y-115052778D01*
X172168507Y-115012973D01*
X172079814Y-114940186D01*
X171981606Y-114820518D01*
X171967222Y-114802991D01*
X171883557Y-114646466D01*
X171832037Y-114476627D01*
X171814641Y-114300000D01*
X171832037Y-114123373D01*
X171883557Y-113953534D01*
X171967222Y-113797009D01*
X172010147Y-113744705D01*
X172079814Y-113659814D01*
X172181271Y-113576552D01*
X172217009Y-113547222D01*
X172373534Y-113463557D01*
X172543373Y-113412037D01*
X172609557Y-113405519D01*
X172675740Y-113399000D01*
X172764260Y-113399000D01*
X172830443Y-113405519D01*
X172830443Y-113405519D01*
G37*
G36*
X165697618Y-112658420D02*
G01*
X165788404Y-112685960D01*
X165820336Y-112695646D01*
X165933425Y-112756094D01*
X166032554Y-112837446D01*
X166113906Y-112936575D01*
X166174354Y-113049664D01*
X166174355Y-113049668D01*
X166211580Y-113172382D01*
X166221000Y-113268027D01*
X166221000Y-114431973D01*
X166211580Y-114527618D01*
X166186270Y-114611052D01*
X166174354Y-114650336D01*
X166113906Y-114763425D01*
X166032554Y-114862553D01*
X165933424Y-114943906D01*
X165820335Y-115004354D01*
X165791921Y-115012973D01*
X165697617Y-115041580D01*
X165570000Y-115054149D01*
X165442382Y-115041580D01*
X165348078Y-115012973D01*
X165319664Y-115004354D01*
X165206575Y-114943906D01*
X165107447Y-114862554D01*
X165026094Y-114763424D01*
X164965646Y-114650335D01*
X164942078Y-114572640D01*
X164928420Y-114527617D01*
X164919000Y-114431972D01*
X164919001Y-113268027D01*
X164928421Y-113172382D01*
X164965646Y-113049668D01*
X164965647Y-113049664D01*
X165026095Y-112936575D01*
X165107447Y-112837446D01*
X165206576Y-112756094D01*
X165319665Y-112695646D01*
X165351597Y-112685960D01*
X165442383Y-112658420D01*
X165570000Y-112645851D01*
X165697618Y-112658420D01*
X165697618Y-112658420D01*
G37*
G36*
X154597618Y-112658420D02*
G01*
X154688404Y-112685960D01*
X154720336Y-112695646D01*
X154833425Y-112756094D01*
X154932554Y-112837446D01*
X155013906Y-112936575D01*
X155074354Y-113049664D01*
X155074355Y-113049668D01*
X155111580Y-113172382D01*
X155121000Y-113268027D01*
X155121000Y-114431973D01*
X155111580Y-114527618D01*
X155086270Y-114611052D01*
X155074354Y-114650336D01*
X155013906Y-114763425D01*
X154932554Y-114862553D01*
X154833424Y-114943906D01*
X154720335Y-115004354D01*
X154691921Y-115012973D01*
X154597617Y-115041580D01*
X154470000Y-115054149D01*
X154342382Y-115041580D01*
X154248078Y-115012973D01*
X154219664Y-115004354D01*
X154106575Y-114943906D01*
X154007447Y-114862554D01*
X153926094Y-114763424D01*
X153865646Y-114650335D01*
X153842078Y-114572640D01*
X153828420Y-114527617D01*
X153819000Y-114431972D01*
X153819001Y-113268027D01*
X153828421Y-113172382D01*
X153865646Y-113049668D01*
X153865647Y-113049664D01*
X153926095Y-112936575D01*
X154007447Y-112837446D01*
X154106576Y-112756094D01*
X154219665Y-112695646D01*
X154251597Y-112685960D01*
X154342383Y-112658420D01*
X154470000Y-112645851D01*
X154597618Y-112658420D01*
X154597618Y-112658420D01*
G37*
G36*
X162396074Y-112321565D02*
G01*
X162433767Y-112332999D01*
X162468503Y-112351566D01*
X162498948Y-112376552D01*
X162523934Y-112406997D01*
X162542501Y-112441733D01*
X162553935Y-112479426D01*
X162558400Y-112524761D01*
X162558400Y-113611439D01*
X162553935Y-113656774D01*
X162542501Y-113694467D01*
X162523934Y-113729203D01*
X162498948Y-113759648D01*
X162468503Y-113784634D01*
X162433767Y-113803201D01*
X162396074Y-113814635D01*
X162350739Y-113819100D01*
X162337263Y-113819100D01*
X162312877Y-113821502D01*
X162289428Y-113828615D01*
X162267817Y-113840166D01*
X162248875Y-113855711D01*
X162233330Y-113874653D01*
X162221779Y-113896264D01*
X162214666Y-113919713D01*
X162212264Y-113944099D01*
X162214666Y-113968485D01*
X162221779Y-113991934D01*
X162233330Y-114013545D01*
X162248875Y-114032487D01*
X162292640Y-114076252D01*
X162331054Y-114133742D01*
X162343779Y-114164464D01*
X162357511Y-114197617D01*
X162371000Y-114265430D01*
X162371000Y-114334570D01*
X162357511Y-114402383D01*
X162357510Y-114402385D01*
X162331054Y-114466258D01*
X162292640Y-114523748D01*
X162243748Y-114572640D01*
X162186258Y-114611054D01*
X162134182Y-114632624D01*
X162122383Y-114637511D01*
X162054570Y-114651000D01*
X161985430Y-114651000D01*
X161917617Y-114637511D01*
X161905818Y-114632624D01*
X161853742Y-114611054D01*
X161796252Y-114572640D01*
X161747360Y-114523748D01*
X161723933Y-114488687D01*
X161708387Y-114469745D01*
X161689445Y-114454200D01*
X161667835Y-114442649D01*
X161644386Y-114435536D01*
X161620000Y-114433134D01*
X161595614Y-114435536D01*
X161572165Y-114442649D01*
X161550554Y-114454200D01*
X161531612Y-114469746D01*
X161516067Y-114488687D01*
X161492640Y-114523748D01*
X161443748Y-114572640D01*
X161386258Y-114611054D01*
X161334182Y-114632624D01*
X161322383Y-114637511D01*
X161254570Y-114651000D01*
X161185430Y-114651000D01*
X161117617Y-114637511D01*
X161105818Y-114632624D01*
X161053742Y-114611054D01*
X160996252Y-114572640D01*
X160947360Y-114523748D01*
X160923933Y-114488687D01*
X160908387Y-114469745D01*
X160889445Y-114454200D01*
X160867835Y-114442649D01*
X160844386Y-114435536D01*
X160820000Y-114433134D01*
X160795614Y-114435536D01*
X160772165Y-114442649D01*
X160750554Y-114454200D01*
X160731612Y-114469746D01*
X160716067Y-114488687D01*
X160692640Y-114523748D01*
X160643748Y-114572640D01*
X160586258Y-114611054D01*
X160534182Y-114632624D01*
X160522383Y-114637511D01*
X160454570Y-114651000D01*
X160385430Y-114651000D01*
X160317617Y-114637511D01*
X160305818Y-114632624D01*
X160253742Y-114611054D01*
X160196252Y-114572640D01*
X160147360Y-114523748D01*
X160123933Y-114488687D01*
X160108387Y-114469745D01*
X160089445Y-114454200D01*
X160067835Y-114442649D01*
X160044386Y-114435536D01*
X160020000Y-114433134D01*
X159995614Y-114435536D01*
X159972165Y-114442649D01*
X159950554Y-114454200D01*
X159931612Y-114469746D01*
X159916067Y-114488687D01*
X159892640Y-114523748D01*
X159843748Y-114572640D01*
X159786258Y-114611054D01*
X159734182Y-114632624D01*
X159722383Y-114637511D01*
X159654570Y-114651000D01*
X159585430Y-114651000D01*
X159517617Y-114637511D01*
X159505818Y-114632624D01*
X159453742Y-114611054D01*
X159396252Y-114572640D01*
X159347360Y-114523748D01*
X159323933Y-114488687D01*
X159308387Y-114469745D01*
X159289445Y-114454200D01*
X159267835Y-114442649D01*
X159244386Y-114435536D01*
X159220000Y-114433134D01*
X159195614Y-114435536D01*
X159172165Y-114442649D01*
X159150554Y-114454200D01*
X159131612Y-114469746D01*
X159116067Y-114488687D01*
X159092640Y-114523748D01*
X159043748Y-114572640D01*
X158986258Y-114611054D01*
X158934182Y-114632624D01*
X158922383Y-114637511D01*
X158854570Y-114651000D01*
X158785430Y-114651000D01*
X158717617Y-114637511D01*
X158705818Y-114632624D01*
X158653742Y-114611054D01*
X158596252Y-114572640D01*
X158547360Y-114523748D01*
X158523933Y-114488687D01*
X158508387Y-114469745D01*
X158489445Y-114454200D01*
X158467835Y-114442649D01*
X158444386Y-114435536D01*
X158420000Y-114433134D01*
X158395614Y-114435536D01*
X158372165Y-114442649D01*
X158350554Y-114454200D01*
X158331612Y-114469746D01*
X158316067Y-114488687D01*
X158292640Y-114523748D01*
X158243748Y-114572640D01*
X158186258Y-114611054D01*
X158134182Y-114632624D01*
X158122383Y-114637511D01*
X158054570Y-114651000D01*
X157985430Y-114651000D01*
X157917617Y-114637511D01*
X157905818Y-114632624D01*
X157853742Y-114611054D01*
X157796252Y-114572640D01*
X157747360Y-114523748D01*
X157708946Y-114466258D01*
X157682490Y-114402385D01*
X157682489Y-114402383D01*
X157669000Y-114334570D01*
X157669000Y-114265430D01*
X157682489Y-114197617D01*
X157696221Y-114164464D01*
X157708946Y-114133742D01*
X157747360Y-114076252D01*
X157796252Y-114027360D01*
X157853742Y-113988946D01*
X157917615Y-113962490D01*
X157917614Y-113962490D01*
X157917617Y-113962489D01*
X157985430Y-113949000D01*
X158054570Y-113949000D01*
X158122383Y-113962489D01*
X158122386Y-113962490D01*
X158122385Y-113962490D01*
X158186258Y-113988946D01*
X158243748Y-114027360D01*
X158292640Y-114076252D01*
X158316067Y-114111313D01*
X158331613Y-114130255D01*
X158350555Y-114145800D01*
X158372165Y-114157351D01*
X158395614Y-114164464D01*
X158420000Y-114166866D01*
X158444386Y-114164464D01*
X158467835Y-114157351D01*
X158489446Y-114145800D01*
X158508388Y-114130254D01*
X158523933Y-114111313D01*
X158547360Y-114076252D01*
X158596252Y-114027360D01*
X158653742Y-113988946D01*
X158717615Y-113962490D01*
X158717614Y-113962490D01*
X158717617Y-113962489D01*
X158785430Y-113949000D01*
X158854570Y-113949000D01*
X158922383Y-113962489D01*
X158922386Y-113962490D01*
X158922385Y-113962490D01*
X158986258Y-113988946D01*
X159043748Y-114027360D01*
X159092640Y-114076252D01*
X159116067Y-114111313D01*
X159131613Y-114130255D01*
X159150555Y-114145800D01*
X159172165Y-114157351D01*
X159195614Y-114164464D01*
X159220000Y-114166866D01*
X159244386Y-114164464D01*
X159267835Y-114157351D01*
X159289446Y-114145800D01*
X159308388Y-114130254D01*
X159323933Y-114111313D01*
X159347360Y-114076252D01*
X159396252Y-114027360D01*
X159453742Y-113988946D01*
X159517615Y-113962490D01*
X159517614Y-113962490D01*
X159517617Y-113962489D01*
X159585430Y-113949000D01*
X159654570Y-113949000D01*
X159722383Y-113962489D01*
X159722386Y-113962490D01*
X159722385Y-113962490D01*
X159786258Y-113988946D01*
X159843748Y-114027360D01*
X159892640Y-114076252D01*
X159916067Y-114111313D01*
X159931613Y-114130255D01*
X159950555Y-114145800D01*
X159972165Y-114157351D01*
X159995614Y-114164464D01*
X160020000Y-114166866D01*
X160044386Y-114164464D01*
X160067835Y-114157351D01*
X160089446Y-114145800D01*
X160108388Y-114130254D01*
X160123933Y-114111313D01*
X160147360Y-114076252D01*
X160196252Y-114027360D01*
X160253742Y-113988946D01*
X160317615Y-113962490D01*
X160317614Y-113962490D01*
X160317617Y-113962489D01*
X160385430Y-113949000D01*
X160454570Y-113949000D01*
X160522383Y-113962489D01*
X160522386Y-113962490D01*
X160522385Y-113962490D01*
X160586258Y-113988946D01*
X160643748Y-114027360D01*
X160692640Y-114076252D01*
X160716067Y-114111313D01*
X160731613Y-114130255D01*
X160750555Y-114145800D01*
X160772165Y-114157351D01*
X160795614Y-114164464D01*
X160820000Y-114166866D01*
X160844386Y-114164464D01*
X160867835Y-114157351D01*
X160889446Y-114145800D01*
X160908388Y-114130254D01*
X160923933Y-114111313D01*
X160947360Y-114076252D01*
X160996252Y-114027360D01*
X161053742Y-113988946D01*
X161117615Y-113962490D01*
X161117614Y-113962490D01*
X161117617Y-113962489D01*
X161185430Y-113949000D01*
X161256960Y-113949000D01*
X161281346Y-113946598D01*
X161289584Y-113944099D01*
X161412264Y-113944099D01*
X161414666Y-113968485D01*
X161421779Y-113991934D01*
X161433330Y-114013545D01*
X161448875Y-114032487D01*
X161492640Y-114076252D01*
X161516067Y-114111313D01*
X161531613Y-114130255D01*
X161550555Y-114145800D01*
X161572165Y-114157351D01*
X161595614Y-114164464D01*
X161620000Y-114166866D01*
X161644386Y-114164464D01*
X161667835Y-114157351D01*
X161689446Y-114145800D01*
X161708388Y-114130254D01*
X161723933Y-114111313D01*
X161747360Y-114076252D01*
X161791125Y-114032487D01*
X161806670Y-114013545D01*
X161818221Y-113991934D01*
X161825334Y-113968485D01*
X161827736Y-113944099D01*
X161825334Y-113919713D01*
X161818221Y-113896264D01*
X161806670Y-113874653D01*
X161791125Y-113855711D01*
X161772183Y-113840166D01*
X161750572Y-113828615D01*
X161727123Y-113821502D01*
X161702737Y-113819100D01*
X161537263Y-113819100D01*
X161512877Y-113821502D01*
X161489428Y-113828615D01*
X161467817Y-113840166D01*
X161448875Y-113855711D01*
X161433330Y-113874653D01*
X161421779Y-113896264D01*
X161414666Y-113919713D01*
X161412264Y-113944099D01*
X161289584Y-113944099D01*
X161304795Y-113939485D01*
X161326406Y-113927934D01*
X161345348Y-113912389D01*
X161360893Y-113893447D01*
X161372444Y-113871836D01*
X161379557Y-113848387D01*
X161381959Y-113824001D01*
X161379557Y-113799615D01*
X161372444Y-113776166D01*
X161353587Y-113744705D01*
X161340868Y-113729206D01*
X161322299Y-113694467D01*
X161310865Y-113656774D01*
X161306400Y-113611439D01*
X161306400Y-112524761D01*
X161310865Y-112479426D01*
X161322299Y-112441733D01*
X161340866Y-112406997D01*
X161365852Y-112376552D01*
X161396297Y-112351566D01*
X161431033Y-112332999D01*
X161468726Y-112321565D01*
X161514061Y-112317100D01*
X162350739Y-112317100D01*
X162396074Y-112321565D01*
X162396074Y-112321565D01*
G37*
G36*
X153090274Y-112695265D02*
G01*
X153127967Y-112706699D01*
X153162703Y-112725266D01*
X153193148Y-112750252D01*
X153218134Y-112780697D01*
X153236701Y-112815433D01*
X153248135Y-112853126D01*
X153252600Y-112898461D01*
X153252600Y-113735139D01*
X153248135Y-113780474D01*
X153236701Y-113818167D01*
X153218134Y-113852903D01*
X153193148Y-113883348D01*
X153162703Y-113908334D01*
X153127967Y-113926901D01*
X153090274Y-113938335D01*
X153044939Y-113942800D01*
X151958261Y-113942800D01*
X151912926Y-113938335D01*
X151875233Y-113926901D01*
X151840497Y-113908334D01*
X151810052Y-113883348D01*
X151785066Y-113852903D01*
X151766499Y-113818167D01*
X151755065Y-113780474D01*
X151750600Y-113735139D01*
X151750600Y-112898461D01*
X151755065Y-112853126D01*
X151766499Y-112815433D01*
X151785066Y-112780697D01*
X151810052Y-112750252D01*
X151840497Y-112725266D01*
X151875233Y-112706699D01*
X151912926Y-112695265D01*
X151958261Y-112690800D01*
X153044939Y-112690800D01*
X153090274Y-112695265D01*
X153090274Y-112695265D01*
G37*
G36*
X164446074Y-112321565D02*
G01*
X164483767Y-112332999D01*
X164518503Y-112351566D01*
X164548948Y-112376552D01*
X164573934Y-112406997D01*
X164592501Y-112441733D01*
X164603935Y-112479426D01*
X164608400Y-112524761D01*
X164608400Y-113611439D01*
X164603935Y-113656774D01*
X164592501Y-113694467D01*
X164573934Y-113729203D01*
X164548948Y-113759648D01*
X164518503Y-113784634D01*
X164483767Y-113803201D01*
X164446074Y-113814635D01*
X164400739Y-113819100D01*
X163564061Y-113819100D01*
X163518726Y-113814635D01*
X163481033Y-113803201D01*
X163446297Y-113784634D01*
X163415852Y-113759648D01*
X163390866Y-113729203D01*
X163372299Y-113694467D01*
X163360865Y-113656774D01*
X163356400Y-113611439D01*
X163356400Y-112524761D01*
X163360865Y-112479426D01*
X163372299Y-112441733D01*
X163390866Y-112406997D01*
X163415852Y-112376552D01*
X163446297Y-112351566D01*
X163481033Y-112332999D01*
X163518726Y-112321565D01*
X163564061Y-112317100D01*
X164400739Y-112317100D01*
X164446074Y-112321565D01*
X164446074Y-112321565D01*
G37*
G36*
X147430442Y-110865518D02*
G01*
X147496627Y-110872037D01*
X147666466Y-110923557D01*
X147822991Y-111007222D01*
X147858729Y-111036552D01*
X147960186Y-111119814D01*
X148043448Y-111221271D01*
X148072778Y-111257009D01*
X148156443Y-111413534D01*
X148207963Y-111583373D01*
X148225359Y-111760000D01*
X148207963Y-111936627D01*
X148156443Y-112106466D01*
X148072778Y-112262991D01*
X148043448Y-112298729D01*
X147960186Y-112400186D01*
X147863630Y-112479426D01*
X147822991Y-112512778D01*
X147666466Y-112596443D01*
X147496627Y-112647963D01*
X147430442Y-112654482D01*
X147364260Y-112661000D01*
X147275740Y-112661000D01*
X147209558Y-112654482D01*
X147143373Y-112647963D01*
X146973534Y-112596443D01*
X146817009Y-112512778D01*
X146776370Y-112479426D01*
X146679814Y-112400186D01*
X146596552Y-112298729D01*
X146567222Y-112262991D01*
X146483557Y-112106466D01*
X146432037Y-111936627D01*
X146414641Y-111760000D01*
X146432037Y-111583373D01*
X146483557Y-111413534D01*
X146567222Y-111257009D01*
X146596552Y-111221271D01*
X146679814Y-111119814D01*
X146781271Y-111036552D01*
X146817009Y-111007222D01*
X146973534Y-110923557D01*
X147143373Y-110872037D01*
X147209558Y-110865518D01*
X147275740Y-110859000D01*
X147364260Y-110859000D01*
X147430442Y-110865518D01*
X147430442Y-110865518D01*
G37*
G36*
X172830442Y-110865518D02*
G01*
X172896627Y-110872037D01*
X173066466Y-110923557D01*
X173222991Y-111007222D01*
X173258729Y-111036552D01*
X173360186Y-111119814D01*
X173443448Y-111221271D01*
X173472778Y-111257009D01*
X173556443Y-111413534D01*
X173607963Y-111583373D01*
X173625359Y-111760000D01*
X173607963Y-111936627D01*
X173556443Y-112106466D01*
X173472778Y-112262991D01*
X173443448Y-112298729D01*
X173360186Y-112400186D01*
X173263630Y-112479426D01*
X173222991Y-112512778D01*
X173066466Y-112596443D01*
X172896627Y-112647963D01*
X172830442Y-112654482D01*
X172764260Y-112661000D01*
X172675740Y-112661000D01*
X172609558Y-112654482D01*
X172543373Y-112647963D01*
X172373534Y-112596443D01*
X172217009Y-112512778D01*
X172176370Y-112479426D01*
X172079814Y-112400186D01*
X171996552Y-112298729D01*
X171967222Y-112262991D01*
X171883557Y-112106466D01*
X171832037Y-111936627D01*
X171814641Y-111760000D01*
X171832037Y-111583373D01*
X171883557Y-111413534D01*
X171967222Y-111257009D01*
X171996552Y-111221271D01*
X172079814Y-111119814D01*
X172181271Y-111036552D01*
X172217009Y-111007222D01*
X172373534Y-110923557D01*
X172543373Y-110872037D01*
X172609558Y-110865518D01*
X172675740Y-110859000D01*
X172764260Y-110859000D01*
X172830442Y-110865518D01*
X172830442Y-110865518D01*
G37*
G36*
X154971000Y-111591000D02*
G01*
X153069000Y-111591000D01*
X153069000Y-106289000D01*
X154971000Y-106289000D01*
X154971000Y-111591000D01*
X154971000Y-111591000D01*
G37*
G36*
X166971000Y-111591000D02*
G01*
X165069000Y-111591000D01*
X165069000Y-106289000D01*
X166971000Y-106289000D01*
X166971000Y-111591000D01*
X166971000Y-111591000D01*
G37*
G36*
X172830443Y-108325519D02*
G01*
X172896627Y-108332037D01*
X173066466Y-108383557D01*
X173222991Y-108467222D01*
X173249527Y-108489000D01*
X173360186Y-108579814D01*
X173443448Y-108681271D01*
X173472778Y-108717009D01*
X173556443Y-108873534D01*
X173607963Y-109043373D01*
X173625359Y-109220000D01*
X173607963Y-109396627D01*
X173556443Y-109566466D01*
X173472778Y-109722991D01*
X173443448Y-109758729D01*
X173360186Y-109860186D01*
X173258729Y-109943448D01*
X173222991Y-109972778D01*
X173066466Y-110056443D01*
X172896627Y-110107963D01*
X172830443Y-110114481D01*
X172764260Y-110121000D01*
X172675740Y-110121000D01*
X172609557Y-110114481D01*
X172543373Y-110107963D01*
X172373534Y-110056443D01*
X172217009Y-109972778D01*
X172181271Y-109943448D01*
X172079814Y-109860186D01*
X171996552Y-109758729D01*
X171967222Y-109722991D01*
X171883557Y-109566466D01*
X171832037Y-109396627D01*
X171814641Y-109220000D01*
X171832037Y-109043373D01*
X171883557Y-108873534D01*
X171967222Y-108717009D01*
X171996552Y-108681271D01*
X172079814Y-108579814D01*
X172190473Y-108489000D01*
X172217009Y-108467222D01*
X172373534Y-108383557D01*
X172543373Y-108332037D01*
X172609557Y-108325519D01*
X172675740Y-108319000D01*
X172764260Y-108319000D01*
X172830443Y-108325519D01*
X172830443Y-108325519D01*
G37*
G36*
X147430443Y-108325519D02*
G01*
X147496627Y-108332037D01*
X147666466Y-108383557D01*
X147822991Y-108467222D01*
X147849527Y-108489000D01*
X147960186Y-108579814D01*
X148043448Y-108681271D01*
X148072778Y-108717009D01*
X148156443Y-108873534D01*
X148207963Y-109043373D01*
X148225359Y-109220000D01*
X148207963Y-109396627D01*
X148156443Y-109566466D01*
X148072778Y-109722991D01*
X148043448Y-109758729D01*
X147960186Y-109860186D01*
X147858729Y-109943448D01*
X147822991Y-109972778D01*
X147666466Y-110056443D01*
X147496627Y-110107963D01*
X147430443Y-110114481D01*
X147364260Y-110121000D01*
X147275740Y-110121000D01*
X147209557Y-110114481D01*
X147143373Y-110107963D01*
X146973534Y-110056443D01*
X146817009Y-109972778D01*
X146781271Y-109943448D01*
X146679814Y-109860186D01*
X146596552Y-109758729D01*
X146567222Y-109722991D01*
X146483557Y-109566466D01*
X146432037Y-109396627D01*
X146414641Y-109220000D01*
X146432037Y-109043373D01*
X146483557Y-108873534D01*
X146567222Y-108717009D01*
X146596552Y-108681271D01*
X146679814Y-108579814D01*
X146790473Y-108489000D01*
X146817009Y-108467222D01*
X146973534Y-108383557D01*
X147143373Y-108332037D01*
X147209557Y-108325519D01*
X147275740Y-108319000D01*
X147364260Y-108319000D01*
X147430443Y-108325519D01*
X147430443Y-108325519D01*
G37*
G36*
X147430443Y-105785519D02*
G01*
X147496627Y-105792037D01*
X147666466Y-105843557D01*
X147822991Y-105927222D01*
X147858729Y-105956552D01*
X147960186Y-106039814D01*
X148043448Y-106141271D01*
X148072778Y-106177009D01*
X148156443Y-106333534D01*
X148207963Y-106503373D01*
X148225359Y-106680000D01*
X148207963Y-106856627D01*
X148156443Y-107026466D01*
X148072778Y-107182991D01*
X148066205Y-107191000D01*
X147960186Y-107320186D01*
X147858729Y-107403448D01*
X147822991Y-107432778D01*
X147666466Y-107516443D01*
X147496627Y-107567963D01*
X147430443Y-107574481D01*
X147364260Y-107581000D01*
X147275740Y-107581000D01*
X147209557Y-107574481D01*
X147143373Y-107567963D01*
X146973534Y-107516443D01*
X146817009Y-107432778D01*
X146781271Y-107403448D01*
X146679814Y-107320186D01*
X146573795Y-107191000D01*
X146567222Y-107182991D01*
X146483557Y-107026466D01*
X146432037Y-106856627D01*
X146414641Y-106680000D01*
X146432037Y-106503373D01*
X146483557Y-106333534D01*
X146567222Y-106177009D01*
X146596552Y-106141271D01*
X146679814Y-106039814D01*
X146781271Y-105956552D01*
X146817009Y-105927222D01*
X146973534Y-105843557D01*
X147143373Y-105792037D01*
X147209557Y-105785519D01*
X147275740Y-105779000D01*
X147364260Y-105779000D01*
X147430443Y-105785519D01*
X147430443Y-105785519D01*
G37*
G36*
X172830443Y-105785519D02*
G01*
X172896627Y-105792037D01*
X173066466Y-105843557D01*
X173222991Y-105927222D01*
X173258729Y-105956552D01*
X173360186Y-106039814D01*
X173443448Y-106141271D01*
X173472778Y-106177009D01*
X173556443Y-106333534D01*
X173607963Y-106503373D01*
X173625359Y-106680000D01*
X173607963Y-106856627D01*
X173556443Y-107026466D01*
X173472778Y-107182991D01*
X173466205Y-107191000D01*
X173360186Y-107320186D01*
X173258729Y-107403448D01*
X173222991Y-107432778D01*
X173066466Y-107516443D01*
X172896627Y-107567963D01*
X172830443Y-107574481D01*
X172764260Y-107581000D01*
X172675740Y-107581000D01*
X172609557Y-107574481D01*
X172543373Y-107567963D01*
X172373534Y-107516443D01*
X172217009Y-107432778D01*
X172181271Y-107403448D01*
X172079814Y-107320186D01*
X171973795Y-107191000D01*
X171967222Y-107182991D01*
X171883557Y-107026466D01*
X171832037Y-106856627D01*
X171814641Y-106680000D01*
X171832037Y-106503373D01*
X171883557Y-106333534D01*
X171967222Y-106177009D01*
X171996552Y-106141271D01*
X172079814Y-106039814D01*
X172181271Y-105956552D01*
X172217009Y-105927222D01*
X172373534Y-105843557D01*
X172543373Y-105792037D01*
X172609557Y-105785519D01*
X172675740Y-105779000D01*
X172764260Y-105779000D01*
X172830443Y-105785519D01*
X172830443Y-105785519D01*
G37*
G36*
X151849399Y-101862754D02*
G01*
X151861650Y-101863356D01*
X151880069Y-101863356D01*
X151902349Y-101865550D01*
X151986433Y-101882276D01*
X152007860Y-101888776D01*
X152087058Y-101921580D01*
X152092503Y-101924491D01*
X152092509Y-101924493D01*
X152101369Y-101929229D01*
X152101373Y-101929232D01*
X152106814Y-101932140D01*
X152178099Y-101979771D01*
X152195404Y-101993972D01*
X152256028Y-102054596D01*
X152270229Y-102071901D01*
X152317860Y-102143186D01*
X152320768Y-102148627D01*
X152320771Y-102148631D01*
X152325507Y-102157491D01*
X152325509Y-102157497D01*
X152328420Y-102162942D01*
X152361224Y-102242140D01*
X152367724Y-102263567D01*
X152384450Y-102347651D01*
X152386644Y-102369931D01*
X152386644Y-102388350D01*
X152387246Y-102400601D01*
X152389052Y-102418939D01*
X152389052Y-102956660D01*
X152387463Y-102972799D01*
X152383055Y-102987328D01*
X152377594Y-103000511D01*
X152372812Y-103024545D01*
X152372811Y-103049049D01*
X152377591Y-103073082D01*
X152386968Y-103095721D01*
X152388200Y-103097565D01*
X152388200Y-104328850D01*
X152381725Y-104340964D01*
X152374612Y-104364413D01*
X152372210Y-104388799D01*
X152374612Y-104413185D01*
X152381725Y-104436634D01*
X152384048Y-104441546D01*
X152387463Y-104452801D01*
X152389052Y-104468940D01*
X152389052Y-105006662D01*
X152387246Y-105024999D01*
X152386644Y-105037250D01*
X152386644Y-105055669D01*
X152384450Y-105077949D01*
X152367724Y-105162033D01*
X152361224Y-105183460D01*
X152328420Y-105262658D01*
X152325509Y-105268103D01*
X152325507Y-105268109D01*
X152320771Y-105276969D01*
X152320768Y-105276973D01*
X152317860Y-105282414D01*
X152270229Y-105353699D01*
X152256028Y-105371004D01*
X152195404Y-105431628D01*
X152178099Y-105445829D01*
X152106814Y-105493460D01*
X152101373Y-105496368D01*
X152101369Y-105496371D01*
X152092509Y-105501107D01*
X152092503Y-105501109D01*
X152087058Y-105504020D01*
X152007860Y-105536824D01*
X151986433Y-105543324D01*
X151902349Y-105560050D01*
X151880069Y-105562244D01*
X151861650Y-105562244D01*
X151849399Y-105562846D01*
X151831062Y-105564652D01*
X151343338Y-105564652D01*
X151325001Y-105562846D01*
X151312750Y-105562244D01*
X151294331Y-105562244D01*
X151272051Y-105560050D01*
X151187967Y-105543324D01*
X151166540Y-105536824D01*
X151087342Y-105504020D01*
X151081897Y-105501109D01*
X151081891Y-105501107D01*
X151073031Y-105496371D01*
X151073027Y-105496368D01*
X151067586Y-105493460D01*
X150996301Y-105445829D01*
X150978996Y-105431628D01*
X150918372Y-105371004D01*
X150904171Y-105353699D01*
X150856540Y-105282414D01*
X150853632Y-105276973D01*
X150853629Y-105276969D01*
X150848893Y-105268109D01*
X150848891Y-105268103D01*
X150845980Y-105262658D01*
X150813176Y-105183460D01*
X150806676Y-105162033D01*
X150789950Y-105077949D01*
X150787756Y-105055669D01*
X150787756Y-105037250D01*
X150787154Y-105024999D01*
X150785348Y-105006662D01*
X150785348Y-104468940D01*
X150786937Y-104452801D01*
X150791345Y-104438272D01*
X150796806Y-104425089D01*
X150801588Y-104401055D01*
X150801589Y-104376551D01*
X150796809Y-104352518D01*
X150787432Y-104329879D01*
X150786200Y-104328035D01*
X150786200Y-103096750D01*
X150792675Y-103084636D01*
X150799788Y-103061187D01*
X150802190Y-103036801D01*
X150799788Y-103012415D01*
X150792675Y-102988966D01*
X150790352Y-102984054D01*
X150786937Y-102972799D01*
X150785348Y-102956660D01*
X150785348Y-102418939D01*
X150787154Y-102400601D01*
X150787756Y-102388350D01*
X150787756Y-102369931D01*
X150789950Y-102347651D01*
X150806676Y-102263567D01*
X150813176Y-102242140D01*
X150845980Y-102162942D01*
X150848891Y-102157497D01*
X150848893Y-102157491D01*
X150853629Y-102148631D01*
X150853632Y-102148627D01*
X150856540Y-102143186D01*
X150904171Y-102071901D01*
X150918372Y-102054596D01*
X150978996Y-101993972D01*
X150996301Y-101979771D01*
X151067586Y-101932140D01*
X151073027Y-101929232D01*
X151073031Y-101929229D01*
X151081891Y-101924493D01*
X151081897Y-101924491D01*
X151087342Y-101921580D01*
X151166540Y-101888776D01*
X151187967Y-101882276D01*
X151272051Y-101865550D01*
X151294331Y-101863356D01*
X151312750Y-101863356D01*
X151325001Y-101862754D01*
X151343339Y-101860948D01*
X151831061Y-101860948D01*
X151849399Y-101862754D01*
X151849399Y-101862754D01*
G37*
G36*
X172830443Y-103245519D02*
G01*
X172896627Y-103252037D01*
X173066466Y-103303557D01*
X173222991Y-103387222D01*
X173258729Y-103416552D01*
X173360186Y-103499814D01*
X173443448Y-103601271D01*
X173472778Y-103637009D01*
X173556443Y-103793534D01*
X173607963Y-103963373D01*
X173625359Y-104140000D01*
X173607963Y-104316627D01*
X173556443Y-104486466D01*
X173472778Y-104642991D01*
X173443448Y-104678729D01*
X173360186Y-104780186D01*
X173258729Y-104863448D01*
X173222991Y-104892778D01*
X173066466Y-104976443D01*
X172896627Y-105027963D01*
X172830442Y-105034482D01*
X172764260Y-105041000D01*
X172675740Y-105041000D01*
X172609557Y-105034481D01*
X172543373Y-105027963D01*
X172373534Y-104976443D01*
X172217009Y-104892778D01*
X172181271Y-104863448D01*
X172079814Y-104780186D01*
X171996552Y-104678729D01*
X171967222Y-104642991D01*
X171883557Y-104486466D01*
X171832037Y-104316627D01*
X171814641Y-104140000D01*
X171832037Y-103963373D01*
X171883557Y-103793534D01*
X171967222Y-103637009D01*
X171996552Y-103601271D01*
X172079814Y-103499814D01*
X172181271Y-103416552D01*
X172217009Y-103387222D01*
X172373534Y-103303557D01*
X172543373Y-103252037D01*
X172609558Y-103245518D01*
X172675740Y-103239000D01*
X172764260Y-103239000D01*
X172830443Y-103245519D01*
X172830443Y-103245519D01*
G37*
G36*
X147430443Y-103245519D02*
G01*
X147496627Y-103252037D01*
X147666466Y-103303557D01*
X147822991Y-103387222D01*
X147858729Y-103416552D01*
X147960186Y-103499814D01*
X148043448Y-103601271D01*
X148072778Y-103637009D01*
X148156443Y-103793534D01*
X148207963Y-103963373D01*
X148225359Y-104140000D01*
X148207963Y-104316627D01*
X148156443Y-104486466D01*
X148072778Y-104642991D01*
X148043448Y-104678729D01*
X147960186Y-104780186D01*
X147858729Y-104863448D01*
X147822991Y-104892778D01*
X147666466Y-104976443D01*
X147496627Y-105027963D01*
X147430442Y-105034482D01*
X147364260Y-105041000D01*
X147275740Y-105041000D01*
X147209557Y-105034481D01*
X147143373Y-105027963D01*
X146973534Y-104976443D01*
X146817009Y-104892778D01*
X146781271Y-104863448D01*
X146679814Y-104780186D01*
X146596552Y-104678729D01*
X146567222Y-104642991D01*
X146483557Y-104486466D01*
X146432037Y-104316627D01*
X146414641Y-104140000D01*
X146432037Y-103963373D01*
X146483557Y-103793534D01*
X146567222Y-103637009D01*
X146596552Y-103601271D01*
X146679814Y-103499814D01*
X146781271Y-103416552D01*
X146817009Y-103387222D01*
X146973534Y-103303557D01*
X147143373Y-103252037D01*
X147209558Y-103245518D01*
X147275740Y-103239000D01*
X147364260Y-103239000D01*
X147430443Y-103245519D01*
X147430443Y-103245519D01*
G37*
G36*
X166971000Y-104191000D02*
G01*
X165069000Y-104191000D01*
X165069000Y-96689000D01*
X166971000Y-96689000D01*
X166971000Y-104191000D01*
X166971000Y-104191000D01*
G37*
G36*
X154971000Y-104191000D02*
G01*
X153069000Y-104191000D01*
X153069000Y-96689000D01*
X154971000Y-96689000D01*
X154971000Y-104191000D01*
X154971000Y-104191000D01*
G37*
G36*
X172830443Y-100705519D02*
G01*
X172896627Y-100712037D01*
X173066466Y-100763557D01*
X173222991Y-100847222D01*
X173258729Y-100876552D01*
X173360186Y-100959814D01*
X173443448Y-101061271D01*
X173472778Y-101097009D01*
X173556443Y-101253534D01*
X173607963Y-101423373D01*
X173625359Y-101600000D01*
X173607963Y-101776627D01*
X173556443Y-101946466D01*
X173472778Y-102102991D01*
X173443448Y-102138729D01*
X173360186Y-102240186D01*
X173258729Y-102323448D01*
X173222991Y-102352778D01*
X173222989Y-102352779D01*
X173099214Y-102418939D01*
X173066466Y-102436443D01*
X172896627Y-102487963D01*
X172830442Y-102494482D01*
X172764260Y-102501000D01*
X172675740Y-102501000D01*
X172609558Y-102494482D01*
X172543373Y-102487963D01*
X172373534Y-102436443D01*
X172340787Y-102418939D01*
X172217011Y-102352779D01*
X172217009Y-102352778D01*
X172181271Y-102323448D01*
X172079814Y-102240186D01*
X171996552Y-102138729D01*
X171967222Y-102102991D01*
X171883557Y-101946466D01*
X171832037Y-101776627D01*
X171814641Y-101600000D01*
X171832037Y-101423373D01*
X171883557Y-101253534D01*
X171967222Y-101097009D01*
X171996552Y-101061271D01*
X172079814Y-100959814D01*
X172181271Y-100876552D01*
X172217009Y-100847222D01*
X172373534Y-100763557D01*
X172543373Y-100712037D01*
X172609557Y-100705519D01*
X172675740Y-100699000D01*
X172764260Y-100699000D01*
X172830443Y-100705519D01*
X172830443Y-100705519D01*
G37*
G36*
X147430443Y-100705519D02*
G01*
X147496627Y-100712037D01*
X147666466Y-100763557D01*
X147822991Y-100847222D01*
X147858729Y-100876552D01*
X147960186Y-100959814D01*
X148043448Y-101061271D01*
X148072778Y-101097009D01*
X148156443Y-101253534D01*
X148207963Y-101423373D01*
X148225359Y-101600000D01*
X148207963Y-101776627D01*
X148156443Y-101946466D01*
X148072778Y-102102991D01*
X148043448Y-102138729D01*
X147960186Y-102240186D01*
X147858729Y-102323448D01*
X147822991Y-102352778D01*
X147822989Y-102352779D01*
X147699214Y-102418939D01*
X147666466Y-102436443D01*
X147496627Y-102487963D01*
X147430442Y-102494482D01*
X147364260Y-102501000D01*
X147275740Y-102501000D01*
X147209558Y-102494482D01*
X147143373Y-102487963D01*
X146973534Y-102436443D01*
X146940787Y-102418939D01*
X146817011Y-102352779D01*
X146817009Y-102352778D01*
X146781271Y-102323448D01*
X146679814Y-102240186D01*
X146596552Y-102138729D01*
X146567222Y-102102991D01*
X146483557Y-101946466D01*
X146432037Y-101776627D01*
X146414641Y-101600000D01*
X146432037Y-101423373D01*
X146483557Y-101253534D01*
X146567222Y-101097009D01*
X146596552Y-101061271D01*
X146679814Y-100959814D01*
X146781271Y-100876552D01*
X146817009Y-100847222D01*
X146973534Y-100763557D01*
X147143373Y-100712037D01*
X147209557Y-100705519D01*
X147275740Y-100699000D01*
X147364260Y-100699000D01*
X147430443Y-100705519D01*
X147430443Y-100705519D01*
G37*
G36*
X168740399Y-98901354D02*
G01*
X168752650Y-98901956D01*
X168771069Y-98901956D01*
X168793349Y-98904150D01*
X168877433Y-98920876D01*
X168898860Y-98927376D01*
X168978058Y-98960180D01*
X168983503Y-98963091D01*
X168983509Y-98963093D01*
X168992369Y-98967829D01*
X168992373Y-98967832D01*
X168997814Y-98970740D01*
X169069099Y-99018371D01*
X169086404Y-99032572D01*
X169147028Y-99093196D01*
X169161229Y-99110501D01*
X169208860Y-99181786D01*
X169211768Y-99187227D01*
X169211771Y-99187231D01*
X169216507Y-99196091D01*
X169216509Y-99196097D01*
X169219420Y-99201542D01*
X169252224Y-99280740D01*
X169258724Y-99302167D01*
X169275450Y-99386251D01*
X169277644Y-99408531D01*
X169277644Y-99426950D01*
X169278246Y-99439201D01*
X169280052Y-99457539D01*
X169280052Y-99945260D01*
X169278463Y-99961399D01*
X169275548Y-99971008D01*
X169270810Y-99979872D01*
X169264437Y-99987637D01*
X169251994Y-99997848D01*
X169241625Y-100004778D01*
X169224298Y-100022105D01*
X169210685Y-100042480D01*
X169201309Y-100065120D01*
X169196529Y-100089153D01*
X169196530Y-100113657D01*
X169201312Y-100137690D01*
X169210690Y-100160329D01*
X169224305Y-100180702D01*
X169241632Y-100198029D01*
X169252002Y-100204958D01*
X169264437Y-100215163D01*
X169270810Y-100222928D01*
X169275548Y-100231792D01*
X169278463Y-100241401D01*
X169280052Y-100257540D01*
X169280052Y-100745262D01*
X169278246Y-100763599D01*
X169277644Y-100775850D01*
X169277644Y-100794269D01*
X169275450Y-100816549D01*
X169258724Y-100900633D01*
X169252224Y-100922060D01*
X169219420Y-101001258D01*
X169216509Y-101006703D01*
X169216507Y-101006709D01*
X169211771Y-101015569D01*
X169211768Y-101015573D01*
X169208860Y-101021014D01*
X169161229Y-101092299D01*
X169147028Y-101109604D01*
X169086404Y-101170228D01*
X169069099Y-101184429D01*
X168997814Y-101232060D01*
X168992373Y-101234968D01*
X168992369Y-101234971D01*
X168983509Y-101239707D01*
X168983503Y-101239709D01*
X168978058Y-101242620D01*
X168898860Y-101275424D01*
X168877433Y-101281924D01*
X168793349Y-101298650D01*
X168771069Y-101300844D01*
X168752650Y-101300844D01*
X168740399Y-101301446D01*
X168722062Y-101303252D01*
X168234338Y-101303252D01*
X168216001Y-101301446D01*
X168203750Y-101300844D01*
X168185331Y-101300844D01*
X168163051Y-101298650D01*
X168078967Y-101281924D01*
X168057540Y-101275424D01*
X167978342Y-101242620D01*
X167972897Y-101239709D01*
X167972891Y-101239707D01*
X167964031Y-101234971D01*
X167964027Y-101234968D01*
X167958586Y-101232060D01*
X167887301Y-101184429D01*
X167869996Y-101170228D01*
X167809372Y-101109604D01*
X167795171Y-101092299D01*
X167747540Y-101021014D01*
X167744632Y-101015573D01*
X167744629Y-101015569D01*
X167739893Y-101006709D01*
X167739891Y-101006703D01*
X167736980Y-101001258D01*
X167704176Y-100922060D01*
X167697676Y-100900633D01*
X167680950Y-100816549D01*
X167678756Y-100794269D01*
X167678756Y-100775850D01*
X167678154Y-100763599D01*
X167676348Y-100745262D01*
X167676348Y-100257540D01*
X167677937Y-100241401D01*
X167680852Y-100231792D01*
X167685590Y-100222928D01*
X167691963Y-100215163D01*
X167704406Y-100204952D01*
X167714775Y-100198022D01*
X167732102Y-100180695D01*
X167745715Y-100160320D01*
X167755091Y-100137680D01*
X167759871Y-100113647D01*
X167759870Y-100089143D01*
X167755088Y-100065110D01*
X167745710Y-100042471D01*
X167732095Y-100022098D01*
X167714768Y-100004771D01*
X167704398Y-99997842D01*
X167691963Y-99987637D01*
X167685590Y-99979872D01*
X167680852Y-99971008D01*
X167677937Y-99961399D01*
X167676348Y-99945260D01*
X167676348Y-99457539D01*
X167678154Y-99439201D01*
X167678756Y-99426950D01*
X167678756Y-99408531D01*
X167680950Y-99386251D01*
X167697676Y-99302167D01*
X167704176Y-99280740D01*
X167736980Y-99201542D01*
X167739891Y-99196097D01*
X167739893Y-99196091D01*
X167744629Y-99187231D01*
X167744632Y-99187227D01*
X167747540Y-99181786D01*
X167795171Y-99110501D01*
X167809372Y-99093196D01*
X167869996Y-99032572D01*
X167887301Y-99018371D01*
X167958586Y-98970740D01*
X167964027Y-98967832D01*
X167964031Y-98967829D01*
X167972891Y-98963093D01*
X167972897Y-98963091D01*
X167978342Y-98960180D01*
X168057540Y-98927376D01*
X168078967Y-98920876D01*
X168163051Y-98904150D01*
X168185331Y-98901956D01*
X168203750Y-98901956D01*
X168216001Y-98901354D01*
X168234339Y-98899548D01*
X168722061Y-98899548D01*
X168740399Y-98901354D01*
X168740399Y-98901354D01*
G37*
G36*
X172830443Y-98165519D02*
G01*
X172896627Y-98172037D01*
X173066466Y-98223557D01*
X173222991Y-98307222D01*
X173258729Y-98336552D01*
X173360186Y-98419814D01*
X173443448Y-98521271D01*
X173472778Y-98557009D01*
X173556443Y-98713534D01*
X173607963Y-98883373D01*
X173625359Y-99060000D01*
X173607963Y-99236627D01*
X173556443Y-99406466D01*
X173472778Y-99562991D01*
X173443448Y-99598729D01*
X173360186Y-99700186D01*
X173258729Y-99783448D01*
X173222991Y-99812778D01*
X173066466Y-99896443D01*
X172896627Y-99947963D01*
X172830443Y-99954481D01*
X172764260Y-99961000D01*
X172675740Y-99961000D01*
X172609557Y-99954481D01*
X172543373Y-99947963D01*
X172373534Y-99896443D01*
X172217009Y-99812778D01*
X172181271Y-99783448D01*
X172079814Y-99700186D01*
X171996552Y-99598729D01*
X171967222Y-99562991D01*
X171883557Y-99406466D01*
X171832037Y-99236627D01*
X171814641Y-99060000D01*
X171832037Y-98883373D01*
X171883557Y-98713534D01*
X171967222Y-98557009D01*
X171996552Y-98521271D01*
X172079814Y-98419814D01*
X172181271Y-98336552D01*
X172217009Y-98307222D01*
X172373534Y-98223557D01*
X172543373Y-98172037D01*
X172609557Y-98165519D01*
X172675740Y-98159000D01*
X172764260Y-98159000D01*
X172830443Y-98165519D01*
X172830443Y-98165519D01*
G37*
G36*
X147430443Y-98165519D02*
G01*
X147496627Y-98172037D01*
X147666466Y-98223557D01*
X147822991Y-98307222D01*
X147858729Y-98336552D01*
X147960186Y-98419814D01*
X148043448Y-98521271D01*
X148072778Y-98557009D01*
X148156443Y-98713534D01*
X148207963Y-98883373D01*
X148225359Y-99060000D01*
X148207963Y-99236627D01*
X148156443Y-99406466D01*
X148072778Y-99562991D01*
X148043448Y-99598729D01*
X147960186Y-99700186D01*
X147858729Y-99783448D01*
X147822991Y-99812778D01*
X147666466Y-99896443D01*
X147496627Y-99947963D01*
X147430443Y-99954481D01*
X147364260Y-99961000D01*
X147275740Y-99961000D01*
X147209557Y-99954481D01*
X147143373Y-99947963D01*
X146973534Y-99896443D01*
X146817009Y-99812778D01*
X146781271Y-99783448D01*
X146679814Y-99700186D01*
X146596552Y-99598729D01*
X146567222Y-99562991D01*
X146483557Y-99406466D01*
X146432037Y-99236627D01*
X146414641Y-99060000D01*
X146432037Y-98883373D01*
X146483557Y-98713534D01*
X146567222Y-98557009D01*
X146596552Y-98521271D01*
X146679814Y-98419814D01*
X146781271Y-98336552D01*
X146817009Y-98307222D01*
X146973534Y-98223557D01*
X147143373Y-98172037D01*
X147209557Y-98165519D01*
X147275740Y-98159000D01*
X147364260Y-98159000D01*
X147430443Y-98165519D01*
X147430443Y-98165519D01*
G37*
G36*
X172830442Y-95625518D02*
G01*
X172896627Y-95632037D01*
X173066466Y-95683557D01*
X173222991Y-95767222D01*
X173258729Y-95796552D01*
X173360186Y-95879814D01*
X173443448Y-95981271D01*
X173472778Y-96017009D01*
X173556443Y-96173534D01*
X173607963Y-96343373D01*
X173625359Y-96520000D01*
X173607963Y-96696627D01*
X173556443Y-96866466D01*
X173472778Y-97022991D01*
X173443448Y-97058729D01*
X173360186Y-97160186D01*
X173258729Y-97243448D01*
X173222991Y-97272778D01*
X173066466Y-97356443D01*
X172896627Y-97407963D01*
X172830442Y-97414482D01*
X172764260Y-97421000D01*
X172675740Y-97421000D01*
X172609558Y-97414482D01*
X172543373Y-97407963D01*
X172373534Y-97356443D01*
X172217009Y-97272778D01*
X172181271Y-97243448D01*
X172079814Y-97160186D01*
X171996552Y-97058729D01*
X171967222Y-97022991D01*
X171883557Y-96866466D01*
X171832037Y-96696627D01*
X171814641Y-96520000D01*
X171832037Y-96343373D01*
X171883557Y-96173534D01*
X171967222Y-96017009D01*
X171996552Y-95981271D01*
X172079814Y-95879814D01*
X172181271Y-95796552D01*
X172217009Y-95767222D01*
X172373534Y-95683557D01*
X172543373Y-95632037D01*
X172609558Y-95625518D01*
X172675740Y-95619000D01*
X172764260Y-95619000D01*
X172830442Y-95625518D01*
X172830442Y-95625518D01*
G37*
G36*
X147430442Y-95625518D02*
G01*
X147496627Y-95632037D01*
X147666466Y-95683557D01*
X147822991Y-95767222D01*
X147858729Y-95796552D01*
X147960186Y-95879814D01*
X148043448Y-95981271D01*
X148072778Y-96017009D01*
X148156443Y-96173534D01*
X148207963Y-96343373D01*
X148225359Y-96520000D01*
X148207963Y-96696627D01*
X148156443Y-96866466D01*
X148072778Y-97022991D01*
X148043448Y-97058729D01*
X147960186Y-97160186D01*
X147858729Y-97243448D01*
X147822991Y-97272778D01*
X147666466Y-97356443D01*
X147496627Y-97407963D01*
X147430442Y-97414482D01*
X147364260Y-97421000D01*
X147275740Y-97421000D01*
X147209558Y-97414482D01*
X147143373Y-97407963D01*
X146973534Y-97356443D01*
X146817009Y-97272778D01*
X146781271Y-97243448D01*
X146679814Y-97160186D01*
X146596552Y-97058729D01*
X146567222Y-97022991D01*
X146483557Y-96866466D01*
X146432037Y-96696627D01*
X146414641Y-96520000D01*
X146432037Y-96343373D01*
X146483557Y-96173534D01*
X146567222Y-96017009D01*
X146596552Y-95981271D01*
X146679814Y-95879814D01*
X146781271Y-95796552D01*
X146817009Y-95767222D01*
X146973534Y-95683557D01*
X147143373Y-95632037D01*
X147209558Y-95625518D01*
X147275740Y-95619000D01*
X147364260Y-95619000D01*
X147430442Y-95625518D01*
X147430442Y-95625518D01*
G37*
G36*
X154895674Y-93741465D02*
G01*
X154933367Y-93752899D01*
X154968103Y-93771466D01*
X154998548Y-93796452D01*
X155023534Y-93826897D01*
X155042101Y-93861633D01*
X155053535Y-93899326D01*
X155058000Y-93944661D01*
X155058000Y-95031339D01*
X155053535Y-95076674D01*
X155042101Y-95114367D01*
X155023534Y-95149103D01*
X154998548Y-95179548D01*
X154968103Y-95204534D01*
X154933367Y-95223101D01*
X154895674Y-95234535D01*
X154850339Y-95239000D01*
X154013661Y-95239000D01*
X153968326Y-95234535D01*
X153930633Y-95223101D01*
X153895897Y-95204534D01*
X153865452Y-95179548D01*
X153840466Y-95149103D01*
X153821899Y-95114367D01*
X153810465Y-95076674D01*
X153806000Y-95031339D01*
X153806000Y-93944661D01*
X153810465Y-93899326D01*
X153821899Y-93861633D01*
X153840466Y-93826897D01*
X153865452Y-93796452D01*
X153895897Y-93771466D01*
X153930633Y-93752899D01*
X153968326Y-93741465D01*
X154013661Y-93737000D01*
X154850339Y-93737000D01*
X154895674Y-93741465D01*
X154895674Y-93741465D01*
G37*
G36*
X152845674Y-93741465D02*
G01*
X152883367Y-93752899D01*
X152918103Y-93771466D01*
X152948548Y-93796452D01*
X152973534Y-93826897D01*
X152992101Y-93861633D01*
X153003535Y-93899326D01*
X153008000Y-93944661D01*
X153008000Y-95031339D01*
X153003535Y-95076674D01*
X152992101Y-95114367D01*
X152973534Y-95149103D01*
X152948548Y-95179548D01*
X152918103Y-95204534D01*
X152883367Y-95223101D01*
X152845674Y-95234535D01*
X152800339Y-95239000D01*
X151963661Y-95239000D01*
X151918326Y-95234535D01*
X151880633Y-95223101D01*
X151845897Y-95204534D01*
X151815452Y-95179548D01*
X151790466Y-95149103D01*
X151771899Y-95114367D01*
X151760465Y-95076674D01*
X151756000Y-95031339D01*
X151756000Y-93944661D01*
X151760465Y-93899326D01*
X151771899Y-93861633D01*
X151790466Y-93826897D01*
X151815452Y-93796452D01*
X151845897Y-93771466D01*
X151880633Y-93752899D01*
X151918326Y-93741465D01*
X151963661Y-93737000D01*
X152800339Y-93737000D01*
X152845674Y-93741465D01*
X152845674Y-93741465D01*
G37*
G36*
X173621000Y-94881000D02*
G01*
X171819000Y-94881000D01*
X171819000Y-93079000D01*
X173621000Y-93079000D01*
X173621000Y-94881000D01*
X173621000Y-94881000D01*
G37*
G36*
X148221000Y-94881000D02*
G01*
X146419000Y-94881000D01*
X146419000Y-93079000D01*
X148221000Y-93079000D01*
X148221000Y-94881000D01*
X148221000Y-94881000D01*
G37*
G36*
X169426199Y-90798754D02*
G01*
X169438450Y-90799356D01*
X169456869Y-90799356D01*
X169479149Y-90801550D01*
X169563233Y-90818276D01*
X169584660Y-90824776D01*
X169663858Y-90857580D01*
X169669303Y-90860491D01*
X169669309Y-90860493D01*
X169678169Y-90865229D01*
X169678173Y-90865232D01*
X169683614Y-90868140D01*
X169754899Y-90915771D01*
X169772204Y-90929972D01*
X169832828Y-90990596D01*
X169847029Y-91007901D01*
X169894660Y-91079186D01*
X169897568Y-91084627D01*
X169897571Y-91084631D01*
X169902307Y-91093491D01*
X169902309Y-91093497D01*
X169905220Y-91098942D01*
X169938024Y-91178140D01*
X169944524Y-91199567D01*
X169961250Y-91283651D01*
X169963444Y-91305931D01*
X169963444Y-91324350D01*
X169964046Y-91336601D01*
X169965852Y-91354939D01*
X169965852Y-91842660D01*
X169964263Y-91858799D01*
X169961348Y-91868408D01*
X169956610Y-91877272D01*
X169950237Y-91885037D01*
X169937794Y-91895248D01*
X169927425Y-91902178D01*
X169910098Y-91919505D01*
X169896485Y-91939880D01*
X169887109Y-91962520D01*
X169882329Y-91986553D01*
X169882330Y-92011057D01*
X169887112Y-92035090D01*
X169896490Y-92057729D01*
X169910105Y-92078102D01*
X169927432Y-92095429D01*
X169937802Y-92102358D01*
X169950237Y-92112563D01*
X169956610Y-92120328D01*
X169961348Y-92129192D01*
X169964263Y-92138801D01*
X169965852Y-92154940D01*
X169965852Y-92642662D01*
X169964046Y-92660999D01*
X169963444Y-92673250D01*
X169963444Y-92691669D01*
X169961250Y-92713949D01*
X169944524Y-92798033D01*
X169938024Y-92819460D01*
X169905220Y-92898658D01*
X169902309Y-92904103D01*
X169902307Y-92904109D01*
X169897571Y-92912969D01*
X169897568Y-92912973D01*
X169894660Y-92918414D01*
X169847029Y-92989699D01*
X169832828Y-93007004D01*
X169772204Y-93067628D01*
X169754899Y-93081829D01*
X169683614Y-93129460D01*
X169678173Y-93132368D01*
X169678169Y-93132371D01*
X169669309Y-93137107D01*
X169669303Y-93137109D01*
X169663858Y-93140020D01*
X169584660Y-93172824D01*
X169563233Y-93179324D01*
X169479149Y-93196050D01*
X169456869Y-93198244D01*
X169438450Y-93198244D01*
X169426199Y-93198846D01*
X169407862Y-93200652D01*
X168920138Y-93200652D01*
X168901801Y-93198846D01*
X168889550Y-93198244D01*
X168871131Y-93198244D01*
X168848851Y-93196050D01*
X168764767Y-93179324D01*
X168743340Y-93172824D01*
X168664142Y-93140020D01*
X168658697Y-93137109D01*
X168658691Y-93137107D01*
X168649831Y-93132371D01*
X168649827Y-93132368D01*
X168644386Y-93129460D01*
X168573101Y-93081829D01*
X168555796Y-93067628D01*
X168495172Y-93007004D01*
X168480971Y-92989699D01*
X168433340Y-92918414D01*
X168430432Y-92912973D01*
X168430429Y-92912969D01*
X168425693Y-92904109D01*
X168425691Y-92904103D01*
X168422780Y-92898658D01*
X168389976Y-92819460D01*
X168383476Y-92798033D01*
X168366750Y-92713949D01*
X168364556Y-92691669D01*
X168364556Y-92673250D01*
X168363954Y-92660999D01*
X168362148Y-92642662D01*
X168362148Y-92154940D01*
X168363737Y-92138801D01*
X168366652Y-92129192D01*
X168371390Y-92120328D01*
X168377763Y-92112563D01*
X168390206Y-92102352D01*
X168400575Y-92095422D01*
X168417902Y-92078095D01*
X168431515Y-92057720D01*
X168440891Y-92035080D01*
X168445671Y-92011047D01*
X168445670Y-91986543D01*
X168440888Y-91962510D01*
X168431510Y-91939871D01*
X168417895Y-91919498D01*
X168400568Y-91902171D01*
X168390198Y-91895242D01*
X168377763Y-91885037D01*
X168371390Y-91877272D01*
X168366652Y-91868408D01*
X168363737Y-91858799D01*
X168362148Y-91842660D01*
X168362148Y-91354939D01*
X168363954Y-91336601D01*
X168364556Y-91324350D01*
X168364556Y-91305931D01*
X168366750Y-91283651D01*
X168383476Y-91199567D01*
X168389976Y-91178140D01*
X168422780Y-91098942D01*
X168425691Y-91093497D01*
X168425693Y-91093491D01*
X168430429Y-91084631D01*
X168430432Y-91084627D01*
X168433340Y-91079186D01*
X168480971Y-91007901D01*
X168495172Y-90990596D01*
X168555796Y-90929972D01*
X168573101Y-90915771D01*
X168644386Y-90868140D01*
X168649827Y-90865232D01*
X168649831Y-90865229D01*
X168658691Y-90860493D01*
X168658697Y-90860491D01*
X168664142Y-90857580D01*
X168743340Y-90824776D01*
X168764767Y-90818276D01*
X168848851Y-90801550D01*
X168871131Y-90799356D01*
X168889550Y-90799356D01*
X168901801Y-90798754D01*
X168920139Y-90796948D01*
X169407861Y-90796948D01*
X169426199Y-90798754D01*
X169426199Y-90798754D01*
G37*
G36*
X160501674Y-91455465D02*
G01*
X160539367Y-91466899D01*
X160574103Y-91485466D01*
X160604548Y-91510452D01*
X160629534Y-91540897D01*
X160648101Y-91575633D01*
X160659535Y-91613326D01*
X160664000Y-91658661D01*
X160664000Y-92745339D01*
X160659535Y-92790674D01*
X160648101Y-92828367D01*
X160629534Y-92863103D01*
X160604548Y-92893548D01*
X160574103Y-92918534D01*
X160539367Y-92937101D01*
X160501674Y-92948535D01*
X160456339Y-92953000D01*
X159619661Y-92953000D01*
X159574326Y-92948535D01*
X159536633Y-92937101D01*
X159501897Y-92918534D01*
X159471452Y-92893548D01*
X159446466Y-92863103D01*
X159427899Y-92828367D01*
X159416465Y-92790674D01*
X159412000Y-92745339D01*
X159412000Y-91658661D01*
X159416465Y-91613326D01*
X159427899Y-91575633D01*
X159446466Y-91540897D01*
X159471452Y-91510452D01*
X159501897Y-91485466D01*
X159536633Y-91466899D01*
X159574326Y-91455465D01*
X159619661Y-91451000D01*
X160456339Y-91451000D01*
X160501674Y-91455465D01*
X160501674Y-91455465D01*
G37*
G36*
X152863674Y-91455465D02*
G01*
X152901367Y-91466899D01*
X152936103Y-91485466D01*
X152966548Y-91510452D01*
X152991534Y-91540897D01*
X153010101Y-91575633D01*
X153021535Y-91613326D01*
X153026000Y-91658661D01*
X153026000Y-92745339D01*
X153021535Y-92790674D01*
X153010101Y-92828367D01*
X152991534Y-92863103D01*
X152966548Y-92893548D01*
X152936103Y-92918534D01*
X152901367Y-92937101D01*
X152863674Y-92948535D01*
X152818339Y-92953000D01*
X151981661Y-92953000D01*
X151936326Y-92948535D01*
X151898633Y-92937101D01*
X151863897Y-92918534D01*
X151833452Y-92893548D01*
X151808466Y-92863103D01*
X151789899Y-92828367D01*
X151778465Y-92790674D01*
X151774000Y-92745339D01*
X151774000Y-91658661D01*
X151778465Y-91613326D01*
X151789899Y-91575633D01*
X151808466Y-91540897D01*
X151833452Y-91510452D01*
X151863897Y-91485466D01*
X151898633Y-91466899D01*
X151936326Y-91455465D01*
X151981661Y-91451000D01*
X152818339Y-91451000D01*
X152863674Y-91455465D01*
X152863674Y-91455465D01*
G37*
G36*
X158451674Y-91455465D02*
G01*
X158489367Y-91466899D01*
X158524103Y-91485466D01*
X158554548Y-91510452D01*
X158579534Y-91540897D01*
X158598101Y-91575633D01*
X158609535Y-91613326D01*
X158614000Y-91658661D01*
X158614000Y-92745339D01*
X158609535Y-92790674D01*
X158598101Y-92828367D01*
X158579534Y-92863103D01*
X158554548Y-92893548D01*
X158524103Y-92918534D01*
X158489367Y-92937101D01*
X158451674Y-92948535D01*
X158406339Y-92953000D01*
X157569661Y-92953000D01*
X157524326Y-92948535D01*
X157486633Y-92937101D01*
X157451897Y-92918534D01*
X157421452Y-92893548D01*
X157396466Y-92863103D01*
X157377899Y-92828367D01*
X157366465Y-92790674D01*
X157362000Y-92745339D01*
X157362000Y-91658661D01*
X157366465Y-91613326D01*
X157377899Y-91575633D01*
X157396466Y-91540897D01*
X157421452Y-91510452D01*
X157451897Y-91485466D01*
X157486633Y-91466899D01*
X157524326Y-91455465D01*
X157569661Y-91451000D01*
X158406339Y-91451000D01*
X158451674Y-91455465D01*
X158451674Y-91455465D01*
G37*
G36*
X154913674Y-91455465D02*
G01*
X154951367Y-91466899D01*
X154986103Y-91485466D01*
X155016548Y-91510452D01*
X155041534Y-91540897D01*
X155060101Y-91575633D01*
X155071535Y-91613326D01*
X155076000Y-91658661D01*
X155076000Y-92745339D01*
X155071535Y-92790674D01*
X155060101Y-92828367D01*
X155041534Y-92863103D01*
X155016548Y-92893548D01*
X154986103Y-92918534D01*
X154951367Y-92937101D01*
X154913674Y-92948535D01*
X154868339Y-92953000D01*
X154031661Y-92953000D01*
X153986326Y-92948535D01*
X153948633Y-92937101D01*
X153913897Y-92918534D01*
X153883452Y-92893548D01*
X153858466Y-92863103D01*
X153839899Y-92828367D01*
X153828465Y-92790674D01*
X153824000Y-92745339D01*
X153824000Y-91658661D01*
X153828465Y-91613326D01*
X153839899Y-91575633D01*
X153858466Y-91540897D01*
X153883452Y-91510452D01*
X153913897Y-91485466D01*
X153948633Y-91466899D01*
X153986326Y-91455465D01*
X154031661Y-91451000D01*
X154868339Y-91451000D01*
X154913674Y-91455465D01*
X154913674Y-91455465D01*
G37*
G36*
X149276000Y-88951000D02*
G01*
X146761000Y-88951000D01*
X146761000Y-83769000D01*
X149276000Y-83769000D01*
X149276000Y-88951000D01*
X149276000Y-88951000D01*
G37*
G36*
X153594000Y-88951000D02*
G01*
X151206000Y-88951000D01*
X151206000Y-83769000D01*
X153594000Y-83769000D01*
X153594000Y-88951000D01*
X153594000Y-88951000D01*
G37*
G36*
X158039000Y-88951000D02*
G01*
X155524000Y-88951000D01*
X155524000Y-83769000D01*
X158039000Y-83769000D01*
X158039000Y-88951000D01*
X158039000Y-88951000D01*
G37*
G36*
X164516000Y-88951000D02*
G01*
X162001000Y-88951000D01*
X162001000Y-83769000D01*
X164516000Y-83769000D01*
X164516000Y-88951000D01*
X164516000Y-88951000D01*
G37*
G36*
X173279000Y-88951000D02*
G01*
X170764000Y-88951000D01*
X170764000Y-83769000D01*
X173279000Y-83769000D01*
X173279000Y-88951000D01*
X173279000Y-88951000D01*
G37*
G36*
X168834000Y-88951000D02*
G01*
X166446000Y-88951000D01*
X166446000Y-83769000D01*
X168834000Y-83769000D01*
X168834000Y-88951000D01*
X168834000Y-88951000D01*
G37*
M02*
