<?xml version="1.0" standalone="no"?>
 <!DOCTYPE svg PUBLIC "-//W3C//DTD SVG 1.1//EN" 
 "http://www.w3.org/Graphics/SVG/1.1/DTD/svg11.dtd"> 
<svg xmlns="http://www.w3.org/2000/svg" version="1.1" 
    width="29.7002cm" height="21.0007cm" viewBox="0 0 116930 82680 ">
<title>SVG Picture created as neo8_adapter-F_Mask.svg date 2020/02/13 12:15:50 </title>
  <desc>Picture generated by PCBNEW </desc>
<g style="fill:#000000; fill-opacity:1;stroke:#000000; stroke-opacity:1;
stroke-linecap:round; stroke-linejoin:round; "
 transform="translate(0 0) scale(1 1)">
</g>
<g style="fill:#000000; fill-opacity:0.0; 
stroke:#000000; stroke-width:-0.000393701; stroke-opacity:1; 
stroke-linecap:round; stroke-linejoin:round;">
</g>
<g style="fill:#000000; fill-opacity:1.0; 
stroke:#000000; stroke-width:0; stroke-opacity:1; 
stroke-linecap:round; stroke-linejoin:round;">
<path style="fill:#000000; fill-opacity:1.0; 
stroke:#000000; stroke-width:0; stroke-opacity:1; 
stroke-linecap:round; stroke-linejoin:round;fill-rule:evenodd;"
d="M 60825,46337
60829,46338
61112,46338
61112,47283
60829,47283
60825,47284
60814,47285
60804,47284
60799,47283
60784,47283
60776,47281
60772,47280
60764,47280
60728,47269
60716,47265
60671,47241
60632,47209
60600,47170
60577,47126
60573,47113
60562,47077
60558,47040
60558,46581
60562,46544
60577,46495
60577,46495
60600,46451
60632,46412
60671,46380
60716,46356
60739,46349
60764,46341
60772,46341
60781,46339
60784,46338
60799,46338
60804,46337
60814,46336
60825,46337
Z" /> 
<path style="fill:#000000; fill-opacity:1.0; 
stroke:#000000; stroke-width:0; stroke-opacity:1; 
stroke-linecap:round; stroke-linejoin:round;fill-rule:evenodd;"
d="M 65195,46337
65200,46338
65228,46338
65233,46341
65238,46342
65283,46356
65283,46356
65328,46380
65367,46412
65399,46451
65422,46495
65422,46495
65437,46544
65441,46581
65441,47040
65437,47077
65426,47113
65422,47126
65399,47170
65367,47209
65328,47241
65283,47265
65238,47279
65229,47282
65227,47283
65200,47283
65195,47284
65185,47285
65174,47284
65170,47283
64887,47283
64887,46338
65170,46338
65174,46337
65185,46336
65195,46337
Z" /> 
<path style="fill:#000000; fill-opacity:1.0; 
stroke:#000000; stroke-width:0; stroke-opacity:1; 
stroke-linecap:round; stroke-linejoin:round;fill-rule:evenodd;"
d="M 68043,45647
68069,45650
68136,45670
68198,45703
68212,45715
68252,45747
68284,45787
68296,45801
68329,45863
68349,45930
68356,46000
68349,46069
68329,46136
68296,46198
68284,46212
68252,46252
68212,46284
68198,46296
68136,46329
68069,46349
68043,46352
68017,46354
67982,46354
67956,46352
67930,46349
67863,46329
67801,46296
67787,46284
67747,46252
67715,46212
67703,46198
67670,46136
67650,46069
67643,46000
67650,45930
67670,45863
67703,45801
67715,45787
67747,45747
67787,45715
67801,45703
67863,45670
67930,45650
67956,45647
67982,45645
68017,45645
68043,45647
Z" /> 
<path style="fill:#000000; fill-opacity:1.0; 
stroke:#000000; stroke-width:0; stroke-opacity:1; 
stroke-linecap:round; stroke-linejoin:round;fill-rule:evenodd;"
d="M 58043,45647
58069,45650
58136,45670
58198,45703
58212,45715
58252,45747
58284,45787
58296,45801
58329,45863
58349,45930
58356,46000
58349,46069
58329,46136
58296,46198
58284,46212
58252,46252
58212,46284
58198,46296
58136,46329
58069,46349
58043,46352
58017,46354
57982,46354
57956,46352
57930,46349
57863,46329
57801,46296
57787,46284
57747,46252
57715,46212
57703,46198
57670,46136
57650,46069
57643,46000
57650,45930
57670,45863
57703,45801
57715,45787
57747,45747
57787,45715
57801,45703
57863,45670
57930,45650
57956,45647
57982,45645
58017,45645
58043,45647
Z" /> 
<path style="fill:#000000; fill-opacity:1.0; 
stroke:#000000; stroke-width:0; stroke-opacity:1; 
stroke-linecap:round; stroke-linejoin:round;fill-rule:evenodd;"
d="M 60271,45175
60286,45179
60300,45187
60312,45196
60322,45208
60329,45222
60333,45237
60335,45255
60335,45584
60333,45602
60329,45617
60322,45631
60312,45643
60300,45652
60286,45660
60271,45664
60253,45666
59826,45666
59808,45664
59793,45660
59779,45652
59767,45643
59757,45631
59750,45617
59746,45602
59744,45584
59744,45255
59746,45237
59750,45222
59757,45208
59767,45196
59779,45187
59793,45179
59808,45175
59826,45173
60253,45173
60271,45175
Z" /> 
<path style="fill:#000000; fill-opacity:1.0; 
stroke:#000000; stroke-width:0; stroke-opacity:1; 
stroke-linecap:round; stroke-linejoin:round;fill-rule:evenodd;"
d="M 58043,44647
58069,44650
58136,44670
58198,44703
58212,44715
58252,44747
58279,44781
58296,44801
58329,44863
58349,44930
58356,45000
58349,45069
58329,45136
58296,45198
58290,45204
58252,45252
58217,45280
58198,45296
58136,45329
58069,45349
58043,45352
58017,45354
57982,45354
57956,45352
57930,45349
57863,45329
57801,45296
57782,45280
57747,45252
57709,45204
57703,45198
57670,45136
57650,45069
57643,45000
57650,44930
57670,44863
57703,44801
57720,44781
57747,44747
57787,44715
57801,44703
57863,44670
57930,44650
57956,44647
57982,44645
58017,44645
58043,44647
Z" /> 
<path style="fill:#000000; fill-opacity:1.0; 
stroke:#000000; stroke-width:0; stroke-opacity:1; 
stroke-linecap:round; stroke-linejoin:round;fill-rule:evenodd;"
d="M 68043,44647
68069,44650
68136,44670
68198,44703
68212,44715
68252,44747
68279,44781
68296,44801
68329,44863
68349,44930
68356,45000
68349,45069
68329,45136
68296,45198
68290,45204
68252,45252
68217,45280
68198,45296
68136,45329
68069,45349
68043,45352
68017,45354
67982,45354
67956,45352
67930,45349
67863,45329
67801,45296
67782,45280
67747,45252
67709,45204
67703,45198
67670,45136
67650,45069
67643,45000
67650,44930
67670,44863
67703,44801
67720,44781
67747,44747
67787,44715
67801,44703
67863,44670
67930,44650
67956,44647
67982,44645
68017,44645
68043,44647
Z" /> 
<path style="fill:#000000; fill-opacity:1.0; 
stroke:#000000; stroke-width:0; stroke-opacity:1; 
stroke-linecap:round; stroke-linejoin:round;fill-rule:evenodd;"
d="M 65235,44353
65271,44364
65283,44368
65328,44392
65367,44424
65399,44463
65422,44507
65422,44507
65437,44556
65441,44593
65441,45051
65437,45089
65427,45122
65422,45137
65399,45182
65367,45221
65328,45253
65283,45277
65272,45280
65235,45291
65185,45296
65134,45291
65097,45280
65086,45277
65041,45253
65002,45221
64970,45182
64947,45137
64937,45107
64932,45089
64928,45051
64928,44593
64932,44556
64947,44507
64947,44507
64970,44463
65002,44424
65041,44392
65086,44368
65099,44364
65134,44353
65185,44348
65235,44353
Z" /> 
<path style="fill:#000000; fill-opacity:1.0; 
stroke:#000000; stroke-width:0; stroke-opacity:1; 
stroke-linecap:round; stroke-linejoin:round;fill-rule:evenodd;"
d="M 60865,44353
60900,44364
60913,44368
60958,44392
60997,44424
61029,44463
61052,44507
61052,44507
61067,44556
61071,44593
61071,45051
61067,45089
61057,45122
61052,45137
61029,45182
60997,45221
60958,45253
60913,45277
60902,45280
60865,45291
60814,45296
60764,45291
60727,45280
60716,45277
60671,45253
60632,45221
60600,45182
60577,45137
60567,45107
60562,45089
60558,45051
60558,44593
60562,44556
60577,44507
60577,44507
60600,44463
60632,44424
60671,44392
60716,44368
60728,44364
60764,44353
60814,44348
60865,44353
Z" /> 
<path style="fill:#000000; fill-opacity:1.0; 
stroke:#000000; stroke-width:0; stroke-opacity:1; 
stroke-linecap:round; stroke-linejoin:round;fill-rule:evenodd;"
d="M 63935,44221
63950,44225
63963,44232
63975,44242
63985,44254
63993,44268
63997,44283
63999,44301
63999,44728
63997,44746
63993,44761
63985,44775
63975,44787
63963,44797
63950,44804
63935,44808
63917,44810
63912,44810
63902,44811
63893,44814
63884,44818
63877,44825
63871,44832
63866,44841
63864,44850
63863,44859
63864,44869
63866,44878
63871,44887
63877,44894
63894,44911
63909,44934
63914,44946
63920,44959
63925,44986
63925,45013
63920,45040
63920,45040
63909,45065
63894,45088
63875,45107
63852,45122
63832,45130
63827,45132
63801,45138
63773,45138
63747,45132
63742,45130
63721,45122
63699,45107
63680,45088
63670,45074
63664,45066
63657,45060
63648,45056
63639,45053
63629,45052
63620,45053
63611,45056
63602,45060
63595,45066
63589,45074
63579,45088
63560,45107
63537,45122
63517,45130
63512,45132
63486,45138
63458,45138
63432,45132
63427,45130
63406,45122
63384,45107
63365,45088
63355,45074
63349,45066
63342,45060
63333,45056
63324,45053
63314,45052
63305,45053
63296,45056
63287,45060
63280,45066
63274,45074
63264,45088
63245,45107
63222,45122
63202,45130
63197,45132
63171,45138
63143,45138
63117,45132
63112,45130
63092,45122
63069,45107
63050,45088
63040,45074
63034,45066
63027,45060
63018,45056
63009,45053
63000,45052
62990,45053
62981,45056
62972,45060
62965,45066
62959,45074
62949,45088
62930,45107
62907,45122
62887,45130
62882,45132
62856,45138
62828,45138
62802,45132
62797,45130
62777,45122
62754,45107
62735,45088
62725,45074
62719,45066
62712,45060
62703,45056
62694,45053
62685,45052
62675,45053
62666,45056
62657,45060
62650,45066
62644,45074
62634,45088
62615,45107
62593,45122
62572,45130
62567,45132
62541,45138
62513,45138
62487,45132
62482,45130
62462,45122
62439,45107
62420,45088
62410,45074
62404,45066
62397,45060
62388,45056
62379,45053
62370,45052
62360,45053
62351,45056
62342,45060
62335,45066
62329,45074
62319,45088
62300,45107
62278,45122
62257,45130
62252,45132
62226,45138
62198,45138
62172,45132
62167,45130
62147,45122
62124,45107
62105,45088
62090,45065
62079,45040
62079,45040
62074,45013
62074,44986
62079,44959
62085,44946
62090,44934
62105,44911
62124,44892
62147,44877
62172,44867
62172,44867
62172,44867
62198,44861
62226,44861
62252,44867
62252,44867
62252,44867
62278,44877
62300,44892
62319,44911
62329,44925
62335,44933
62342,44939
62351,44943
62360,44946
62370,44947
62379,44946
62388,44943
62397,44939
62404,44933
62410,44925
62420,44911
62439,44892
62462,44877
62487,44867
62487,44867
62487,44867
62513,44861
62541,44861
62567,44867
62567,44867
62567,44867
62593,44877
62615,44892
62634,44911
62644,44925
62650,44933
62657,44939
62666,44943
62675,44946
62685,44947
62694,44946
62703,44943
62712,44939
62719,44933
62725,44925
62735,44911
62754,44892
62777,44877
62802,44867
62802,44867
62802,44867
62828,44861
62856,44861
62882,44867
62882,44867
62882,44867
62907,44877
62930,44892
62949,44911
62959,44925
62965,44933
62972,44939
62981,44943
62990,44946
63000,44947
63009,44946
63018,44943
63027,44939
63034,44933
63040,44925
63050,44911
63069,44892
63092,44877
63117,44867
63117,44867
63117,44867
63143,44861
63171,44861
63197,44867
63197,44867
63197,44867
63222,44877
63245,44892
63264,44911
63274,44925
63280,44933
63287,44939
63296,44943
63305,44946
63314,44947
63324,44946
63333,44943
63342,44939
63349,44933
63355,44925
63365,44911
63384,44892
63406,44877
63432,44867
63432,44867
63432,44867
63458,44861
63486,44861
63496,44860
63499,44859
63548,44859
63549,44869
63551,44878
63556,44887
63562,44894
63579,44911
63589,44925
63595,44933
63602,44939
63611,44943
63620,44946
63629,44947
63639,44946
63648,44943
63657,44939
63664,44933
63670,44925
63680,44911
63697,44894
63703,44887
63707,44878
63710,44869
63711,44859
63710,44850
63707,44841
63703,44832
63697,44825
63689,44818
63681,44814
63672,44811
63662,44810
63597,44810
63587,44811
63578,44814
63570,44818
63562,44825
63556,44832
63551,44841
63549,44850
63548,44859
63499,44859
63505,44858
63514,44853
63521,44847
63527,44839
63532,44831
63535,44822
63536,44812
63535,44802
63532,44793
63525,44781
63520,44775
63512,44761
63508,44746
63506,44728
63506,44301
63508,44283
63512,44268
63520,44254
63529,44242
63541,44232
63555,44225
63570,44221
63588,44219
63917,44219
63935,44221
Z" /> 
<path style="fill:#000000; fill-opacity:1.0; 
stroke:#000000; stroke-width:0; stroke-opacity:1; 
stroke-linecap:round; stroke-linejoin:round;fill-rule:evenodd;"
d="M 60271,44368
60286,44372
60300,44380
60312,44389
60322,44401
60329,44415
60333,44430
60335,44448
60335,44777
60333,44795
60329,44810
60322,44823
60312,44835
60300,44845
60286,44853
60271,44857
60253,44859
59826,44859
59808,44857
59793,44853
59779,44845
59767,44835
59757,44823
59750,44810
59746,44795
59744,44777
59744,44448
59746,44430
59750,44415
59757,44401
59767,44389
59779,44380
59793,44372
59808,44368
59826,44366
60253,44366
60271,44368
Z" /> 
<path style="fill:#000000; fill-opacity:1.0; 
stroke:#000000; stroke-width:0; stroke-opacity:1; 
stroke-linecap:round; stroke-linejoin:round;fill-rule:evenodd;"
d="M 64742,44221
64757,44225
64771,44232
64783,44242
64792,44254
64800,44268
64804,44283
64806,44301
64806,44728
64804,44746
64800,44761
64792,44775
64783,44787
64771,44797
64757,44804
64742,44808
64724,44810
64395,44810
64377,44808
64362,44804
64348,44797
64336,44787
64327,44775
64319,44761
64315,44746
64313,44728
64313,44301
64315,44283
64319,44268
64327,44254
64336,44242
64348,44232
64362,44225
64377,44221
64395,44219
64724,44219
64742,44221
Z" /> 
<path style="fill:#000000; fill-opacity:1.0; 
stroke:#000000; stroke-width:0; stroke-opacity:1; 
stroke-linecap:round; stroke-linejoin:round;fill-rule:evenodd;"
d="M 58043,43647
58069,43650
58136,43670
58198,43703
58212,43715
58252,43747
58284,43787
58296,43801
58329,43863
58349,43930
58356,44000
58349,44069
58329,44136
58296,44198
58284,44212
58252,44252
58214,44283
58198,44296
58136,44329
58069,44349
58043,44352
58017,44354
57982,44354
57956,44352
57930,44349
57863,44329
57801,44296
57785,44283
57747,44252
57715,44212
57703,44198
57670,44136
57650,44069
57643,44000
57650,43930
57670,43863
57703,43801
57715,43787
57747,43747
57787,43715
57801,43703
57863,43670
57930,43650
57956,43647
57982,43645
58017,43645
58043,43647
Z" /> 
<path style="fill:#000000; fill-opacity:1.0; 
stroke:#000000; stroke-width:0; stroke-opacity:1; 
stroke-linecap:round; stroke-linejoin:round;fill-rule:evenodd;"
d="M 68043,43647
68069,43650
68136,43670
68198,43703
68212,43715
68252,43747
68284,43787
68296,43801
68329,43863
68349,43930
68356,44000
68349,44069
68329,44136
68296,44198
68284,44212
68252,44252
68214,44283
68198,44296
68136,44329
68069,44349
68043,44352
68017,44354
67982,44354
67956,44352
67930,44349
67863,44329
67801,44296
67785,44283
67747,44252
67715,44212
67703,44198
67670,44136
67650,44069
67643,44000
67650,43930
67670,43863
67703,43801
67715,43787
67747,43747
67787,43715
67801,43703
67863,43670
67930,43650
67956,43647
67982,43645
68017,43645
68043,43647
Z" /> 
<path style="fill:#000000; fill-opacity:1.0; 
stroke:#000000; stroke-width:0; stroke-opacity:1; 
stroke-linecap:round; stroke-linejoin:round;fill-rule:evenodd;"
d="M 61012,43933
60263,43933
60263,41846
61012,41846
61012,43933
Z" /> 
<path style="fill:#000000; fill-opacity:1.0; 
stroke:#000000; stroke-width:0; stroke-opacity:1; 
stroke-linecap:round; stroke-linejoin:round;fill-rule:evenodd;"
d="M 65736,43933
64987,43933
64987,41846
65736,41846
65736,43933
Z" /> 
<path style="fill:#000000; fill-opacity:1.0; 
stroke:#000000; stroke-width:0; stroke-opacity:1; 
stroke-linecap:round; stroke-linejoin:round;fill-rule:evenodd;"
d="M 68043,42647
68069,42650
68136,42670
68198,42703
68208,42712
68252,42747
68284,42787
68296,42801
68329,42863
68349,42930
68356,43000
68349,43069
68329,43136
68296,43198
68284,43212
68252,43252
68212,43284
68198,43296
68136,43329
68069,43349
68043,43352
68017,43354
67982,43354
67956,43352
67930,43349
67863,43329
67801,43296
67787,43284
67747,43252
67715,43212
67703,43198
67670,43136
67650,43069
67643,43000
67650,42930
67670,42863
67703,42801
67715,42787
67747,42747
67791,42712
67801,42703
67863,42670
67930,42650
67956,42647
67982,42645
68017,42645
68043,42647
Z" /> 
<path style="fill:#000000; fill-opacity:1.0; 
stroke:#000000; stroke-width:0; stroke-opacity:1; 
stroke-linecap:round; stroke-linejoin:round;fill-rule:evenodd;"
d="M 58043,42647
58069,42650
58136,42670
58198,42703
58208,42712
58252,42747
58284,42787
58296,42801
58329,42863
58349,42930
58356,43000
58349,43069
58329,43136
58296,43198
58284,43212
58252,43252
58212,43284
58198,43296
58136,43329
58069,43349
58043,43352
58017,43354
57982,43354
57956,43352
57930,43349
57863,43329
57801,43296
57787,43284
57747,43252
57715,43212
57703,43198
57670,43136
57650,43069
57643,43000
57650,42930
57670,42863
57703,42801
57715,42787
57747,42747
57791,42712
57801,42703
57863,42670
57930,42650
57956,42647
57982,42645
58017,42645
58043,42647
Z" /> 
<path style="fill:#000000; fill-opacity:1.0; 
stroke:#000000; stroke-width:0; stroke-opacity:1; 
stroke-linecap:round; stroke-linejoin:round;fill-rule:evenodd;"
d="M 58043,41647
58069,41650
58136,41670
58198,41703
58212,41715
58252,41747
58284,41787
58296,41801
58329,41863
58349,41930
58356,42000
58349,42069
58329,42136
58296,42198
58293,42201
58252,42252
58212,42284
58198,42296
58136,42329
58069,42349
58043,42352
58017,42354
57982,42354
57956,42352
57930,42349
57863,42329
57801,42296
57787,42284
57747,42252
57706,42201
57703,42198
57670,42136
57650,42069
57643,42000
57650,41930
57670,41863
57703,41801
57715,41787
57747,41747
57787,41715
57801,41703
57863,41670
57930,41650
57956,41647
57982,41645
58017,41645
58043,41647
Z" /> 
<path style="fill:#000000; fill-opacity:1.0; 
stroke:#000000; stroke-width:0; stroke-opacity:1; 
stroke-linecap:round; stroke-linejoin:round;fill-rule:evenodd;"
d="M 68043,41647
68069,41650
68136,41670
68198,41703
68212,41715
68252,41747
68284,41787
68296,41801
68329,41863
68349,41930
68356,42000
68349,42069
68329,42136
68296,42198
68293,42201
68252,42252
68212,42284
68198,42296
68136,42329
68069,42349
68043,42352
68017,42354
67982,42354
67956,42352
67930,42349
67863,42329
67801,42296
67787,42284
67747,42252
67706,42201
67703,42198
67670,42136
67650,42069
67643,42000
67650,41930
67670,41863
67703,41801
67715,41787
67747,41747
67787,41715
67801,41703
67863,41670
67930,41650
67956,41647
67982,41645
68017,41645
68043,41647
Z" /> 
<path style="fill:#000000; fill-opacity:1.0; 
stroke:#000000; stroke-width:0; stroke-opacity:1; 
stroke-linecap:round; stroke-linejoin:round;fill-rule:evenodd;"
d="M 59783,40103
59788,40103
59795,40103
59804,40104
59837,40111
59845,40113
59876,40126
59878,40127
59878,40127
59882,40129
59882,40129
59884,40130
59912,40149
59919,40155
59943,40178
59948,40185
59967,40213
59968,40215
59968,40215
59970,40219
59970,40219
59971,40221
59984,40252
59987,40261
59993,40294
59994,40303
59994,40310
59994,40315
59995,40322
59995,40534
59995,40540
59993,40546
59991,40551
59989,40560
59989,40570
59991,40579
59994,40588
59995,40589
59995,41074
59992,41079
59990,41088
59989,41097
59990,41107
59992,41116
59993,41118
59995,41123
59995,41129
59995,41341
59994,41348
59994,41353
59994,41360
59993,41369
59987,41402
59984,41410
59971,41441
59970,41444
59970,41444
59968,41447
59968,41447
59967,41449
59948,41477
59943,41484
59919,41508
59912,41514
59884,41532
59882,41534
59882,41534
59878,41535
59878,41535
59876,41537
59845,41549
59837,41552
59804,41559
59795,41559
59788,41559
59783,41560
59776,41560
59583,41560
59576,41560
59571,41559
59564,41559
59555,41559
59522,41552
59514,41549
59483,41537
59481,41535
59481,41535
59477,41534
59477,41534
59475,41532
59447,41514
59440,41508
59416,41484
59411,41477
59392,41449
59391,41447
59391,41447
59389,41444
59389,41444
59388,41441
59375,41410
59372,41402
59366,41369
59365,41360
59365,41353
59365,41348
59364,41341
59364,41129
59364,41123
59366,41117
59368,41112
59370,41102
59370,41093
59368,41083
59365,41074
59364,41074
59364,40589
59367,40584
59369,40575
59370,40565
59369,40556
59367,40546
59366,40544
59364,40540
59364,40534
59364,40322
59365,40315
59365,40310
59365,40303
59366,40294
59372,40261
59375,40252
59388,40221
59389,40219
59389,40219
59391,40215
59391,40215
59392,40213
59411,40185
59416,40178
59440,40155
59447,40149
59475,40130
59477,40129
59477,40129
59481,40127
59481,40127
59483,40126
59514,40113
59522,40111
59555,40104
59564,40103
59571,40103
59576,40103
59583,40102
59776,40102
59783,40103
Z" /> 
<path style="fill:#000000; fill-opacity:1.0; 
stroke:#000000; stroke-width:0; stroke-opacity:1; 
stroke-linecap:round; stroke-linejoin:round;fill-rule:evenodd;"
d="M 68043,40647
68069,40650
68136,40670
68198,40703
68212,40715
68252,40747
68284,40787
68296,40801
68329,40863
68349,40930
68356,41000
68349,41069
68329,41136
68296,41198
68284,41212
68252,41252
68212,41284
68198,41296
68136,41329
68069,41349
68043,41352
68017,41354
67982,41354
67956,41352
67930,41349
67863,41329
67801,41296
67787,41284
67747,41252
67715,41212
67703,41198
67670,41136
67650,41069
67643,41000
67650,40930
67670,40863
67703,40801
67715,40787
67747,40747
67787,40715
67801,40703
67863,40670
67930,40650
67956,40647
67982,40645
68017,40645
68043,40647
Z" /> 
<path style="fill:#000000; fill-opacity:1.0; 
stroke:#000000; stroke-width:0; stroke-opacity:1; 
stroke-linecap:round; stroke-linejoin:round;fill-rule:evenodd;"
d="M 58043,40647
58069,40650
58136,40670
58198,40703
58212,40715
58252,40747
58284,40787
58296,40801
58329,40863
58349,40930
58356,41000
58349,41069
58329,41136
58296,41198
58284,41212
58252,41252
58212,41284
58198,41296
58136,41329
58069,41349
58043,41352
58017,41354
57982,41354
57956,41352
57930,41349
57863,41329
57801,41296
57787,41284
57747,41252
57715,41212
57703,41198
57670,41136
57650,41069
57643,41000
57650,40930
57670,40863
57703,40801
57715,40787
57747,40747
57787,40715
57801,40703
57863,40670
57930,40650
57956,40647
57982,40645
58017,40645
58043,40647
Z" /> 
<path style="fill:#000000; fill-opacity:1.0; 
stroke:#000000; stroke-width:0; stroke-opacity:1; 
stroke-linecap:round; stroke-linejoin:round;fill-rule:evenodd;"
d="M 65736,41020
64987,41020
64987,38066
65736,38066
65736,41020
Z" /> 
<path style="fill:#000000; fill-opacity:1.0; 
stroke:#000000; stroke-width:0; stroke-opacity:1; 
stroke-linecap:round; stroke-linejoin:round;fill-rule:evenodd;"
d="M 61012,41020
60263,41020
60263,38066
61012,38066
61012,41020
Z" /> 
<path style="fill:#000000; fill-opacity:1.0; 
stroke:#000000; stroke-width:0; stroke-opacity:1; 
stroke-linecap:round; stroke-linejoin:round;fill-rule:evenodd;"
d="M 68043,39647
68069,39650
68136,39670
68198,39703
68212,39715
68252,39747
68284,39787
68296,39801
68329,39863
68349,39930
68356,40000
68349,40069
68329,40136
68296,40198
68284,40212
68252,40252
68212,40284
68198,40296
68198,40296
68149,40322
68136,40329
68069,40349
68043,40352
68017,40354
67982,40354
67956,40352
67930,40349
67863,40329
67850,40322
67801,40296
67801,40296
67787,40284
67747,40252
67715,40212
67703,40198
67670,40136
67650,40069
67643,40000
67650,39930
67670,39863
67703,39801
67715,39787
67747,39747
67787,39715
67801,39703
67863,39670
67930,39650
67956,39647
67982,39645
68017,39645
68043,39647
Z" /> 
<path style="fill:#000000; fill-opacity:1.0; 
stroke:#000000; stroke-width:0; stroke-opacity:1; 
stroke-linecap:round; stroke-linejoin:round;fill-rule:evenodd;"
d="M 58043,39647
58069,39650
58136,39670
58198,39703
58212,39715
58252,39747
58284,39787
58296,39801
58329,39863
58349,39930
58356,40000
58349,40069
58329,40136
58296,40198
58284,40212
58252,40252
58212,40284
58198,40296
58198,40296
58149,40322
58136,40329
58069,40349
58043,40352
58017,40354
57982,40354
57956,40352
57930,40349
57863,40329
57850,40322
57801,40296
57801,40296
57787,40284
57747,40252
57715,40212
57703,40198
57670,40136
57650,40069
57643,40000
57650,39930
57670,39863
57703,39801
57715,39787
57747,39747
57787,39715
57801,39703
57863,39670
57930,39650
57956,39647
57982,39645
58017,39645
58043,39647
Z" /> 
<path style="fill:#000000; fill-opacity:1.0; 
stroke:#000000; stroke-width:0; stroke-opacity:1; 
stroke-linecap:round; stroke-linejoin:round;fill-rule:evenodd;"
d="M 66433,38937
66438,38937
66445,38937
66454,38938
66487,38945
66495,38947
66526,38960
66528,38961
66528,38961
66532,38963
66532,38963
66534,38964
66562,38983
66569,38989
66593,39013
66598,39019
66617,39047
66618,39050
66618,39050
66620,39053
66620,39053
66621,39055
66634,39086
66637,39095
66643,39128
66644,39137
66644,39144
66644,39149
66645,39156
66645,39348
66645,39354
66643,39358
66642,39362
66639,39365
66634,39369
66630,39371
66623,39378
66618,39386
66614,39395
66612,39405
66612,39414
66614,39424
66618,39433
66623,39441
66630,39448
66634,39450
66639,39454
66642,39457
66643,39461
66645,39465
66645,39471
66645,39663
66644,39670
66644,39675
66644,39682
66643,39691
66637,39724
66634,39733
66621,39764
66620,39766
66620,39766
66618,39769
66618,39769
66617,39772
66598,39800
66593,39806
66569,39830
66562,39836
66534,39855
66532,39856
66532,39856
66528,39858
66528,39858
66526,39859
66495,39872
66487,39874
66454,39881
66445,39882
66438,39882
66433,39882
66426,39883
66233,39883
66226,39882
66221,39882
66214,39882
66205,39881
66172,39874
66164,39872
66133,39859
66131,39858
66131,39858
66127,39856
66127,39856
66125,39855
66097,39836
66090,39830
66066,39806
66061,39800
66042,39772
66041,39769
66041,39769
66039,39766
66039,39766
66038,39764
66025,39733
66022,39724
66016,39691
66015,39682
66015,39675
66015,39670
66014,39663
66014,39471
66014,39465
66016,39461
66017,39457
66020,39454
66025,39450
66029,39448
66036,39441
66041,39433
66045,39424
66047,39414
66047,39405
66045,39395
66041,39386
66036,39378
66029,39371
66025,39369
66020,39365
66017,39362
66016,39358
66014,39354
66014,39348
66014,39156
66015,39149
66015,39144
66015,39137
66016,39128
66022,39095
66025,39086
66038,39055
66039,39053
66039,39053
66041,39050
66041,39050
66042,39047
66061,39019
66066,39013
66090,38989
66097,38983
66125,38964
66127,38963
66127,38963
66131,38961
66131,38961
66133,38960
66164,38947
66172,38945
66205,38938
66214,38937
66221,38937
66226,38937
66233,38936
66426,38936
66433,38937
Z" /> 
<path style="fill:#000000; fill-opacity:1.0; 
stroke:#000000; stroke-width:0; stroke-opacity:1; 
stroke-linecap:round; stroke-linejoin:round;fill-rule:evenodd;"
d="M 68043,38647
68069,38650
68136,38670
68198,38703
68212,38715
68252,38747
68284,38787
68296,38801
68329,38863
68349,38930
68356,39000
68349,39069
68329,39136
68296,39198
68284,39212
68252,39252
68212,39284
68198,39296
68136,39329
68069,39349
68043,39352
68017,39354
67982,39354
67956,39352
67930,39349
67863,39329
67801,39296
67787,39284
67747,39252
67715,39212
67703,39198
67670,39136
67650,39069
67643,39000
67650,38930
67670,38863
67703,38801
67715,38787
67747,38747
67787,38715
67801,38703
67863,38670
67930,38650
67956,38647
67982,38645
68017,38645
68043,38647
Z" /> 
<path style="fill:#000000; fill-opacity:1.0; 
stroke:#000000; stroke-width:0; stroke-opacity:1; 
stroke-linecap:round; stroke-linejoin:round;fill-rule:evenodd;"
d="M 58043,38647
58069,38650
58136,38670
58198,38703
58212,38715
58252,38747
58284,38787
58296,38801
58329,38863
58349,38930
58356,39000
58349,39069
58329,39136
58296,39198
58284,39212
58252,39252
58212,39284
58198,39296
58136,39329
58069,39349
58043,39352
58017,39354
57982,39354
57956,39352
57930,39349
57863,39329
57801,39296
57787,39284
57747,39252
57715,39212
57703,39198
57670,39136
57650,39069
57643,39000
57650,38930
57670,38863
57703,38801
57715,38787
57747,38747
57787,38715
57801,38703
57863,38670
57930,38650
57956,38647
57982,38645
58017,38645
58043,38647
Z" /> 
<path style="fill:#000000; fill-opacity:1.0; 
stroke:#000000; stroke-width:0; stroke-opacity:1; 
stroke-linecap:round; stroke-linejoin:round;fill-rule:evenodd;"
d="M 68043,37647
68069,37650
68136,37670
68198,37703
68212,37715
68252,37747
68284,37787
68296,37801
68329,37863
68349,37930
68356,38000
68349,38069
68329,38136
68296,38198
68284,38212
68252,38252
68212,38284
68198,38296
68136,38329
68069,38349
68043,38352
68017,38354
67982,38354
67956,38352
67930,38349
67863,38329
67801,38296
67787,38284
67747,38252
67715,38212
67703,38198
67670,38136
67650,38069
67643,38000
67650,37930
67670,37863
67703,37801
67715,37787
67747,37747
67787,37715
67801,37703
67863,37670
67930,37650
67956,37647
67982,37645
68017,37645
68043,37647
Z" /> 
<path style="fill:#000000; fill-opacity:1.0; 
stroke:#000000; stroke-width:0; stroke-opacity:1; 
stroke-linecap:round; stroke-linejoin:round;fill-rule:evenodd;"
d="M 58043,37647
58069,37650
58136,37670
58198,37703
58212,37715
58252,37747
58284,37787
58296,37801
58329,37863
58349,37930
58356,38000
58349,38069
58329,38136
58296,38198
58284,38212
58252,38252
58212,38284
58198,38296
58136,38329
58069,38349
58043,38352
58017,38354
57982,38354
57956,38352
57930,38349
57863,38329
57801,38296
57787,38284
57747,38252
57715,38212
57703,38198
57670,38136
57650,38069
57643,38000
57650,37930
57670,37863
57703,37801
57715,37787
57747,37747
57787,37715
57801,37703
57863,37670
57930,37650
57956,37647
57982,37645
58017,37645
58043,37647
Z" /> 
<path style="fill:#000000; fill-opacity:1.0; 
stroke:#000000; stroke-width:0; stroke-opacity:1; 
stroke-linecap:round; stroke-linejoin:round;fill-rule:evenodd;"
d="M 60982,36906
60997,36910
61011,36917
61023,36927
61032,36939
61040,36953
61044,36968
61046,36986
61046,37413
61044,37431
61040,37446
61032,37460
61023,37472
61011,37482
60997,37489
60982,37493
60964,37495
60635,37495
60617,37493
60602,37489
60588,37482
60576,37472
60567,37460
60559,37446
60555,37431
60553,37413
60553,36986
60555,36968
60559,36953
60567,36939
60576,36927
60588,36917
60602,36910
60617,36906
60635,36904
60964,36904
60982,36906
Z" /> 
<path style="fill:#000000; fill-opacity:1.0; 
stroke:#000000; stroke-width:0; stroke-opacity:1; 
stroke-linecap:round; stroke-linejoin:round;fill-rule:evenodd;"
d="M 60175,36906
60190,36910
60203,36917
60215,36927
60225,36939
60233,36953
60237,36968
60239,36986
60239,37413
60237,37431
60233,37446
60225,37460
60215,37472
60203,37482
60190,37489
60175,37493
60157,37495
59828,37495
59810,37493
59795,37489
59781,37482
59769,37472
59760,37460
59752,37446
59748,37431
59746,37413
59746,36986
59748,36968
59752,36953
59760,36939
59769,36927
59781,36917
59795,36910
59810,36906
59828,36904
60157,36904
60175,36906
Z" /> 
<path style="fill:#000000; fill-opacity:1.0; 
stroke:#000000; stroke-width:0; stroke-opacity:1; 
stroke-linecap:round; stroke-linejoin:round;fill-rule:evenodd;"
d="M 68354,37354
67645,37354
67645,36645
68354,36645
68354,37354
Z" /> 
<path style="fill:#000000; fill-opacity:1.0; 
stroke:#000000; stroke-width:0; stroke-opacity:1; 
stroke-linecap:round; stroke-linejoin:round;fill-rule:evenodd;"
d="M 58354,37354
57645,37354
57645,36645
58354,36645
58354,37354
Z" /> 
<path style="fill:#000000; fill-opacity:1.0; 
stroke:#000000; stroke-width:0; stroke-opacity:1; 
stroke-linecap:round; stroke-linejoin:round;fill-rule:evenodd;"
d="M 66703,35747
66708,35747
66715,35747
66724,35748
66757,35755
66765,35757
66796,35770
66798,35771
66798,35771
66802,35773
66802,35773
66804,35774
66832,35793
66839,35799
66863,35823
66868,35829
66887,35857
66888,35860
66888,35860
66890,35863
66890,35863
66891,35865
66904,35896
66907,35905
66913,35938
66914,35947
66914,35954
66914,35959
66915,35966
66915,36158
66915,36164
66913,36168
66912,36172
66909,36175
66904,36179
66900,36181
66893,36188
66888,36196
66884,36205
66882,36215
66882,36224
66884,36234
66888,36243
66893,36251
66900,36258
66904,36260
66909,36264
66912,36267
66913,36271
66915,36275
66915,36281
66915,36473
66914,36480
66914,36485
66914,36492
66913,36501
66907,36534
66904,36543
66891,36574
66890,36576
66890,36576
66888,36579
66888,36579
66887,36582
66868,36610
66863,36616
66839,36640
66832,36646
66804,36665
66802,36666
66802,36666
66798,36668
66798,36668
66796,36669
66765,36682
66757,36684
66724,36691
66715,36692
66708,36692
66703,36692
66696,36693
66503,36693
66496,36692
66491,36692
66484,36692
66475,36691
66442,36684
66434,36682
66403,36669
66401,36668
66401,36668
66397,36666
66397,36666
66395,36665
66367,36646
66360,36640
66336,36616
66331,36610
66312,36582
66311,36579
66311,36579
66309,36576
66309,36576
66308,36574
66295,36543
66292,36534
66286,36501
66285,36492
66285,36485
66285,36480
66284,36473
66284,36281
66284,36275
66286,36271
66287,36267
66290,36264
66295,36260
66299,36258
66306,36251
66311,36243
66315,36234
66317,36224
66317,36215
66315,36205
66311,36196
66306,36188
66299,36181
66295,36179
66290,36175
66287,36172
66286,36168
66284,36164
66284,36158
66284,35966
66285,35959
66285,35954
66285,35947
66286,35938
66292,35905
66295,35896
66308,35865
66309,35863
66309,35863
66311,35860
66311,35860
66312,35857
66331,35829
66336,35823
66360,35799
66367,35793
66395,35774
66397,35773
66397,35773
66401,35771
66401,35771
66403,35770
66434,35757
66442,35755
66475,35748
66484,35747
66491,35747
66496,35747
66503,35746
66696,35746
66703,35747
Z" /> 
<path style="fill:#000000; fill-opacity:1.0; 
stroke:#000000; stroke-width:0; stroke-opacity:1; 
stroke-linecap:round; stroke-linejoin:round;fill-rule:evenodd;"
d="M 63189,36006
63204,36010
63218,36017
63230,36027
63239,36039
63247,36053
63251,36068
63253,36086
63253,36513
63251,36531
63247,36546
63239,36560
63230,36572
63218,36582
63204,36589
63189,36593
63171,36595
62842,36595
62824,36593
62809,36589
62796,36582
62784,36572
62774,36560
62766,36546
62762,36531
62760,36513
62760,36086
62762,36068
62766,36053
62774,36039
62784,36027
62796,36017
62809,36010
62824,36006
62842,36004
63171,36004
63189,36006
Z" /> 
<path style="fill:#000000; fill-opacity:1.0; 
stroke:#000000; stroke-width:0; stroke-opacity:1; 
stroke-linecap:round; stroke-linejoin:round;fill-rule:evenodd;"
d="M 60182,36006
60197,36010
60211,36017
60223,36027
60232,36039
60240,36053
60244,36068
60246,36086
60246,36513
60244,36531
60240,36546
60232,36560
60223,36572
60211,36582
60197,36589
60182,36593
60164,36595
59835,36595
59817,36593
59802,36589
59788,36582
59776,36572
59767,36560
59759,36546
59755,36531
59753,36513
59753,36086
59755,36068
59759,36053
59767,36039
59776,36027
59788,36017
59802,36010
59817,36006
59835,36004
60164,36004
60182,36006
Z" /> 
<path style="fill:#000000; fill-opacity:1.0; 
stroke:#000000; stroke-width:0; stroke-opacity:1; 
stroke-linecap:round; stroke-linejoin:round;fill-rule:evenodd;"
d="M 62382,36006
62397,36010
62411,36017
62423,36027
62432,36039
62440,36053
62444,36068
62446,36086
62446,36513
62444,36531
62440,36546
62432,36560
62423,36572
62411,36582
62397,36589
62382,36593
62364,36595
62035,36595
62017,36593
62002,36589
61988,36582
61976,36572
61967,36560
61959,36546
61955,36531
61953,36513
61953,36086
61955,36068
61959,36053
61967,36039
61976,36027
61988,36017
62002,36010
62017,36006
62035,36004
62364,36004
62382,36006
Z" /> 
<path style="fill:#000000; fill-opacity:1.0; 
stroke:#000000; stroke-width:0; stroke-opacity:1; 
stroke-linecap:round; stroke-linejoin:round;fill-rule:evenodd;"
d="M 60989,36006
61004,36010
61018,36017
61030,36027
61039,36039
61047,36053
61051,36068
61053,36086
61053,36513
61051,36531
61047,36546
61039,36560
61030,36572
61018,36582
61004,36589
60989,36593
60971,36595
60642,36595
60624,36593
60609,36589
60596,36582
60584,36572
60574,36560
60566,36546
60562,36531
60560,36513
60560,36086
60562,36068
60566,36053
60574,36039
60584,36027
60596,36017
60609,36010
60624,36006
60642,36004
60971,36004
60989,36006
Z" /> 
<path style="fill:#000000; fill-opacity:1.0; 
stroke:#000000; stroke-width:0; stroke-opacity:1; 
stroke-linecap:round; stroke-linejoin:round;fill-rule:evenodd;"
d="M 58770,35020
57779,35020
57779,32979
58770,32979
58770,35020
Z" /> 
<path style="fill:#000000; fill-opacity:1.0; 
stroke:#000000; stroke-width:0; stroke-opacity:1; 
stroke-linecap:round; stroke-linejoin:round;fill-rule:evenodd;"
d="M 60470,35020
59529,35020
59529,32979
60470,32979
60470,35020
Z" /> 
<path style="fill:#000000; fill-opacity:1.0; 
stroke:#000000; stroke-width:0; stroke-opacity:1; 
stroke-linecap:round; stroke-linejoin:round;fill-rule:evenodd;"
d="M 62220,35020
61229,35020
61229,32979
62220,32979
62220,35020
Z" /> 
<path style="fill:#000000; fill-opacity:1.0; 
stroke:#000000; stroke-width:0; stroke-opacity:1; 
stroke-linecap:round; stroke-linejoin:round;fill-rule:evenodd;"
d="M 64770,35020
63779,35020
63779,32979
64770,32979
64770,35020
Z" /> 
<path style="fill:#000000; fill-opacity:1.0; 
stroke:#000000; stroke-width:0; stroke-opacity:1; 
stroke-linecap:round; stroke-linejoin:round;fill-rule:evenodd;"
d="M 68220,35020
67229,35020
67229,32979
68220,32979
68220,35020
Z" /> 
<path style="fill:#000000; fill-opacity:1.0; 
stroke:#000000; stroke-width:0; stroke-opacity:1; 
stroke-linecap:round; stroke-linejoin:round;fill-rule:evenodd;"
d="M 66470,35020
65529,35020
65529,32979
66470,32979
66470,35020
Z" /> 
</g> 
</svg>
