G04 #@! TF.GenerationSoftware,KiCad,Pcbnew,(5.1.4-0-10_14)*
G04 #@! TF.CreationDate,2020-02-10T15:43:12-05:00*
G04 #@! TF.ProjectId,neo8_adapter,6e656f38-5f61-4646-9170-7465722e6b69,rev?*
G04 #@! TF.SameCoordinates,Original*
G04 #@! TF.FileFunction,Legend,Top*
G04 #@! TF.FilePolarity,Positive*
%FSLAX46Y46*%
G04 Gerber Fmt 4.6, Leading zero omitted, Abs format (unit mm)*
G04 Created by KiCad (PCBNEW (5.1.4-0-10_14)) date 2020-02-10 15:43:12*
%MOMM*%
%LPD*%
G04 APERTURE LIST*
%ADD10C,0.120000*%
%ADD11C,0.150000*%
G04 APERTURE END LIST*
D10*
X151887200Y-101662800D02*
G75*
G02X152587200Y-102362800I0J-700000D01*
G01*
X150587200Y-102362800D02*
G75*
G02X151287200Y-101662800I700000J0D01*
G01*
X151287200Y-105762800D02*
G75*
G02X150587200Y-105062800I0J700000D01*
G01*
X152587200Y-105062800D02*
G75*
G02X151887200Y-105762800I-700000J0D01*
G01*
X152587200Y-102312800D02*
X152587200Y-105112800D01*
X151887200Y-105762800D02*
X151287200Y-105762800D01*
X150587200Y-105112800D02*
X150587200Y-102312800D01*
X151287200Y-101662800D02*
X151887200Y-101662800D01*
X166230000Y-111640000D02*
X166230000Y-112240000D01*
X166230000Y-96030000D02*
X166230000Y-96640000D01*
X153810000Y-111640000D02*
X153810000Y-112250000D01*
X153920000Y-96030000D02*
X166230000Y-96030000D01*
X153810000Y-112250000D02*
X166230000Y-112250000D01*
X166230000Y-104240000D02*
X166230000Y-106240000D01*
X153810000Y-104240000D02*
X153810000Y-106240000D01*
X158751748Y-92912000D02*
X159274252Y-92912000D01*
X158751748Y-91492000D02*
X159274252Y-91492000D01*
X163218652Y-112358100D02*
X162696148Y-112358100D01*
X163218652Y-113778100D02*
X162696148Y-113778100D01*
X151791600Y-114080548D02*
X151791600Y-114603052D01*
X153211600Y-114080548D02*
X153211600Y-114603052D01*
X153686252Y-91492000D02*
X153163748Y-91492000D01*
X153686252Y-92912000D02*
X153163748Y-92912000D01*
X168164000Y-92698800D02*
X168164000Y-91298800D01*
X168864000Y-90598800D02*
X169464000Y-90598800D01*
X170164000Y-91298800D02*
X170164000Y-92698800D01*
X169464000Y-93398800D02*
X168864000Y-93398800D01*
X168864000Y-93398800D02*
G75*
G02X168164000Y-92698800I0J700000D01*
G01*
X170164000Y-92698800D02*
G75*
G02X169464000Y-93398800I-700000J0D01*
G01*
X169464000Y-90598800D02*
G75*
G02X170164000Y-91298800I0J-700000D01*
G01*
X168164000Y-91298800D02*
G75*
G02X168864000Y-90598800I700000J0D01*
G01*
X169478200Y-99401400D02*
X169478200Y-100801400D01*
X168778200Y-101501400D02*
X168178200Y-101501400D01*
X167478200Y-100801400D02*
X167478200Y-99401400D01*
X168178200Y-98701400D02*
X168778200Y-98701400D01*
X168778200Y-98701400D02*
G75*
G02X169478200Y-99401400I0J-700000D01*
G01*
X167478200Y-99401400D02*
G75*
G02X168178200Y-98701400I700000J0D01*
G01*
X168178200Y-101501400D02*
G75*
G02X167478200Y-100801400I0J700000D01*
G01*
X169478200Y-100801400D02*
G75*
G02X168778200Y-101501400I-700000J0D01*
G01*
X171390000Y-92650000D02*
X172720000Y-92650000D01*
X171390000Y-93980000D02*
X171390000Y-92650000D01*
X171390000Y-95250000D02*
X174050000Y-95250000D01*
X174050000Y-95250000D02*
X174050000Y-118170000D01*
X171390000Y-95250000D02*
X171390000Y-118170000D01*
X171390000Y-118170000D02*
X174050000Y-118170000D01*
X145990000Y-92650000D02*
X147320000Y-92650000D01*
X145990000Y-93980000D02*
X145990000Y-92650000D01*
X145990000Y-95250000D02*
X148650000Y-95250000D01*
X148650000Y-95250000D02*
X148650000Y-118170000D01*
X145990000Y-95250000D02*
X145990000Y-118170000D01*
X145990000Y-118170000D02*
X148650000Y-118170000D01*
X153668252Y-93778000D02*
X153145748Y-93778000D01*
X153668252Y-95198000D02*
X153145748Y-95198000D01*
D11*
X149147280Y-107208533D02*
X149861566Y-107208533D01*
X150004423Y-107256152D01*
X150099661Y-107351390D01*
X150147280Y-107494247D01*
X150147280Y-107589485D01*
X150147280Y-106732342D02*
X149147280Y-106732342D01*
X149147280Y-106351390D01*
X149194900Y-106256152D01*
X149242519Y-106208533D01*
X149337757Y-106160914D01*
X149480614Y-106160914D01*
X149575852Y-106208533D01*
X149623471Y-106256152D01*
X149671090Y-106351390D01*
X149671090Y-106732342D01*
X149147280Y-105827580D02*
X149147280Y-105208533D01*
X149528233Y-105541866D01*
X149528233Y-105399009D01*
X149575852Y-105303771D01*
X149623471Y-105256152D01*
X149718709Y-105208533D01*
X149956804Y-105208533D01*
X150052042Y-105256152D01*
X150099661Y-105303771D01*
X150147280Y-105399009D01*
X150147280Y-105684723D01*
X150099661Y-105779961D01*
X150052042Y-105827580D01*
X149198080Y-104271604D02*
X150007604Y-104271604D01*
X150102842Y-104223985D01*
X150150461Y-104176366D01*
X150198080Y-104081128D01*
X150198080Y-103890652D01*
X150150461Y-103795414D01*
X150102842Y-103747795D01*
X150007604Y-103700176D01*
X149198080Y-103700176D01*
X150150461Y-103271604D02*
X150198080Y-103128747D01*
X150198080Y-102890652D01*
X150150461Y-102795414D01*
X150102842Y-102747795D01*
X150007604Y-102700176D01*
X149912366Y-102700176D01*
X149817128Y-102747795D01*
X149769509Y-102795414D01*
X149721890Y-102890652D01*
X149674271Y-103081128D01*
X149626652Y-103176366D01*
X149579033Y-103223985D01*
X149483795Y-103271604D01*
X149388557Y-103271604D01*
X149293319Y-103223985D01*
X149245700Y-103176366D01*
X149198080Y-103081128D01*
X149198080Y-102843033D01*
X149245700Y-102700176D01*
X149674271Y-101938271D02*
X149721890Y-101795414D01*
X149769509Y-101747795D01*
X149864747Y-101700176D01*
X150007604Y-101700176D01*
X150102842Y-101747795D01*
X150150461Y-101795414D01*
X150198080Y-101890652D01*
X150198080Y-102271604D01*
X149198080Y-102271604D01*
X149198080Y-101938271D01*
X149245700Y-101843033D01*
X149293319Y-101795414D01*
X149388557Y-101747795D01*
X149483795Y-101747795D01*
X149579033Y-101795414D01*
X149626652Y-101843033D01*
X149674271Y-101938271D01*
X149674271Y-102271604D01*
X152014180Y-100628295D02*
X152014180Y-101199723D01*
X152014180Y-100914009D02*
X151014180Y-100914009D01*
X151157038Y-101009247D01*
X151252276Y-101104485D01*
X151299895Y-101199723D01*
X152014180Y-99437819D02*
X151014180Y-99437819D01*
X151014180Y-99199723D01*
X151061800Y-99056866D01*
X151157038Y-98961628D01*
X151252276Y-98914009D01*
X151442752Y-98866390D01*
X151585609Y-98866390D01*
X151776085Y-98914009D01*
X151871323Y-98961628D01*
X151966561Y-99056866D01*
X152014180Y-99199723D01*
X152014180Y-99437819D01*
X152014180Y-98437819D02*
X151347514Y-98437819D01*
X151014180Y-98437819D02*
X151061800Y-98485438D01*
X151109419Y-98437819D01*
X151061800Y-98390200D01*
X151014180Y-98437819D01*
X151109419Y-98437819D01*
X151966561Y-98009247D02*
X152014180Y-97914009D01*
X152014180Y-97723533D01*
X151966561Y-97628295D01*
X151871323Y-97580676D01*
X151823704Y-97580676D01*
X151728466Y-97628295D01*
X151680847Y-97723533D01*
X151680847Y-97866390D01*
X151633228Y-97961628D01*
X151537990Y-98009247D01*
X151490371Y-98009247D01*
X151395133Y-97961628D01*
X151347514Y-97866390D01*
X151347514Y-97723533D01*
X151395133Y-97628295D01*
X151064980Y-109340447D02*
X151064980Y-108721400D01*
X151445933Y-109054733D01*
X151445933Y-108911876D01*
X151493552Y-108816638D01*
X151541171Y-108769019D01*
X151636409Y-108721400D01*
X151874504Y-108721400D01*
X151969742Y-108769019D01*
X152017361Y-108816638D01*
X152064980Y-108911876D01*
X152064980Y-109197590D01*
X152017361Y-109292828D01*
X151969742Y-109340447D01*
X151541171Y-107530923D02*
X151541171Y-107197590D01*
X152064980Y-107054733D02*
X152064980Y-107530923D01*
X151064980Y-107530923D01*
X151064980Y-107054733D01*
X151398314Y-106626161D02*
X152064980Y-106626161D01*
X151493552Y-106626161D02*
X151445933Y-106578542D01*
X151398314Y-106483304D01*
X151398314Y-106340447D01*
X151445933Y-106245209D01*
X151541171Y-106197590D01*
X152064980Y-106197590D01*
X159258095Y-97242380D02*
X159258095Y-98051904D01*
X159305714Y-98147142D01*
X159353333Y-98194761D01*
X159448571Y-98242380D01*
X159639047Y-98242380D01*
X159734285Y-98194761D01*
X159781904Y-98147142D01*
X159829523Y-98051904D01*
X159829523Y-97242380D01*
X160258095Y-97337619D02*
X160305714Y-97290000D01*
X160400952Y-97242380D01*
X160639047Y-97242380D01*
X160734285Y-97290000D01*
X160781904Y-97337619D01*
X160829523Y-97432857D01*
X160829523Y-97528095D01*
X160781904Y-97670952D01*
X160210476Y-98242380D01*
X160829523Y-98242380D01*
X161631333Y-92654380D02*
X161298000Y-92178190D01*
X161059904Y-92654380D02*
X161059904Y-91654380D01*
X161440857Y-91654380D01*
X161536095Y-91702000D01*
X161583714Y-91749619D01*
X161631333Y-91844857D01*
X161631333Y-91987714D01*
X161583714Y-92082952D01*
X161536095Y-92130571D01*
X161440857Y-92178190D01*
X161059904Y-92178190D01*
X162536095Y-91654380D02*
X162059904Y-91654380D01*
X162012285Y-92130571D01*
X162059904Y-92082952D01*
X162155142Y-92035333D01*
X162393238Y-92035333D01*
X162488476Y-92082952D01*
X162536095Y-92130571D01*
X162583714Y-92225809D01*
X162583714Y-92463904D01*
X162536095Y-92559142D01*
X162488476Y-92606761D01*
X162393238Y-92654380D01*
X162155142Y-92654380D01*
X162059904Y-92606761D01*
X162012285Y-92559142D01*
X159929533Y-113710980D02*
X159596200Y-113234790D01*
X159358104Y-113710980D02*
X159358104Y-112710980D01*
X159739057Y-112710980D01*
X159834295Y-112758600D01*
X159881914Y-112806219D01*
X159929533Y-112901457D01*
X159929533Y-113044314D01*
X159881914Y-113139552D01*
X159834295Y-113187171D01*
X159739057Y-113234790D01*
X159358104Y-113234790D01*
X160786676Y-113044314D02*
X160786676Y-113710980D01*
X160548580Y-112663361D02*
X160310485Y-113377647D01*
X160929533Y-113377647D01*
X151302980Y-114390466D02*
X150826790Y-114723800D01*
X151302980Y-114961895D02*
X150302980Y-114961895D01*
X150302980Y-114580942D01*
X150350600Y-114485704D01*
X150398219Y-114438085D01*
X150493457Y-114390466D01*
X150636314Y-114390466D01*
X150731552Y-114438085D01*
X150779171Y-114485704D01*
X150826790Y-114580942D01*
X150826790Y-114961895D01*
X150398219Y-114009514D02*
X150350600Y-113961895D01*
X150302980Y-113866657D01*
X150302980Y-113628561D01*
X150350600Y-113533323D01*
X150398219Y-113485704D01*
X150493457Y-113438085D01*
X150588695Y-113438085D01*
X150731552Y-113485704D01*
X151302980Y-114057133D01*
X151302980Y-113438085D01*
X156043333Y-92654380D02*
X155567142Y-92654380D01*
X155567142Y-91654380D01*
X156900476Y-92654380D02*
X156329047Y-92654380D01*
X156614761Y-92654380D02*
X156614761Y-91654380D01*
X156519523Y-91797238D01*
X156424285Y-91892476D01*
X156329047Y-91940095D01*
X170445180Y-92044733D02*
X171159466Y-92044733D01*
X171302323Y-92092352D01*
X171397561Y-92187590D01*
X171445180Y-92330447D01*
X171445180Y-92425685D01*
X171445180Y-91568542D02*
X170445180Y-91568542D01*
X170445180Y-91187590D01*
X170492800Y-91092352D01*
X170540419Y-91044733D01*
X170635657Y-90997114D01*
X170778514Y-90997114D01*
X170873752Y-91044733D01*
X170921371Y-91092352D01*
X170968990Y-91187590D01*
X170968990Y-91568542D01*
X170540419Y-90616161D02*
X170492800Y-90568542D01*
X170445180Y-90473304D01*
X170445180Y-90235209D01*
X170492800Y-90139971D01*
X170540419Y-90092352D01*
X170635657Y-90044733D01*
X170730895Y-90044733D01*
X170873752Y-90092352D01*
X171445180Y-90663780D01*
X171445180Y-90044733D01*
X167689161Y-94354352D02*
X167736780Y-94211495D01*
X167736780Y-93973400D01*
X167689161Y-93878161D01*
X167641542Y-93830542D01*
X167546304Y-93782923D01*
X167451066Y-93782923D01*
X167355828Y-93830542D01*
X167308209Y-93878161D01*
X167260590Y-93973400D01*
X167212971Y-94163876D01*
X167165352Y-94259114D01*
X167117733Y-94306733D01*
X167022495Y-94354352D01*
X166927257Y-94354352D01*
X166832019Y-94306733D01*
X166784400Y-94259114D01*
X166736780Y-94163876D01*
X166736780Y-93925780D01*
X166784400Y-93782923D01*
X167736780Y-93354352D02*
X166736780Y-93354352D01*
X166736780Y-92973400D01*
X166784400Y-92878161D01*
X166832019Y-92830542D01*
X166927257Y-92782923D01*
X167070114Y-92782923D01*
X167165352Y-92830542D01*
X167212971Y-92878161D01*
X167260590Y-92973400D01*
X167260590Y-93354352D01*
X167736780Y-92354352D02*
X166736780Y-92354352D01*
X167832019Y-92116257D02*
X167832019Y-91354352D01*
X167212971Y-91116257D02*
X167212971Y-90782923D01*
X167736780Y-90640066D02*
X167736780Y-91116257D01*
X166736780Y-91116257D01*
X166736780Y-90640066D01*
X167736780Y-90211495D02*
X166736780Y-90211495D01*
X167736780Y-89640066D01*
X166736780Y-89640066D01*
X169730580Y-100934733D02*
X170444866Y-100934733D01*
X170587723Y-100982352D01*
X170682961Y-101077590D01*
X170730580Y-101220447D01*
X170730580Y-101315685D01*
X170730580Y-100458542D02*
X169730580Y-100458542D01*
X169730580Y-100077590D01*
X169778200Y-99982352D01*
X169825819Y-99934733D01*
X169921057Y-99887114D01*
X170063914Y-99887114D01*
X170159152Y-99934733D01*
X170206771Y-99982352D01*
X170254390Y-100077590D01*
X170254390Y-100458542D01*
X170730580Y-98934733D02*
X170730580Y-99506161D01*
X170730580Y-99220447D02*
X169730580Y-99220447D01*
X169873438Y-99315685D01*
X169968676Y-99410923D01*
X170016295Y-99506161D01*
X168955980Y-106624142D02*
X167955980Y-106624142D01*
X168955980Y-106052714D01*
X167955980Y-106052714D01*
X168955980Y-105433666D02*
X168908361Y-105528904D01*
X168860742Y-105576523D01*
X168765504Y-105624142D01*
X168479790Y-105624142D01*
X168384552Y-105576523D01*
X168336933Y-105528904D01*
X168289314Y-105433666D01*
X168289314Y-105290809D01*
X168336933Y-105195571D01*
X168384552Y-105147952D01*
X168479790Y-105100333D01*
X168765504Y-105100333D01*
X168860742Y-105147952D01*
X168908361Y-105195571D01*
X168955980Y-105290809D01*
X168955980Y-105433666D01*
X168432171Y-103576523D02*
X168479790Y-103433666D01*
X168527409Y-103386047D01*
X168622647Y-103338428D01*
X168765504Y-103338428D01*
X168860742Y-103386047D01*
X168908361Y-103433666D01*
X168955980Y-103528904D01*
X168955980Y-103909857D01*
X167955980Y-103909857D01*
X167955980Y-103576523D01*
X168003600Y-103481285D01*
X168051219Y-103433666D01*
X168146457Y-103386047D01*
X168241695Y-103386047D01*
X168336933Y-103433666D01*
X168384552Y-103481285D01*
X168432171Y-103576523D01*
X168432171Y-103909857D01*
X168955980Y-102481285D02*
X168432171Y-102481285D01*
X168336933Y-102528904D01*
X168289314Y-102624142D01*
X168289314Y-102814619D01*
X168336933Y-102909857D01*
X168908361Y-102481285D02*
X168955980Y-102576523D01*
X168955980Y-102814619D01*
X168908361Y-102909857D01*
X168813123Y-102957476D01*
X168717885Y-102957476D01*
X168622647Y-102909857D01*
X168575028Y-102814619D01*
X168575028Y-102576523D01*
X168527409Y-102481285D01*
X168289314Y-102147952D02*
X168289314Y-101767000D01*
X167955980Y-102005095D02*
X168813123Y-102005095D01*
X168908361Y-101957476D01*
X168955980Y-101862238D01*
X168955980Y-101767000D01*
X169340280Y-86782233D02*
X170054566Y-86782233D01*
X170197423Y-86829852D01*
X170292661Y-86925090D01*
X170340280Y-87067947D01*
X170340280Y-87163185D01*
X169340280Y-85829852D02*
X169340280Y-86306042D01*
X169816471Y-86353661D01*
X169768852Y-86306042D01*
X169721233Y-86210804D01*
X169721233Y-85972709D01*
X169768852Y-85877471D01*
X169816471Y-85829852D01*
X169911709Y-85782233D01*
X170149804Y-85782233D01*
X170245042Y-85829852D01*
X170292661Y-85877471D01*
X170340280Y-85972709D01*
X170340280Y-86210804D01*
X170292661Y-86306042D01*
X170245042Y-86353661D01*
X165009580Y-92398361D02*
X165009580Y-91826933D01*
X166009580Y-92112647D02*
X165009580Y-92112647D01*
X166009580Y-91493600D02*
X165009580Y-91493600D01*
X166009580Y-91017409D02*
X165009580Y-91017409D01*
X165723866Y-90684076D01*
X165009580Y-90350742D01*
X166009580Y-90350742D01*
X165485771Y-89874552D02*
X165485771Y-89541219D01*
X166009580Y-89398361D02*
X166009580Y-89874552D01*
X165009580Y-89874552D01*
X165009580Y-89398361D01*
X166009580Y-88969790D02*
X165009580Y-88969790D01*
X165009580Y-88588838D01*
X165057200Y-88493600D01*
X165104819Y-88445980D01*
X165200057Y-88398361D01*
X165342914Y-88398361D01*
X165438152Y-88445980D01*
X165485771Y-88493600D01*
X165533390Y-88588838D01*
X165533390Y-88969790D01*
X165009580Y-87969790D02*
X165819104Y-87969790D01*
X165914342Y-87922171D01*
X165961961Y-87874552D01*
X166009580Y-87779314D01*
X166009580Y-87588838D01*
X165961961Y-87493600D01*
X165914342Y-87445980D01*
X165819104Y-87398361D01*
X165009580Y-87398361D01*
X166009580Y-86445980D02*
X166009580Y-86922171D01*
X165009580Y-86922171D01*
X165961961Y-86160266D02*
X166009580Y-86017409D01*
X166009580Y-85779314D01*
X165961961Y-85684076D01*
X165914342Y-85636457D01*
X165819104Y-85588838D01*
X165723866Y-85588838D01*
X165628628Y-85636457D01*
X165581009Y-85684076D01*
X165533390Y-85779314D01*
X165485771Y-85969790D01*
X165438152Y-86065028D01*
X165390533Y-86112647D01*
X165295295Y-86160266D01*
X165200057Y-86160266D01*
X165104819Y-86112647D01*
X165057200Y-86065028D01*
X165009580Y-85969790D01*
X165009580Y-85731695D01*
X165057200Y-85588838D01*
X165485771Y-85160266D02*
X165485771Y-84826933D01*
X166009580Y-84684076D02*
X166009580Y-85160266D01*
X165009580Y-85160266D01*
X165009580Y-84684076D01*
X149718780Y-86871133D02*
X150433066Y-86871133D01*
X150575923Y-86918752D01*
X150671161Y-87013990D01*
X150718780Y-87156847D01*
X150718780Y-87252085D01*
X150052114Y-85966371D02*
X150718780Y-85966371D01*
X149671161Y-86204466D02*
X150385447Y-86442561D01*
X150385447Y-85823514D01*
X154763766Y-87845757D02*
X154763766Y-87369566D01*
X155049480Y-87940995D02*
X154049480Y-87607661D01*
X155049480Y-87274328D01*
X155049480Y-86940995D02*
X154049480Y-86940995D01*
X155049480Y-86369566D01*
X154049480Y-86369566D01*
X154049480Y-86036233D02*
X154049480Y-85464804D01*
X155049480Y-85750519D02*
X154049480Y-85750519D01*
X156043333Y-94845142D02*
X155995714Y-94892761D01*
X155852857Y-94940380D01*
X155757619Y-94940380D01*
X155614761Y-94892761D01*
X155519523Y-94797523D01*
X155471904Y-94702285D01*
X155424285Y-94511809D01*
X155424285Y-94368952D01*
X155471904Y-94178476D01*
X155519523Y-94083238D01*
X155614761Y-93988000D01*
X155757619Y-93940380D01*
X155852857Y-93940380D01*
X155995714Y-93988000D01*
X156043333Y-94035619D01*
X156424285Y-94035619D02*
X156471904Y-93988000D01*
X156567142Y-93940380D01*
X156805238Y-93940380D01*
X156900476Y-93988000D01*
X156948095Y-94035619D01*
X156995714Y-94130857D01*
X156995714Y-94226095D01*
X156948095Y-94368952D01*
X156376666Y-94940380D01*
X156995714Y-94940380D01*
M02*
