<?xml version="1.0" standalone="no"?>
 <!DOCTYPE svg PUBLIC "-//W3C//DTD SVG 1.1//EN" 
 "http://www.w3.org/Graphics/SVG/1.1/DTD/svg11.dtd"> 
<svg xmlns="http://www.w3.org/2000/svg" version="1.1" 
    width="29.7002cm" height="21.0007cm" viewBox="0 0 116930 82680 ">
<title>SVG Picture created as neo8_adapter-F_Cu.svg date 2020/02/13 12:15:50 </title>
  <desc>Picture generated by PCBNEW </desc>
<g style="fill:#000000; fill-opacity:1;stroke:#000000; stroke-opacity:1;
stroke-linecap:round; stroke-linejoin:round; "
 transform="translate(0 0) scale(1 1)">
</g>
<g style="fill:#000000; fill-opacity:0.0; 
stroke:#000000; stroke-width:-0.000393701; stroke-opacity:1; 
stroke-linecap:round; stroke-linejoin:round;">
</g>
<g style="fill:#000000; fill-opacity:1.0; 
stroke:#000000; stroke-width:0; stroke-opacity:1; 
stroke-linecap:round; stroke-linejoin:round;">
<path style="fill:#000000; fill-opacity:1.0; 
stroke:#000000; stroke-width:0; stroke-opacity:1; 
stroke-linecap:round; stroke-linejoin:round;fill-rule:evenodd;"
d="M 59798,40477
59798,40674
59561,40674
59561,40477
Z" /> 
<g >
</g>
<g >
</g>
<g style="fill:#000000; fill-opacity:1.0; 
stroke:#000000; stroke-width:0; stroke-opacity:1; 
stroke-linecap:round; stroke-linejoin:round;">
<path style="fill:#000000; fill-opacity:1.0; 
stroke:#000000; stroke-width:0; stroke-opacity:1; 
stroke-linecap:round; stroke-linejoin:round;fill-rule:evenodd;"
d="M 59384,40536
59384,40320
59384,40320
59384,40310
59386,40291
59390,40272
59396,40253
59403,40235
59412,40218
59423,40202
59435,40187
59449,40174
59464,40161
59480,40151
59497,40142
59515,40134
59533,40129
59552,40125
59571,40123
59581,40123
59581,40123
59778,40123
59778,40123
59788,40123
59807,40125
59826,40129
59844,40134
59862,40142
59879,40151
59895,40161
59910,40174
59924,40187
59936,40202
59947,40218
59956,40235
59963,40253
59969,40272
59973,40291
59975,40310
59975,40320
59975,40320
59975,40536
59384,40536
Z" /> 
<path style="fill:#000000; fill-opacity:1.0; 
stroke:#000000; stroke-width:0; stroke-opacity:1; 
stroke-linecap:round; stroke-linejoin:round;fill-rule:evenodd;"
d="M 59384,40634
59975,40634
59975,41028
59384,41028
59384,40634
Z" /> 
<path style="fill:#000000; fill-opacity:1.0; 
stroke:#000000; stroke-width:0; stroke-opacity:1; 
stroke-linecap:round; stroke-linejoin:round;fill-rule:evenodd;"
d="M 59975,41343
59975,41353
59973,41372
59969,41391
59963,41409
59956,41427
59947,41444
59936,41460
59924,41475
59910,41489
59895,41501
59879,41512
59862,41521
59844,41528
59826,41534
59807,41538
59788,41540
59778,41540
59778,41540
59581,41540
59581,41540
59571,41540
59552,41538
59533,41534
59515,41528
59497,41521
59480,41512
59464,41501
59449,41489
59435,41475
59423,41460
59412,41444
59403,41427
59396,41409
59390,41391
59386,41372
59384,41353
59384,41343
59384,41343
59384,41127
59975,41127
59975,41343
59975,41343
Z" /> 
</g>
<g >
</g>
<g >
</g>
<g style="fill:#000000; fill-opacity:1.0; 
stroke:#000000; stroke-width:0; stroke-opacity:1; 
stroke-linecap:round; stroke-linejoin:round;">
<path style="fill:#000000; fill-opacity:1.0; 
stroke:#000000; stroke-width:0; stroke-opacity:1; 
stroke-linecap:round; stroke-linejoin:round;fill-rule:evenodd;"
d="M 65007,38401
65007,38086
65716,38086
65716,38401
65007,38401
Z" /> 
<path style="fill:#000000; fill-opacity:1.0; 
stroke:#000000; stroke-width:0; stroke-opacity:1; 
stroke-linecap:round; stroke-linejoin:round;fill-rule:evenodd;"
d="M 65007,38834
65007,38519
65716,38519
65716,38834
65007,38834
Z" /> 
<path style="fill:#000000; fill-opacity:1.0; 
stroke:#000000; stroke-width:0; stroke-opacity:1; 
stroke-linecap:round; stroke-linejoin:round;fill-rule:evenodd;"
d="M 65007,39267
65007,38952
65716,38952
65716,39267
65007,39267
Z" /> 
<path style="fill:#000000; fill-opacity:1.0; 
stroke:#000000; stroke-width:0; stroke-opacity:1; 
stroke-linecap:round; stroke-linejoin:round;fill-rule:evenodd;"
d="M 65007,39700
65007,39385
65716,39385
65716,39700
65007,39700
Z" /> 
<path style="fill:#000000; fill-opacity:1.0; 
stroke:#000000; stroke-width:0; stroke-opacity:1; 
stroke-linecap:round; stroke-linejoin:round;fill-rule:evenodd;"
d="M 65007,40133
65007,39818
65716,39818
65716,40133
65007,40133
Z" /> 
<path style="fill:#000000; fill-opacity:1.0; 
stroke:#000000; stroke-width:0; stroke-opacity:1; 
stroke-linecap:round; stroke-linejoin:round;fill-rule:evenodd;"
d="M 65007,40566
65007,40251
65716,40251
65716,40566
65007,40566
Z" /> 
<path style="fill:#000000; fill-opacity:1.0; 
stroke:#000000; stroke-width:0; stroke-opacity:1; 
stroke-linecap:round; stroke-linejoin:round;fill-rule:evenodd;"
d="M 65007,41000
65007,40685
65716,40685
65716,41000
65007,41000
Z" /> 
<path style="fill:#000000; fill-opacity:1.0; 
stroke:#000000; stroke-width:0; stroke-opacity:1; 
stroke-linecap:round; stroke-linejoin:round;fill-rule:evenodd;"
d="M 65007,42181
65007,41866
65716,41866
65716,42181
65007,42181
Z" /> 
<path style="fill:#000000; fill-opacity:1.0; 
stroke:#000000; stroke-width:0; stroke-opacity:1; 
stroke-linecap:round; stroke-linejoin:round;fill-rule:evenodd;"
d="M 65007,42614
65007,42299
65716,42299
65716,42614
65007,42614
Z" /> 
<path style="fill:#000000; fill-opacity:1.0; 
stroke:#000000; stroke-width:0; stroke-opacity:1; 
stroke-linecap:round; stroke-linejoin:round;fill-rule:evenodd;"
d="M 65007,43047
65007,42732
65716,42732
65716,43047
65007,43047
Z" /> 
<path style="fill:#000000; fill-opacity:1.0; 
stroke:#000000; stroke-width:0; stroke-opacity:1; 
stroke-linecap:round; stroke-linejoin:round;fill-rule:evenodd;"
d="M 65007,43480
65007,43165
65716,43165
65716,43480
65007,43480
Z" /> 
<path style="fill:#000000; fill-opacity:1.0; 
stroke:#000000; stroke-width:0; stroke-opacity:1; 
stroke-linecap:round; stroke-linejoin:round;fill-rule:evenodd;"
d="M 65007,43913
65007,43598
65716,43598
65716,43913
65007,43913
Z" /> 
<path style="fill:#000000; fill-opacity:1.0; 
stroke:#000000; stroke-width:0; stroke-opacity:1; 
stroke-linecap:round; stroke-linejoin:round;fill-rule:evenodd;"
d="M 60283,43913
60283,43598
60992,43598
60992,43913
60283,43913
Z" /> 
<path style="fill:#000000; fill-opacity:1.0; 
stroke:#000000; stroke-width:0; stroke-opacity:1; 
stroke-linecap:round; stroke-linejoin:round;fill-rule:evenodd;"
d="M 60283,43480
60283,43165
60992,43165
60992,43480
60283,43480
Z" /> 
<path style="fill:#000000; fill-opacity:1.0; 
stroke:#000000; stroke-width:0; stroke-opacity:1; 
stroke-linecap:round; stroke-linejoin:round;fill-rule:evenodd;"
d="M 60283,43047
60283,42732
60992,42732
60992,43047
60283,43047
Z" /> 
<path style="fill:#000000; fill-opacity:1.0; 
stroke:#000000; stroke-width:0; stroke-opacity:1; 
stroke-linecap:round; stroke-linejoin:round;fill-rule:evenodd;"
d="M 60283,42614
60283,42299
60992,42299
60992,42614
60283,42614
Z" /> 
<path style="fill:#000000; fill-opacity:1.0; 
stroke:#000000; stroke-width:0; stroke-opacity:1; 
stroke-linecap:round; stroke-linejoin:round;fill-rule:evenodd;"
d="M 60283,42181
60283,41866
60992,41866
60992,42181
60283,42181
Z" /> 
<path style="fill:#000000; fill-opacity:1.0; 
stroke:#000000; stroke-width:0; stroke-opacity:1; 
stroke-linecap:round; stroke-linejoin:round;fill-rule:evenodd;"
d="M 60283,41000
60283,40685
60992,40685
60992,41000
60283,41000
Z" /> 
<path style="fill:#000000; fill-opacity:1.0; 
stroke:#000000; stroke-width:0; stroke-opacity:1; 
stroke-linecap:round; stroke-linejoin:round;fill-rule:evenodd;"
d="M 60283,40566
60283,40251
60992,40251
60992,40566
60283,40566
Z" /> 
<path style="fill:#000000; fill-opacity:1.0; 
stroke:#000000; stroke-width:0; stroke-opacity:1; 
stroke-linecap:round; stroke-linejoin:round;fill-rule:evenodd;"
d="M 60283,40133
60283,39818
60992,39818
60992,40133
60283,40133
Z" /> 
<path style="fill:#000000; fill-opacity:1.0; 
stroke:#000000; stroke-width:0; stroke-opacity:1; 
stroke-linecap:round; stroke-linejoin:round;fill-rule:evenodd;"
d="M 60283,39700
60283,39385
60992,39385
60992,39700
60283,39700
Z" /> 
<path style="fill:#000000; fill-opacity:1.0; 
stroke:#000000; stroke-width:0; stroke-opacity:1; 
stroke-linecap:round; stroke-linejoin:round;fill-rule:evenodd;"
d="M 60283,39267
60283,38952
60992,38952
60992,39267
60283,39267
Z" /> 
<path style="fill:#000000; fill-opacity:1.0; 
stroke:#000000; stroke-width:0; stroke-opacity:1; 
stroke-linecap:round; stroke-linejoin:round;fill-rule:evenodd;"
d="M 60283,38834
60283,38519
60992,38519
60992,38834
60283,38834
Z" /> 
<path style="fill:#000000; fill-opacity:1.0; 
stroke:#000000; stroke-width:0; stroke-opacity:1; 
stroke-linecap:round; stroke-linejoin:round;fill-rule:evenodd;"
d="M 60283,38401
60283,38086
60992,38086
60992,38401
60283,38401
Z" /> 
</g>
<g >
</g>
<g >
</g>
<g >
</g>
<g style="fill:#000000; fill-opacity:1.0; 
stroke:#000000; stroke-width:0; stroke-opacity:1; 
stroke-linecap:round; stroke-linejoin:round;">
<path style="fill:#000000; fill-opacity:1.0; 
stroke:#000000; stroke-width:0; stroke-opacity:1; 
stroke-linecap:round; stroke-linejoin:round;fill-rule:evenodd;"
d="M 63144,36024
63154,36026
63163,36028
63172,36031
63181,36036
63189,36040
63197,36046
63204,36053
63211,36060
63216,36068
63221,36076
63225,36085
63229,36094
63231,36103
63232,36113
63233,36122
63233,36477
63232,36486
63231,36496
63229,36505
63225,36514
63221,36523
63216,36531
63211,36539
63204,36546
63197,36553
63189,36559
63181,36563
63172,36568
63163,36571
63154,36573
63144,36575
63135,36575
62879,36575
62869,36575
62859,36573
62850,36571
62841,36568
62832,36563
62824,36559
62816,36553
62809,36546
62803,36539
62797,36531
62792,36523
62788,36514
62784,36505
62782,36496
62781,36486
62780,36477
62780,36122
62781,36113
62782,36103
62784,36094
62788,36085
62792,36076
62797,36068
62803,36060
62809,36053
62816,36046
62824,36040
62832,36036
62841,36031
62850,36028
62859,36026
62869,36024
62879,36024
63135,36024
63144,36024
Z" /> 
<path style="fill:#000000; fill-opacity:1.0; 
stroke:#000000; stroke-width:0; stroke-opacity:1; 
stroke-linecap:round; stroke-linejoin:round;fill-rule:evenodd;"
d="M 62337,36024
62347,36026
62356,36028
62365,36031
62374,36036
62382,36040
62390,36046
62397,36053
62404,36060
62409,36068
62414,36076
62418,36085
62422,36094
62424,36103
62425,36113
62426,36122
62426,36477
62425,36486
62424,36496
62422,36505
62418,36514
62414,36523
62409,36531
62404,36539
62397,36546
62390,36553
62382,36559
62374,36563
62365,36568
62356,36571
62347,36573
62337,36575
62327,36575
62072,36575
62062,36575
62052,36573
62043,36571
62034,36568
62025,36563
62017,36559
62009,36553
62002,36546
61995,36539
61990,36531
61985,36523
61981,36514
61977,36505
61975,36496
61974,36486
61973,36477
61973,36122
61974,36113
61975,36103
61977,36094
61981,36085
61985,36076
61990,36068
61995,36060
62002,36053
62009,36046
62017,36040
62025,36036
62034,36031
62043,36028
62052,36026
62062,36024
62072,36024
62327,36024
62337,36024
Z" /> 
</g>
<g >
</g>
<g style="fill:#000000; fill-opacity:1.0; 
stroke:#000000; stroke-width:0; stroke-opacity:1; 
stroke-linecap:round; stroke-linejoin:round;">
<path style="fill:#000000; fill-opacity:1.0; 
stroke:#000000; stroke-width:0; stroke-opacity:1; 
stroke-linecap:round; stroke-linejoin:round;fill-rule:evenodd;"
d="M 63890,44239
63900,44241
63909,44243
63918,44246
63927,44251
63935,44255
63943,44261
63950,44268
63956,44275
63962,44283
63967,44291
63971,44300
63975,44309
63977,44318
63978,44328
63979,44337
63979,44692
63978,44701
63977,44711
63975,44720
63971,44729
63967,44738
63962,44746
63956,44754
63950,44761
63943,44768
63935,44774
63927,44778
63918,44783
63909,44786
63900,44788
63890,44790
63880,44790
63624,44790
63615,44790
63605,44788
63596,44786
63587,44783
63578,44778
63570,44774
63562,44768
63555,44761
63548,44754
63543,44746
63538,44738
63534,44729
63530,44720
63528,44711
63527,44701
63526,44692
63526,44337
63527,44328
63528,44318
63530,44309
63534,44300
63538,44291
63543,44283
63548,44275
63555,44268
63562,44261
63570,44255
63578,44251
63587,44246
63596,44243
63605,44241
63615,44239
63624,44239
63880,44239
63890,44239
Z" /> 
<path style="fill:#000000; fill-opacity:1.0; 
stroke:#000000; stroke-width:0; stroke-opacity:1; 
stroke-linecap:round; stroke-linejoin:round;fill-rule:evenodd;"
d="M 64697,44239
64707,44241
64716,44243
64725,44246
64734,44251
64742,44255
64750,44261
64757,44268
64764,44275
64769,44283
64774,44291
64778,44300
64782,44309
64784,44318
64785,44328
64786,44337
64786,44692
64785,44701
64784,44711
64782,44720
64778,44729
64774,44738
64769,44746
64764,44754
64757,44761
64750,44768
64742,44774
64734,44778
64725,44783
64716,44786
64707,44788
64697,44790
64687,44790
64432,44790
64422,44790
64412,44788
64403,44786
64394,44783
64385,44778
64377,44774
64369,44768
64362,44761
64355,44754
64350,44746
64345,44738
64341,44729
64337,44720
64335,44711
64334,44701
64333,44692
64333,44337
64334,44328
64335,44318
64337,44309
64341,44300
64345,44291
64350,44283
64355,44275
64362,44268
64369,44261
64377,44255
64385,44251
64394,44246
64403,44243
64412,44241
64422,44239
64432,44239
64687,44239
64697,44239
Z" /> 
</g>
<g >
</g>
<g >
</g>
<g style="fill:#000000; fill-opacity:1.0; 
stroke:#000000; stroke-width:0; stroke-opacity:1; 
stroke-linecap:round; stroke-linejoin:round;">
<path style="fill:#000000; fill-opacity:1.0; 
stroke:#000000; stroke-width:0; stroke-opacity:1; 
stroke-linecap:round; stroke-linejoin:round;fill-rule:evenodd;"
d="M 60226,45194
60236,45195
60245,45197
60254,45201
60263,45205
60271,45210
60279,45215
60286,45222
60293,45229
60299,45237
60303,45245
60308,45254
60311,45263
60313,45272
60315,45282
60315,45292
60315,45547
60315,45557
60313,45567
60311,45576
60308,45585
60303,45594
60299,45602
60293,45610
60286,45617
60279,45624
60271,45629
60263,45634
60254,45638
60245,45642
60236,45644
60226,45645
60217,45646
59862,45646
59853,45645
59843,45644
59834,45642
59825,45638
59816,45634
59808,45629
59800,45624
59793,45617
59786,45610
59780,45602
59776,45594
59771,45585
59768,45576
59766,45567
59764,45557
59764,45547
59764,45292
59764,45282
59766,45272
59768,45263
59771,45254
59776,45245
59780,45237
59786,45229
59793,45222
59800,45215
59808,45210
59816,45205
59825,45201
59834,45197
59843,45195
59853,45194
59862,45193
60217,45193
60226,45194
Z" /> 
<path style="fill:#000000; fill-opacity:1.0; 
stroke:#000000; stroke-width:0; stroke-opacity:1; 
stroke-linecap:round; stroke-linejoin:round;fill-rule:evenodd;"
d="M 60226,44387
60236,44388
60245,44390
60254,44394
60263,44398
60271,44403
60279,44408
60286,44415
60293,44422
60299,44430
60303,44438
60308,44447
60311,44456
60313,44465
60315,44475
60315,44484
60315,44740
60315,44750
60313,44760
60311,44769
60308,44778
60303,44787
60299,44795
60293,44803
60286,44810
60279,44816
60271,44822
60263,44827
60254,44831
60245,44835
60236,44837
60226,44838
60217,44839
59862,44839
59853,44838
59843,44837
59834,44835
59825,44831
59816,44827
59808,44822
59800,44816
59793,44810
59786,44803
59780,44795
59776,44787
59771,44778
59768,44769
59766,44760
59764,44750
59764,44740
59764,44484
59764,44475
59766,44465
59768,44456
59771,44447
59776,44438
59780,44430
59786,44422
59793,44415
59800,44408
59808,44403
59816,44398
59825,44394
59834,44390
59843,44388
59853,44387
59862,44386
60217,44386
60226,44387
Z" /> 
</g>
<g >
</g>
<g >
</g>
<g style="fill:#000000; fill-opacity:1.0; 
stroke:#000000; stroke-width:0; stroke-opacity:1; 
stroke-linecap:round; stroke-linejoin:round;">
<path style="fill:#000000; fill-opacity:1.0; 
stroke:#000000; stroke-width:0; stroke-opacity:1; 
stroke-linecap:round; stroke-linejoin:round;fill-rule:evenodd;"
d="M 60137,36024
60147,36026
60156,36028
60165,36031
60174,36036
60182,36040
60190,36046
60197,36053
60204,36060
60209,36068
60214,36076
60218,36085
60222,36094
60224,36103
60225,36113
60226,36122
60226,36477
60225,36486
60224,36496
60222,36505
60218,36514
60214,36523
60209,36531
60204,36539
60197,36546
60190,36553
60182,36559
60174,36563
60165,36568
60156,36571
60147,36573
60137,36575
60127,36575
59872,36575
59862,36575
59852,36573
59843,36571
59834,36568
59825,36563
59817,36559
59809,36553
59802,36546
59795,36539
59790,36531
59785,36523
59781,36514
59777,36505
59775,36496
59774,36486
59773,36477
59773,36122
59774,36113
59775,36103
59777,36094
59781,36085
59785,36076
59790,36068
59795,36060
59802,36053
59809,36046
59817,36040
59825,36036
59834,36031
59843,36028
59852,36026
59862,36024
59872,36024
60127,36024
60137,36024
Z" /> 
<path style="fill:#000000; fill-opacity:1.0; 
stroke:#000000; stroke-width:0; stroke-opacity:1; 
stroke-linecap:round; stroke-linejoin:round;fill-rule:evenodd;"
d="M 60944,36024
60954,36026
60963,36028
60972,36031
60981,36036
60989,36040
60997,36046
61004,36053
61011,36060
61016,36068
61021,36076
61025,36085
61029,36094
61031,36103
61032,36113
61033,36122
61033,36477
61032,36486
61031,36496
61029,36505
61025,36514
61021,36523
61016,36531
61011,36539
61004,36546
60997,36553
60989,36559
60981,36563
60972,36568
60963,36571
60954,36573
60944,36575
60935,36575
60679,36575
60669,36575
60659,36573
60650,36571
60641,36568
60632,36563
60624,36559
60616,36553
60609,36546
60603,36539
60597,36531
60592,36523
60588,36514
60584,36505
60582,36496
60581,36486
60580,36477
60580,36122
60581,36113
60582,36103
60584,36094
60588,36085
60592,36076
60597,36068
60603,36060
60609,36053
60616,36046
60624,36040
60632,36036
60641,36031
60650,36028
60659,36026
60669,36024
60679,36024
60935,36024
60944,36024
Z" /> 
</g>
<g >
</g>
<g style="fill:#000000; fill-opacity:1.0; 
stroke:#000000; stroke-width:0; stroke-opacity:1; 
stroke-linecap:round; stroke-linejoin:round;">
<path style="fill:#000000; fill-opacity:1.0; 
stroke:#000000; stroke-width:0; stroke-opacity:1; 
stroke-linecap:round; stroke-linejoin:round;fill-rule:evenodd;"
d="M 66304,35964
66304,35954
66306,35935
66310,35916
66316,35897
66323,35879
66332,35862
66343,35846
66355,35831
66369,35818
66384,35805
66400,35795
66417,35786
66435,35778
66453,35773
66472,35769
66491,35767
66501,35767
66501,35767
66698,35767
66698,35767
66708,35767
66727,35769
66746,35773
66764,35778
66782,35786
66799,35795
66815,35805
66830,35818
66844,35831
66856,35846
66867,35862
66876,35879
66883,35897
66889,35916
66893,35935
66895,35954
66895,35964
66895,35964
66895,36160
66304,36160
66304,35964
66304,35964
Z" /> 
<path style="fill:#000000; fill-opacity:1.0; 
stroke:#000000; stroke-width:0; stroke-opacity:1; 
stroke-linecap:round; stroke-linejoin:round;fill-rule:evenodd;"
d="M 66895,36279
66895,36475
66895,36475
66895,36485
66893,36504
66889,36523
66883,36542
66876,36560
66867,36577
66856,36593
66844,36608
66830,36621
66815,36634
66799,36644
66782,36653
66764,36661
66746,36666
66727,36670
66708,36672
66698,36672
66698,36672
66501,36672
66501,36672
66491,36672
66472,36670
66453,36666
66435,36661
66417,36653
66400,36644
66384,36634
66369,36621
66355,36608
66343,36593
66332,36577
66323,36560
66316,36542
66310,36523
66306,36504
66304,36485
66304,36475
66304,36475
66304,36279
66895,36279
Z" /> 
</g>
<g >
</g>
<g style="fill:#000000; fill-opacity:1.0; 
stroke:#000000; stroke-width:0; stroke-opacity:1; 
stroke-linecap:round; stroke-linejoin:round;">
<path style="fill:#000000; fill-opacity:1.0; 
stroke:#000000; stroke-width:0; stroke-opacity:1; 
stroke-linecap:round; stroke-linejoin:round;fill-rule:evenodd;"
d="M 66625,39665
66625,39675
66623,39694
66619,39713
66613,39732
66606,39750
66597,39767
66586,39783
66574,39798
66560,39811
66545,39824
66529,39834
66512,39843
66494,39851
66476,39856
66457,39860
66438,39862
66428,39862
66428,39862
66231,39862
66231,39862
66221,39862
66202,39860
66183,39856
66165,39851
66147,39843
66130,39834
66114,39824
66099,39811
66085,39798
66073,39783
66062,39767
66053,39750
66046,39732
66040,39713
66036,39694
66034,39675
66034,39665
66034,39665
66034,39469
66625,39469
66625,39665
66625,39665
Z" /> 
<path style="fill:#000000; fill-opacity:1.0; 
stroke:#000000; stroke-width:0; stroke-opacity:1; 
stroke-linecap:round; stroke-linejoin:round;fill-rule:evenodd;"
d="M 66034,39350
66034,39154
66034,39154
66034,39144
66036,39125
66040,39106
66046,39087
66053,39069
66062,39052
66073,39036
66085,39021
66099,39008
66114,38995
66130,38985
66147,38976
66165,38968
66183,38963
66202,38959
66221,38957
66231,38957
66231,38957
66428,38957
66428,38957
66438,38957
66457,38959
66476,38963
66494,38968
66512,38976
66529,38985
66545,38995
66560,39008
66574,39021
66586,39036
66597,39052
66606,39069
66613,39087
66619,39106
66623,39125
66625,39144
66625,39154
66625,39154
66625,39350
66034,39350
Z" /> 
</g>
<g >
</g>
<g style="fill:#000000; fill-opacity:1.0; 
stroke:#000000; stroke-width:0; stroke-opacity:1; 
stroke-linecap:round; stroke-linejoin:round;">
<path style="fill:#000000; fill-opacity:1.0; 
stroke:#000000; stroke-width:0; stroke-opacity:1; 
stroke-linecap:round; stroke-linejoin:round;fill-rule:evenodd;"
d="M 67250,35000
67250,33000
68200,33000
68200,35000
67250,35000
Z" /> 
<path style="fill:#000000; fill-opacity:1.0; 
stroke:#000000; stroke-width:0; stroke-opacity:1; 
stroke-linecap:round; stroke-linejoin:round;fill-rule:evenodd;"
d="M 65550,35000
65550,33000
66450,33000
66450,35000
65550,35000
Z" /> 
<path style="fill:#000000; fill-opacity:1.0; 
stroke:#000000; stroke-width:0; stroke-opacity:1; 
stroke-linecap:round; stroke-linejoin:round;fill-rule:evenodd;"
d="M 63800,35000
63800,33000
64750,33000
64750,35000
63800,35000
Z" /> 
</g>
<g >
</g>
<g style="fill:#000000; fill-opacity:1.0; 
stroke:#000000; stroke-width:0; stroke-opacity:1; 
stroke-linecap:round; stroke-linejoin:round;">
<path style="fill:#000000; fill-opacity:1.0; 
stroke:#000000; stroke-width:0; stroke-opacity:1; 
stroke-linecap:round; stroke-linejoin:round;fill-rule:evenodd;"
d="M 61250,35000
61250,33000
62200,33000
62200,35000
61250,35000
Z" /> 
<path style="fill:#000000; fill-opacity:1.0; 
stroke:#000000; stroke-width:0; stroke-opacity:1; 
stroke-linecap:round; stroke-linejoin:round;fill-rule:evenodd;"
d="M 59550,35000
59550,33000
60450,33000
60450,35000
59550,35000
Z" /> 
<path style="fill:#000000; fill-opacity:1.0; 
stroke:#000000; stroke-width:0; stroke-opacity:1; 
stroke-linecap:round; stroke-linejoin:round;fill-rule:evenodd;"
d="M 57800,35000
57800,33000
58750,33000
58750,35000
57800,35000
Z" /> 
</g>
<g >
</g>
<g style="fill:#000000; fill-opacity:1.0; 
stroke:#000000; stroke-width:0; stroke-opacity:1; 
stroke-linecap:round; stroke-linejoin:round;">
</g>
<g style="fill:#000000; fill-opacity:1.0; 
stroke:#000000; stroke-width:669.291; stroke-opacity:1; 
stroke-linecap:round; stroke-linejoin:round;">
</g>
<g style="fill:#000000; fill-opacity:0.0; 
stroke:#000000; stroke-width:669.291; stroke-opacity:1; 
stroke-linecap:round; stroke-linejoin:round;">
<path d="M68000 46000
L68000 46000
" />
<path d="M68000 45000
L68000 45000
" />
<path d="M68000 44000
L68000 44000
" />
<path d="M68000 43000
L68000 43000
" />
<path d="M68000 42000
L68000 42000
" />
<path d="M68000 41000
L68000 41000
" />
<path d="M68000 40000
L68000 40000
" />
<path d="M68000 39000
L68000 39000
" />
<path d="M68000 38000
L68000 38000
" />
</g>
<g style="fill:#000000; fill-opacity:0.0; 
stroke:#000000; stroke-width:0; stroke-opacity:1; 
stroke-linecap:round; stroke-linejoin:round;">
</g>
<g style="fill:#000000; fill-opacity:1.0; 
stroke:#000000; stroke-width:0; stroke-opacity:1; 
stroke-linecap:round; stroke-linejoin:round;">
<path style="fill:#000000; fill-opacity:1.0; 
stroke:#000000; stroke-width:0; stroke-opacity:1; 
stroke-linecap:round; stroke-linejoin:round;fill-rule:evenodd;"
d="M 67665,37334
67665,36665
68334,36665
68334,37334
67665,37334
Z" /> 
</g>
<g >
</g>
<g style="fill:#000000; fill-opacity:1.0; 
stroke:#000000; stroke-width:0; stroke-opacity:1; 
stroke-linecap:round; stroke-linejoin:round;">
<path style="fill:#000000; fill-opacity:1.0; 
stroke:#000000; stroke-width:0; stroke-opacity:1; 
stroke-linecap:round; stroke-linejoin:round;fill-rule:evenodd;"
d="M 61092,46358
61092,46460
60836,46460
60836,46358
61092,46358
Z" /> 
<path style="fill:#000000; fill-opacity:1.0; 
stroke:#000000; stroke-width:0; stroke-opacity:1; 
stroke-linecap:round; stroke-linejoin:round;fill-rule:evenodd;"
d="M 61092,47161
61092,47263
60836,47263
60836,47161
61092,47161
Z" /> 
<path style="fill:#000000; fill-opacity:1.0; 
stroke:#000000; stroke-width:0; stroke-opacity:1; 
stroke-linecap:round; stroke-linejoin:round;fill-rule:evenodd;"
d="M 61092,46358
61092,47263
60994,47263
60994,46358
61092,46358
Z" /> 
<path style="fill:#000000; fill-opacity:1.0; 
stroke:#000000; stroke-width:0; stroke-opacity:1; 
stroke-linecap:round; stroke-linejoin:round;fill-rule:evenodd;"
d="M 65183,47161
65183,47263
64927,47263
64927,47161
65183,47161
Z" /> 
<path style="fill:#000000; fill-opacity:1.0; 
stroke:#000000; stroke-width:0; stroke-opacity:1; 
stroke-linecap:round; stroke-linejoin:round;fill-rule:evenodd;"
d="M 65183,46358
65183,46460
64927,46460
64927,46358
65183,46358
Z" /> 
<path style="fill:#000000; fill-opacity:1.0; 
stroke:#000000; stroke-width:0; stroke-opacity:1; 
stroke-linecap:round; stroke-linejoin:round;fill-rule:evenodd;"
d="M 65005,46358
65005,47263
64907,47263
64907,46358
65005,46358
Z" /> 
</g>
<g style="fill:#000000; fill-opacity:1.0; 
stroke:#000000; stroke-width:472.441; stroke-opacity:1; 
stroke-linecap:round; stroke-linejoin:round;">
</g>
<g style="fill:#000000; fill-opacity:0.0; 
stroke:#000000; stroke-width:472.441; stroke-opacity:1; 
stroke-linecap:round; stroke-linejoin:round;">
<path d="M60814 47027
L60814 46594
" />
<path d="M65185 47027
L65185 46594
" />
<path d="M60814 45039
L60814 44606
" />
<path d="M65185 45039
L65185 44606
" />
</g>
<g style="fill:#000000; fill-opacity:1.0; 
stroke:#000000; stroke-width:0; stroke-opacity:1; 
stroke-linecap:round; stroke-linejoin:round;">
<circle cx="62212.6" cy="45000" r="118.11" /> 
</g>
<g style="fill:#000000; fill-opacity:1.0; 
stroke:#000000; stroke-width:39.3701; stroke-opacity:1; 
stroke-linecap:round; stroke-linejoin:round;">
</g>
<g style="fill:#000000; fill-opacity:1.0; 
stroke:#000000; stroke-width:0; stroke-opacity:1; 
stroke-linecap:round; stroke-linejoin:round;">
<circle cx="62527.6" cy="45000" r="118.11" /> 
</g>
<g style="fill:#000000; fill-opacity:1.0; 
stroke:#000000; stroke-width:39.3701; stroke-opacity:1; 
stroke-linecap:round; stroke-linejoin:round;">
</g>
<g style="fill:#000000; fill-opacity:1.0; 
stroke:#000000; stroke-width:0; stroke-opacity:1; 
stroke-linecap:round; stroke-linejoin:round;">
<circle cx="62842.5" cy="45000" r="118.11" /> 
</g>
<g style="fill:#000000; fill-opacity:1.0; 
stroke:#000000; stroke-width:39.3701; stroke-opacity:1; 
stroke-linecap:round; stroke-linejoin:round;">
</g>
<g style="fill:#000000; fill-opacity:1.0; 
stroke:#000000; stroke-width:0; stroke-opacity:1; 
stroke-linecap:round; stroke-linejoin:round;">
<circle cx="63157.5" cy="45000" r="118.11" /> 
</g>
<g style="fill:#000000; fill-opacity:1.0; 
stroke:#000000; stroke-width:39.3701; stroke-opacity:1; 
stroke-linecap:round; stroke-linejoin:round;">
</g>
<g style="fill:#000000; fill-opacity:1.0; 
stroke:#000000; stroke-width:0; stroke-opacity:1; 
stroke-linecap:round; stroke-linejoin:round;">
<circle cx="63472.4" cy="45000" r="118.11" /> 
</g>
<g style="fill:#000000; fill-opacity:1.0; 
stroke:#000000; stroke-width:39.3701; stroke-opacity:1; 
stroke-linecap:round; stroke-linejoin:round;">
</g>
<g style="fill:#000000; fill-opacity:1.0; 
stroke:#000000; stroke-width:0; stroke-opacity:1; 
stroke-linecap:round; stroke-linejoin:round;">
<circle cx="63787.4" cy="45000" r="118.11" /> 
</g>
<g style="fill:#000000; fill-opacity:1.0; 
stroke:#000000; stroke-width:39.3701; stroke-opacity:1; 
stroke-linecap:round; stroke-linejoin:round;">
</g>
<g >
</g>
<g style="fill:#000000; fill-opacity:1.0; 
stroke:#000000; stroke-width:39.3701; stroke-opacity:1; 
stroke-linecap:round; stroke-linejoin:round;">
</g>
<g style="fill:#000000; fill-opacity:1.0; 
stroke:#000000; stroke-width:669.291; stroke-opacity:1; 
stroke-linecap:round; stroke-linejoin:round;">
</g>
<g style="fill:#000000; fill-opacity:0.0; 
stroke:#000000; stroke-width:669.291; stroke-opacity:1; 
stroke-linecap:round; stroke-linejoin:round;">
<path d="M58000 46000
L58000 46000
" />
<path d="M58000 45000
L58000 45000
" />
<path d="M58000 44000
L58000 44000
" />
<path d="M58000 43000
L58000 43000
" />
<path d="M58000 42000
L58000 42000
" />
<path d="M58000 41000
L58000 41000
" />
<path d="M58000 40000
L58000 40000
" />
<path d="M58000 39000
L58000 39000
" />
<path d="M58000 38000
L58000 38000
" />
</g>
<g style="fill:#000000; fill-opacity:0.0; 
stroke:#000000; stroke-width:0; stroke-opacity:1; 
stroke-linecap:round; stroke-linejoin:round;">
</g>
<g style="fill:#000000; fill-opacity:1.0; 
stroke:#000000; stroke-width:0; stroke-opacity:1; 
stroke-linecap:round; stroke-linejoin:round;">
<path style="fill:#000000; fill-opacity:1.0; 
stroke:#000000; stroke-width:0; stroke-opacity:1; 
stroke-linecap:round; stroke-linejoin:round;fill-rule:evenodd;"
d="M 57665,37334
57665,36665
58334,36665
58334,37334
57665,37334
Z" /> 
</g>
<g >
</g>
<g >
</g>
<g style="fill:#000000; fill-opacity:1.0; 
stroke:#000000; stroke-width:0; stroke-opacity:1; 
stroke-linecap:round; stroke-linejoin:round;">
<path style="fill:#000000; fill-opacity:1.0; 
stroke:#000000; stroke-width:0; stroke-opacity:1; 
stroke-linecap:round; stroke-linejoin:round;fill-rule:evenodd;"
d="M 60130,36924
60140,36926
60149,36928
60158,36931
60167,36936
60175,36940
60183,36946
60190,36953
60196,36960
60202,36968
60207,36976
60211,36985
60215,36994
60217,37003
60218,37013
60219,37022
60219,37377
60218,37386
60217,37396
60215,37405
60211,37414
60207,37423
60202,37431
60196,37439
60190,37446
60183,37453
60175,37459
60167,37463
60158,37468
60149,37471
60140,37473
60130,37475
60120,37475
59864,37475
59855,37475
59845,37473
59836,37471
59827,37468
59818,37463
59810,37459
59802,37453
59795,37446
59788,37439
59783,37431
59778,37423
59774,37414
59770,37405
59768,37396
59767,37386
59766,37377
59766,37022
59767,37013
59768,37003
59770,36994
59774,36985
59778,36976
59783,36968
59788,36960
59795,36953
59802,36946
59810,36940
59818,36936
59827,36931
59836,36928
59845,36926
59855,36924
59864,36924
60120,36924
60130,36924
Z" /> 
<path style="fill:#000000; fill-opacity:1.0; 
stroke:#000000; stroke-width:0; stroke-opacity:1; 
stroke-linecap:round; stroke-linejoin:round;fill-rule:evenodd;"
d="M 60937,36924
60947,36926
60956,36928
60965,36931
60974,36936
60982,36940
60990,36946
60997,36953
61004,36960
61009,36968
61014,36976
61018,36985
61022,36994
61024,37003
61025,37013
61026,37022
61026,37377
61025,37386
61024,37396
61022,37405
61018,37414
61014,37423
61009,37431
61004,37439
60997,37446
60990,37453
60982,37459
60974,37463
60965,37468
60956,37471
60947,37473
60937,37475
60927,37475
60672,37475
60662,37475
60652,37473
60643,37471
60634,37468
60625,37463
60617,37459
60609,37453
60602,37446
60595,37439
60590,37431
60585,37423
60581,37414
60577,37405
60575,37396
60574,37386
60573,37377
60573,37022
60574,37013
60575,37003
60577,36994
60581,36985
60585,36976
60590,36968
60595,36960
60602,36953
60609,36946
60617,36940
60625,36936
60634,36931
60643,36928
60652,36926
60662,36924
60672,36924
60927,36924
60937,36924
Z" /> 
</g>
<g >
</g>
<g >
</g>
<g style="fill:#000000; fill-opacity:1.0; 
stroke:#000000; stroke-width:0; stroke-opacity:1; 
stroke-linecap:round; stroke-linejoin:round;">
<circle cx="59680" cy="40370" r="100" /> 
</g>
<g style="fill:#000000; fill-opacity:1.0; 
stroke:#000000; stroke-width:39.3701; stroke-opacity:1; 
stroke-linecap:round; stroke-linejoin:round;">
</g>
<g style="fill:#000000; fill-opacity:1.0; 
stroke:#000000; stroke-width:0; stroke-opacity:1; 
stroke-linecap:round; stroke-linejoin:round;">
<circle cx="64567.1" cy="44318.5" r="100" /> 
</g>
<g style="fill:#000000; fill-opacity:1.0; 
stroke:#000000; stroke-width:39.3701; stroke-opacity:1; 
stroke-linecap:round; stroke-linejoin:round;">
</g>
<g style="fill:#000000; fill-opacity:1.0; 
stroke:#000000; stroke-width:0; stroke-opacity:1; 
stroke-linecap:round; stroke-linejoin:round;">
<circle cx="66670" cy="38370" r="100" /> 
</g>
<g style="fill:#000000; fill-opacity:1.0; 
stroke:#000000; stroke-width:39.3701; stroke-opacity:1; 
stroke-linecap:round; stroke-linejoin:round;">
</g>
<g style="fill:#000000; fill-opacity:1.0; 
stroke:#000000; stroke-width:0; stroke-opacity:1; 
stroke-linecap:round; stroke-linejoin:round;">
<circle cx="61570" cy="42310" r="100" /> 
</g>
<g style="fill:#000000; fill-opacity:1.0; 
stroke:#000000; stroke-width:39.3701; stroke-opacity:1; 
stroke-linecap:round; stroke-linejoin:round;">
</g>
<g style="fill:#000000; fill-opacity:1.0; 
stroke:#000000; stroke-width:0; stroke-opacity:1; 
stroke-linecap:round; stroke-linejoin:round;">
<circle cx="59900" cy="43800" r="100" /> 
</g>
<g style="fill:#000000; fill-opacity:1.0; 
stroke:#000000; stroke-width:39.3701; stroke-opacity:1; 
stroke-linecap:round; stroke-linejoin:round;">
</g>
<g style="fill:#000000; fill-opacity:1.0; 
stroke:#000000; stroke-width:0; stroke-opacity:1; 
stroke-linecap:round; stroke-linejoin:round;">
<circle cx="61730" cy="35330" r="100" /> 
</g>
<g style="fill:#000000; fill-opacity:1.0; 
stroke:#000000; stroke-width:39.3701; stroke-opacity:1; 
stroke-linecap:round; stroke-linejoin:round;">
</g>
<g style="fill:#000000; fill-opacity:1.0; 
stroke:#000000; stroke-width:0; stroke-opacity:1; 
stroke-linecap:round; stroke-linejoin:round;">
<circle cx="58280" cy="35320" r="100" /> 
</g>
<g style="fill:#000000; fill-opacity:1.0; 
stroke:#000000; stroke-width:39.3701; stroke-opacity:1; 
stroke-linecap:round; stroke-linejoin:round;">
</g>
<g style="fill:#000000; fill-opacity:1.0; 
stroke:#000000; stroke-width:0; stroke-opacity:1; 
stroke-linecap:round; stroke-linejoin:round;">
<circle cx="64270" cy="35320" r="100" /> 
</g>
<g style="fill:#000000; fill-opacity:1.0; 
stroke:#000000; stroke-width:39.3701; stroke-opacity:1; 
stroke-linecap:round; stroke-linejoin:round;">
</g>
<g style="fill:#000000; fill-opacity:1.0; 
stroke:#000000; stroke-width:0; stroke-opacity:1; 
stroke-linecap:round; stroke-linejoin:round;">
<circle cx="67740" cy="35330" r="100" /> 
</g>
<g style="fill:#000000; fill-opacity:1.0; 
stroke:#000000; stroke-width:39.3701; stroke-opacity:1; 
stroke-linecap:round; stroke-linejoin:round;">
</g>
<g style="fill:#000000; fill-opacity:1.0; 
stroke:#000000; stroke-width:0; stroke-opacity:1; 
stroke-linecap:round; stroke-linejoin:round;">
<circle cx="63750" cy="43750" r="100" /> 
</g>
<g style="fill:#000000; fill-opacity:1.0; 
stroke:#000000; stroke-width:39.3701; stroke-opacity:1; 
stroke-linecap:round; stroke-linejoin:round;">
</g>
<g style="fill:#000000; fill-opacity:1.0; 
stroke:#000000; stroke-width:0; stroke-opacity:1; 
stroke-linecap:round; stroke-linejoin:round;">
<circle cx="61991.4" cy="44208.5" r="100" /> 
</g>
<g style="fill:#000000; fill-opacity:1.0; 
stroke:#000000; stroke-width:39.3701; stroke-opacity:1; 
stroke-linecap:round; stroke-linejoin:round;">
</g>
<g style="fill:#000000; fill-opacity:1.0; 
stroke:#000000; stroke-width:0; stroke-opacity:1; 
stroke-linecap:round; stroke-linejoin:round;">
<circle cx="63530" cy="36620" r="100" /> 
</g>
<g style="fill:#000000; fill-opacity:1.0; 
stroke:#000000; stroke-width:39.3701; stroke-opacity:1; 
stroke-linecap:round; stroke-linejoin:round;">
</g>
<g style="fill:#000000; fill-opacity:1.0; 
stroke:#000000; stroke-width:0; stroke-opacity:1; 
stroke-linecap:round; stroke-linejoin:round;">
<circle cx="65460" cy="41716.1" r="100" /> 
</g>
<g style="fill:#000000; fill-opacity:1.0; 
stroke:#000000; stroke-width:39.3701; stroke-opacity:1; 
stroke-linecap:round; stroke-linejoin:round;">
</g>
<g style="fill:#000000; fill-opacity:1.0; 
stroke:#000000; stroke-width:0; stroke-opacity:1; 
stroke-linecap:round; stroke-linejoin:round;">
<circle cx="66330" cy="39652.9" r="100" /> 
</g>
<g style="fill:#000000; fill-opacity:1.0; 
stroke:#000000; stroke-width:39.3701; stroke-opacity:1; 
stroke-linecap:round; stroke-linejoin:round;">
</g>
<g style="fill:#000000; fill-opacity:1.0; 
stroke:#000000; stroke-width:0; stroke-opacity:1; 
stroke-linecap:round; stroke-linejoin:round;">
<circle cx="65341.6" cy="38708.4" r="100" /> 
</g>
<g style="fill:#000000; fill-opacity:1.0; 
stroke:#000000; stroke-width:39.3701; stroke-opacity:1; 
stroke-linecap:round; stroke-linejoin:round;">
</g>
<g style="fill:#000000; fill-opacity:1.0; 
stroke:#000000; stroke-width:0; stroke-opacity:1; 
stroke-linecap:round; stroke-linejoin:round;">
<circle cx="61630" cy="43142.8" r="100" /> 
</g>
<g style="fill:#000000; fill-opacity:1.0; 
stroke:#000000; stroke-width:39.3701; stroke-opacity:1; 
stroke-linecap:round; stroke-linejoin:round;">
</g>
<g style="fill:#000000; fill-opacity:1.0; 
stroke:#000000; stroke-width:0; stroke-opacity:1; 
stroke-linecap:round; stroke-linejoin:round;">
<circle cx="62790" cy="42960" r="100" /> 
</g>
<g style="fill:#000000; fill-opacity:1.0; 
stroke:#000000; stroke-width:39.3701; stroke-opacity:1; 
stroke-linecap:round; stroke-linejoin:round;">
</g>
<g style="fill:#000000; fill-opacity:1.0; 
stroke:#000000; stroke-width:0; stroke-opacity:1; 
stroke-linecap:round; stroke-linejoin:round;">
<circle cx="61252.1" cy="40862.1" r="100" /> 
</g>
<g style="fill:#000000; fill-opacity:1.0; 
stroke:#000000; stroke-width:39.3701; stroke-opacity:1; 
stroke-linecap:round; stroke-linejoin:round;">
</g>
<g style="fill:#000000; fill-opacity:1.0; 
stroke:#000000; stroke-width:0; stroke-opacity:1; 
stroke-linecap:round; stroke-linejoin:round;">
<circle cx="64700" cy="40180" r="100" /> 
</g>
<g style="fill:#000000; fill-opacity:1.0; 
stroke:#000000; stroke-width:39.3701; stroke-opacity:1; 
stroke-linecap:round; stroke-linejoin:round;">
</g>
<g style="fill:#000000; fill-opacity:1.0; 
stroke:#000000; stroke-width:0; stroke-opacity:1; 
stroke-linecap:round; stroke-linejoin:round;">
<circle cx="61428.1" cy="39550" r="100" /> 
</g>
<g style="fill:#000000; fill-opacity:1.0; 
stroke:#000000; stroke-width:39.3701; stroke-opacity:1; 
stroke-linecap:round; stroke-linejoin:round;">
</g>
<g style="fill:#000000; fill-opacity:1.0; 
stroke:#000000; stroke-width:0; stroke-opacity:1; 
stroke-linecap:round; stroke-linejoin:round;">
<circle cx="63790" cy="38980" r="100" /> 
</g>
<g style="fill:#000000; fill-opacity:1.0; 
stroke:#000000; stroke-width:39.3701; stroke-opacity:1; 
stroke-linecap:round; stroke-linejoin:round;">
</g>
<g style="fill:#000000; fill-opacity:1.0; 
stroke:#000000; stroke-width:0; stroke-opacity:1; 
stroke-linecap:round; stroke-linejoin:round;">
<circle cx="62880" cy="44336.3" r="100" /> 
</g>
<g style="fill:#000000; fill-opacity:1.0; 
stroke:#000000; stroke-width:39.3701; stroke-opacity:1; 
stroke-linecap:round; stroke-linejoin:round;">
</g>
<g style="fill:#000000; fill-opacity:1.0; 
stroke:#000000; stroke-width:0; stroke-opacity:1; 
stroke-linecap:round; stroke-linejoin:round;">
<circle cx="63049.7" cy="43955.1" r="100" /> 
</g>
<g style="fill:#000000; fill-opacity:1.0; 
stroke:#000000; stroke-width:39.3701; stroke-opacity:1; 
stroke-linecap:round; stroke-linejoin:round;">
</g>
<g style="fill:#000000; fill-opacity:1.0; 
stroke:#000000; stroke-width:0; stroke-opacity:1; 
stroke-linecap:round; stroke-linejoin:round;">
<circle cx="63230" cy="44350" r="100" /> 
</g>
<g style="fill:#000000; fill-opacity:1.0; 
stroke:#000000; stroke-width:39.3701; stroke-opacity:1; 
stroke-linecap:round; stroke-linejoin:round;">
</g>
<g style="fill:#000000; fill-opacity:1.0; 
stroke:#000000; stroke-width:0; stroke-opacity:1; 
stroke-linecap:round; stroke-linejoin:round;">
<circle cx="59250" cy="43370" r="100" /> 
</g>
<g style="fill:#000000; fill-opacity:1.0; 
stroke:#000000; stroke-width:39.3701; stroke-opacity:1; 
stroke-linecap:round; stroke-linejoin:round;">
</g>
<g style="fill:#000000; fill-opacity:1.0; 
stroke:#000000; stroke-width:0; stroke-opacity:1; 
stroke-linecap:round; stroke-linejoin:round;">
<circle cx="60183.7" cy="43360.9" r="100" /> 
</g>
<g style="fill:#000000; fill-opacity:1.0; 
stroke:#000000; stroke-width:39.3701; stroke-opacity:1; 
stroke-linecap:round; stroke-linejoin:round;">
</g>
<g style="fill:#000000; fill-opacity:1.0; 
stroke:#000000; stroke-width:0; stroke-opacity:1; 
stroke-linecap:round; stroke-linejoin:round;">
<circle cx="61893" cy="41271.6" r="100" /> 
</g>
<g style="fill:#000000; fill-opacity:1.0; 
stroke:#000000; stroke-width:39.3701; stroke-opacity:1; 
stroke-linecap:round; stroke-linejoin:round;">
</g>
<g style="fill:#000000; fill-opacity:1.0; 
stroke:#000000; stroke-width:0; stroke-opacity:1; 
stroke-linecap:round; stroke-linejoin:round;">
<circle cx="66090" cy="43020" r="100" /> 
</g>
<g style="fill:#000000; fill-opacity:1.0; 
stroke:#000000; stroke-width:39.3701; stroke-opacity:1; 
stroke-linecap:round; stroke-linejoin:round;">
</g>
<g style="fill:#000000; fill-opacity:1.0; 
stroke:#000000; stroke-width:0; stroke-opacity:1; 
stroke-linecap:round; stroke-linejoin:round;">
<circle cx="60730" cy="41310" r="100" /> 
</g>
<g style="fill:#000000; fill-opacity:1.0; 
stroke:#000000; stroke-width:39.3701; stroke-opacity:1; 
stroke-linecap:round; stroke-linejoin:round;">
</g>
<g style="fill:#000000; fill-opacity:1.0; 
stroke:#000000; stroke-width:0; stroke-opacity:1; 
stroke-linecap:round; stroke-linejoin:round;">
<circle cx="66100" cy="42590" r="100" /> 
</g>
<g style="fill:#000000; fill-opacity:1.0; 
stroke:#000000; stroke-width:39.3701; stroke-opacity:1; 
stroke-linecap:round; stroke-linejoin:round;">
</g>
<g style="fill:#000000; fill-opacity:1.0; 
stroke:#000000; stroke-width:0; stroke-opacity:1; 
stroke-linecap:round; stroke-linejoin:round;">
<circle cx="62380" cy="41096" r="100" /> 
</g>
<g style="fill:#000000; fill-opacity:1.0; 
stroke:#000000; stroke-width:39.3701; stroke-opacity:1; 
stroke-linecap:round; stroke-linejoin:round;">
</g>
<g style="fill:#000000; fill-opacity:1.0; 
stroke:#000000; stroke-width:0; stroke-opacity:1; 
stroke-linecap:round; stroke-linejoin:round;">
<circle cx="60750" cy="41640" r="100" /> 
</g>
<g style="fill:#000000; fill-opacity:1.0; 
stroke:#000000; stroke-width:39.3701; stroke-opacity:1; 
stroke-linecap:round; stroke-linejoin:round;">
</g>
<g style="fill:#000000; fill-opacity:1.0; 
stroke:#000000; stroke-width:0; stroke-opacity:1; 
stroke-linecap:round; stroke-linejoin:round;">
<circle cx="64420" cy="40750" r="100" /> 
</g>
<g style="fill:#000000; fill-opacity:1.0; 
stroke:#000000; stroke-width:39.3701; stroke-opacity:1; 
stroke-linecap:round; stroke-linejoin:round;">
</g>
<g style="fill:#000000; fill-opacity:1.0; 
stroke:#000000; stroke-width:0; stroke-opacity:1; 
stroke-linecap:round; stroke-linejoin:round;">
<circle cx="62391.4" cy="40625.9" r="100" /> 
</g>
<g style="fill:#000000; fill-opacity:1.0; 
stroke:#000000; stroke-width:39.3701; stroke-opacity:1; 
stroke-linecap:round; stroke-linejoin:round;">
</g>
<g style="fill:#000000; fill-opacity:1.0; 
stroke:#000000; stroke-width:0; stroke-opacity:1; 
stroke-linecap:round; stroke-linejoin:round;">
<circle cx="61512.9" cy="39980" r="100" /> 
</g>
<g style="fill:#000000; fill-opacity:1.0; 
stroke:#000000; stroke-width:39.3701; stroke-opacity:1; 
stroke-linecap:round; stroke-linejoin:round;">
</g>
<g style="fill:#000000; fill-opacity:1.0; 
stroke:#000000; stroke-width:0; stroke-opacity:1; 
stroke-linecap:round; stroke-linejoin:round;">
<circle cx="61430" cy="39300" r="100" /> 
</g>
<g style="fill:#000000; fill-opacity:1.0; 
stroke:#000000; stroke-width:39.3701; stroke-opacity:1; 
stroke-linecap:round; stroke-linejoin:round;">
</g>
<g style="fill:#000000; fill-opacity:1.0; 
stroke:#000000; stroke-width:0; stroke-opacity:1; 
stroke-linecap:round; stroke-linejoin:round;">
<circle cx="63870" cy="39340" r="100" /> 
</g>
<g style="fill:#000000; fill-opacity:1.0; 
stroke:#000000; stroke-width:39.3701; stroke-opacity:1; 
stroke-linecap:round; stroke-linejoin:round;">
</g>
<g style="fill:#000000; fill-opacity:1.0; 
stroke:#000000; stroke-width:0; stroke-opacity:1; 
stroke-linecap:round; stroke-linejoin:round;">
<circle cx="66770" cy="37890" r="100" /> 
</g>
<g style="fill:#000000; fill-opacity:1.0; 
stroke:#000000; stroke-width:39.3701; stroke-opacity:1; 
stroke-linecap:round; stroke-linejoin:round;">
</g>
<g style="fill:#000000; fill-opacity:1.0; 
stroke:#000000; stroke-width:0; stroke-opacity:1; 
stroke-linecap:round; stroke-linejoin:round;">
<circle cx="66820" cy="37530" r="100" /> 
</g>
<g style="fill:#000000; fill-opacity:1.0; 
stroke:#000000; stroke-width:39.3701; stroke-opacity:1; 
stroke-linecap:round; stroke-linejoin:round;">
</g>
<g style="fill:#000000; fill-opacity:1.0; 
stroke:#000000; stroke-width:0; stroke-opacity:1; 
stroke-linecap:round; stroke-linejoin:round;">
<circle cx="62750" cy="41800" r="100" /> 
</g>
<g style="fill:#000000; fill-opacity:1.0; 
stroke:#000000; stroke-width:39.3701; stroke-opacity:1; 
stroke-linecap:round; stroke-linejoin:round;">
</g>
<g style="fill:#000000; fill-opacity:1.0; 
stroke:#000000; stroke-width:0; stroke-opacity:1; 
stroke-linecap:round; stroke-linejoin:round;">
<circle cx="62760" cy="40740" r="100" /> 
</g>
<g style="fill:#000000; fill-opacity:1.0; 
stroke:#000000; stroke-width:39.3701; stroke-opacity:1; 
stroke-linecap:round; stroke-linejoin:round;">
</g>
<g >
</g>
<g style="fill:#000000; fill-opacity:1.0; 
stroke:#000000; stroke-width:39.3701; stroke-opacity:1; 
stroke-linecap:round; stroke-linejoin:round;">
</g>
<g style="fill:#000000; fill-opacity:1.0; 
stroke:#000000; stroke-width:60; stroke-opacity:1; 
stroke-linecap:round; stroke-linejoin:round;">
</g>
<g style="fill:#000000; fill-opacity:0.0; 
stroke:#000000; stroke-width:60; stroke-opacity:1; 
stroke-linecap:round; stroke-linejoin:round;">
<path d="M60107 42889
L60637 42889
" />
<path d="M59900 43097
L60107 42889
" />
<path d="M59900 43800
L59900 43097
" />
<path d="M61991 44778
L61991 44208
" />
<path d="M62212 45000
L61991 44778
" />
<path d="M64100 44060
L63750 43750
" />
<path d="M64085 44785
L64100 44060
" />
<path d="M63787 45000
L64085 44785
" />
<path d="M60800 36307
L60807 36300
" />
<path d="M60800 37200
L60800 36307
" />
<path d="M62200 36300
L60807 36300
" />
<path d="M63327 36620
L63530 36620
" />
<path d="M63007 36300
L63327 36620
" />
<path d="M65460 41716
L66330 40846
" />
<path d="M66330 39794
L66330 39652
" />
<path d="M66330 40846
L66330 39794
" />
<path d="M58000 45000
L59789 43210
" />
<path d="M59789 43210
L59789 42674
" />
<path d="M59789 42674
L60440 42023
" />
<path d="M60440 42023
L60637 42023
" />
<path d="M63569 43142
L61630 43142
" />
<path d="M63749 43322
L63569 43142
" />
<path d="M65362 43322
L63749 43322
" />
<path d="M64907 40842
L65362 40842
" />
<path d="M62790 42960
L64907 40842
" />
<path d="M65362 40409
L61704 40409
" />
<path d="M61704 40409
L61252 40862
" />
<path d="M65362 39976
L64903 39976
" />
<path d="M64903 39976
L64700 40180
" />
<path d="M61434 39543
L61428 39549
" />
<path d="M65362 39543
L61434 39543
" />
<path d="M63920 39110
L65362 39110
" />
<path d="M63790 38980
L63920 39110
" />
<path d="M65406 39154
L65362 39110
" />
<path d="M66330 39154
L65406 39154
" />
</g>
<g style="fill:#000000; fill-opacity:0.0; 
stroke:#000000; stroke-width:50; stroke-opacity:1; 
stroke-linecap:round; stroke-linejoin:round;">
<path d="M63157 44613
L62879 44336
" />
<path d="M63157 45000
L63157 44613
" />
<path d="M62842 45000
L62704 44862
" />
<path d="M62908 43955
L63049 43955
" />
<path d="M62704 44862
L62704 44158
" />
<path d="M62704 44158
L62908 43955
" />
</g>
<g style="fill:#000000; fill-opacity:0.0; 
stroke:#000000; stroke-width:60; stroke-opacity:1; 
stroke-linecap:round; stroke-linejoin:round;">
<path d="M63760 44450
L63330 44450
" />
<path d="M63330 44450
L63230 44350
" />
<path d="M60624 44028
L62077 44028
" />
<path d="M62077 44028
L62527 44478
" />
<path d="M60040 44612
L60624 44028
" />
<path d="M62527 44478
L62527 45000
" />
<path d="M63593 43322
L60637 43322
" />
<path d="M64365 44094
L63593 43322
" />
<path d="M66094 44094
L64365 44094
" />
<path d="M68000 46000
L66094 44094
" />
<path d="M60000 34550
L60000 36300
" />
<path d="M60000 34000
L60000 34550
" />
<path d="M59250 37050
L59250 43370
" />
<path d="M60000 36300
L59250 37050
" />
<path d="M60221 43322
L60183 43360
" />
<path d="M60637 43322
L60221 43322
" />
<path d="M60637 42456
L60834 42456
" />
<path d="M61892 41398
L61892 41271
" />
<path d="M60834 42456
L61892 41398
" />
<path d="M66110 43000
L66090 43020
" />
<path d="M68000 43000
L66110 43000
" />
<path d="M59713 41310
L59680 41343
" />
<path d="M60730 41310
L59713 41310
" />
<path d="M66690 42000
L66100 42590
" />
<path d="M68000 42000
L66690 42000
" />
<path d="M61072 41012
L61149 41089
" />
<path d="M62231 41089
L62238 41095
" />
<path d="M60637 40409
L60834 40409
" />
<path d="M60834 40409
L61072 40646
" />
<path d="M61149 41089
L62231 41089
" />
<path d="M61072 40646
L61072 41012
" />
<path d="M62238 41095
L62380 41095
" />
<path d="M61149 41240
L60750 41640
" />
<path d="M61149 41089
L61149 41240
" />
<path d="M64195 40525
L62491 40525
" />
<path d="M64420 40749
L64195 40525
" />
<path d="M62491 40525
L62391 40625
" />
<path d="M61509 39976
L61512 39980
" />
<path d="M60637 39976
L61509 39976
" />
<path d="M60834 39543
L60637 39543
" />
<path d="M61077 39300
L60834 39543
" />
<path d="M61430 39300
L61077 39300
" />
<path d="M66000 34000
L66000 36443
" />
<path d="M67000 37443
L67000 38000
" />
<path d="M67000 38000
L68000 39000
" />
<path d="M66000 36443
L67000 37443
" />
<path d="M63640 39110
L63870 39340
" />
<path d="M60637 39110
L63640 39110
" />
<path d="M66600 36600
L66600 36475
" />
<path d="M68000 38000
L66600 36600
" />
<path d="M65060 37890
L66770 37890
" />
<path d="M64273 38677
L65060 37890
" />
<path d="M60637 38677
L64273 38677
" />
<path d="M61766 37530
L66820 37530
" />
<path d="M60637 38244
L61052 38244
" />
<path d="M61052 38244
L61766 37530
" />
<path d="M60631 40835
L60637 40842
" />
<path d="M59690 40842
L59680 40831
" />
<path d="M60637 40842
L59690 40842
" />
<path d="M62750 40750
L62760 40740
" />
<path d="M62750 41800
L62750 40750
" />
</g>
<g >
</g>
<g style="fill:#000000; fill-opacity:0.0; 
stroke:#000000; stroke-width:60; stroke-opacity:1; 
stroke-linecap:round; stroke-linejoin:round;">
</g>
<g style="fill:#000000; fill-opacity:1.0; 
stroke:#000000; stroke-width:100; stroke-opacity:1; 
stroke-linecap:round; stroke-linejoin:round;">
<path style="fill:#000000; fill-opacity:1.0; 
stroke:#000000; stroke-width:100; stroke-opacity:1; 
stroke-linecap:round; stroke-linejoin:round;fill-rule:evenodd;"
d="M 57550,33887
57612,33950
58225,33950
58225,33942
58325,33942
58325,33950
58937,33950
59000,33887
59000,33159
59298,33159
59298,35000
59303,35049
59317,35096
59341,35139
59372,35177
59410,35208
59453,35232
59500,35246
59550,35251
59720,35251
59720,35809
59677,35832
59624,35875
59581,35928
59549,35989
59529,36054
59522,36122
59522,36381
59061,36842
59051,36851
59016,36893
58990,36942
58974,36995
58970,37036
58970,37036
58968,37050
58970,37063
58970,43159
58939,43204
58913,43267
58900,43335
58900,43404
58913,43472
58939,43535
58978,43593
58994,43609
58585,44018
58587,44000
58576,43885
58542,43775
58488,43673
58415,43584
58326,43511
58304,43500
58326,43488
58415,43415
58488,43326
58542,43224
58576,43114
58587,43000
58576,42885
58542,42775
58488,42673
58415,42584
58326,42511
58304,42500
58326,42488
58415,42415
58488,42326
58542,42224
58576,42114
58587,42000
58576,41885
58542,41775
58488,41673
58415,41584
58326,41511
58304,41500
58326,41488
58415,41415
58488,41326
58542,41224
58576,41114
58587,41000
58576,40885
58542,40775
58488,40673
58415,40584
58326,40511
58304,40500
58326,40488
58415,40415
58488,40326
58542,40224
58576,40114
58587,40000
58576,39885
58542,39775
58488,39673
58415,39584
58326,39511
58304,39500
58326,39488
58415,39415
58488,39326
58542,39224
58576,39114
58587,39000
58576,38885
58542,38775
58488,38673
58415,38584
58326,38511
58304,38500
58326,38488
58415,38415
58488,38326
58542,38224
58576,38114
58587,38000
58576,37885
58542,37775
58488,37673
58415,37584
58403,37574
58430,37566
58474,37543
58512,37512
58543,37474
58566,37430
58581,37383
58585,37334
58584,37112
58522,37050
58050,37050
58050,37057
57950,37057
57950,37050
57477,37050
57415,37112
57414,37334
57418,37383
57433,37430
57456,37474
57487,37512
57525,37543
57569,37566
57596,37574
57584,37584
57511,37673
57457,37775
57423,37885
57412,38000
57423,38114
57457,38224
57511,38326
57584,38415
57673,38488
57695,38500
57673,38511
57584,38584
57511,38673
57457,38775
57423,38885
57412,39000
57423,39114
57457,39224
57511,39326
57584,39415
57673,39488
57695,39500
57673,39511
57584,39584
57511,39673
57457,39775
57423,39885
57412,40000
57423,40114
57457,40224
57511,40326
57584,40415
57673,40488
57695,40500
57673,40511
57584,40584
57511,40673
57457,40775
57423,40885
57412,41000
57423,41114
57457,41224
57511,41326
57584,41415
57673,41488
57695,41500
57673,41511
57584,41584
57511,41673
57457,41775
57423,41885
57412,42000
57423,42114
57457,42224
57511,42326
57584,42415
57673,42488
57695,42500
57673,42511
57584,42584
57511,42673
57457,42775
57423,42885
57412,43000
57423,43114
57457,43224
57511,43326
57584,43415
57673,43488
57695,43500
57673,43511
57584,43584
57511,43673
57457,43775
57423,43885
57412,44000
57423,44114
57457,44224
57511,44326
57584,44415
57673,44488
57695,44500
57673,44511
57584,44584
57511,44673
57457,44775
57423,44885
57412,45000
57423,45114
57457,45224
57511,45326
57584,45415
57673,45488
57699,45502
57653,45529
57567,45606
57499,45698
57450,45801
57432,45859
57480,45950
57950,45950
57950,45942
58050,45942
58050,45950
58519,45950
58567,45859
58549,45801
58500,45698
58462,45646
59513,45646
59518,45695
59532,45742
59555,45785
59586,45824
59624,45855
59668,45878
59715,45892
59764,45897
59927,45896
59990,45833
59990,45470
59576,45470
59514,45532
59513,45646
58462,45646
58432,45606
58346,45529
58300,45502
58326,45488
58415,45415
58488,45326
58542,45224
58576,45114
58587,45000
58576,44885
58560,44835
59872,43523
59873,43526
59911,43583
59960,43632
60017,43671
60081,43697
60088,43698
60095,43705
60124,43705
60149,43710
60184,43710
60187,43712
60234,43726
60283,43731
60695,43731
60695,43748
60638,43748
60624,43747
60610,43748
60610,43748
60569,43752
60516,43768
60468,43794
60454,43805
60095,43805
60033,43868
60032,43913
60037,43962
60051,44009
60074,44052
60105,44091
60138,44118
60121,44135
59862,44135
59794,44142
59729,44161
59668,44194
59615,44237
59572,44290
59539,44351
59519,44416
59513,44484
59513,44740
59519,44809
59539,44874
59572,44935
59615,44988
59618,44990
59586,45015
59555,45054
59532,45097
59518,45144
59513,45193
59514,45307
59576,45370
59990,45370
59990,45362
60090,45362
60090,45370
60097,45370
60097,45470
60090,45470
60090,45833
60152,45896
60315,45897
60364,45892
60411,45878
60455,45855
60493,45824
60524,45785
60547,45742
60561,45695
60566,45646
60565,45532
60503,45470
60565,45470
60565,45457
60586,45471
60675,45507
60689,45509
60764,45460
60764,44872
60757,44872
60757,44772
60764,44772
60764,44764
60864,44764
60864,44772
61301,44772
61301,44556
61282,44462
61245,44374
61200,44308
61654,44308
61654,44310
61681,44374
61711,44419
61711,44765
61710,44778
61711,44792
61711,44792
61715,44833
61731,44886
61757,44935
61761,44940
61301,44940
61301,44872
60864,44872
60864,45460
60890,45476
60890,46130
60879,46135
60852,46108
60842,46107
60793,46110
60746,46123
60713,46140
60689,46124
60675,46126
60586,46162
60506,46215
60438,46282
60384,46362
60347,46450
60328,46544
60328,46761
60764,46761
60764,46719
60806,46761
60872,46761
60872,46861
60806,46861
60764,46902
60764,46861
60328,46861
60328,47077
60347,47171
60384,47259
60438,47339
60506,47406
60586,47459
60675,47495
60689,47497
60713,47481
60746,47498
60793,47511
60842,47514
60852,47513
60879,47486
60890,47491
60890,47565
57259,47565
57259,46140
57432,46140
57450,46198
57499,46301
57567,46393
57653,46470
57751,46529
57859,46567
57950,46520
57950,46050
58050,46050
58050,46520
58140,46567
58248,46529
58346,46470
58432,46393
58500,46301
58549,46198
58567,46140
58519,46050
58050,46050
57950,46050
57480,46050
57432,46140
57259,46140
57259,36665
57414,36665
57415,36887
57477,36950
57950,36950
57950,36477
58050,36477
58050,36950
58522,36950
58584,36887
58585,36665
58581,36616
58566,36569
58543,36525
58512,36487
58474,36456
58430,36433
58383,36418
58334,36414
58112,36415
58050,36477
57950,36477
57887,36415
57665,36414
57616,36418
57569,36433
57525,36456
57487,36487
57456,36525
57433,36569
57418,36616
57414,36665
57259,36665
57259,35000
57548,35000
57553,35049
57567,35096
57591,35139
57622,35177
57660,35208
57703,35232
57750,35246
57800,35251
58162,35250
58225,35187
58225,34050
58325,34050
58325,35187
58387,35250
58750,35251
58799,35246
58846,35232
58889,35208
58927,35177
58958,35139
58982,35096
58996,35049
59001,35000
59000,34112
58937,34050
58325,34050
58225,34050
57612,34050
57550,34112
57548,35000
57259,35000
57259,33159
57549,33159
57550,33887
Z" /> 
<path style="fill:#000000; fill-opacity:1.0; 
stroke:#000000; stroke-width:100; stroke-opacity:1; 
stroke-linecap:round; stroke-linejoin:round;fill-rule:evenodd;"
d="M 67000,33887
67062,33950
67675,33950
67675,33942
67775,33942
67775,33950
68387,33950
68450,33887
68450,33159
68740,33159
68740,47565
65109,47565
65109,47491
65133,47479
65135,47481
65135,47513
65167,47513
65176,47514
65192,47513
65235,47513
65235,47508
65273,47498
65294,47487
65310,47497
65324,47495
65413,47459
65493,47406
65561,47339
65615,47259
65652,47171
65671,47077
65671,46861
65235,46861
65235,46868
65201,46868
65193,46861
65127,46861
65127,46761
65193,46761
65201,46753
65235,46753
65235,46761
65671,46761
65671,46544
65652,46450
65615,46362
65561,46282
65493,46215
65413,46162
65324,46126
65310,46124
65294,46134
65273,46123
65235,46113
65235,46108
65192,46108
65176,46107
65167,46108
65135,46108
65135,46140
65133,46142
65109,46130
65109,45476
65135,45460
65135,44872
65235,44872
65235,45460
65310,45509
65324,45507
65413,45471
65493,45418
65561,45351
65615,45271
65652,45183
65671,45089
65671,44872
65235,44872
65135,44872
65127,44872
65127,44772
65135,44772
65135,44764
65235,44764
65235,44772
65671,44772
65671,44556
65652,44462
65615,44374
65978,44374
67439,45835
67423,45885
67412,46000
67423,46114
67457,46224
67511,46326
67584,46415
67673,46488
67775,46542
67885,46576
67971,46584
68028,46584
68114,46576
68224,46542
68326,46488
68415,46415
68488,46326
68542,46224
68576,46114
68587,46000
68576,45885
68542,45775
68488,45673
68415,45584
68326,45511
68300,45497
68346,45470
68432,45393
68500,45301
68549,45198
68567,45140
68519,45050
68050,45050
68050,45057
67950,45057
67950,45050
67480,45050
67468,45072
66302,43906
66293,43895
66250,43860
66202,43834
66149,43818
66108,43814
66108,43814
66094,43813
66080,43814
65912,43814
65904,43805
65412,43805
65412,43813
65312,43813
65312,43805
64820,43805
64811,43814
64481,43814
64269,43602
64756,43602
64757,43643
64820,43705
64899,43705
64911,43712
64958,43726
65007,43731
65716,43731
65765,43726
65812,43712
65824,43705
65904,43705
65966,43643
65967,43598
65962,43549
65959,43539
65962,43529
65967,43480
65967,43348
65987,43356
66055,43370
66124,43370
66192,43356
66255,43330
66313,43291
66324,43280
67486,43280
67511,43326
67584,43415
67673,43488
67695,43500
67673,43511
67584,43584
67511,43673
67457,43775
67423,43885
67412,44000
67423,44114
67457,44224
67511,44326
67584,44415
67673,44488
67699,44502
67653,44529
67567,44606
67499,44698
67450,44801
67432,44859
67480,44950
67950,44950
67950,44942
68050,44942
68050,44950
68519,44950
68567,44859
68549,44801
68500,44698
68432,44606
68346,44529
68300,44502
68326,44488
68415,44415
68488,44326
68542,44224
68576,44114
68587,44000
68576,43885
68542,43775
68488,43673
68415,43584
68326,43511
68304,43500
68326,43488
68415,43415
68488,43326
68542,43224
68576,43114
68587,43000
68576,42885
68542,42775
68488,42673
68415,42584
68326,42511
68304,42500
68326,42488
68415,42415
68488,42326
68542,42224
68576,42114
68587,42000
68576,41885
68542,41775
68488,41673
68415,41584
68326,41511
68304,41500
68326,41488
68415,41415
68488,41326
68542,41224
68576,41114
68587,41000
68576,40885
68542,40775
68488,40673
68415,40584
68326,40511
68304,40500
68326,40488
68415,40415
68488,40326
68542,40224
68576,40114
68587,40000
68576,39885
68542,39775
68488,39673
68415,39584
68326,39511
68304,39500
68326,39488
68415,39415
68488,39326
68542,39224
68576,39114
68587,39000
68576,38885
68542,38775
68488,38673
68415,38584
68326,38511
68304,38500
68326,38488
68415,38415
68488,38326
68542,38224
68576,38114
68587,38000
68576,37885
68542,37775
68488,37673
68415,37584
68403,37574
68430,37566
68474,37543
68512,37512
68543,37474
68566,37430
68581,37383
68585,37334
68585,36665
68581,36616
68566,36569
68543,36525
68512,36487
68474,36456
68430,36433
68383,36418
68334,36414
67665,36414
67616,36418
67569,36433
67525,36456
67487,36487
67456,36525
67433,36569
67418,36616
67414,36665
67414,37018
67089,36693
67104,36664
67118,36629
67133,36582
67140,36544
67145,36495
67145,36485
67146,36475
67146,36279
67141,36230
67127,36182
67104,36139
67072,36101
67034,36070
66991,36046
66944,36032
66895,36027
66304,36027
66280,36030
66280,35251
66450,35251
66499,35246
66546,35232
66589,35208
66627,35177
66658,35139
66682,35096
66696,35049
66701,35000
66998,35000
67003,35049
67017,35096
67041,35139
67072,35177
67110,35208
67153,35232
67200,35246
67250,35251
67612,35250
67675,35187
67675,34050
67775,34050
67775,35187
67837,35250
68200,35251
68249,35246
68296,35232
68339,35208
68377,35177
68408,35139
68432,35096
68446,35049
68451,35000
68450,34112
68387,34050
67775,34050
67675,34050
67062,34050
67000,34112
66998,35000
66701,35000
66701,33159
66999,33159
67000,33887
Z" /> 
<path style="fill:#000000; fill-opacity:1.0; 
stroke:#000000; stroke-width:100; stroke-opacity:1; 
stroke-linecap:round; stroke-linejoin:round;fill-rule:evenodd;"
d="M 64610,44465
64617,44465
64617,44565
64610,44565
64610,44572
64510,44572
64510,44565
64502,44565
64502,44465
64510,44465
64510,44457
64610,44457
64610,44465
Z" /> 
<path style="fill:#000000; fill-opacity:1.0; 
stroke:#000000; stroke-width:100; stroke-opacity:1; 
stroke-linecap:round; stroke-linejoin:round;fill-rule:evenodd;"
d="M 64083,40852
64109,40915
64148,40973
64196,41021
64254,41060
64282,41071
62741,42612
62687,42623
62624,42649
62566,42688
62518,42736
62479,42794
62453,42857
62452,42862
61840,42862
61795,42832
61732,42806
61664,42792
61595,42792
61527,42806
61464,42832
61406,42870
61358,42919
61319,42977
61293,43040
61293,43042
61243,43042
61242,43002
61179,42939
61100,42939
61088,42933
61041,42918
60992,42914
60579,42914
60579,42865
60992,42865
61041,42860
61088,42846
61100,42839
61179,42839
61242,42777
61243,42732
61238,42683
61235,42673
61238,42663
61243,42614
61243,42443
62081,41606
62091,41597
62100,41586
62100,41586
62126,41554
62147,41516
62152,41507
62164,41494
62203,41437
62215,41406
62277,41432
62345,41445
62414,41445
62470,41434
62470,41589
62439,41634
62413,41697
62400,41765
62400,41834
62413,41902
62439,41965
62478,42023
62526,42071
62584,42110
62647,42136
62715,42150
62784,42150
62852,42136
62915,42110
62973,42071
63021,42023
63060,41965
63086,41902
63100,41834
63100,41765
63086,41697
63060,41634
63030,41589
63030,40964
63031,40963
63070,40905
63096,40842
63103,40805
64074,40805
64083,40852
Z" /> 
<path style="fill:#000000; fill-opacity:1.0; 
stroke:#000000; stroke-width:100; stroke-opacity:1; 
stroke-linecap:round; stroke-linejoin:round;fill-rule:evenodd;"
d="M 60069,42965
60069,42939
60095,42939
60069,42965
Z" /> 
<path style="fill:#000000; fill-opacity:1.0; 
stroke:#000000; stroke-width:100; stroke-opacity:1; 
stroke-linecap:round; stroke-linejoin:round;fill-rule:evenodd;"
d="M 60095,42839
60069,42839
60069,42813
60095,42839
Z" /> 
<path style="fill:#000000; fill-opacity:1.0; 
stroke:#000000; stroke-width:100; stroke-opacity:1; 
stroke-linecap:round; stroke-linejoin:round;fill-rule:evenodd;"
d="M 66604,38200
66667,38226
66735,38240
66804,38240
66837,38233
67439,38835
67423,38885
67412,39000
67423,39114
67457,39224
67511,39326
67584,39415
67673,39488
67695,39500
67673,39511
67584,39584
67511,39673
67457,39775
67423,39885
67412,40000
67423,40114
67457,40224
67511,40326
67584,40415
67673,40488
67695,40500
67673,40511
67584,40584
67511,40673
67457,40775
67423,40885
67412,41000
67423,41114
67457,41224
67511,41326
67584,41415
67673,41488
67695,41500
67673,41511
67584,41584
67511,41673
67486,41720
66703,41720
66689,41718
66676,41720
66676,41720
66635,41724
66582,41740
66562,41750
66533,41766
66501,41792
66501,41792
66491,41801
66482,41811
66051,42242
65997,42253
65964,42267
65962,42250
65959,42240
65962,42230
65967,42181
65967,41866
65962,41817
65948,41770
65925,41726
65894,41688
65888,41683
66518,41053
66528,41045
66537,41034
66537,41034
66563,41002
66571,40987
66589,40953
66605,40901
66610,40859
66610,40859
66611,40846
66610,40832
66610,40074
66617,40071
66660,40048
66692,40026
66730,39995
66758,39968
66789,39930
66810,39898
66834,39854
66848,39819
66863,39772
66870,39734
66875,39685
66875,39675
66876,39665
66876,39469
66871,39420
66868,39410
66871,39399
66876,39350
66876,39154
66875,39144
66875,39134
66870,39085
66863,39047
66848,39000
66834,38965
66810,38921
66789,38889
66758,38851
66730,38824
66692,38793
66660,38771
66617,38748
66581,38733
66534,38719
66496,38711
66447,38706
66438,38706
66428,38706
66231,38706
66221,38706
66212,38706
66163,38711
66125,38719
66078,38733
66042,38748
65999,38771
65967,38792
65967,38519
65962,38470
65959,38460
65962,38450
65967,38401
65966,38356
65904,38294
65824,38294
65812,38287
65765,38273
65716,38268
65304,38268
65304,38194
65312,38194
65312,38186
65412,38186
65412,38194
65904,38194
65928,38170
66559,38170
66604,38200
Z" /> 
<path style="fill:#000000; fill-opacity:1.0; 
stroke:#000000; stroke-width:100; stroke-opacity:1; 
stroke-linecap:round; stroke-linejoin:round;fill-rule:evenodd;"
d="M 61000,33887
61062,33950
61675,33950
61675,33942
61775,33942
61775,33950
62387,33950
62450,33887
62450,33159
63549,33159
63550,33887
63612,33950
64225,33950
64225,33942
64325,33942
64325,33950
64937,33950
65000,33887
65000,33159
65298,33159
65298,35000
65303,35049
65317,35096
65341,35139
65372,35177
65410,35208
65453,35232
65500,35246
65550,35251
65720,35251
65720,36429
65718,36443
65720,36457
65724,36498
65740,36551
65766,36599
65801,36642
65811,36651
66410,37250
61779,37250
61766,37248
61752,37250
61752,37250
61711,37254
61658,37270
61609,37296
61577,37322
61577,37322
61567,37331
61558,37341
61055,37844
61041,37840
60992,37835
60283,37835
60234,37840
60187,37854
60143,37877
60105,37908
60074,37947
60051,37990
60037,38037
60032,38086
60032,38401
60037,38450
60040,38460
60037,38470
60032,38519
60032,38834
60037,38883
60040,38893
60037,38903
60032,38952
60032,39267
60037,39316
60040,39326
60037,39336
60032,39385
60032,39700
60037,39749
60040,39759
60037,39769
60032,39818
60032,40133
60037,40182
60040,40192
60037,40202
60032,40251
60032,40390
60031,40390
60029,40383
60029,40383
60029,40382
60018,40361
60007,40340
60006,40339
60006,40339
59991,40320
59976,40302
59976,40302
59975,40301
59957,40286
59939,40271
59938,40270
59937,40270
59917,40259
59896,40247
59895,40247
59894,40247
59872,40240
59850,40232
59849,40232
59848,40232
59824,40230
59801,40227
59799,40227
59799,40227
59799,40227
59798,40227
59561,40227
59538,40229
59530,40230
59530,37557
59534,37571
59557,37615
59588,37653
59626,37684
59670,37707
59717,37721
59766,37726
59880,37725
59942,37663
59942,37250
59935,37250
59935,37150
59942,37150
59942,37142
60042,37142
60042,37150
60050,37150
60050,37250
60042,37250
60042,37663
60105,37725
60219,37726
60268,37721
60315,37707
60358,37684
60396,37653
60422,37621
60424,37624
60477,37667
60538,37700
60603,37720
60672,37726
60927,37726
60996,37720
61061,37700
61122,37667
61175,37624
61218,37571
61250,37510
61270,37445
61277,37377
61277,37022
61270,36954
61250,36889
61218,36828
61175,36775
61147,36752
61182,36724
61225,36671
61258,36610
61267,36580
61739,36580
61749,36610
61781,36671
61824,36724
61877,36767
61938,36800
62003,36820
62072,36826
62327,36826
62396,36820
62461,36800
62522,36767
62575,36724
62603,36689
62631,36724
62684,36767
62745,36800
62810,36820
62879,36826
63135,36826
63137,36826
63138,36827
63170,36853
63219,36879
63244,36887
63272,36895
63313,36900
63313,36900
63320,36900
63364,36930
63427,36956
63495,36970
63564,36970
63632,36956
63695,36930
63753,36891
63801,36843
63840,36785
63866,36722
63880,36654
63880,36585
63866,36517
63840,36454
63801,36396
63753,36348
63695,36309
63632,36283
63564,36270
63495,36270
63484,36272
63484,36122
63477,36054
63458,35989
63425,35928
63382,35875
63329,35832
63268,35799
63203,35779
63135,35773
62879,35773
62810,35779
62745,35799
62684,35832
62631,35875
62603,35910
62575,35875
62522,35832
62461,35799
62396,35779
62327,35773
62072,35773
62003,35779
61938,35799
61877,35832
61824,35875
61781,35928
61749,35989
61739,36020
61267,36020
61258,35989
61225,35928
61182,35875
61129,35832
61068,35799
61003,35779
60935,35773
60679,35773
60610,35779
60545,35799
60484,35832
60431,35875
60403,35910
60375,35875
60322,35832
60280,35809
60280,35251
60450,35251
60499,35246
60546,35232
60589,35208
60627,35177
60658,35139
60682,35096
60696,35049
60701,35000
60998,35000
61003,35049
61017,35096
61041,35139
61072,35177
61110,35208
61153,35232
61200,35246
61250,35251
61612,35250
61675,35187
61675,34050
61775,34050
61775,35187
61837,35250
62200,35251
62249,35246
62296,35232
62339,35208
62377,35177
62408,35139
62432,35096
62446,35049
62451,35000
63548,35000
63553,35049
63567,35096
63591,35139
63622,35177
63660,35208
63703,35232
63750,35246
63800,35251
64162,35250
64225,35187
64225,34050
64325,34050
64325,35187
64387,35250
64750,35251
64799,35246
64846,35232
64889,35208
64927,35177
64958,35139
64982,35096
64996,35049
65001,35000
65000,34112
64937,34050
64325,34050
64225,34050
63612,34050
63550,34112
63548,35000
62451,35000
62450,34112
62387,34050
61775,34050
61675,34050
61062,34050
61000,34112
60998,35000
60701,35000
60701,33159
60999,33159
61000,33887
Z" /> 
</g>
</g> 
</svg>
