<?xml version="1.0" standalone="no"?>
 <!DOCTYPE svg PUBLIC "-//W3C//DTD SVG 1.1//EN" 
 "http://www.w3.org/Graphics/SVG/1.1/DTD/svg11.dtd"> 
<svg xmlns="http://www.w3.org/2000/svg" version="1.1" 
    width="29.7002cm" height="21.0007cm" viewBox="0 0 116930 82680 ">
<title>SVG Picture created as neo8_adapter-B_Paste.svg date 2020/02/13 12:15:50 </title>
  <desc>Picture generated by PCBNEW </desc>
<g style="fill:#000000; fill-opacity:1;stroke:#000000; stroke-opacity:1;
stroke-linecap:round; stroke-linejoin:round; "
 transform="translate(0 0) scale(1 1)">
</g>
<g style="fill:#000000; fill-opacity:0.0; 
stroke:#000000; stroke-width:-0.000393701; stroke-opacity:1; 
stroke-linecap:round; stroke-linejoin:round;">
<g >
</g>
<g >
</g>
<g >
</g>
<g style="fill:#000000; fill-opacity:0.0; 
stroke:#000000; stroke-width:-0.000393701; stroke-opacity:1; 
stroke-linecap:round; stroke-linejoin:round;">
</g>
<g style="fill:#000000; fill-opacity:0.0; 
stroke:#000000; stroke-width:0; stroke-opacity:1; 
stroke-linecap:round; stroke-linejoin:round;">
</g>
<g style="fill:#000000; fill-opacity:1.0; 
stroke:#000000; stroke-width:0; stroke-opacity:1; 
stroke-linecap:round; stroke-linejoin:round;">
<path style="fill:#000000; fill-opacity:1.0; 
stroke:#000000; stroke-width:0; stroke-opacity:1; 
stroke-linecap:round; stroke-linejoin:round;fill-rule:evenodd;"
d="M 66208,38886
66208,39752
64711,39752
64711,38886
66208,38886
Z" /> 
<path style="fill:#000000; fill-opacity:1.0; 
stroke:#000000; stroke-width:0; stroke-opacity:1; 
stroke-linecap:round; stroke-linejoin:round;fill-rule:evenodd;"
d="M 66660,41367
66660,42233
66070,42233
66070,41367
66660,41367
Z" /> 
<path style="fill:#000000; fill-opacity:1.0; 
stroke:#000000; stroke-width:0; stroke-opacity:1; 
stroke-linecap:round; stroke-linejoin:round;fill-rule:evenodd;"
d="M 65755,41367
65755,42233
65164,42233
65164,41367
65755,41367
Z" /> 
<path style="fill:#000000; fill-opacity:1.0; 
stroke:#000000; stroke-width:0; stroke-opacity:1; 
stroke-linecap:round; stroke-linejoin:round;fill-rule:evenodd;"
d="M 64849,41367
64849,42233
64259,42233
64259,41367
64849,41367
Z" /> 
</g>
<g >
</g>
<g >
</g>
<g style="fill:#000000; fill-opacity:1.0; 
stroke:#000000; stroke-width:0; stroke-opacity:1; 
stroke-linecap:round; stroke-linejoin:round;">
<path style="fill:#000000; fill-opacity:1.0; 
stroke:#000000; stroke-width:0; stroke-opacity:1; 
stroke-linecap:round; stroke-linejoin:round;fill-rule:evenodd;"
d="M 63814,41417
63820,41418
63826,41419
63831,41421
63836,41424
63841,41427
63846,41430
63850,41434
63854,41438
63858,41443
63861,41448
63863,41453
63865,41459
63866,41464
63867,41470
63868,41476
63868,42125
63867,42131
63866,42137
63865,42143
63863,42148
63861,42153
63858,42158
63854,42163
63850,42167
63846,42171
63841,42175
63836,42178
63831,42180
63826,42182
63820,42183
63814,42184
63809,42185
63690,42185
63685,42184
63679,42183
63673,42182
63668,42180
63663,42178
63658,42175
63653,42171
63649,42167
63645,42163
63641,42158
63638,42153
63636,42148
63634,42143
63633,42137
63632,42131
63631,42125
63631,41476
63632,41470
63633,41464
63634,41459
63636,41453
63638,41448
63641,41443
63645,41438
63649,41434
63653,41430
63658,41427
63663,41424
63668,41421
63673,41419
63679,41418
63685,41417
63690,41417
63809,41417
63814,41417
Z" /> 
<path style="fill:#000000; fill-opacity:1.0; 
stroke:#000000; stroke-width:0; stroke-opacity:1; 
stroke-linecap:round; stroke-linejoin:round;fill-rule:evenodd;"
d="M 63314,41417
63320,41418
63326,41419
63331,41421
63336,41424
63341,41427
63346,41430
63350,41434
63354,41438
63358,41443
63361,41448
63363,41453
63365,41459
63366,41464
63367,41470
63368,41476
63368,42125
63367,42131
63366,42137
63365,42143
63363,42148
63361,42153
63358,42158
63354,42163
63350,42167
63346,42171
63341,42175
63336,42178
63331,42180
63326,42182
63320,42183
63314,42184
63309,42185
63190,42185
63185,42184
63179,42183
63173,42182
63168,42180
63163,42178
63158,42175
63153,42171
63149,42167
63145,42163
63141,42158
63138,42153
63136,42148
63134,42143
63133,42137
63132,42131
63131,42125
63131,41476
63132,41470
63133,41464
63134,41459
63136,41453
63138,41448
63141,41443
63145,41438
63149,41434
63153,41430
63158,41427
63163,41424
63168,41421
63173,41419
63179,41418
63185,41417
63190,41417
63309,41417
63314,41417
Z" /> 
<path style="fill:#000000; fill-opacity:1.0; 
stroke:#000000; stroke-width:0; stroke-opacity:1; 
stroke-linecap:round; stroke-linejoin:round;fill-rule:evenodd;"
d="M 62814,41417
62820,41418
62826,41419
62831,41421
62836,41424
62841,41427
62846,41430
62850,41434
62854,41438
62858,41443
62861,41448
62863,41453
62865,41459
62866,41464
62867,41470
62868,41476
62868,42125
62867,42131
62866,42137
62865,42143
62863,42148
62861,42153
62858,42158
62854,42163
62850,42167
62846,42171
62841,42175
62836,42178
62831,42180
62826,42182
62820,42183
62814,42184
62809,42185
62690,42185
62685,42184
62679,42183
62673,42182
62668,42180
62663,42178
62658,42175
62653,42171
62649,42167
62645,42163
62641,42158
62638,42153
62636,42148
62634,42143
62633,42137
62632,42131
62631,42125
62631,41476
62632,41470
62633,41464
62634,41459
62636,41453
62638,41448
62641,41443
62645,41438
62649,41434
62653,41430
62658,41427
62663,41424
62668,41421
62673,41419
62679,41418
62685,41417
62690,41417
62809,41417
62814,41417
Z" /> 
<path style="fill:#000000; fill-opacity:1.0; 
stroke:#000000; stroke-width:0; stroke-opacity:1; 
stroke-linecap:round; stroke-linejoin:round;fill-rule:evenodd;"
d="M 62314,41417
62320,41418
62326,41419
62331,41421
62336,41424
62341,41427
62346,41430
62350,41434
62354,41438
62358,41443
62361,41448
62363,41453
62365,41459
62366,41464
62367,41470
62368,41476
62368,42125
62367,42131
62366,42137
62365,42143
62363,42148
62361,42153
62358,42158
62354,42163
62350,42167
62346,42171
62341,42175
62336,42178
62331,42180
62326,42182
62320,42183
62314,42184
62309,42185
62190,42185
62185,42184
62179,42183
62173,42182
62168,42180
62163,42178
62158,42175
62153,42171
62149,42167
62145,42163
62141,42158
62138,42153
62136,42148
62134,42143
62133,42137
62132,42131
62131,42125
62131,41476
62132,41470
62133,41464
62134,41459
62136,41453
62138,41448
62141,41443
62145,41438
62149,41434
62153,41430
62158,41427
62163,41424
62168,41421
62173,41419
62179,41418
62185,41417
62190,41417
62309,41417
62314,41417
Z" /> 
<path style="fill:#000000; fill-opacity:1.0; 
stroke:#000000; stroke-width:0; stroke-opacity:1; 
stroke-linecap:round; stroke-linejoin:round;fill-rule:evenodd;"
d="M 62314,43366
62320,43367
62326,43368
62331,43370
62336,43373
62341,43376
62346,43379
62350,43383
62354,43387
62358,43392
62361,43397
62363,43402
62365,43408
62366,43413
62367,43419
62368,43425
62368,44074
62367,44080
62366,44086
62365,44091
62363,44097
62361,44102
62358,44107
62354,44112
62350,44116
62346,44120
62341,44123
62336,44126
62331,44129
62326,44131
62320,44132
62314,44133
62309,44133
62190,44133
62185,44133
62179,44132
62173,44131
62168,44129
62163,44126
62158,44123
62153,44120
62149,44116
62145,44112
62141,44107
62138,44102
62136,44097
62134,44091
62133,44086
62132,44080
62131,44074
62131,43425
62132,43419
62133,43413
62134,43408
62136,43402
62138,43397
62141,43392
62145,43387
62149,43383
62153,43379
62158,43376
62163,43373
62168,43370
62173,43368
62179,43367
62185,43366
62190,43366
62309,43366
62314,43366
Z" /> 
<path style="fill:#000000; fill-opacity:1.0; 
stroke:#000000; stroke-width:0; stroke-opacity:1; 
stroke-linecap:round; stroke-linejoin:round;fill-rule:evenodd;"
d="M 62814,43366
62820,43367
62826,43368
62831,43370
62836,43373
62841,43376
62846,43379
62850,43383
62854,43387
62858,43392
62861,43397
62863,43402
62865,43408
62866,43413
62867,43419
62868,43425
62868,44074
62867,44080
62866,44086
62865,44091
62863,44097
62861,44102
62858,44107
62854,44112
62850,44116
62846,44120
62841,44123
62836,44126
62831,44129
62826,44131
62820,44132
62814,44133
62809,44133
62690,44133
62685,44133
62679,44132
62673,44131
62668,44129
62663,44126
62658,44123
62653,44120
62649,44116
62645,44112
62641,44107
62638,44102
62636,44097
62634,44091
62633,44086
62632,44080
62631,44074
62631,43425
62632,43419
62633,43413
62634,43408
62636,43402
62638,43397
62641,43392
62645,43387
62649,43383
62653,43379
62658,43376
62663,43373
62668,43370
62673,43368
62679,43367
62685,43366
62690,43366
62809,43366
62814,43366
Z" /> 
<path style="fill:#000000; fill-opacity:1.0; 
stroke:#000000; stroke-width:0; stroke-opacity:1; 
stroke-linecap:round; stroke-linejoin:round;fill-rule:evenodd;"
d="M 63314,43366
63320,43367
63326,43368
63331,43370
63336,43373
63341,43376
63346,43379
63350,43383
63354,43387
63358,43392
63361,43397
63363,43402
63365,43408
63366,43413
63367,43419
63368,43425
63368,44074
63367,44080
63366,44086
63365,44091
63363,44097
63361,44102
63358,44107
63354,44112
63350,44116
63346,44120
63341,44123
63336,44126
63331,44129
63326,44131
63320,44132
63314,44133
63309,44133
63190,44133
63185,44133
63179,44132
63173,44131
63168,44129
63163,44126
63158,44123
63153,44120
63149,44116
63145,44112
63141,44107
63138,44102
63136,44097
63134,44091
63133,44086
63132,44080
63131,44074
63131,43425
63132,43419
63133,43413
63134,43408
63136,43402
63138,43397
63141,43392
63145,43387
63149,43383
63153,43379
63158,43376
63163,43373
63168,43370
63173,43368
63179,43367
63185,43366
63190,43366
63309,43366
63314,43366
Z" /> 
<path style="fill:#000000; fill-opacity:1.0; 
stroke:#000000; stroke-width:0; stroke-opacity:1; 
stroke-linecap:round; stroke-linejoin:round;fill-rule:evenodd;"
d="M 63814,43366
63820,43367
63826,43368
63831,43370
63836,43373
63841,43376
63846,43379
63850,43383
63854,43387
63858,43392
63861,43397
63863,43402
63865,43408
63866,43413
63867,43419
63868,43425
63868,44074
63867,44080
63866,44086
63865,44091
63863,44097
63861,44102
63858,44107
63854,44112
63850,44116
63846,44120
63841,44123
63836,44126
63831,44129
63826,44131
63820,44132
63814,44133
63809,44133
63690,44133
63685,44133
63679,44132
63673,44131
63668,44129
63663,44126
63658,44123
63653,44120
63649,44116
63645,44112
63641,44107
63638,44102
63636,44097
63634,44091
63633,44086
63632,44080
63631,44074
63631,43425
63632,43419
63633,43413
63634,43408
63636,43402
63638,43397
63641,43392
63645,43387
63649,43383
63653,43379
63658,43376
63663,43373
63668,43370
63673,43368
63679,43367
63685,43366
63690,43366
63809,43366
63814,43366
Z" /> 
</g>
<g >
</g>
<g style="fill:#000000; fill-opacity:1.0; 
stroke:#000000; stroke-width:0; stroke-opacity:1; 
stroke-linecap:round; stroke-linejoin:round;">
<path style="fill:#000000; fill-opacity:1.0; 
stroke:#000000; stroke-width:0; stroke-opacity:1; 
stroke-linecap:round; stroke-linejoin:round;fill-rule:evenodd;"
d="M 65540,37274
65550,37276
65559,37278
65568,37281
65577,37286
65585,37290
65593,37296
65600,37303
65606,37310
65612,37318
65617,37326
65621,37335
65625,37344
65627,37353
65628,37363
65629,37372
65629,37727
65628,37736
65627,37746
65625,37755
65621,37764
65617,37773
65612,37781
65606,37789
65600,37796
65593,37803
65585,37809
65577,37813
65568,37818
65559,37821
65550,37823
65540,37825
65530,37825
65274,37825
65265,37825
65255,37823
65246,37821
65237,37818
65228,37813
65220,37809
65212,37803
65205,37796
65198,37789
65193,37781
65188,37773
65184,37764
65180,37755
65178,37746
65177,37736
65176,37727
65176,37372
65177,37363
65178,37353
65180,37344
65184,37335
65188,37326
65193,37318
65198,37310
65205,37303
65212,37296
65220,37290
65228,37286
65237,37281
65246,37278
65255,37276
65265,37274
65274,37274
65530,37274
65540,37274
Z" /> 
<path style="fill:#000000; fill-opacity:1.0; 
stroke:#000000; stroke-width:0; stroke-opacity:1; 
stroke-linecap:round; stroke-linejoin:round;fill-rule:evenodd;"
d="M 66347,37274
66357,37276
66366,37278
66375,37281
66384,37286
66392,37290
66400,37296
66407,37303
66414,37310
66419,37318
66424,37326
66428,37335
66432,37344
66434,37353
66435,37363
66436,37372
66436,37727
66435,37736
66434,37746
66432,37755
66428,37764
66424,37773
66419,37781
66414,37789
66407,37796
66400,37803
66392,37809
66384,37813
66375,37818
66366,37821
66357,37823
66347,37825
66337,37825
66082,37825
66072,37825
66062,37823
66053,37821
66044,37818
66035,37813
66027,37809
66019,37803
66012,37796
66005,37789
66000,37781
65995,37773
65991,37764
65987,37755
65985,37746
65984,37736
65983,37727
65983,37372
65984,37363
65985,37353
65987,37344
65991,37335
65995,37326
66000,37318
66005,37310
66012,37303
66019,37296
66027,37290
66035,37286
66044,37281
66053,37278
66062,37276
66072,37274
66082,37274
66337,37274
66347,37274
Z" /> 
</g>
<g >
</g>
<g >
</g>
<g >
</g>
<g style="fill:#000000; fill-opacity:1.0; 
stroke:#000000; stroke-width:0; stroke-opacity:1; 
stroke-linecap:round; stroke-linejoin:round;">
<path style="fill:#000000; fill-opacity:1.0; 
stroke:#000000; stroke-width:0; stroke-opacity:1; 
stroke-linecap:round; stroke-linejoin:round;fill-rule:evenodd;"
d="M 62457,39704
62467,39706
62476,39708
62485,39711
62494,39716
62502,39720
62510,39726
62517,39733
62524,39740
62529,39748
62534,39756
62538,39765
62542,39774
62544,39783
62545,39793
62546,39802
62546,40157
62545,40166
62544,40176
62542,40185
62538,40194
62534,40203
62529,40211
62524,40219
62517,40226
62510,40233
62502,40239
62494,40243
62485,40248
62476,40251
62467,40253
62457,40255
62447,40255
62192,40255
62182,40255
62172,40253
62163,40251
62154,40248
62145,40243
62137,40239
62129,40233
62122,40226
62115,40219
62110,40211
62105,40203
62101,40194
62097,40185
62095,40176
62094,40166
62093,40157
62093,39802
62094,39793
62095,39783
62097,39774
62101,39765
62105,39756
62110,39748
62115,39740
62122,39733
62129,39726
62137,39720
62145,39716
62154,39711
62163,39708
62172,39706
62182,39704
62192,39704
62447,39704
62457,39704
Z" /> 
<path style="fill:#000000; fill-opacity:1.0; 
stroke:#000000; stroke-width:0; stroke-opacity:1; 
stroke-linecap:round; stroke-linejoin:round;fill-rule:evenodd;"
d="M 61650,39704
61660,39706
61669,39708
61678,39711
61687,39716
61695,39720
61703,39726
61710,39733
61716,39740
61722,39748
61727,39756
61731,39765
61735,39774
61737,39783
61738,39793
61739,39802
61739,40157
61738,40166
61737,40176
61735,40185
61731,40194
61727,40203
61722,40211
61716,40219
61710,40226
61703,40233
61695,40239
61687,40243
61678,40248
61669,40251
61660,40253
61650,40255
61640,40255
61384,40255
61375,40255
61365,40253
61356,40251
61347,40248
61338,40243
61330,40239
61322,40233
61315,40226
61308,40219
61303,40211
61298,40203
61294,40194
61290,40185
61288,40176
61287,40166
61286,40157
61286,39802
61287,39793
61288,39783
61290,39774
61294,39765
61298,39756
61303,39748
61308,39740
61315,39733
61322,39726
61330,39720
61338,39716
61347,39711
61356,39708
61365,39706
61375,39704
61384,39704
61640,39704
61650,39704
Z" /> 
</g>
<g >
</g>
<g >
</g>
<g style="fill:#000000; fill-opacity:1.0; 
stroke:#000000; stroke-width:0; stroke-opacity:1; 
stroke-linecap:round; stroke-linejoin:round;">
<path style="fill:#000000; fill-opacity:1.0; 
stroke:#000000; stroke-width:0; stroke-opacity:1; 
stroke-linecap:round; stroke-linejoin:round;fill-rule:evenodd;"
d="M 59380,42074
59390,42076
59399,42078
59408,42081
59417,42086
59425,42090
59433,42096
59440,42103
59446,42110
59452,42118
59457,42126
59461,42135
59465,42144
59467,42153
59468,42163
59469,42172
59469,42527
59468,42536
59467,42546
59465,42555
59461,42564
59457,42573
59452,42581
59446,42589
59440,42596
59433,42603
59425,42609
59417,42613
59408,42618
59399,42621
59390,42623
59380,42625
59370,42625
59114,42625
59105,42625
59095,42623
59086,42621
59077,42618
59068,42613
59060,42609
59052,42603
59045,42596
59038,42589
59033,42581
59028,42573
59024,42564
59020,42555
59018,42546
59017,42536
59016,42527
59016,42172
59017,42163
59018,42153
59020,42144
59024,42135
59028,42126
59033,42118
59038,42110
59045,42103
59052,42096
59060,42090
59068,42086
59077,42081
59086,42078
59095,42076
59105,42074
59114,42074
59370,42074
59380,42074
Z" /> 
<path style="fill:#000000; fill-opacity:1.0; 
stroke:#000000; stroke-width:0; stroke-opacity:1; 
stroke-linecap:round; stroke-linejoin:round;fill-rule:evenodd;"
d="M 60187,42074
60197,42076
60206,42078
60215,42081
60224,42086
60232,42090
60240,42096
60247,42103
60254,42110
60259,42118
60264,42126
60268,42135
60272,42144
60274,42153
60275,42163
60276,42172
60276,42527
60275,42536
60274,42546
60272,42555
60268,42564
60264,42573
60259,42581
60254,42589
60247,42596
60240,42603
60232,42609
60224,42613
60215,42618
60206,42621
60197,42623
60187,42625
60177,42625
59922,42625
59912,42625
59902,42623
59893,42621
59884,42618
59875,42613
59867,42609
59859,42603
59852,42596
59845,42589
59840,42581
59835,42573
59831,42564
59827,42555
59825,42546
59824,42536
59823,42527
59823,42172
59824,42163
59825,42153
59827,42144
59831,42135
59835,42126
59840,42118
59845,42110
59852,42103
59859,42096
59867,42090
59875,42086
59884,42081
59893,42078
59902,42076
59912,42074
59922,42074
60177,42074
60187,42074
Z" /> 
</g>
<g >
</g>
<g >
</g>
<g >
</g>
<g >
</g>
<g style="fill:#000000; fill-opacity:1.0; 
stroke:#000000; stroke-width:0; stroke-opacity:1; 
stroke-linecap:round; stroke-linejoin:round;">
<path style="fill:#000000; fill-opacity:1.0; 
stroke:#000000; stroke-width:0; stroke-opacity:1; 
stroke-linecap:round; stroke-linejoin:round;fill-rule:evenodd;"
d="M 63800,35000
63800,33000
64750,33000
64750,35000
63800,35000
Z" /> 
<path style="fill:#000000; fill-opacity:1.0; 
stroke:#000000; stroke-width:0; stroke-opacity:1; 
stroke-linecap:round; stroke-linejoin:round;fill-rule:evenodd;"
d="M 67250,35000
67250,33000
68200,33000
68200,35000
67250,35000
Z" /> 
</g>
<g >
</g>
<g style="fill:#000000; fill-opacity:1.0; 
stroke:#000000; stroke-width:0; stroke-opacity:1; 
stroke-linecap:round; stroke-linejoin:round;">
<path style="fill:#000000; fill-opacity:1.0; 
stroke:#000000; stroke-width:0; stroke-opacity:1; 
stroke-linecap:round; stroke-linejoin:round;fill-rule:evenodd;"
d="M 57800,35000
57800,33000
58750,33000
58750,35000
57800,35000
Z" /> 
<path style="fill:#000000; fill-opacity:1.0; 
stroke:#000000; stroke-width:0; stroke-opacity:1; 
stroke-linecap:round; stroke-linejoin:round;fill-rule:evenodd;"
d="M 61250,35000
61250,33000
62200,33000
62200,35000
61250,35000
Z" /> 
</g>
<g >
</g>
<g >
</g>
<g style="fill:#000000; fill-opacity:1.0; 
stroke:#000000; stroke-width:0; stroke-opacity:1; 
stroke-linecap:round; stroke-linejoin:round;">
<path style="fill:#000000; fill-opacity:1.0; 
stroke:#000000; stroke-width:0; stroke-opacity:1; 
stroke-linecap:round; stroke-linejoin:round;fill-rule:evenodd;"
d="M 65183,46358
65183,46460
64927,46460
64927,46358
65183,46358
Z" /> 
<path style="fill:#000000; fill-opacity:1.0; 
stroke:#000000; stroke-width:0; stroke-opacity:1; 
stroke-linecap:round; stroke-linejoin:round;fill-rule:evenodd;"
d="M 65005,46358
65005,47263
64907,47263
64907,46358
65005,46358
Z" /> 
<path style="fill:#000000; fill-opacity:1.0; 
stroke:#000000; stroke-width:0; stroke-opacity:1; 
stroke-linecap:round; stroke-linejoin:round;fill-rule:evenodd;"
d="M 61549,44468
61549,44803
61368,44803
61368,44468
61549,44468
Z" /> 
<path style="fill:#000000; fill-opacity:1.0; 
stroke:#000000; stroke-width:0; stroke-opacity:1; 
stroke-linecap:round; stroke-linejoin:round;fill-rule:evenodd;"
d="M 61706,44468
61706,44803
61616,44803
61616,44468
61706,44468
Z" /> 
<path style="fill:#000000; fill-opacity:1.0; 
stroke:#000000; stroke-width:0; stroke-opacity:1; 
stroke-linecap:round; stroke-linejoin:round;fill-rule:evenodd;"
d="M 61864,44468
61864,44803
61773,44803
61773,44468
61864,44468
Z" /> 
<path style="fill:#000000; fill-opacity:1.0; 
stroke:#000000; stroke-width:0; stroke-opacity:1; 
stroke-linecap:round; stroke-linejoin:round;fill-rule:evenodd;"
d="M 62021,44468
62021,44803
61931,44803
61931,44468
62021,44468
Z" /> 
<path style="fill:#000000; fill-opacity:1.0; 
stroke:#000000; stroke-width:0; stroke-opacity:1; 
stroke-linecap:round; stroke-linejoin:round;fill-rule:evenodd;"
d="M 62179,44468
62179,44803
62088,44803
62088,44468
62179,44468
Z" /> 
<path style="fill:#000000; fill-opacity:1.0; 
stroke:#000000; stroke-width:0; stroke-opacity:1; 
stroke-linecap:round; stroke-linejoin:round;fill-rule:evenodd;"
d="M 62336,44468
62336,44803
62246,44803
62246,44468
62336,44468
Z" /> 
<path style="fill:#000000; fill-opacity:1.0; 
stroke:#000000; stroke-width:0; stroke-opacity:1; 
stroke-linecap:round; stroke-linejoin:round;fill-rule:evenodd;"
d="M 62494,44468
62494,44803
62403,44803
62403,44468
62494,44468
Z" /> 
<path style="fill:#000000; fill-opacity:1.0; 
stroke:#000000; stroke-width:0; stroke-opacity:1; 
stroke-linecap:round; stroke-linejoin:round;fill-rule:evenodd;"
d="M 62651,44468
62651,44803
62561,44803
62561,44468
62651,44468
Z" /> 
<path style="fill:#000000; fill-opacity:1.0; 
stroke:#000000; stroke-width:0; stroke-opacity:1; 
stroke-linecap:round; stroke-linejoin:round;fill-rule:evenodd;"
d="M 62809,44468
62809,44803
62718,44803
62718,44468
62809,44468
Z" /> 
<path style="fill:#000000; fill-opacity:1.0; 
stroke:#000000; stroke-width:0; stroke-opacity:1; 
stroke-linecap:round; stroke-linejoin:round;fill-rule:evenodd;"
d="M 62966,44468
62966,44803
62875,44803
62875,44468
62966,44468
Z" /> 
<path style="fill:#000000; fill-opacity:1.0; 
stroke:#000000; stroke-width:0; stroke-opacity:1; 
stroke-linecap:round; stroke-linejoin:round;fill-rule:evenodd;"
d="M 63124,44468
63124,44803
63033,44803
63033,44468
63124,44468
Z" /> 
<path style="fill:#000000; fill-opacity:1.0; 
stroke:#000000; stroke-width:0; stroke-opacity:1; 
stroke-linecap:round; stroke-linejoin:round;fill-rule:evenodd;"
d="M 63281,44468
63281,44803
63190,44803
63190,44468
63281,44468
Z" /> 
<path style="fill:#000000; fill-opacity:1.0; 
stroke:#000000; stroke-width:0; stroke-opacity:1; 
stroke-linecap:round; stroke-linejoin:round;fill-rule:evenodd;"
d="M 63438,44468
63438,44803
63348,44803
63348,44468
63438,44468
Z" /> 
<path style="fill:#000000; fill-opacity:1.0; 
stroke:#000000; stroke-width:0; stroke-opacity:1; 
stroke-linecap:round; stroke-linejoin:round;fill-rule:evenodd;"
d="M 63596,44468
63596,44803
63505,44803
63505,44468
63596,44468
Z" /> 
<path style="fill:#000000; fill-opacity:1.0; 
stroke:#000000; stroke-width:0; stroke-opacity:1; 
stroke-linecap:round; stroke-linejoin:round;fill-rule:evenodd;"
d="M 63753,44468
63753,44803
63663,44803
63663,44468
63753,44468
Z" /> 
<path style="fill:#000000; fill-opacity:1.0; 
stroke:#000000; stroke-width:0; stroke-opacity:1; 
stroke-linecap:round; stroke-linejoin:round;fill-rule:evenodd;"
d="M 63911,44468
63911,44803
63820,44803
63820,44468
63911,44468
Z" /> 
<path style="fill:#000000; fill-opacity:1.0; 
stroke:#000000; stroke-width:0; stroke-opacity:1; 
stroke-linecap:round; stroke-linejoin:round;fill-rule:evenodd;"
d="M 64068,44468
64068,44803
63978,44803
63978,44468
64068,44468
Z" /> 
<path style="fill:#000000; fill-opacity:1.0; 
stroke:#000000; stroke-width:0; stroke-opacity:1; 
stroke-linecap:round; stroke-linejoin:round;fill-rule:evenodd;"
d="M 64226,44468
64226,44803
64135,44803
64135,44468
64226,44468
Z" /> 
<path style="fill:#000000; fill-opacity:1.0; 
stroke:#000000; stroke-width:0; stroke-opacity:1; 
stroke-linecap:round; stroke-linejoin:round;fill-rule:evenodd;"
d="M 64631,44468
64631,44803
64450,44803
64450,44468
64631,44468
Z" /> 
<path style="fill:#000000; fill-opacity:1.0; 
stroke:#000000; stroke-width:0; stroke-opacity:1; 
stroke-linecap:round; stroke-linejoin:round;fill-rule:evenodd;"
d="M 64383,44468
64383,44803
64293,44803
64293,44468
64383,44468
Z" /> 
<path style="fill:#000000; fill-opacity:1.0; 
stroke:#000000; stroke-width:0; stroke-opacity:1; 
stroke-linecap:round; stroke-linejoin:round;fill-rule:evenodd;"
d="M 65183,47161
65183,47263
64927,47263
64927,47161
65183,47161
Z" /> 
<path style="fill:#000000; fill-opacity:1.0; 
stroke:#000000; stroke-width:0; stroke-opacity:1; 
stroke-linecap:round; stroke-linejoin:round;fill-rule:evenodd;"
d="M 61092,46358
61092,47263
60994,47263
60994,46358
61092,46358
Z" /> 
<path style="fill:#000000; fill-opacity:1.0; 
stroke:#000000; stroke-width:0; stroke-opacity:1; 
stroke-linecap:round; stroke-linejoin:round;fill-rule:evenodd;"
d="M 61092,46358
61092,46460
60836,46460
60836,46358
61092,46358
Z" /> 
<path style="fill:#000000; fill-opacity:1.0; 
stroke:#000000; stroke-width:0; stroke-opacity:1; 
stroke-linecap:round; stroke-linejoin:round;fill-rule:evenodd;"
d="M 61092,47161
61092,47263
60836,47263
60836,47161
61092,47161
Z" /> 
</g>
<g >
</g>
<g >
</g>
<g style="fill:#000000; fill-opacity:1.0; 
stroke:#000000; stroke-width:0; stroke-opacity:1; 
stroke-linecap:round; stroke-linejoin:round;">
<path style="fill:#000000; fill-opacity:1.0; 
stroke:#000000; stroke-width:0; stroke-opacity:1; 
stroke-linecap:round; stroke-linejoin:round;fill-rule:evenodd;"
d="M 66347,38094
66357,38096
66366,38098
66375,38101
66384,38106
66392,38110
66400,38116
66407,38123
66414,38130
66419,38138
66424,38146
66428,38155
66432,38164
66434,38173
66435,38183
66436,38192
66436,38547
66435,38556
66434,38566
66432,38575
66428,38584
66424,38593
66419,38601
66414,38609
66407,38616
66400,38623
66392,38629
66384,38633
66375,38638
66366,38641
66357,38643
66347,38645
66337,38645
66082,38645
66072,38645
66062,38643
66053,38641
66044,38638
66035,38633
66027,38629
66019,38623
66012,38616
66005,38609
66000,38601
65995,38593
65991,38584
65987,38575
65985,38566
65984,38556
65983,38547
65983,38192
65984,38183
65985,38173
65987,38164
65991,38155
65995,38146
66000,38138
66005,38130
66012,38123
66019,38116
66027,38110
66035,38106
66044,38101
66053,38098
66062,38096
66072,38094
66082,38094
66337,38094
66347,38094
Z" /> 
<path style="fill:#000000; fill-opacity:1.0; 
stroke:#000000; stroke-width:0; stroke-opacity:1; 
stroke-linecap:round; stroke-linejoin:round;fill-rule:evenodd;"
d="M 65540,38094
65550,38096
65559,38098
65568,38101
65577,38106
65585,38110
65593,38116
65600,38123
65606,38130
65612,38138
65617,38146
65621,38155
65625,38164
65627,38173
65628,38183
65629,38192
65629,38547
65628,38556
65627,38566
65625,38575
65621,38584
65617,38593
65612,38601
65606,38609
65600,38616
65593,38623
65585,38629
65577,38633
65568,38638
65559,38641
65550,38643
65540,38645
65530,38645
65274,38645
65265,38645
65255,38643
65246,38641
65237,38638
65228,38633
65220,38629
65212,38623
65205,38616
65198,38609
65193,38601
65188,38593
65184,38584
65180,38575
65178,38566
65177,38556
65176,38547
65176,38192
65177,38183
65178,38173
65180,38164
65184,38155
65188,38146
65193,38138
65198,38130
65205,38123
65212,38116
65220,38110
65228,38106
65237,38101
65246,38098
65255,38096
65265,38094
65274,38094
65530,38094
65540,38094
Z" /> 
</g>
<g >
</g>
<g >
</g>
<g style="fill:#000000; fill-opacity:1.0; 
stroke:#000000; stroke-width:0; stroke-opacity:1; 
stroke-linecap:round; stroke-linejoin:round;">
<path style="fill:#000000; fill-opacity:1.0; 
stroke:#000000; stroke-width:0; stroke-opacity:1; 
stroke-linecap:round; stroke-linejoin:round;fill-rule:evenodd;"
d="M 65367,43454
65377,43456
65386,43458
65395,43461
65404,43466
65412,43470
65420,43476
65427,43483
65434,43490
65439,43498
65444,43506
65448,43515
65452,43524
65454,43533
65455,43543
65456,43552
65456,43907
65455,43916
65454,43926
65452,43935
65448,43944
65444,43953
65439,43961
65434,43969
65427,43976
65420,43983
65412,43989
65404,43993
65395,43998
65386,44001
65377,44003
65367,44005
65357,44005
65102,44005
65092,44005
65082,44003
65073,44001
65064,43998
65055,43993
65047,43989
65039,43983
65032,43976
65025,43969
65020,43961
65015,43953
65011,43944
65007,43935
65005,43926
65004,43916
65003,43907
65003,43552
65004,43543
65005,43533
65007,43524
65011,43515
65015,43506
65020,43498
65025,43490
65032,43483
65039,43476
65047,43470
65055,43466
65064,43461
65073,43458
65082,43456
65092,43454
65102,43454
65357,43454
65367,43454
Z" /> 
<path style="fill:#000000; fill-opacity:1.0; 
stroke:#000000; stroke-width:0; stroke-opacity:1; 
stroke-linecap:round; stroke-linejoin:round;fill-rule:evenodd;"
d="M 64560,43454
64570,43456
64579,43458
64588,43461
64597,43466
64605,43470
64613,43476
64620,43483
64626,43490
64632,43498
64637,43506
64641,43515
64645,43524
64647,43533
64648,43543
64649,43552
64649,43907
64648,43916
64647,43926
64645,43935
64641,43944
64637,43953
64632,43961
64626,43969
64620,43976
64613,43983
64605,43989
64597,43993
64588,43998
64579,44001
64570,44003
64560,44005
64550,44005
64294,44005
64285,44005
64275,44003
64266,44001
64257,43998
64248,43993
64240,43989
64232,43983
64225,43976
64218,43969
64213,43961
64208,43953
64204,43944
64200,43935
64198,43926
64197,43916
64196,43907
64196,43552
64197,43543
64198,43533
64200,43524
64204,43515
64208,43506
64213,43498
64218,43490
64225,43483
64232,43476
64240,43470
64248,43466
64257,43461
64266,43458
64275,43456
64285,43454
64294,43454
64550,43454
64560,43454
Z" /> 
</g>
<g >
</g>
<g >
</g>
<g >
</g>
</g> 
</svg>
