<?xml version="1.0" standalone="no"?>
 <!DOCTYPE svg PUBLIC "-//W3C//DTD SVG 1.1//EN" 
 "http://www.w3.org/Graphics/SVG/1.1/DTD/svg11.dtd"> 
<svg xmlns="http://www.w3.org/2000/svg" version="1.1" 
    width="29.7002cm" height="21.0007cm" viewBox="0 0 116930 82680 ">
<title>SVG Picture created as neo8_adapter-B_SilkS.svg date 2020/02/13 12:15:50 </title>
  <desc>Picture generated by PCBNEW </desc>
<g style="fill:#000000; fill-opacity:1;stroke:#000000; stroke-opacity:1;
stroke-linecap:round; stroke-linejoin:round; "
 transform="translate(0 0) scale(1 1)">
</g>
<g style="fill:#000000; fill-opacity:0.0; 
stroke:#000000; stroke-width:-0.000393701; stroke-opacity:1; 
stroke-linecap:round; stroke-linejoin:round;">
</g>
<g style="fill:#000000; fill-opacity:0.0; 
stroke:#000000; stroke-width:62.9921; stroke-opacity:1; 
stroke-linecap:round; stroke-linejoin:round;">
<path d="M60055 47098
L60055 46704
" />
<path d="M60055 46891
L59830 46891
" />
<path d="M59830 47098
L59830 46704
" />
<path d="M59680 46704
L59586 47098
L59511 46816
L59436 47098
L59343 46704
" />
<path d="M58893 47098
L58893 46835
" />
<path d="M58893 46910
L58874 46873
L58855 46854
L58818 46835
L58780 46835
" />
<path d="M58499 47079
L58536 47098
L58611 47098
L58649 47079
L58668 47041
L58668 46891
L58649 46854
L58611 46835
L58536 46835
L58499 46854
L58480 46891
L58480 46929
L58668 46966
" />
<path d="M58349 46835
L58255 47098
L58161 46835
" />
<path d="M57505 47098
L57730 47098
" />
<path d="M57618 47098
L57618 46704
L57655 46760
L57693 46798
L57730 46816
" />
<path d="M63419 35668
L63419 35931
" />
<path d="M63588 35668
L63588 35875
L63569 35912
L63532 35931
L63475 35931
L63438 35912
L63419 35893
" />
<path d="M63100 35725
L63044 35743
L63025 35762
L63007 35800
L63007 35856
L63025 35893
L63044 35912
L63082 35931
L63232 35931
L63232 35537
L63100 35537
L63063 35556
L63044 35575
L63025 35612
L63025 35650
L63044 35687
L63063 35706
L63100 35725
L63232 35725
" />
<path d="M62782 35931
L62819 35912
L62838 35875
L62838 35537
" />
<path d="M62576 35931
L62613 35912
L62632 35893
L62651 35856
L62651 35743
L62632 35706
L62613 35687
L62576 35668
L62519 35668
L62482 35687
L62463 35706
L62444 35743
L62444 35856
L62463 35893
L62482 35912
L62519 35931
L62576 35931
" />
<path d="M62313 35931
L62107 35668
" />
<path d="M62313 35668
L62107 35931
" />
<path d="M61657 35931
L61657 35537
L61432 35931
L61432 35537
" />
<path d="M61244 35725
L61113 35725
" />
<path d="M61057 35931
L61244 35931
L61244 35537
L61057 35537
" />
<path d="M60813 35537
L60738 35537
L60701 35556
L60663 35593
L60645 35668
L60645 35800
L60663 35875
L60701 35912
L60738 35931
L60813 35931
L60851 35912
L60888 35875
L60907 35800
L60907 35668
L60888 35593
L60851 35556
L60813 35537
" />
<path d="M60476 35781
L60176 35781
" />
<path d="M59932 35706
L59970 35687
L59988 35668
L60007 35631
L60007 35612
L59988 35575
L59970 35556
L59932 35537
L59857 35537
L59820 35556
L59801 35575
L59782 35612
L59782 35631
L59801 35668
L59820 35687
L59857 35706
L59932 35706
L59970 35725
L59988 35743
L60007 35781
L60007 35856
L59988 35893
L59970 35912
L59932 35931
L59857 35931
L59820 35912
L59801 35893
L59782 35856
L59782 35781
L59801 35743
L59820 35725
L59857 35706
" />
<path d="M59351 35968
L59388 35950
L59426 35912
L59482 35856
L59520 35837
L59557 35837
" />
<path d="M59538 35931
L59576 35912
L59613 35875
L59632 35800
L59632 35668
L59613 35593
L59576 35556
L59538 35537
L59463 35537
L59426 35556
L59388 35593
L59370 35668
L59370 35800
L59388 35875
L59426 35912
L59463 35931
L59538 35931
" />
<path d="M58920 35518
L59257 36025
" />
<path d="M58789 35931
L58789 35537
L58657 35818
L58526 35537
L58526 35931
" />
<path d="M58282 35706
L58320 35687
L58339 35668
L58357 35631
L58357 35612
L58339 35575
L58320 35556
L58282 35537
L58207 35537
L58170 35556
L58151 35575
L58132 35612
L58132 35631
L58151 35668
L58170 35687
L58207 35706
L58282 35706
L58320 35725
L58339 35743
L58357 35781
L58357 35856
L58339 35893
L58320 35912
L58282 35931
L58207 35931
L58170 35912
L58151 35893
L58132 35856
L58132 35781
L58151 35743
L58170 35725
L58207 35706
" />
<path d="M62922 36734
L62941 36716
L62979 36659
L62997 36622
L63016 36566
L63035 36472
L63035 36397
L63016 36303
L62997 36247
L62979 36209
L62941 36153
L62922 36134
" />
<path d="M62604 36566
L62641 36584
L62716 36584
L62754 36566
L62772 36547
L62791 36509
L62791 36397
L62772 36359
L62754 36341
L62716 36322
L62641 36322
L62604 36341
" />
<path d="M62472 36734
L62454 36716
L62416 36659
L62397 36622
L62379 36566
L62360 36472
L62360 36397
L62379 36303
L62397 36247
L62416 36209
L62454 36153
L62472 36134
" />
<path d="M62191 36228
L62172 36209
L62135 36191
L62041 36191
L62004 36209
L61985 36228
L61966 36266
L61966 36303
L61985 36359
L62210 36584
L61966 36584
" />
<path d="M61723 36191
L61685 36191
L61648 36209
L61629 36228
L61610 36266
L61591 36341
L61591 36434
L61610 36509
L61629 36547
L61648 36566
L61685 36584
L61723 36584
L61760 36566
L61779 36547
L61798 36509
L61816 36434
L61816 36341
L61798 36266
L61779 36228
L61760 36209
L61723 36191
" />
<path d="M61441 36228
L61423 36209
L61385 36191
L61291 36191
L61254 36209
L61235 36228
L61216 36266
L61216 36303
L61235 36359
L61460 36584
L61216 36584
" />
<path d="M60973 36191
L60935 36191
L60898 36209
L60879 36228
L60860 36266
L60841 36341
L60841 36434
L60860 36509
L60879 36547
L60898 36566
L60935 36584
L60973 36584
L61010 36566
L61029 36547
L61048 36509
L61066 36434
L61066 36341
L61048 36266
L61029 36228
L61010 36209
L60973 36191
" />
<path d="M60373 36584
L60373 36191
" />
<path d="M60148 36584
L60316 36359
" />
<path d="M60148 36191
L60373 36416
" />
<path d="M59923 36359
L59960 36341
L59979 36322
L59998 36284
L59998 36266
L59979 36228
L59960 36209
L59923 36191
L59848 36191
L59810 36209
L59792 36228
L59773 36266
L59773 36284
L59792 36322
L59810 36341
L59848 36359
L59923 36359
L59960 36378
L59979 36397
L59998 36434
L59998 36509
L59979 36547
L59960 36566
L59923 36584
L59848 36584
L59810 36566
L59792 36547
L59773 36509
L59773 36434
L59792 36397
L59810 36378
L59848 36359
" />
<path d="M59660 36191
L59435 36191
" />
<path d="M59548 36584
L59548 36191
" />
<path d="M59079 36584
L59210 36397
" />
<path d="M59304 36584
L59304 36191
L59154 36191
L59117 36209
L59098 36228
L59079 36266
L59079 36322
L59098 36359
L59117 36378
L59154 36397
L59304 36397
" />
<path d="M58685 36547
L58704 36566
L58760 36584
L58798 36584
L58854 36566
L58892 36528
L58910 36491
L58929 36416
L58929 36359
L58910 36284
L58892 36247
L58854 36209
L58798 36191
L58760 36191
L58704 36209
L58685 36228
" />
</g>
<g style="fill:#000000; fill-opacity:1.0; 
stroke:#000000; stroke-width:3.93701; stroke-opacity:1; 
stroke-linecap:round; stroke-linejoin:round;">
<path style="fill:#000000; fill-opacity:1.0; 
stroke:#000000; stroke-width:3.93701; stroke-opacity:1; 
stroke-linecap:round; stroke-linejoin:round;fill-rule:evenodd;"
d="M 60029,36764
59998,36764
59975,36764
59960,36765
59950,36767
59945,36769
59942,36772
59941,36776
59941,36777
59939,36786
59935,36805
59930,36831
59925,36862
59918,36897
59918,36898
59911,36932
59905,36962
59900,36986
59896,37002
59894,37010
59894,37010
59887,37013
59872,37019
59852,37026
59852,37026
59828,37036
59800,37047
59773,37059
59771,37059
59727,37079
59630,37013
59601,36993
59574,36975
59551,36960
59534,36949
59525,36944
59524,36943
59518,36945
59505,36954
59486,36970
59461,36994
59435,37019
59410,37044
59387,37067
59369,37086
59355,37100
59349,37108
59349,37108
59348,37114
59351,37122
59357,37136
59369,37155
59386,37180
59408,37214
59428,37243
59446,37270
59461,37291
59471,37307
59477,37315
59477,37316
59476,37324
59471,37339
59463,37358
59460,37364
59448,37392
59434,37424
59423,37451
59415,37471
59409,37487
59405,37495
59405,37495
59398,37496
59382,37499
59359,37503
59331,37508
59301,37514
59270,37520
59240,37526
59213,37531
59193,37535
59180,37538
59177,37539
59173,37540
59171,37545
59169,37553
59168,37566
59167,37586
59167,37614
59167,37651
59167,37667
59167,37792
59197,37797
59213,37801
59238,37805
59268,37811
59301,37817
59310,37819
59339,37824
59365,37830
59385,37835
59397,37839
59399,37840
59404,37848
59410,37864
59418,37885
59420,37890
59430,37917
59442,37948
59454,37976
59454,37976
59474,38020
59408,38118
59341,38216
59427,38301
59453,38327
59476,38349
59496,38367
59511,38380
59520,38386
59521,38387
59529,38384
59544,38375
59565,38362
59591,38345
59618,38327
59646,38308
59672,38291
59692,38278
59706,38270
59712,38267
59720,38269
59735,38276
59754,38285
59755,38287
59781,38299
59798,38305
59808,38305
59814,38300
59814,38300
59817,38293
59823,38277
59833,38252
59846,38221
59861,38185
59878,38144
59895,38104
59913,38061
59929,38020
59944,37984
59956,37954
59965,37931
59971,37915
59972,37910
59968,37903
59956,37893
59941,37881
59898,37845
59863,37804
59839,37758
59825,37708
59822,37656
59825,37632
59837,37582
59858,37538
59886,37501
59921,37470
59960,37446
60003,37429
60049,37421
60095,37421
60141,37430
60185,37448
60227,37476
60244,37492
60277,37533
60301,37577
60314,37624
60317,37672
60311,37720
60295,37766
60270,37810
60236,37850
60198,37881
60182,37893
60171,37904
60167,37910
60169,37916
60175,37932
60184,37956
60197,37987
60211,38024
60228,38065
60244,38104
60263,38148
60279,38189
60294,38225
60307,38255
60316,38279
60323,38294
60325,38300
60331,38305
60341,38305
60358,38299
60383,38287
60384,38287
60402,38277
60418,38270
60426,38267
60427,38267
60433,38270
60447,38278
60468,38291
60493,38308
60521,38327
60549,38346
60575,38362
60596,38375
60611,38384
60618,38387
60624,38383
60638,38372
60656,38355
60679,38334
60704,38309
60712,38301
60798,38215
60733,38120
60713,38091
60696,38064
60682,38043
60672,38027
60668,38019
60668,38018
60670,38011
60676,37995
60685,37974
60691,37961
60702,37934
60713,37908
60722,37885
60724,37878
60730,37860
60737,37846
60740,37840
60748,37837
60765,37832
60788,37827
60817,37821
60830,37819
60862,37813
60893,37807
60919,37802
60939,37798
60942,37797
60972,37792
60972,37667
60972,37626
60972,37594
60971,37572
60970,37557
60969,37547
60967,37542
60964,37539
60962,37539
60955,37537
60939,37534
60915,37529
60887,37524
60857,37518
60825,37512
60796,37506
60770,37501
60750,37498
60737,37496
60734,37495
60732,37490
60726,37477
60719,37458
60716,37451
60705,37422
60691,37391
60679,37364
60670,37344
60664,37327
60662,37317
60662,37316
60666,37309
60676,37295
60690,37274
60707,37249
60727,37220
60731,37214
60754,37180
60770,37154
60782,37135
60788,37122
60791,37114
60790,37108
60790,37108
60785,37101
60772,37088
60754,37069
60732,37046
60707,37022
60704,37019
60673,36988
60649,36966
60631,36952
60620,36944
60615,36943
60607,36947
60592,36957
60571,36971
60545,36988
60515,37008
60509,37013
60412,37079
60368,37059
60341,37048
60312,37036
60288,37027
60287,37026
60267,37019
60253,37013
60245,37010
60245,37010
60243,37003
60239,36987
60234,36964
60228,36934
60222,36901
60221,36898
60215,36863
60209,36832
60204,36806
60200,36787
60198,36777
60198,36777
60197,36772
60194,36769
60189,36767
60180,36765
60166,36765
60144,36764
60114,36764
60075,36764
60070,36764
60029,36764
Z" /> 
<path style="fill:#000000; fill-opacity:1.0; 
stroke:#000000; stroke-width:3.93701; stroke-opacity:1; 
stroke-linecap:round; stroke-linejoin:round;fill-rule:evenodd;"
d="M 58828,38624
58805,38639
58794,38652
58786,38676
58785,38695
58787,38720
58845,38746
58874,38759
58892,38770
58902,38779
58904,38788
58898,38797
58892,38804
58875,38814
58856,38815
58839,38807
58826,38791
58824,38785
58813,38767
58801,38760
58784,38753
58784,38778
58785,38794
58791,38809
58804,38825
58805,38827
58819,38841
58831,38849
58846,38852
58858,38854
58880,38854
58896,38850
58906,38845
58921,38833
58932,38820
58939,38804
58942,38782
58944,38752
58944,38736
58943,38718
58909,38718
58908,38728
58907,38730
58901,38727
58887,38722
58868,38713
58864,38712
58840,38699
58827,38689
58824,38679
58831,38669
58836,38664
58857,38655
58876,38657
58893,38668
58904,38687
58907,38702
58909,38718
58943,38718
58943,38701
58940,38674
58935,38655
58926,38641
58913,38630
58908,38626
58882,38617
58855,38616
58828,38624
Z" /> 
<path style="fill:#000000; fill-opacity:1.0; 
stroke:#000000; stroke-width:3.93701; stroke-opacity:1; 
stroke-linecap:round; stroke-linejoin:round;fill-rule:evenodd;"
d="M 59025,38621
59018,38624
59002,38637
58988,38655
58979,38675
58978,38685
58983,38699
58993,38706
59004,38710
59009,38711
59012,38705
59017,38692
59019,38687
59031,38667
59048,38657
59070,38657
59072,38657
59084,38663
59093,38674
59099,38692
59102,38717
59104,38753
59104,38771
59104,38801
59104,38821
59106,38834
59108,38841
59112,38845
59118,38848
59118,38849
59130,38853
59135,38855
59136,38850
59137,38835
59138,38812
59138,38784
59138,38764
59138,38724
59136,38693
59134,38671
59129,38654
59122,38642
59112,38633
59102,38626
59078,38618
59051,38616
59025,38621
Z" /> 
<path style="fill:#000000; fill-opacity:1.0; 
stroke:#000000; stroke-width:3.93701; stroke-opacity:1; 
stroke-linecap:round; stroke-linejoin:round;fill-rule:evenodd;"
d="M 59225,38620
59209,38627
59196,38636
59186,38646
59180,38659
59176,38677
59173,38702
59172,38735
59172,38757
59172,38842
59187,38849
59198,38853
59204,38855
59205,38850
59206,38836
59207,38815
59207,38798
59207,38774
59208,38755
59210,38743
59212,38741
59222,38743
59238,38750
59256,38759
59274,38768
59288,38777
59294,38782
59294,38783
59293,38793
59288,38804
59280,38812
59267,38815
59256,38814
59241,38814
59233,38818
59228,38827
59228,38829
59226,38842
59231,38851
59246,38854
59262,38855
59290,38850
59304,38842
59322,38824
59332,38802
59333,38779
59325,38757
59313,38744
59300,38736
59281,38727
59259,38717
59255,38715
59231,38705
59217,38695
59212,38686
59217,38675
59224,38667
59241,38656
59260,38656
59277,38664
59290,38679
59291,38683
59301,38698
59315,38709
59332,38718
59332,38693
59331,38677
59327,38664
59317,38651
59308,38641
59293,38627
59282,38619
59269,38616
59255,38615
59225,38620
Z" /> 
<path style="fill:#000000; fill-opacity:1.0; 
stroke:#000000; stroke-width:3.93701; stroke-opacity:1; 
stroke-linecap:round; stroke-linejoin:round;fill-rule:evenodd;"
d="M 59369,38621
59368,38636
59367,38659
59367,38687
59367,38718
59367,38820
59385,38838
59397,38849
59408,38854
59423,38854
59429,38853
59448,38851
59463,38849
59467,38849
59479,38850
59497,38852
59504,38853
59521,38854
59533,38851
59544,38842
59549,38838
59567,38820
59567,38628
59552,38622
59540,38617
59532,38615
59530,38621
59529,38636
59527,38659
59526,38689
59525,38714
59524,38812
59510,38814
59498,38813
59492,38809
59490,38800
59489,38783
59487,38759
59487,38729
59487,38714
59487,38628
59469,38621
59456,38617
59449,38615
59449,38615
59448,38621
59447,38636
59447,38658
59446,38687
59445,38714
59444,38812
59410,38812
59408,38722
59406,38633
59390,38624
59377,38618
59370,38615
59370,38615
59369,38621
Z" /> 
<path style="fill:#000000; fill-opacity:1.0; 
stroke:#000000; stroke-width:3.93701; stroke-opacity:1; 
stroke-linecap:round; stroke-linejoin:round;fill-rule:evenodd;"
d="M 59601,38663
59601,38705
59601,38738
59602,38763
59603,38781
59605,38793
59607,38803
59610,38810
59612,38814
59632,38836
59656,38850
59684,38855
59711,38850
59727,38842
59744,38828
59756,38811
59763,38788
59766,38757
59767,38735
59767,38734
59727,38734
59726,38759
59725,38776
59723,38787
59718,38795
59713,38801
59694,38813
59674,38814
59656,38804
59654,38803
59648,38796
59644,38788
59642,38776
59641,38757
59641,38736
59641,38710
59642,38692
59645,38681
59650,38673
59653,38668
59671,38657
59691,38656
59710,38665
59713,38668
59720,38675
59724,38683
59726,38695
59727,38714
59727,38734
59767,38734
59765,38699
59761,38672
59752,38652
59738,38636
59727,38628
59708,38619
59685,38615
59664,38616
59652,38621
59648,38622
59645,38617
59643,38605
59641,38586
59639,38565
59637,38552
59632,38545
59624,38540
59620,38538
59601,38530
59601,38663
Z" /> 
<path style="fill:#000000; fill-opacity:1.0; 
stroke:#000000; stroke-width:3.93701; stroke-opacity:1; 
stroke-linecap:round; stroke-linejoin:round;fill-rule:evenodd;"
d="M 59861,38617
59835,38627
59814,38644
59806,38656
59797,38677
59797,38693
59806,38704
59810,38706
59825,38711
59832,38710
59835,38700
59835,38695
59840,38676
59852,38662
59870,38656
59889,38658
59905,38666
59910,38671
59914,38677
59916,38686
59918,38700
59919,38720
59920,38750
59920,38760
59921,38792
59922,38815
59923,38830
59925,38839
59928,38844
59933,38847
59936,38849
59949,38854
59956,38855
59959,38850
59960,38834
59961,38807
59960,38768
59960,38762
59959,38727
59958,38702
59957,38684
59955,38671
59951,38662
59947,38654
59945,38651
59932,38636
59917,38625
59915,38624
59889,38616
59861,38617
Z" /> 
<path style="fill:#000000; fill-opacity:1.0; 
stroke:#000000; stroke-width:3.93701; stroke-opacity:1; 
stroke-linecap:round; stroke-linejoin:round;fill-rule:evenodd;"
d="M 60054,38618
60031,38626
60031,38626
60017,38636
60007,38648
60000,38664
59995,38685
59992,38713
59991,38751
59991,38756
59988,38837
60006,38846
60018,38852
60026,38855
60026,38855
60028,38850
60029,38836
60029,38815
60030,38798
60030,38770
60031,38753
60035,38745
60044,38744
60061,38751
60085,38762
60103,38772
60112,38780
60115,38789
60115,38789
60111,38805
60097,38813
60077,38814
60062,38814
60055,38818
60050,38828
60047,38841
60051,38849
60053,38850
60067,38854
60087,38855
60107,38852
60122,38847
60142,38830
60153,38806
60155,38787
60153,38771
60147,38757
60135,38745
60115,38733
60086,38719
60084,38719
60057,38706
60041,38696
60034,38687
60036,38678
60045,38668
60048,38665
60066,38656
60085,38656
60102,38665
60113,38682
60114,38686
60124,38702
60137,38710
60155,38718
60155,38698
60150,38668
60133,38642
60124,38633
60105,38621
60080,38616
60054,38618
Z" /> 
<path style="fill:#000000; fill-opacity:1.0; 
stroke:#000000; stroke-width:3.93701; stroke-opacity:1; 
stroke-linecap:round; stroke-linejoin:round;fill-rule:evenodd;"
d="M 60315,38578
60314,38602
60312,38615
60309,38621
60305,38622
60304,38621
60287,38616
60265,38616
60243,38621
60229,38628
60215,38639
60204,38652
60197,38668
60193,38689
60190,38717
60190,38755
60190,38762
60190,38843
60207,38849
60220,38853
60227,38855
60227,38855
60228,38850
60229,38835
60229,38813
60229,38785
60230,38768
60230,38734
60230,38710
60231,38694
60233,38683
60236,38676
60240,38670
60243,38668
60261,38657
60281,38656
60299,38665
60303,38668
60308,38674
60311,38682
60313,38692
60315,38708
60315,38731
60315,38762
60315,38843
60333,38849
60346,38853
60353,38855
60353,38855
60354,38850
60354,38834
60355,38810
60355,38779
60355,38743
60355,38702
60355,38546
60337,38538
60318,38530
60315,38578
Z" /> 
<path style="fill:#000000; fill-opacity:1.0; 
stroke:#000000; stroke-width:3.93701; stroke-opacity:1; 
stroke-linecap:round; stroke-linejoin:round;fill-rule:evenodd;"
d="M 60791,38610
60768,38625
60751,38647
60740,38675
60738,38695
60738,38704
60740,38710
60746,38716
60757,38723
60774,38731
60801,38743
60801,38743
60825,38754
60845,38764
60859,38772
60864,38776
60864,38776
60859,38785
60849,38795
60837,38802
60831,38804
60814,38799
60800,38786
60793,38773
60786,38762
60773,38751
60758,38741
60744,38736
60741,38735
60738,38740
60738,38753
60740,38770
60745,38788
60751,38803
60751,38804
60769,38829
60793,38847
60820,38855
60848,38854
60874,38843
60875,38842
60896,38823
60910,38798
60918,38766
60919,38757
60921,38713
60919,38693
60864,38693
60863,38706
60859,38709
60849,38707
60834,38700
60817,38692
60817,38692
60802,38684
60796,38679
60798,38674
60804,38667
60819,38657
60836,38656
60851,38663
60861,38677
60864,38693
60919,38693
60917,38679
60907,38651
60894,38632
60870,38612
60843,38603
60816,38602
60791,38610
Z" /> 
<path style="fill:#000000; fill-opacity:1.0; 
stroke:#000000; stroke-width:3.93701; stroke-opacity:1; 
stroke-linecap:round; stroke-linejoin:round;fill-rule:evenodd;"
d="M 61234,38606
61208,38620
61188,38643
61181,38657
61175,38679
61173,38707
61172,38737
61174,38767
61179,38792
61185,38810
61187,38814
61211,38837
61239,38851
61270,38855
61301,38849
61309,38845
61326,38833
61341,38818
61342,38816
61348,38806
61352,38796
61354,38783
61355,38763
61355,38736
61355,38730
61355,38728
61298,38728
61298,38754
61296,38771
61294,38782
61289,38790
61287,38792
61273,38802
61260,38802
61246,38793
61238,38784
61234,38771
61231,38750
61231,38748
61230,38710
61235,38682
61245,38664
61260,38656
61265,38655
61279,38657
61289,38665
61295,38680
61298,38703
61298,38728
61355,38728
61355,38700
61354,38679
61352,38665
61349,38655
61344,38645
61342,38644
61323,38620
61302,38607
61276,38602
61267,38601
61234,38606
Z" /> 
<path style="fill:#000000; fill-opacity:1.0; 
stroke:#000000; stroke-width:3.93701; stroke-opacity:1; 
stroke-linecap:round; stroke-linejoin:round;fill-rule:evenodd;"
d="M 60575,38608
60557,38619
60544,38630
60535,38641
60528,38654
60524,38672
60522,38696
60521,38729
60521,38752
60521,38839
60545,38850
60570,38860
60572,38766
60574,38731
60575,38705
60576,38687
60578,38676
60581,38669
60585,38664
60586,38663
60605,38656
60624,38659
60635,38667
60640,38672
60643,38680
60645,38691
60646,38707
60647,38732
60647,38758
60647,38790
60647,38813
60649,38828
60653,38838
60660,38845
60670,38850
60684,38855
60699,38861
60697,38759
60696,38723
60695,38696
60694,38677
60692,38663
60690,38653
60686,38646
60681,38639
60660,38617
60633,38605
60604,38602
60575,38608
Z" /> 
<path style="fill:#000000; fill-opacity:1.0; 
stroke:#000000; stroke-width:3.93701; stroke-opacity:1; 
stroke-linecap:round; stroke-linejoin:round;fill-rule:evenodd;"
d="M 61014,38605
60993,38616
60973,38636
60968,38644
60962,38653
60959,38664
60956,38678
60955,38698
60955,38725
60956,38762
60960,38790
60966,38810
60976,38826
60991,38839
60992,38840
61006,38847
61023,38851
61045,38852
61081,38852
61081,38887
61081,38906
61083,38918
61089,38924
61099,38930
61101,38931
61113,38937
61121,38940
61128,38941
61132,38937
61135,38927
61137,38911
61138,38887
61138,38855
61137,38812
61137,38800
61136,38756
61136,38727
61081,38727
61081,38751
61079,38767
61076,38778
61071,38786
61067,38790
61052,38801
61038,38802
61024,38793
61024,38792
61018,38785
61015,38775
61013,38760
61012,38736
61012,38731
61014,38698
61018,38676
61026,38662
61037,38656
61044,38655
61060,38658
61071,38668
61078,38685
61081,38712
61081,38727
61136,38727
61136,38722
61135,38696
61134,38677
61132,38664
61130,38655
61127,38648
61124,38642
61122,38639
61100,38618
61073,38605
61042,38602
61014,38605
Z" /> 
</g>
<g style="fill:#000000; fill-opacity:1.0; 
stroke:#000000; stroke-width:39.3701; stroke-opacity:1; 
stroke-linecap:round; stroke-linejoin:round;">
</g>
<g style="fill:#000000; fill-opacity:0.0; 
stroke:#000000; stroke-width:39.3701; stroke-opacity:1; 
stroke-linecap:round; stroke-linejoin:round;">
<path d="M64170 39861
L64170 39979
" />
<path d="M64318 39861
L64170 39861
" />
<path d="M66749 39861
L66749 40018
" />
<path d="M66552 39861
L66749 39861
" />
<path d="M64170 41258
L64347 41258
" />
<path d="M64170 41071
L64170 41258
" />
<path d="M66631 41258
L66631 41335
" />
<path d="M66749 41130
L66631 41258
" />
<path d="M66749 40943
L66749 41130
" />
</g>
<g style="fill:#000000; fill-opacity:0.0; 
stroke:#000000; stroke-width:47.2441; stroke-opacity:1; 
stroke-linecap:round; stroke-linejoin:round;">
<path d="M64007 42775
L64007 44133
" />
<path d="M64007 42775
L64007 42007
" />
<path d="M61992 42775
L61992 43543
" />
<path d="M61992 42775
L61992 42007
" />
<path d="M65909 37829
L65703 37829
" />
<path d="M65909 37270
L65703 37270
" />
<path d="M61813 39700
L62019 39700
" />
<path d="M61813 40259
L62019 40259
" />
<path d="M59749 42629
L59543 42629
" />
<path d="M59749 42070
L59543 42070
" />
</g>
<g style="fill:#000000; fill-opacity:0.0; 
stroke:#000000; stroke-width:39.3701; stroke-opacity:1; 
stroke-linecap:round; stroke-linejoin:round;">
<path d="M60716 45354
L60716 46299
" />
<path d="M65283 45354
L65283 46299
" />
</g>
<g style="fill:#000000; fill-opacity:0.0; 
stroke:#000000; stroke-width:47.2441; stroke-opacity:1; 
stroke-linecap:round; stroke-linejoin:round;">
<path d="M65703 38090
L65909 38090
" />
<path d="M65703 38649
L65909 38649
" />
<path d="M64723 43450
L64929 43450
" />
<path d="M64723 44009
L64929 44009
" />
</g>
<g style="fill:#000000; fill-opacity:0.0; 
stroke:#000000; stroke-width:59.0551; stroke-opacity:1; 
stroke-linecap:round; stroke-linejoin:round;">
<path d="M65699 40284
L65699 40603
L65681 40640
L65662 40659
L65624 40678
L65549 40678
L65512 40659
L65493 40640
L65474 40603
L65474 40284
" />
<path d="M65325 40284
L65081 40284
L65212 40434
L65156 40434
L65118 40453
L65100 40471
L65081 40509
L65081 40603
L65100 40640
L65118 40659
L65156 40678
L65268 40678
L65306 40659
L65325 40640
" />
<path d="M62864 42500
L63183 42500
L63220 42518
L63239 42537
L63258 42575
L63258 42650
L63239 42687
L63220 42706
L63183 42725
L62864 42725
" />
<path d="M63258 43118
L63258 42893
" />
<path d="M63258 43006
L62864 43006
L62920 42968
L62958 42931
L62976 42893
" />
<path d="M64795 37708
L64926 37520
" />
<path d="M65020 37708
L65020 37314
L64870 37314
L64833 37333
L64814 37351
L64795 37389
L64795 37445
L64814 37483
L64833 37501
L64870 37520
L65020 37520
" />
<path d="M64458 37314
L64533 37314
L64570 37333
L64589 37351
L64626 37408
L64645 37483
L64645 37633
L64626 37670
L64608 37689
L64570 37708
L64495 37708
L64458 37689
L64439 37670
L64420 37633
L64420 37539
L64439 37501
L64458 37483
L64495 37464
L64570 37464
L64608 37483
L64626 37501
L64645 37539
" />
<path d="M61925 39578
L62056 39390
" />
<path d="M62150 39578
L62150 39184
L62000 39184
L61963 39203
L61944 39221
L61925 39259
L61925 39315
L61944 39353
L61963 39371
L62000 39390
L62150 39390
" />
<path d="M61794 39184
L61550 39184
L61681 39334
L61625 39334
L61588 39353
L61569 39371
L61550 39409
L61550 39503
L61569 39540
L61588 39559
L61625 39578
L61738 39578
L61775 39559
L61794 39540
" />
<path d="M59712 41878
L59843 41691
" />
<path d="M59937 41878
L59937 41484
L59787 41484
L59749 41503
L59730 41522
L59712 41559
L59712 41616
L59730 41653
L59749 41672
L59787 41691
L59937 41691
" />
<path d="M59337 41878
L59562 41878
" />
<path d="M59449 41878
L59449 41484
L59487 41541
L59524 41578
L59562 41597
" />
<path d="M64835 38530
L64854 38549
L64910 38568
L64948 38568
L65004 38549
L65041 38511
L65060 38474
L65079 38399
L65079 38343
L65060 38268
L65041 38230
L65004 38193
L64948 38174
L64910 38174
L64854 38193
L64835 38211
" />
<path d="M64704 38174
L64460 38174
L64591 38324
L64535 38324
L64498 38343
L64479 38361
L64460 38399
L64460 38493
L64479 38530
L64498 38549
L64535 38568
L64648 38568
L64685 38549
L64704 38530
" />
<path d="M64860 43220
L64879 43239
L64935 43258
L64973 43258
L65029 43239
L65066 43201
L65085 43164
L65104 43089
L65104 43033
L65085 42958
L65066 42920
L65029 42883
L64973 42864
L64935 42864
L64879 42883
L64860 42901
" />
<path d="M64485 43258
L64710 43258
" />
<path d="M64598 43258
L64598 42864
L64635 42920
L64673 42958
L64710 42976
" />
<g >
</g>
</g> 
</svg>
