G04 #@! TF.GenerationSoftware,KiCad,Pcbnew,(5.1.4-0-10_14)*
G04 #@! TF.CreationDate,2020-02-10T15:43:12-05:00*
G04 #@! TF.ProjectId,neo8_adapter,6e656f38-5f61-4646-9170-7465722e6b69,rev?*
G04 #@! TF.SameCoordinates,Original*
G04 #@! TF.FileFunction,Copper,L2,Bot*
G04 #@! TF.FilePolarity,Positive*
%FSLAX46Y46*%
G04 Gerber Fmt 4.6, Leading zero omitted, Abs format (unit mm)*
G04 Created by KiCad (PCBNEW (5.1.4-0-10_14)) date 2020-02-10 15:43:12*
%MOMM*%
%LPD*%
G04 APERTURE LIST*
%ADD10R,3.800000X2.200000*%
%ADD11R,1.500000X2.200000*%
%ADD12C,0.100000*%
%ADD13C,0.600000*%
%ADD14C,1.150000*%
%ADD15R,2.413000X5.080000*%
%ADD16O,1.700000X1.700000*%
%ADD17R,1.700000X1.700000*%
%ADD18R,0.650000X0.260000*%
%ADD19R,0.250000X2.300000*%
%ADD20O,1.200000X2.300000*%
%ADD21R,0.460000X0.850000*%
%ADD22R,0.230000X0.850000*%
%ADD23C,0.508000*%
%ADD24C,0.152400*%
%ADD25C,0.127000*%
%ADD26C,0.254000*%
G04 APERTURE END LIST*
D10*
X166268400Y-99872400D03*
D11*
X168568400Y-106172400D03*
X166268400Y-106172400D03*
X163968400Y-106172400D03*
D12*
G36*
X162089703Y-105200722D02*
G01*
X162104264Y-105202882D01*
X162118543Y-105206459D01*
X162132403Y-105211418D01*
X162145710Y-105217712D01*
X162158336Y-105225280D01*
X162170159Y-105234048D01*
X162181066Y-105243934D01*
X162190952Y-105254841D01*
X162199720Y-105266664D01*
X162207288Y-105279290D01*
X162213582Y-105292597D01*
X162218541Y-105306457D01*
X162222118Y-105320736D01*
X162224278Y-105335297D01*
X162225000Y-105350000D01*
X162225000Y-107000000D01*
X162224278Y-107014703D01*
X162222118Y-107029264D01*
X162218541Y-107043543D01*
X162213582Y-107057403D01*
X162207288Y-107070710D01*
X162199720Y-107083336D01*
X162190952Y-107095159D01*
X162181066Y-107106066D01*
X162170159Y-107115952D01*
X162158336Y-107124720D01*
X162145710Y-107132288D01*
X162132403Y-107138582D01*
X162118543Y-107143541D01*
X162104264Y-107147118D01*
X162089703Y-107149278D01*
X162075000Y-107150000D01*
X161775000Y-107150000D01*
X161760297Y-107149278D01*
X161745736Y-107147118D01*
X161731457Y-107143541D01*
X161717597Y-107138582D01*
X161704290Y-107132288D01*
X161691664Y-107124720D01*
X161679841Y-107115952D01*
X161668934Y-107106066D01*
X161659048Y-107095159D01*
X161650280Y-107083336D01*
X161642712Y-107070710D01*
X161636418Y-107057403D01*
X161631459Y-107043543D01*
X161627882Y-107029264D01*
X161625722Y-107014703D01*
X161625000Y-107000000D01*
X161625000Y-105350000D01*
X161625722Y-105335297D01*
X161627882Y-105320736D01*
X161631459Y-105306457D01*
X161636418Y-105292597D01*
X161642712Y-105279290D01*
X161650280Y-105266664D01*
X161659048Y-105254841D01*
X161668934Y-105243934D01*
X161679841Y-105234048D01*
X161691664Y-105225280D01*
X161704290Y-105217712D01*
X161717597Y-105211418D01*
X161731457Y-105206459D01*
X161745736Y-105202882D01*
X161760297Y-105200722D01*
X161775000Y-105200000D01*
X162075000Y-105200000D01*
X162089703Y-105200722D01*
X162089703Y-105200722D01*
G37*
D13*
X161925000Y-106175000D03*
D12*
G36*
X160819703Y-105200722D02*
G01*
X160834264Y-105202882D01*
X160848543Y-105206459D01*
X160862403Y-105211418D01*
X160875710Y-105217712D01*
X160888336Y-105225280D01*
X160900159Y-105234048D01*
X160911066Y-105243934D01*
X160920952Y-105254841D01*
X160929720Y-105266664D01*
X160937288Y-105279290D01*
X160943582Y-105292597D01*
X160948541Y-105306457D01*
X160952118Y-105320736D01*
X160954278Y-105335297D01*
X160955000Y-105350000D01*
X160955000Y-107000000D01*
X160954278Y-107014703D01*
X160952118Y-107029264D01*
X160948541Y-107043543D01*
X160943582Y-107057403D01*
X160937288Y-107070710D01*
X160929720Y-107083336D01*
X160920952Y-107095159D01*
X160911066Y-107106066D01*
X160900159Y-107115952D01*
X160888336Y-107124720D01*
X160875710Y-107132288D01*
X160862403Y-107138582D01*
X160848543Y-107143541D01*
X160834264Y-107147118D01*
X160819703Y-107149278D01*
X160805000Y-107150000D01*
X160505000Y-107150000D01*
X160490297Y-107149278D01*
X160475736Y-107147118D01*
X160461457Y-107143541D01*
X160447597Y-107138582D01*
X160434290Y-107132288D01*
X160421664Y-107124720D01*
X160409841Y-107115952D01*
X160398934Y-107106066D01*
X160389048Y-107095159D01*
X160380280Y-107083336D01*
X160372712Y-107070710D01*
X160366418Y-107057403D01*
X160361459Y-107043543D01*
X160357882Y-107029264D01*
X160355722Y-107014703D01*
X160355000Y-107000000D01*
X160355000Y-105350000D01*
X160355722Y-105335297D01*
X160357882Y-105320736D01*
X160361459Y-105306457D01*
X160366418Y-105292597D01*
X160372712Y-105279290D01*
X160380280Y-105266664D01*
X160389048Y-105254841D01*
X160398934Y-105243934D01*
X160409841Y-105234048D01*
X160421664Y-105225280D01*
X160434290Y-105217712D01*
X160447597Y-105211418D01*
X160461457Y-105206459D01*
X160475736Y-105202882D01*
X160490297Y-105200722D01*
X160505000Y-105200000D01*
X160805000Y-105200000D01*
X160819703Y-105200722D01*
X160819703Y-105200722D01*
G37*
D13*
X160655000Y-106175000D03*
D12*
G36*
X159549703Y-105200722D02*
G01*
X159564264Y-105202882D01*
X159578543Y-105206459D01*
X159592403Y-105211418D01*
X159605710Y-105217712D01*
X159618336Y-105225280D01*
X159630159Y-105234048D01*
X159641066Y-105243934D01*
X159650952Y-105254841D01*
X159659720Y-105266664D01*
X159667288Y-105279290D01*
X159673582Y-105292597D01*
X159678541Y-105306457D01*
X159682118Y-105320736D01*
X159684278Y-105335297D01*
X159685000Y-105350000D01*
X159685000Y-107000000D01*
X159684278Y-107014703D01*
X159682118Y-107029264D01*
X159678541Y-107043543D01*
X159673582Y-107057403D01*
X159667288Y-107070710D01*
X159659720Y-107083336D01*
X159650952Y-107095159D01*
X159641066Y-107106066D01*
X159630159Y-107115952D01*
X159618336Y-107124720D01*
X159605710Y-107132288D01*
X159592403Y-107138582D01*
X159578543Y-107143541D01*
X159564264Y-107147118D01*
X159549703Y-107149278D01*
X159535000Y-107150000D01*
X159235000Y-107150000D01*
X159220297Y-107149278D01*
X159205736Y-107147118D01*
X159191457Y-107143541D01*
X159177597Y-107138582D01*
X159164290Y-107132288D01*
X159151664Y-107124720D01*
X159139841Y-107115952D01*
X159128934Y-107106066D01*
X159119048Y-107095159D01*
X159110280Y-107083336D01*
X159102712Y-107070710D01*
X159096418Y-107057403D01*
X159091459Y-107043543D01*
X159087882Y-107029264D01*
X159085722Y-107014703D01*
X159085000Y-107000000D01*
X159085000Y-105350000D01*
X159085722Y-105335297D01*
X159087882Y-105320736D01*
X159091459Y-105306457D01*
X159096418Y-105292597D01*
X159102712Y-105279290D01*
X159110280Y-105266664D01*
X159119048Y-105254841D01*
X159128934Y-105243934D01*
X159139841Y-105234048D01*
X159151664Y-105225280D01*
X159164290Y-105217712D01*
X159177597Y-105211418D01*
X159191457Y-105206459D01*
X159205736Y-105202882D01*
X159220297Y-105200722D01*
X159235000Y-105200000D01*
X159535000Y-105200000D01*
X159549703Y-105200722D01*
X159549703Y-105200722D01*
G37*
D13*
X159385000Y-106175000D03*
D12*
G36*
X158279703Y-105200722D02*
G01*
X158294264Y-105202882D01*
X158308543Y-105206459D01*
X158322403Y-105211418D01*
X158335710Y-105217712D01*
X158348336Y-105225280D01*
X158360159Y-105234048D01*
X158371066Y-105243934D01*
X158380952Y-105254841D01*
X158389720Y-105266664D01*
X158397288Y-105279290D01*
X158403582Y-105292597D01*
X158408541Y-105306457D01*
X158412118Y-105320736D01*
X158414278Y-105335297D01*
X158415000Y-105350000D01*
X158415000Y-107000000D01*
X158414278Y-107014703D01*
X158412118Y-107029264D01*
X158408541Y-107043543D01*
X158403582Y-107057403D01*
X158397288Y-107070710D01*
X158389720Y-107083336D01*
X158380952Y-107095159D01*
X158371066Y-107106066D01*
X158360159Y-107115952D01*
X158348336Y-107124720D01*
X158335710Y-107132288D01*
X158322403Y-107138582D01*
X158308543Y-107143541D01*
X158294264Y-107147118D01*
X158279703Y-107149278D01*
X158265000Y-107150000D01*
X157965000Y-107150000D01*
X157950297Y-107149278D01*
X157935736Y-107147118D01*
X157921457Y-107143541D01*
X157907597Y-107138582D01*
X157894290Y-107132288D01*
X157881664Y-107124720D01*
X157869841Y-107115952D01*
X157858934Y-107106066D01*
X157849048Y-107095159D01*
X157840280Y-107083336D01*
X157832712Y-107070710D01*
X157826418Y-107057403D01*
X157821459Y-107043543D01*
X157817882Y-107029264D01*
X157815722Y-107014703D01*
X157815000Y-107000000D01*
X157815000Y-105350000D01*
X157815722Y-105335297D01*
X157817882Y-105320736D01*
X157821459Y-105306457D01*
X157826418Y-105292597D01*
X157832712Y-105279290D01*
X157840280Y-105266664D01*
X157849048Y-105254841D01*
X157858934Y-105243934D01*
X157869841Y-105234048D01*
X157881664Y-105225280D01*
X157894290Y-105217712D01*
X157907597Y-105211418D01*
X157921457Y-105206459D01*
X157935736Y-105202882D01*
X157950297Y-105200722D01*
X157965000Y-105200000D01*
X158265000Y-105200000D01*
X158279703Y-105200722D01*
X158279703Y-105200722D01*
G37*
D13*
X158115000Y-106175000D03*
D12*
G36*
X158279703Y-110150722D02*
G01*
X158294264Y-110152882D01*
X158308543Y-110156459D01*
X158322403Y-110161418D01*
X158335710Y-110167712D01*
X158348336Y-110175280D01*
X158360159Y-110184048D01*
X158371066Y-110193934D01*
X158380952Y-110204841D01*
X158389720Y-110216664D01*
X158397288Y-110229290D01*
X158403582Y-110242597D01*
X158408541Y-110256457D01*
X158412118Y-110270736D01*
X158414278Y-110285297D01*
X158415000Y-110300000D01*
X158415000Y-111950000D01*
X158414278Y-111964703D01*
X158412118Y-111979264D01*
X158408541Y-111993543D01*
X158403582Y-112007403D01*
X158397288Y-112020710D01*
X158389720Y-112033336D01*
X158380952Y-112045159D01*
X158371066Y-112056066D01*
X158360159Y-112065952D01*
X158348336Y-112074720D01*
X158335710Y-112082288D01*
X158322403Y-112088582D01*
X158308543Y-112093541D01*
X158294264Y-112097118D01*
X158279703Y-112099278D01*
X158265000Y-112100000D01*
X157965000Y-112100000D01*
X157950297Y-112099278D01*
X157935736Y-112097118D01*
X157921457Y-112093541D01*
X157907597Y-112088582D01*
X157894290Y-112082288D01*
X157881664Y-112074720D01*
X157869841Y-112065952D01*
X157858934Y-112056066D01*
X157849048Y-112045159D01*
X157840280Y-112033336D01*
X157832712Y-112020710D01*
X157826418Y-112007403D01*
X157821459Y-111993543D01*
X157817882Y-111979264D01*
X157815722Y-111964703D01*
X157815000Y-111950000D01*
X157815000Y-110300000D01*
X157815722Y-110285297D01*
X157817882Y-110270736D01*
X157821459Y-110256457D01*
X157826418Y-110242597D01*
X157832712Y-110229290D01*
X157840280Y-110216664D01*
X157849048Y-110204841D01*
X157858934Y-110193934D01*
X157869841Y-110184048D01*
X157881664Y-110175280D01*
X157894290Y-110167712D01*
X157907597Y-110161418D01*
X157921457Y-110156459D01*
X157935736Y-110152882D01*
X157950297Y-110150722D01*
X157965000Y-110150000D01*
X158265000Y-110150000D01*
X158279703Y-110150722D01*
X158279703Y-110150722D01*
G37*
D13*
X158115000Y-111125000D03*
D12*
G36*
X159549703Y-110150722D02*
G01*
X159564264Y-110152882D01*
X159578543Y-110156459D01*
X159592403Y-110161418D01*
X159605710Y-110167712D01*
X159618336Y-110175280D01*
X159630159Y-110184048D01*
X159641066Y-110193934D01*
X159650952Y-110204841D01*
X159659720Y-110216664D01*
X159667288Y-110229290D01*
X159673582Y-110242597D01*
X159678541Y-110256457D01*
X159682118Y-110270736D01*
X159684278Y-110285297D01*
X159685000Y-110300000D01*
X159685000Y-111950000D01*
X159684278Y-111964703D01*
X159682118Y-111979264D01*
X159678541Y-111993543D01*
X159673582Y-112007403D01*
X159667288Y-112020710D01*
X159659720Y-112033336D01*
X159650952Y-112045159D01*
X159641066Y-112056066D01*
X159630159Y-112065952D01*
X159618336Y-112074720D01*
X159605710Y-112082288D01*
X159592403Y-112088582D01*
X159578543Y-112093541D01*
X159564264Y-112097118D01*
X159549703Y-112099278D01*
X159535000Y-112100000D01*
X159235000Y-112100000D01*
X159220297Y-112099278D01*
X159205736Y-112097118D01*
X159191457Y-112093541D01*
X159177597Y-112088582D01*
X159164290Y-112082288D01*
X159151664Y-112074720D01*
X159139841Y-112065952D01*
X159128934Y-112056066D01*
X159119048Y-112045159D01*
X159110280Y-112033336D01*
X159102712Y-112020710D01*
X159096418Y-112007403D01*
X159091459Y-111993543D01*
X159087882Y-111979264D01*
X159085722Y-111964703D01*
X159085000Y-111950000D01*
X159085000Y-110300000D01*
X159085722Y-110285297D01*
X159087882Y-110270736D01*
X159091459Y-110256457D01*
X159096418Y-110242597D01*
X159102712Y-110229290D01*
X159110280Y-110216664D01*
X159119048Y-110204841D01*
X159128934Y-110193934D01*
X159139841Y-110184048D01*
X159151664Y-110175280D01*
X159164290Y-110167712D01*
X159177597Y-110161418D01*
X159191457Y-110156459D01*
X159205736Y-110152882D01*
X159220297Y-110150722D01*
X159235000Y-110150000D01*
X159535000Y-110150000D01*
X159549703Y-110150722D01*
X159549703Y-110150722D01*
G37*
D13*
X159385000Y-111125000D03*
D12*
G36*
X160819703Y-110150722D02*
G01*
X160834264Y-110152882D01*
X160848543Y-110156459D01*
X160862403Y-110161418D01*
X160875710Y-110167712D01*
X160888336Y-110175280D01*
X160900159Y-110184048D01*
X160911066Y-110193934D01*
X160920952Y-110204841D01*
X160929720Y-110216664D01*
X160937288Y-110229290D01*
X160943582Y-110242597D01*
X160948541Y-110256457D01*
X160952118Y-110270736D01*
X160954278Y-110285297D01*
X160955000Y-110300000D01*
X160955000Y-111950000D01*
X160954278Y-111964703D01*
X160952118Y-111979264D01*
X160948541Y-111993543D01*
X160943582Y-112007403D01*
X160937288Y-112020710D01*
X160929720Y-112033336D01*
X160920952Y-112045159D01*
X160911066Y-112056066D01*
X160900159Y-112065952D01*
X160888336Y-112074720D01*
X160875710Y-112082288D01*
X160862403Y-112088582D01*
X160848543Y-112093541D01*
X160834264Y-112097118D01*
X160819703Y-112099278D01*
X160805000Y-112100000D01*
X160505000Y-112100000D01*
X160490297Y-112099278D01*
X160475736Y-112097118D01*
X160461457Y-112093541D01*
X160447597Y-112088582D01*
X160434290Y-112082288D01*
X160421664Y-112074720D01*
X160409841Y-112065952D01*
X160398934Y-112056066D01*
X160389048Y-112045159D01*
X160380280Y-112033336D01*
X160372712Y-112020710D01*
X160366418Y-112007403D01*
X160361459Y-111993543D01*
X160357882Y-111979264D01*
X160355722Y-111964703D01*
X160355000Y-111950000D01*
X160355000Y-110300000D01*
X160355722Y-110285297D01*
X160357882Y-110270736D01*
X160361459Y-110256457D01*
X160366418Y-110242597D01*
X160372712Y-110229290D01*
X160380280Y-110216664D01*
X160389048Y-110204841D01*
X160398934Y-110193934D01*
X160409841Y-110184048D01*
X160421664Y-110175280D01*
X160434290Y-110167712D01*
X160447597Y-110161418D01*
X160461457Y-110156459D01*
X160475736Y-110152882D01*
X160490297Y-110150722D01*
X160505000Y-110150000D01*
X160805000Y-110150000D01*
X160819703Y-110150722D01*
X160819703Y-110150722D01*
G37*
D13*
X160655000Y-111125000D03*
D12*
G36*
X162089703Y-110150722D02*
G01*
X162104264Y-110152882D01*
X162118543Y-110156459D01*
X162132403Y-110161418D01*
X162145710Y-110167712D01*
X162158336Y-110175280D01*
X162170159Y-110184048D01*
X162181066Y-110193934D01*
X162190952Y-110204841D01*
X162199720Y-110216664D01*
X162207288Y-110229290D01*
X162213582Y-110242597D01*
X162218541Y-110256457D01*
X162222118Y-110270736D01*
X162224278Y-110285297D01*
X162225000Y-110300000D01*
X162225000Y-111950000D01*
X162224278Y-111964703D01*
X162222118Y-111979264D01*
X162218541Y-111993543D01*
X162213582Y-112007403D01*
X162207288Y-112020710D01*
X162199720Y-112033336D01*
X162190952Y-112045159D01*
X162181066Y-112056066D01*
X162170159Y-112065952D01*
X162158336Y-112074720D01*
X162145710Y-112082288D01*
X162132403Y-112088582D01*
X162118543Y-112093541D01*
X162104264Y-112097118D01*
X162089703Y-112099278D01*
X162075000Y-112100000D01*
X161775000Y-112100000D01*
X161760297Y-112099278D01*
X161745736Y-112097118D01*
X161731457Y-112093541D01*
X161717597Y-112088582D01*
X161704290Y-112082288D01*
X161691664Y-112074720D01*
X161679841Y-112065952D01*
X161668934Y-112056066D01*
X161659048Y-112045159D01*
X161650280Y-112033336D01*
X161642712Y-112020710D01*
X161636418Y-112007403D01*
X161631459Y-111993543D01*
X161627882Y-111979264D01*
X161625722Y-111964703D01*
X161625000Y-111950000D01*
X161625000Y-110300000D01*
X161625722Y-110285297D01*
X161627882Y-110270736D01*
X161631459Y-110256457D01*
X161636418Y-110242597D01*
X161642712Y-110229290D01*
X161650280Y-110216664D01*
X161659048Y-110204841D01*
X161668934Y-110193934D01*
X161679841Y-110184048D01*
X161691664Y-110175280D01*
X161704290Y-110167712D01*
X161717597Y-110161418D01*
X161731457Y-110156459D01*
X161745736Y-110152882D01*
X161760297Y-110150722D01*
X161775000Y-110150000D01*
X162075000Y-110150000D01*
X162089703Y-110150722D01*
X162089703Y-110150722D01*
G37*
D13*
X161925000Y-111125000D03*
D12*
G36*
X166472905Y-94678204D02*
G01*
X166497173Y-94681804D01*
X166520972Y-94687765D01*
X166544071Y-94696030D01*
X166566250Y-94706520D01*
X166587293Y-94719132D01*
X166606999Y-94733747D01*
X166625177Y-94750223D01*
X166641653Y-94768401D01*
X166656268Y-94788107D01*
X166668880Y-94809150D01*
X166679370Y-94831329D01*
X166687635Y-94854428D01*
X166693596Y-94878227D01*
X166697196Y-94902495D01*
X166698400Y-94926999D01*
X166698400Y-95827001D01*
X166697196Y-95851505D01*
X166693596Y-95875773D01*
X166687635Y-95899572D01*
X166679370Y-95922671D01*
X166668880Y-95944850D01*
X166656268Y-95965893D01*
X166641653Y-95985599D01*
X166625177Y-96003777D01*
X166606999Y-96020253D01*
X166587293Y-96034868D01*
X166566250Y-96047480D01*
X166544071Y-96057970D01*
X166520972Y-96066235D01*
X166497173Y-96072196D01*
X166472905Y-96075796D01*
X166448401Y-96077000D01*
X165798399Y-96077000D01*
X165773895Y-96075796D01*
X165749627Y-96072196D01*
X165725828Y-96066235D01*
X165702729Y-96057970D01*
X165680550Y-96047480D01*
X165659507Y-96034868D01*
X165639801Y-96020253D01*
X165621623Y-96003777D01*
X165605147Y-95985599D01*
X165590532Y-95965893D01*
X165577920Y-95944850D01*
X165567430Y-95922671D01*
X165559165Y-95899572D01*
X165553204Y-95875773D01*
X165549604Y-95851505D01*
X165548400Y-95827001D01*
X165548400Y-94926999D01*
X165549604Y-94902495D01*
X165553204Y-94878227D01*
X165559165Y-94854428D01*
X165567430Y-94831329D01*
X165577920Y-94809150D01*
X165590532Y-94788107D01*
X165605147Y-94768401D01*
X165621623Y-94750223D01*
X165639801Y-94733747D01*
X165659507Y-94719132D01*
X165680550Y-94706520D01*
X165702729Y-94696030D01*
X165725828Y-94687765D01*
X165749627Y-94681804D01*
X165773895Y-94678204D01*
X165798399Y-94677000D01*
X166448401Y-94677000D01*
X166472905Y-94678204D01*
X166472905Y-94678204D01*
G37*
D14*
X166123400Y-95377000D03*
D12*
G36*
X168522905Y-94678204D02*
G01*
X168547173Y-94681804D01*
X168570972Y-94687765D01*
X168594071Y-94696030D01*
X168616250Y-94706520D01*
X168637293Y-94719132D01*
X168656999Y-94733747D01*
X168675177Y-94750223D01*
X168691653Y-94768401D01*
X168706268Y-94788107D01*
X168718880Y-94809150D01*
X168729370Y-94831329D01*
X168737635Y-94854428D01*
X168743596Y-94878227D01*
X168747196Y-94902495D01*
X168748400Y-94926999D01*
X168748400Y-95827001D01*
X168747196Y-95851505D01*
X168743596Y-95875773D01*
X168737635Y-95899572D01*
X168729370Y-95922671D01*
X168718880Y-95944850D01*
X168706268Y-95965893D01*
X168691653Y-95985599D01*
X168675177Y-96003777D01*
X168656999Y-96020253D01*
X168637293Y-96034868D01*
X168616250Y-96047480D01*
X168594071Y-96057970D01*
X168570972Y-96066235D01*
X168547173Y-96072196D01*
X168522905Y-96075796D01*
X168498401Y-96077000D01*
X167848399Y-96077000D01*
X167823895Y-96075796D01*
X167799627Y-96072196D01*
X167775828Y-96066235D01*
X167752729Y-96057970D01*
X167730550Y-96047480D01*
X167709507Y-96034868D01*
X167689801Y-96020253D01*
X167671623Y-96003777D01*
X167655147Y-95985599D01*
X167640532Y-95965893D01*
X167627920Y-95944850D01*
X167617430Y-95922671D01*
X167609165Y-95899572D01*
X167603204Y-95875773D01*
X167599604Y-95851505D01*
X167598400Y-95827001D01*
X167598400Y-94926999D01*
X167599604Y-94902495D01*
X167603204Y-94878227D01*
X167609165Y-94854428D01*
X167617430Y-94831329D01*
X167627920Y-94809150D01*
X167640532Y-94788107D01*
X167655147Y-94768401D01*
X167671623Y-94750223D01*
X167689801Y-94733747D01*
X167709507Y-94719132D01*
X167730550Y-94706520D01*
X167752729Y-94696030D01*
X167775828Y-94687765D01*
X167799627Y-94681804D01*
X167823895Y-94678204D01*
X167848399Y-94677000D01*
X168498401Y-94677000D01*
X168522905Y-94678204D01*
X168522905Y-94678204D01*
G37*
D14*
X168173400Y-95377000D03*
D12*
G36*
X158642305Y-100850404D02*
G01*
X158666573Y-100854004D01*
X158690372Y-100859965D01*
X158713471Y-100868230D01*
X158735650Y-100878720D01*
X158756693Y-100891332D01*
X158776399Y-100905947D01*
X158794577Y-100922423D01*
X158811053Y-100940601D01*
X158825668Y-100960307D01*
X158838280Y-100981350D01*
X158848770Y-101003529D01*
X158857035Y-101026628D01*
X158862996Y-101050427D01*
X158866596Y-101074695D01*
X158867800Y-101099199D01*
X158867800Y-101999201D01*
X158866596Y-102023705D01*
X158862996Y-102047973D01*
X158857035Y-102071772D01*
X158848770Y-102094871D01*
X158838280Y-102117050D01*
X158825668Y-102138093D01*
X158811053Y-102157799D01*
X158794577Y-102175977D01*
X158776399Y-102192453D01*
X158756693Y-102207068D01*
X158735650Y-102219680D01*
X158713471Y-102230170D01*
X158690372Y-102238435D01*
X158666573Y-102244396D01*
X158642305Y-102247996D01*
X158617801Y-102249200D01*
X157967799Y-102249200D01*
X157943295Y-102247996D01*
X157919027Y-102244396D01*
X157895228Y-102238435D01*
X157872129Y-102230170D01*
X157849950Y-102219680D01*
X157828907Y-102207068D01*
X157809201Y-102192453D01*
X157791023Y-102175977D01*
X157774547Y-102157799D01*
X157759932Y-102138093D01*
X157747320Y-102117050D01*
X157736830Y-102094871D01*
X157728565Y-102071772D01*
X157722604Y-102047973D01*
X157719004Y-102023705D01*
X157717800Y-101999201D01*
X157717800Y-101099199D01*
X157719004Y-101074695D01*
X157722604Y-101050427D01*
X157728565Y-101026628D01*
X157736830Y-101003529D01*
X157747320Y-100981350D01*
X157759932Y-100960307D01*
X157774547Y-100940601D01*
X157791023Y-100922423D01*
X157809201Y-100905947D01*
X157828907Y-100891332D01*
X157849950Y-100878720D01*
X157872129Y-100868230D01*
X157895228Y-100859965D01*
X157919027Y-100854004D01*
X157943295Y-100850404D01*
X157967799Y-100849200D01*
X158617801Y-100849200D01*
X158642305Y-100850404D01*
X158642305Y-100850404D01*
G37*
D14*
X158292800Y-101549200D03*
D12*
G36*
X156592305Y-100850404D02*
G01*
X156616573Y-100854004D01*
X156640372Y-100859965D01*
X156663471Y-100868230D01*
X156685650Y-100878720D01*
X156706693Y-100891332D01*
X156726399Y-100905947D01*
X156744577Y-100922423D01*
X156761053Y-100940601D01*
X156775668Y-100960307D01*
X156788280Y-100981350D01*
X156798770Y-101003529D01*
X156807035Y-101026628D01*
X156812996Y-101050427D01*
X156816596Y-101074695D01*
X156817800Y-101099199D01*
X156817800Y-101999201D01*
X156816596Y-102023705D01*
X156812996Y-102047973D01*
X156807035Y-102071772D01*
X156798770Y-102094871D01*
X156788280Y-102117050D01*
X156775668Y-102138093D01*
X156761053Y-102157799D01*
X156744577Y-102175977D01*
X156726399Y-102192453D01*
X156706693Y-102207068D01*
X156685650Y-102219680D01*
X156663471Y-102230170D01*
X156640372Y-102238435D01*
X156616573Y-102244396D01*
X156592305Y-102247996D01*
X156567801Y-102249200D01*
X155917799Y-102249200D01*
X155893295Y-102247996D01*
X155869027Y-102244396D01*
X155845228Y-102238435D01*
X155822129Y-102230170D01*
X155799950Y-102219680D01*
X155778907Y-102207068D01*
X155759201Y-102192453D01*
X155741023Y-102175977D01*
X155724547Y-102157799D01*
X155709932Y-102138093D01*
X155697320Y-102117050D01*
X155686830Y-102094871D01*
X155678565Y-102071772D01*
X155672604Y-102047973D01*
X155669004Y-102023705D01*
X155667800Y-101999201D01*
X155667800Y-101099199D01*
X155669004Y-101074695D01*
X155672604Y-101050427D01*
X155678565Y-101026628D01*
X155686830Y-101003529D01*
X155697320Y-100981350D01*
X155709932Y-100960307D01*
X155724547Y-100940601D01*
X155741023Y-100922423D01*
X155759201Y-100905947D01*
X155778907Y-100891332D01*
X155799950Y-100878720D01*
X155822129Y-100868230D01*
X155845228Y-100859965D01*
X155869027Y-100854004D01*
X155893295Y-100850404D01*
X155917799Y-100849200D01*
X156567801Y-100849200D01*
X156592305Y-100850404D01*
X156592305Y-100850404D01*
G37*
D14*
X156242800Y-101549200D03*
D12*
G36*
X150826505Y-106870204D02*
G01*
X150850773Y-106873804D01*
X150874572Y-106879765D01*
X150897671Y-106888030D01*
X150919850Y-106898520D01*
X150940893Y-106911132D01*
X150960599Y-106925747D01*
X150978777Y-106942223D01*
X150995253Y-106960401D01*
X151009868Y-106980107D01*
X151022480Y-107001150D01*
X151032970Y-107023329D01*
X151041235Y-107046428D01*
X151047196Y-107070227D01*
X151050796Y-107094495D01*
X151052000Y-107118999D01*
X151052000Y-108019001D01*
X151050796Y-108043505D01*
X151047196Y-108067773D01*
X151041235Y-108091572D01*
X151032970Y-108114671D01*
X151022480Y-108136850D01*
X151009868Y-108157893D01*
X150995253Y-108177599D01*
X150978777Y-108195777D01*
X150960599Y-108212253D01*
X150940893Y-108226868D01*
X150919850Y-108239480D01*
X150897671Y-108249970D01*
X150874572Y-108258235D01*
X150850773Y-108264196D01*
X150826505Y-108267796D01*
X150802001Y-108269000D01*
X150151999Y-108269000D01*
X150127495Y-108267796D01*
X150103227Y-108264196D01*
X150079428Y-108258235D01*
X150056329Y-108249970D01*
X150034150Y-108239480D01*
X150013107Y-108226868D01*
X149993401Y-108212253D01*
X149975223Y-108195777D01*
X149958747Y-108177599D01*
X149944132Y-108157893D01*
X149931520Y-108136850D01*
X149921030Y-108114671D01*
X149912765Y-108091572D01*
X149906804Y-108067773D01*
X149903204Y-108043505D01*
X149902000Y-108019001D01*
X149902000Y-107118999D01*
X149903204Y-107094495D01*
X149906804Y-107070227D01*
X149912765Y-107046428D01*
X149921030Y-107023329D01*
X149931520Y-107001150D01*
X149944132Y-106980107D01*
X149958747Y-106960401D01*
X149975223Y-106942223D01*
X149993401Y-106925747D01*
X150013107Y-106911132D01*
X150034150Y-106898520D01*
X150056329Y-106888030D01*
X150079428Y-106879765D01*
X150103227Y-106873804D01*
X150127495Y-106870204D01*
X150151999Y-106869000D01*
X150802001Y-106869000D01*
X150826505Y-106870204D01*
X150826505Y-106870204D01*
G37*
D14*
X150477000Y-107569000D03*
D12*
G36*
X152876505Y-106870204D02*
G01*
X152900773Y-106873804D01*
X152924572Y-106879765D01*
X152947671Y-106888030D01*
X152969850Y-106898520D01*
X152990893Y-106911132D01*
X153010599Y-106925747D01*
X153028777Y-106942223D01*
X153045253Y-106960401D01*
X153059868Y-106980107D01*
X153072480Y-107001150D01*
X153082970Y-107023329D01*
X153091235Y-107046428D01*
X153097196Y-107070227D01*
X153100796Y-107094495D01*
X153102000Y-107118999D01*
X153102000Y-108019001D01*
X153100796Y-108043505D01*
X153097196Y-108067773D01*
X153091235Y-108091572D01*
X153082970Y-108114671D01*
X153072480Y-108136850D01*
X153059868Y-108157893D01*
X153045253Y-108177599D01*
X153028777Y-108195777D01*
X153010599Y-108212253D01*
X152990893Y-108226868D01*
X152969850Y-108239480D01*
X152947671Y-108249970D01*
X152924572Y-108258235D01*
X152900773Y-108264196D01*
X152876505Y-108267796D01*
X152852001Y-108269000D01*
X152201999Y-108269000D01*
X152177495Y-108267796D01*
X152153227Y-108264196D01*
X152129428Y-108258235D01*
X152106329Y-108249970D01*
X152084150Y-108239480D01*
X152063107Y-108226868D01*
X152043401Y-108212253D01*
X152025223Y-108195777D01*
X152008747Y-108177599D01*
X151994132Y-108157893D01*
X151981520Y-108136850D01*
X151971030Y-108114671D01*
X151962765Y-108091572D01*
X151956804Y-108067773D01*
X151953204Y-108043505D01*
X151952000Y-108019001D01*
X151952000Y-107118999D01*
X151953204Y-107094495D01*
X151956804Y-107070227D01*
X151962765Y-107046428D01*
X151971030Y-107023329D01*
X151981520Y-107001150D01*
X151994132Y-106980107D01*
X152008747Y-106960401D01*
X152025223Y-106942223D01*
X152043401Y-106925747D01*
X152063107Y-106911132D01*
X152084150Y-106898520D01*
X152106329Y-106888030D01*
X152129428Y-106879765D01*
X152153227Y-106873804D01*
X152177495Y-106870204D01*
X152201999Y-106869000D01*
X152852001Y-106869000D01*
X152876505Y-106870204D01*
X152876505Y-106870204D01*
G37*
D14*
X152527000Y-107569000D03*
D15*
X163258500Y-86360000D03*
X172021500Y-86360000D03*
X148018500Y-86360000D03*
X156781500Y-86360000D03*
D16*
X172720000Y-116840000D03*
X172720000Y-114300000D03*
X172720000Y-111760000D03*
X172720000Y-109220000D03*
X172720000Y-106680000D03*
X172720000Y-104140000D03*
X172720000Y-101600000D03*
X172720000Y-99060000D03*
X172720000Y-96520000D03*
D17*
X172720000Y-93980000D03*
D18*
X165240000Y-117880000D03*
D19*
X164990000Y-118900000D03*
D20*
X154470000Y-118900000D03*
X165570000Y-118900000D03*
X154470000Y-113850000D03*
X165570000Y-113850000D03*
D21*
X156105000Y-113375000D03*
D22*
X156620000Y-113375000D03*
X157020000Y-113375000D03*
X157420000Y-113375000D03*
X157820000Y-113375000D03*
X158220000Y-113375000D03*
X158620000Y-113375000D03*
X159020000Y-113375000D03*
X159420000Y-113375000D03*
X159820000Y-113375000D03*
X160220000Y-113375000D03*
X160620000Y-113375000D03*
X161020000Y-113375000D03*
X161420000Y-113375000D03*
X161820000Y-113375000D03*
X162220000Y-113375000D03*
X162620000Y-113375000D03*
X163020000Y-113375000D03*
D21*
X163935000Y-113375000D03*
D13*
X158020000Y-114300000D03*
X158820000Y-114300000D03*
X159620000Y-114300000D03*
X160420000Y-114300000D03*
X161220000Y-114300000D03*
X162020000Y-114300000D03*
D22*
X163420000Y-113375000D03*
D18*
X165240000Y-119920000D03*
D19*
X155050000Y-118900000D03*
D18*
X154850000Y-117880000D03*
X154850000Y-119920000D03*
D16*
X147320000Y-116840000D03*
X147320000Y-114300000D03*
X147320000Y-111760000D03*
X147320000Y-109220000D03*
X147320000Y-106680000D03*
X147320000Y-104140000D03*
X147320000Y-101600000D03*
X147320000Y-99060000D03*
X147320000Y-96520000D03*
D17*
X147320000Y-93980000D03*
D12*
G36*
X168522905Y-96761004D02*
G01*
X168547173Y-96764604D01*
X168570972Y-96770565D01*
X168594071Y-96778830D01*
X168616250Y-96789320D01*
X168637293Y-96801932D01*
X168656999Y-96816547D01*
X168675177Y-96833023D01*
X168691653Y-96851201D01*
X168706268Y-96870907D01*
X168718880Y-96891950D01*
X168729370Y-96914129D01*
X168737635Y-96937228D01*
X168743596Y-96961027D01*
X168747196Y-96985295D01*
X168748400Y-97009799D01*
X168748400Y-97909801D01*
X168747196Y-97934305D01*
X168743596Y-97958573D01*
X168737635Y-97982372D01*
X168729370Y-98005471D01*
X168718880Y-98027650D01*
X168706268Y-98048693D01*
X168691653Y-98068399D01*
X168675177Y-98086577D01*
X168656999Y-98103053D01*
X168637293Y-98117668D01*
X168616250Y-98130280D01*
X168594071Y-98140770D01*
X168570972Y-98149035D01*
X168547173Y-98154996D01*
X168522905Y-98158596D01*
X168498401Y-98159800D01*
X167848399Y-98159800D01*
X167823895Y-98158596D01*
X167799627Y-98154996D01*
X167775828Y-98149035D01*
X167752729Y-98140770D01*
X167730550Y-98130280D01*
X167709507Y-98117668D01*
X167689801Y-98103053D01*
X167671623Y-98086577D01*
X167655147Y-98068399D01*
X167640532Y-98048693D01*
X167627920Y-98027650D01*
X167617430Y-98005471D01*
X167609165Y-97982372D01*
X167603204Y-97958573D01*
X167599604Y-97934305D01*
X167598400Y-97909801D01*
X167598400Y-97009799D01*
X167599604Y-96985295D01*
X167603204Y-96961027D01*
X167609165Y-96937228D01*
X167617430Y-96914129D01*
X167627920Y-96891950D01*
X167640532Y-96870907D01*
X167655147Y-96851201D01*
X167671623Y-96833023D01*
X167689801Y-96816547D01*
X167709507Y-96801932D01*
X167730550Y-96789320D01*
X167752729Y-96778830D01*
X167775828Y-96770565D01*
X167799627Y-96764604D01*
X167823895Y-96761004D01*
X167848399Y-96759800D01*
X168498401Y-96759800D01*
X168522905Y-96761004D01*
X168522905Y-96761004D01*
G37*
D14*
X168173400Y-97459800D03*
D12*
G36*
X166472905Y-96761004D02*
G01*
X166497173Y-96764604D01*
X166520972Y-96770565D01*
X166544071Y-96778830D01*
X166566250Y-96789320D01*
X166587293Y-96801932D01*
X166606999Y-96816547D01*
X166625177Y-96833023D01*
X166641653Y-96851201D01*
X166656268Y-96870907D01*
X166668880Y-96891950D01*
X166679370Y-96914129D01*
X166687635Y-96937228D01*
X166693596Y-96961027D01*
X166697196Y-96985295D01*
X166698400Y-97009799D01*
X166698400Y-97909801D01*
X166697196Y-97934305D01*
X166693596Y-97958573D01*
X166687635Y-97982372D01*
X166679370Y-98005471D01*
X166668880Y-98027650D01*
X166656268Y-98048693D01*
X166641653Y-98068399D01*
X166625177Y-98086577D01*
X166606999Y-98103053D01*
X166587293Y-98117668D01*
X166566250Y-98130280D01*
X166544071Y-98140770D01*
X166520972Y-98149035D01*
X166497173Y-98154996D01*
X166472905Y-98158596D01*
X166448401Y-98159800D01*
X165798399Y-98159800D01*
X165773895Y-98158596D01*
X165749627Y-98154996D01*
X165725828Y-98149035D01*
X165702729Y-98140770D01*
X165680550Y-98130280D01*
X165659507Y-98117668D01*
X165639801Y-98103053D01*
X165621623Y-98086577D01*
X165605147Y-98068399D01*
X165590532Y-98048693D01*
X165577920Y-98027650D01*
X165567430Y-98005471D01*
X165559165Y-97982372D01*
X165553204Y-97958573D01*
X165549604Y-97934305D01*
X165548400Y-97909801D01*
X165548400Y-97009799D01*
X165549604Y-96985295D01*
X165553204Y-96961027D01*
X165559165Y-96937228D01*
X165567430Y-96914129D01*
X165577920Y-96891950D01*
X165590532Y-96870907D01*
X165605147Y-96851201D01*
X165621623Y-96833023D01*
X165639801Y-96816547D01*
X165659507Y-96801932D01*
X165680550Y-96789320D01*
X165702729Y-96778830D01*
X165725828Y-96770565D01*
X165749627Y-96764604D01*
X165773895Y-96761004D01*
X165798399Y-96759800D01*
X166448401Y-96759800D01*
X166472905Y-96761004D01*
X166472905Y-96761004D01*
G37*
D14*
X166123400Y-97459800D03*
D12*
G36*
X166033705Y-110375404D02*
G01*
X166057973Y-110379004D01*
X166081772Y-110384965D01*
X166104871Y-110393230D01*
X166127050Y-110403720D01*
X166148093Y-110416332D01*
X166167799Y-110430947D01*
X166185977Y-110447423D01*
X166202453Y-110465601D01*
X166217068Y-110485307D01*
X166229680Y-110506350D01*
X166240170Y-110528529D01*
X166248435Y-110551628D01*
X166254396Y-110575427D01*
X166257996Y-110599695D01*
X166259200Y-110624199D01*
X166259200Y-111524201D01*
X166257996Y-111548705D01*
X166254396Y-111572973D01*
X166248435Y-111596772D01*
X166240170Y-111619871D01*
X166229680Y-111642050D01*
X166217068Y-111663093D01*
X166202453Y-111682799D01*
X166185977Y-111700977D01*
X166167799Y-111717453D01*
X166148093Y-111732068D01*
X166127050Y-111744680D01*
X166104871Y-111755170D01*
X166081772Y-111763435D01*
X166057973Y-111769396D01*
X166033705Y-111772996D01*
X166009201Y-111774200D01*
X165359199Y-111774200D01*
X165334695Y-111772996D01*
X165310427Y-111769396D01*
X165286628Y-111763435D01*
X165263529Y-111755170D01*
X165241350Y-111744680D01*
X165220307Y-111732068D01*
X165200601Y-111717453D01*
X165182423Y-111700977D01*
X165165947Y-111682799D01*
X165151332Y-111663093D01*
X165138720Y-111642050D01*
X165128230Y-111619871D01*
X165119965Y-111596772D01*
X165114004Y-111572973D01*
X165110404Y-111548705D01*
X165109200Y-111524201D01*
X165109200Y-110624199D01*
X165110404Y-110599695D01*
X165114004Y-110575427D01*
X165119965Y-110551628D01*
X165128230Y-110528529D01*
X165138720Y-110506350D01*
X165151332Y-110485307D01*
X165165947Y-110465601D01*
X165182423Y-110447423D01*
X165200601Y-110430947D01*
X165220307Y-110416332D01*
X165241350Y-110403720D01*
X165263529Y-110393230D01*
X165286628Y-110384965D01*
X165310427Y-110379004D01*
X165334695Y-110375404D01*
X165359199Y-110374200D01*
X166009201Y-110374200D01*
X166033705Y-110375404D01*
X166033705Y-110375404D01*
G37*
D14*
X165684200Y-111074200D03*
D12*
G36*
X163983705Y-110375404D02*
G01*
X164007973Y-110379004D01*
X164031772Y-110384965D01*
X164054871Y-110393230D01*
X164077050Y-110403720D01*
X164098093Y-110416332D01*
X164117799Y-110430947D01*
X164135977Y-110447423D01*
X164152453Y-110465601D01*
X164167068Y-110485307D01*
X164179680Y-110506350D01*
X164190170Y-110528529D01*
X164198435Y-110551628D01*
X164204396Y-110575427D01*
X164207996Y-110599695D01*
X164209200Y-110624199D01*
X164209200Y-111524201D01*
X164207996Y-111548705D01*
X164204396Y-111572973D01*
X164198435Y-111596772D01*
X164190170Y-111619871D01*
X164179680Y-111642050D01*
X164167068Y-111663093D01*
X164152453Y-111682799D01*
X164135977Y-111700977D01*
X164117799Y-111717453D01*
X164098093Y-111732068D01*
X164077050Y-111744680D01*
X164054871Y-111755170D01*
X164031772Y-111763435D01*
X164007973Y-111769396D01*
X163983705Y-111772996D01*
X163959201Y-111774200D01*
X163309199Y-111774200D01*
X163284695Y-111772996D01*
X163260427Y-111769396D01*
X163236628Y-111763435D01*
X163213529Y-111755170D01*
X163191350Y-111744680D01*
X163170307Y-111732068D01*
X163150601Y-111717453D01*
X163132423Y-111700977D01*
X163115947Y-111682799D01*
X163101332Y-111663093D01*
X163088720Y-111642050D01*
X163078230Y-111619871D01*
X163069965Y-111596772D01*
X163064004Y-111572973D01*
X163060404Y-111548705D01*
X163059200Y-111524201D01*
X163059200Y-110624199D01*
X163060404Y-110599695D01*
X163064004Y-110575427D01*
X163069965Y-110551628D01*
X163078230Y-110528529D01*
X163088720Y-110506350D01*
X163101332Y-110485307D01*
X163115947Y-110465601D01*
X163132423Y-110447423D01*
X163150601Y-110430947D01*
X163170307Y-110416332D01*
X163191350Y-110403720D01*
X163213529Y-110393230D01*
X163236628Y-110384965D01*
X163260427Y-110379004D01*
X163284695Y-110375404D01*
X163309199Y-110374200D01*
X163959201Y-110374200D01*
X163983705Y-110375404D01*
X163983705Y-110375404D01*
G37*
D14*
X163634200Y-111074200D03*
D23*
X151587200Y-102539800D03*
X164000400Y-112568998D03*
X169341800Y-97459800D03*
X156387800Y-107467400D03*
X152146000Y-111252000D03*
X156794200Y-89738200D03*
X148031200Y-89712800D03*
X163245800Y-89712800D03*
X172059600Y-89738200D03*
X159385000Y-106172000D03*
X161925000Y-111125000D03*
X157458041Y-112289589D03*
X161366200Y-93014800D03*
X166268400Y-105958998D03*
X168478200Y-100718391D03*
X165967700Y-98319300D03*
X156540200Y-109582790D03*
X159486600Y-109118400D03*
X155580411Y-103789773D03*
X164338000Y-102057210D03*
X156027476Y-100456994D03*
X162026600Y-99009200D03*
X159715195Y-112614292D03*
X160146321Y-111646035D03*
X160604200Y-112649000D03*
X150495000Y-110159800D03*
X152866541Y-110136653D03*
X157208215Y-104829778D03*
X167868600Y-109270800D03*
X154254200Y-104927400D03*
X167894000Y-108178600D03*
X158445200Y-104383714D03*
X154305000Y-105765600D03*
X163626800Y-103504979D03*
X158474098Y-103189892D03*
X156242800Y-101549200D03*
X156032200Y-99822000D03*
X162229800Y-99923600D03*
X169595800Y-96240600D03*
X169722800Y-95326200D03*
X159410400Y-103479600D03*
D24*
X163648602Y-112568998D02*
X164000400Y-112568998D01*
X163420000Y-112797600D02*
X163648602Y-112568998D01*
X163420000Y-113375000D02*
X163420000Y-112797600D01*
X162448602Y-112568998D02*
X163648602Y-112568998D01*
X162220000Y-112797600D02*
X162448602Y-112568998D01*
X162220000Y-113375000D02*
X162220000Y-112797600D01*
X157820000Y-113375000D02*
X157820000Y-112797600D01*
X157769199Y-112746799D02*
X156670801Y-112746799D01*
X156620000Y-113375000D02*
X156620000Y-112220000D01*
X156620000Y-112797600D02*
X156620000Y-113375000D01*
X156670801Y-112746799D02*
X156620000Y-112797600D01*
X157715000Y-111125000D02*
X158115000Y-111125000D01*
X157820000Y-112797600D02*
X157769199Y-112746799D01*
X156620000Y-112220000D02*
X157715000Y-111125000D01*
X164189402Y-112568998D02*
X164000400Y-112568998D01*
X165684200Y-111074200D02*
X164189402Y-112568998D01*
X168568400Y-107424800D02*
X169062400Y-107918800D01*
X168568400Y-106172400D02*
X168568400Y-107424800D01*
X155222400Y-113850000D02*
X154470000Y-113850000D01*
X155375601Y-114003201D02*
X155222400Y-113850000D01*
X156569199Y-114003201D02*
X155375601Y-114003201D01*
X156620000Y-113952400D02*
X156569199Y-114003201D01*
X156620000Y-113375000D02*
X156620000Y-113952400D01*
X161554290Y-112263310D02*
X161554290Y-111495710D01*
X161554290Y-111495710D02*
X161925000Y-111125000D01*
X161020000Y-113375000D02*
X161071279Y-113323721D01*
X161071279Y-113323721D02*
X161071279Y-112746321D01*
X161071279Y-112746321D02*
X161554290Y-112263310D01*
X158634189Y-112411789D02*
X157939451Y-112411789D01*
X157939451Y-112411789D02*
X157817251Y-112289589D01*
X157817251Y-112289589D02*
X157458041Y-112289589D01*
X159020000Y-113375000D02*
X159020000Y-112797600D01*
X159020000Y-112797600D02*
X158634189Y-112411789D01*
X158634189Y-110401295D02*
X158634189Y-112411789D01*
X160951306Y-109946790D02*
X159088694Y-109946790D01*
X161554290Y-110549774D02*
X160951306Y-109946790D01*
X161554290Y-110754290D02*
X161554290Y-110549774D01*
X159088694Y-109946790D02*
X158634189Y-110401295D01*
X161925000Y-111125000D02*
X161554290Y-110754290D01*
X166268400Y-97604800D02*
X166123400Y-97459800D01*
X166268400Y-99872400D02*
X166268400Y-97604800D01*
X163761200Y-93014800D02*
X166123400Y-95377000D01*
X161366200Y-93014800D02*
X163761200Y-93014800D01*
X166123400Y-95377000D02*
X166123400Y-97459800D01*
X166268400Y-98620000D02*
X166268400Y-99872400D01*
X164168400Y-96520000D02*
X165967700Y-98319300D01*
X147320000Y-96520000D02*
X164168400Y-96520000D01*
X168249200Y-99872400D02*
X168275000Y-99898200D01*
X166268400Y-99872400D02*
X168249200Y-99872400D01*
X166268400Y-99872400D02*
X168320800Y-99872400D01*
X168478200Y-100029800D02*
X168478200Y-100718391D01*
X168320800Y-99872400D02*
X168478200Y-100029800D01*
X165967700Y-98319300D02*
X166268400Y-98620000D01*
X147320000Y-111760000D02*
X154362990Y-111760000D01*
X154362990Y-111760000D02*
X156540200Y-109582790D01*
X156327930Y-109118400D02*
X159486600Y-109118400D01*
X147320000Y-109220000D02*
X156226330Y-109220000D01*
X156226330Y-109220000D02*
X156327930Y-109118400D01*
X147320000Y-106680000D02*
X150210227Y-103789773D01*
X150210227Y-103789773D02*
X155580411Y-103789773D01*
X159241743Y-103987601D02*
X159680657Y-103987601D01*
X158254641Y-103647093D02*
X158901235Y-103647093D01*
X148169999Y-103290001D02*
X155757297Y-103290001D01*
X156073883Y-103606587D02*
X158214135Y-103606587D01*
X161611048Y-102057210D02*
X164338000Y-102057210D01*
X158214135Y-103606587D02*
X158254641Y-103647093D01*
X155757297Y-103290001D02*
X156073883Y-103606587D01*
X159680657Y-103987601D02*
X161611048Y-102057210D01*
X158901235Y-103647093D02*
X159241743Y-103987601D01*
X147320000Y-104140000D02*
X148169999Y-103290001D01*
X148463006Y-100456994D02*
X156027476Y-100456994D01*
X147320000Y-101600000D02*
X148463006Y-100456994D01*
X161975800Y-99060000D02*
X162026600Y-99009200D01*
X147320000Y-99060000D02*
X161975800Y-99060000D01*
D25*
X159385000Y-112200000D02*
X159820000Y-112635000D01*
X159820000Y-112635000D02*
X159820000Y-113375000D01*
X159385000Y-111125000D02*
X159385000Y-112200000D01*
X160159699Y-113314699D02*
X160220000Y-113375000D01*
X160159699Y-111620301D02*
X160159699Y-113314699D01*
X160655000Y-111125000D02*
X160159699Y-111620301D01*
D24*
X160604200Y-112649000D02*
X160604200Y-113359200D01*
X160604200Y-113359200D02*
X160620000Y-113375000D01*
X150495000Y-110159800D02*
X152843394Y-110159800D01*
X152843394Y-110159800D02*
X152866541Y-110136653D01*
X171666799Y-110706799D02*
X171666799Y-107055037D01*
X165221464Y-104419410D02*
X164764243Y-103962189D01*
X171666799Y-107055037D02*
X169031173Y-104419411D01*
X169031173Y-104419411D02*
X165221464Y-104419410D01*
X158111489Y-103926504D02*
X157208215Y-104829778D01*
X159126008Y-104267012D02*
X158785500Y-103926504D01*
X160101215Y-103962189D02*
X159796392Y-104267012D01*
X158785500Y-103926504D02*
X158111489Y-103926504D01*
X159796392Y-104267012D02*
X159126008Y-104267012D01*
X172720000Y-111760000D02*
X171666799Y-110706799D01*
X164764243Y-103962189D02*
X160101215Y-103962189D01*
X166755892Y-109270800D02*
X164921601Y-107436509D01*
X164880961Y-104869199D02*
X157845454Y-104869199D01*
X167868600Y-109270800D02*
X166755892Y-109270800D01*
X164921601Y-107436509D02*
X164921601Y-104909839D01*
X157845454Y-104869199D02*
X157427673Y-105286980D01*
X164921601Y-104909839D02*
X164880961Y-104869199D01*
X154613780Y-105286980D02*
X154254200Y-104927400D01*
X157427673Y-105286980D02*
X154613780Y-105286980D01*
X159912127Y-104546423D02*
X158967119Y-104546423D01*
X158967119Y-104546423D02*
X158804410Y-104383714D01*
X165201014Y-107320776D02*
X165201011Y-104794103D01*
X158804410Y-104383714D02*
X158445200Y-104383714D01*
X167894000Y-108178600D02*
X166058838Y-108178600D01*
X165201011Y-104794103D02*
X164750108Y-104343200D01*
X164750108Y-104343200D02*
X160115350Y-104343200D01*
X160115350Y-104343200D02*
X159912127Y-104546423D01*
X166058838Y-108178600D02*
X165201014Y-107320776D01*
X152527000Y-107543600D02*
X152527000Y-107569000D01*
X154305000Y-105765600D02*
X152527000Y-107543600D01*
X164702179Y-103504979D02*
X163626800Y-103504979D01*
X165337200Y-104140000D02*
X164702179Y-103504979D01*
X172720000Y-104140000D02*
X165337200Y-104140000D01*
X157883492Y-103189892D02*
X158474098Y-103189892D01*
X156242800Y-101549200D02*
X157883492Y-103189892D01*
X172720000Y-101600000D02*
X159759538Y-101600000D01*
X157981538Y-99822000D02*
X156032200Y-99822000D01*
X159759538Y-101600000D02*
X157981538Y-99822000D01*
X170604399Y-101175601D02*
X172720000Y-99060000D01*
X162229800Y-99923600D02*
X163481801Y-101175601D01*
X163481801Y-101175601D02*
X170604399Y-101175601D01*
X172440600Y-96240600D02*
X172720000Y-96520000D01*
X169595800Y-96240600D02*
X172440600Y-96240600D01*
X172376200Y-95326200D02*
X172720000Y-94982400D01*
X172720000Y-94982400D02*
X172720000Y-93980000D01*
X169722800Y-95326200D02*
X172376200Y-95326200D01*
X151380210Y-108472210D02*
X150477000Y-107569000D01*
X160655000Y-107250000D02*
X159432790Y-108472210D01*
X159432790Y-108472210D02*
X151380210Y-108472210D01*
X160655000Y-106175000D02*
X160655000Y-107250000D01*
X158292800Y-102362000D02*
X158292800Y-101549200D01*
X159410400Y-103479600D02*
X158292800Y-102362000D01*
D26*
G36*
X164095400Y-106045400D02*
G01*
X164115400Y-106045400D01*
X164115400Y-106299400D01*
X164095400Y-106299400D01*
X164095400Y-107748650D01*
X164236400Y-107889650D01*
X164236400Y-109738807D01*
X164209200Y-109736128D01*
X163919950Y-109739200D01*
X163761200Y-109897950D01*
X163761200Y-110947200D01*
X163781200Y-110947200D01*
X163781200Y-111201200D01*
X163761200Y-111201200D01*
X163761200Y-111221200D01*
X163507200Y-111221200D01*
X163507200Y-111201200D01*
X162582950Y-111201200D01*
X162532150Y-111252000D01*
X162052000Y-111252000D01*
X162052000Y-111272000D01*
X161798000Y-111272000D01*
X161798000Y-111252000D01*
X161778000Y-111252000D01*
X161778000Y-110998000D01*
X161798000Y-110998000D01*
X161798000Y-109673750D01*
X162052000Y-109673750D01*
X162052000Y-110998000D01*
X162701250Y-110998000D01*
X162752050Y-110947200D01*
X163507200Y-110947200D01*
X163507200Y-109897950D01*
X163348450Y-109739200D01*
X163059200Y-109736128D01*
X162934718Y-109748388D01*
X162815020Y-109784698D01*
X162764262Y-109811829D01*
X162755537Y-109795506D01*
X162676185Y-109698815D01*
X162579494Y-109619463D01*
X162469180Y-109560498D01*
X162349482Y-109524188D01*
X162225000Y-109511928D01*
X162210750Y-109515000D01*
X162052000Y-109673750D01*
X161798000Y-109673750D01*
X161639250Y-109515000D01*
X161625000Y-109511928D01*
X161518600Y-109522407D01*
X161518600Y-107777593D01*
X161625000Y-107788072D01*
X161639250Y-107785000D01*
X161798000Y-107626250D01*
X161798000Y-106302000D01*
X162052000Y-106302000D01*
X162052000Y-107626250D01*
X162210750Y-107785000D01*
X162225000Y-107788072D01*
X162349482Y-107775812D01*
X162469180Y-107739502D01*
X162579494Y-107680537D01*
X162674750Y-107602362D01*
X162687863Y-107626894D01*
X162767215Y-107723585D01*
X162863906Y-107802937D01*
X162974220Y-107861902D01*
X163093918Y-107898212D01*
X163218400Y-107910472D01*
X163682650Y-107907400D01*
X163841400Y-107748650D01*
X163841400Y-106299400D01*
X162742150Y-106299400D01*
X162720400Y-106321150D01*
X162701250Y-106302000D01*
X162052000Y-106302000D01*
X161798000Y-106302000D01*
X161778000Y-106302000D01*
X161778000Y-106048000D01*
X161798000Y-106048000D01*
X161798000Y-106028000D01*
X162052000Y-106028000D01*
X162052000Y-106048000D01*
X162701250Y-106048000D01*
X162723000Y-106026250D01*
X162742150Y-106045400D01*
X163841400Y-106045400D01*
X163841400Y-106025400D01*
X164095400Y-106025400D01*
X164095400Y-106045400D01*
X164095400Y-106045400D01*
G37*
X164095400Y-106045400D02*
X164115400Y-106045400D01*
X164115400Y-106299400D01*
X164095400Y-106299400D01*
X164095400Y-107748650D01*
X164236400Y-107889650D01*
X164236400Y-109738807D01*
X164209200Y-109736128D01*
X163919950Y-109739200D01*
X163761200Y-109897950D01*
X163761200Y-110947200D01*
X163781200Y-110947200D01*
X163781200Y-111201200D01*
X163761200Y-111201200D01*
X163761200Y-111221200D01*
X163507200Y-111221200D01*
X163507200Y-111201200D01*
X162582950Y-111201200D01*
X162532150Y-111252000D01*
X162052000Y-111252000D01*
X162052000Y-111272000D01*
X161798000Y-111272000D01*
X161798000Y-111252000D01*
X161778000Y-111252000D01*
X161778000Y-110998000D01*
X161798000Y-110998000D01*
X161798000Y-109673750D01*
X162052000Y-109673750D01*
X162052000Y-110998000D01*
X162701250Y-110998000D01*
X162752050Y-110947200D01*
X163507200Y-110947200D01*
X163507200Y-109897950D01*
X163348450Y-109739200D01*
X163059200Y-109736128D01*
X162934718Y-109748388D01*
X162815020Y-109784698D01*
X162764262Y-109811829D01*
X162755537Y-109795506D01*
X162676185Y-109698815D01*
X162579494Y-109619463D01*
X162469180Y-109560498D01*
X162349482Y-109524188D01*
X162225000Y-109511928D01*
X162210750Y-109515000D01*
X162052000Y-109673750D01*
X161798000Y-109673750D01*
X161639250Y-109515000D01*
X161625000Y-109511928D01*
X161518600Y-109522407D01*
X161518600Y-107777593D01*
X161625000Y-107788072D01*
X161639250Y-107785000D01*
X161798000Y-107626250D01*
X161798000Y-106302000D01*
X162052000Y-106302000D01*
X162052000Y-107626250D01*
X162210750Y-107785000D01*
X162225000Y-107788072D01*
X162349482Y-107775812D01*
X162469180Y-107739502D01*
X162579494Y-107680537D01*
X162674750Y-107602362D01*
X162687863Y-107626894D01*
X162767215Y-107723585D01*
X162863906Y-107802937D01*
X162974220Y-107861902D01*
X163093918Y-107898212D01*
X163218400Y-107910472D01*
X163682650Y-107907400D01*
X163841400Y-107748650D01*
X163841400Y-106299400D01*
X162742150Y-106299400D01*
X162720400Y-106321150D01*
X162701250Y-106302000D01*
X162052000Y-106302000D01*
X161798000Y-106302000D01*
X161778000Y-106302000D01*
X161778000Y-106048000D01*
X161798000Y-106048000D01*
X161798000Y-106028000D01*
X162052000Y-106028000D01*
X162052000Y-106048000D01*
X162701250Y-106048000D01*
X162723000Y-106026250D01*
X162742150Y-106045400D01*
X163841400Y-106045400D01*
X163841400Y-106025400D01*
X164095400Y-106025400D01*
X164095400Y-106045400D01*
G36*
X146177000Y-86074250D02*
G01*
X146335750Y-86233000D01*
X147891500Y-86233000D01*
X147891500Y-86213000D01*
X148145500Y-86213000D01*
X148145500Y-86233000D01*
X149701250Y-86233000D01*
X149860000Y-86074250D01*
X149862938Y-83918000D01*
X154937062Y-83918000D01*
X154940000Y-86074250D01*
X155098750Y-86233000D01*
X156654500Y-86233000D01*
X156654500Y-86213000D01*
X156908500Y-86213000D01*
X156908500Y-86233000D01*
X158464250Y-86233000D01*
X158623000Y-86074250D01*
X158625938Y-83918000D01*
X161414062Y-83918000D01*
X161417000Y-86074250D01*
X161575750Y-86233000D01*
X163131500Y-86233000D01*
X163131500Y-86213000D01*
X163385500Y-86213000D01*
X163385500Y-86233000D01*
X164941250Y-86233000D01*
X165100000Y-86074250D01*
X165102938Y-83918000D01*
X170177062Y-83918000D01*
X170180000Y-86074250D01*
X170338750Y-86233000D01*
X171894500Y-86233000D01*
X171894500Y-86213000D01*
X172148500Y-86213000D01*
X172148500Y-86233000D01*
X173704250Y-86233000D01*
X173863000Y-86074250D01*
X173865938Y-83918000D01*
X174908001Y-83918000D01*
X174908000Y-121123500D01*
X165071000Y-121123500D01*
X165071000Y-120685000D01*
X165117002Y-120685000D01*
X165117002Y-120653252D01*
X165148750Y-120685000D01*
X165246669Y-120674339D01*
X165365942Y-120636655D01*
X165437882Y-120597132D01*
X165442998Y-120602248D01*
X165442998Y-120685000D01*
X165525750Y-120685000D01*
X165549239Y-120687877D01*
X165588326Y-120685000D01*
X165697002Y-120685000D01*
X165697002Y-120672330D01*
X165794544Y-120645353D01*
X165848789Y-120618059D01*
X165887609Y-120643462D01*
X165925282Y-120639591D01*
X166150533Y-120547421D01*
X166353474Y-120413078D01*
X166526307Y-120241725D01*
X166662390Y-120039946D01*
X166756493Y-119815496D01*
X166805000Y-119577000D01*
X166805000Y-119027000D01*
X165697000Y-119027000D01*
X165697000Y-119047000D01*
X165611250Y-119047000D01*
X165591250Y-119027000D01*
X165071000Y-119027000D01*
X165071000Y-118773000D01*
X165591250Y-118773000D01*
X165611250Y-118753000D01*
X165697000Y-118753000D01*
X165697000Y-118773000D01*
X166805000Y-118773000D01*
X166805000Y-118223000D01*
X166756493Y-117984504D01*
X166662390Y-117760054D01*
X166526307Y-117558275D01*
X166353474Y-117386922D01*
X166150533Y-117252579D01*
X165925282Y-117160409D01*
X165887609Y-117156538D01*
X165848789Y-117181941D01*
X165794544Y-117154647D01*
X165697002Y-117127670D01*
X165697002Y-117115000D01*
X165588326Y-117115000D01*
X165549239Y-117112123D01*
X165525750Y-117115000D01*
X165442998Y-117115000D01*
X165442998Y-117197752D01*
X165437882Y-117202868D01*
X165365942Y-117163345D01*
X165246669Y-117125661D01*
X165148750Y-117115000D01*
X165117002Y-117146748D01*
X165117002Y-117115000D01*
X165071000Y-117115000D01*
X165071000Y-115530783D01*
X165214718Y-115589591D01*
X165252391Y-115593462D01*
X165443000Y-115468731D01*
X165443000Y-113977000D01*
X165697000Y-113977000D01*
X165697000Y-115468731D01*
X165887609Y-115593462D01*
X165925282Y-115589591D01*
X166150533Y-115497421D01*
X166353474Y-115363078D01*
X166526307Y-115191725D01*
X166662390Y-114989946D01*
X166756493Y-114765496D01*
X166778582Y-114656890D01*
X171278524Y-114656890D01*
X171323175Y-114804099D01*
X171448359Y-115066920D01*
X171622412Y-115300269D01*
X171838645Y-115495178D01*
X172088748Y-115644157D01*
X172327885Y-115728986D01*
X172267403Y-115747333D01*
X172062930Y-115856626D01*
X171883709Y-116003709D01*
X171736626Y-116182930D01*
X171627333Y-116387403D01*
X171560031Y-116609268D01*
X171537306Y-116840000D01*
X171560031Y-117070732D01*
X171627333Y-117292597D01*
X171736626Y-117497070D01*
X171883709Y-117676291D01*
X172062930Y-117823374D01*
X172267403Y-117932667D01*
X172489268Y-117999969D01*
X172662188Y-118017000D01*
X172777812Y-118017000D01*
X172950732Y-117999969D01*
X173172597Y-117932667D01*
X173377070Y-117823374D01*
X173556291Y-117676291D01*
X173703374Y-117497070D01*
X173812667Y-117292597D01*
X173879969Y-117070732D01*
X173902694Y-116840000D01*
X173879969Y-116609268D01*
X173812667Y-116387403D01*
X173703374Y-116182930D01*
X173556291Y-116003709D01*
X173377070Y-115856626D01*
X173172597Y-115747333D01*
X173112115Y-115728986D01*
X173351252Y-115644157D01*
X173601355Y-115495178D01*
X173817588Y-115300269D01*
X173991641Y-115066920D01*
X174116825Y-114804099D01*
X174161476Y-114656890D01*
X174040155Y-114427000D01*
X172847000Y-114427000D01*
X172847000Y-114447000D01*
X172593000Y-114447000D01*
X172593000Y-114427000D01*
X171399845Y-114427000D01*
X171278524Y-114656890D01*
X166778582Y-114656890D01*
X166805000Y-114527000D01*
X166805000Y-113977000D01*
X165697000Y-113977000D01*
X165443000Y-113977000D01*
X165423000Y-113977000D01*
X165423000Y-113723000D01*
X165443000Y-113723000D01*
X165443000Y-112364650D01*
X165557200Y-112250450D01*
X165557200Y-112231269D01*
X165697000Y-112231269D01*
X165697000Y-113723000D01*
X166805000Y-113723000D01*
X166805000Y-113173000D01*
X166756493Y-112934504D01*
X166662390Y-112710054D01*
X166526307Y-112508275D01*
X166409278Y-112392248D01*
X166503380Y-112363702D01*
X166613694Y-112304737D01*
X166710385Y-112225385D01*
X166789737Y-112128694D01*
X166848702Y-112018380D01*
X166885012Y-111898682D01*
X166897272Y-111774200D01*
X166894200Y-111359950D01*
X166735450Y-111201200D01*
X165811200Y-111201200D01*
X165811200Y-112156539D01*
X165697000Y-112231269D01*
X165557200Y-112231269D01*
X165557200Y-111201200D01*
X165537200Y-111201200D01*
X165537200Y-110947200D01*
X165557200Y-110947200D01*
X165557200Y-109897950D01*
X165811200Y-109897950D01*
X165811200Y-110947200D01*
X166735450Y-110947200D01*
X166894200Y-110788450D01*
X166897272Y-110374200D01*
X166885012Y-110249718D01*
X166848702Y-110130020D01*
X166789737Y-110019706D01*
X166710385Y-109923015D01*
X166613694Y-109843663D01*
X166503380Y-109784698D01*
X166383682Y-109748388D01*
X166259200Y-109736128D01*
X165969950Y-109739200D01*
X165811200Y-109897950D01*
X165557200Y-109897950D01*
X165398450Y-109739200D01*
X165109200Y-109736128D01*
X164998400Y-109747040D01*
X164998400Y-108083518D01*
X166456790Y-109541909D01*
X166469408Y-109557284D01*
X166530803Y-109607670D01*
X166600848Y-109645110D01*
X166676851Y-109668165D01*
X166736094Y-109674000D01*
X166736103Y-109674000D01*
X166755891Y-109675949D01*
X166775679Y-109674000D01*
X167450142Y-109674000D01*
X167498234Y-109722092D01*
X167593393Y-109785675D01*
X167699129Y-109829472D01*
X167811377Y-109851800D01*
X167925823Y-109851800D01*
X168038071Y-109829472D01*
X168143807Y-109785675D01*
X168238966Y-109722092D01*
X168319892Y-109641166D01*
X168383475Y-109546007D01*
X168427272Y-109440271D01*
X168449600Y-109328023D01*
X168449600Y-109213577D01*
X168427272Y-109101329D01*
X168383475Y-108995593D01*
X168319892Y-108900434D01*
X168238966Y-108819508D01*
X168143807Y-108755925D01*
X168081123Y-108729960D01*
X168169207Y-108693475D01*
X168264366Y-108629892D01*
X168345292Y-108548966D01*
X168408875Y-108453807D01*
X168452672Y-108348071D01*
X168475000Y-108235823D01*
X168475000Y-108121377D01*
X168452672Y-108009129D01*
X168408875Y-107903393D01*
X168359921Y-107830129D01*
X168441400Y-107748650D01*
X168441400Y-106299400D01*
X168695400Y-106299400D01*
X168695400Y-107748650D01*
X168854150Y-107907400D01*
X169318400Y-107910472D01*
X169442882Y-107898212D01*
X169562580Y-107861902D01*
X169672894Y-107802937D01*
X169769585Y-107723585D01*
X169848937Y-107626894D01*
X169907902Y-107516580D01*
X169944212Y-107396882D01*
X169956472Y-107272400D01*
X169953400Y-106458150D01*
X169794650Y-106299400D01*
X168695400Y-106299400D01*
X168441400Y-106299400D01*
X168421400Y-106299400D01*
X168421400Y-106045400D01*
X168441400Y-106045400D01*
X168441400Y-106025400D01*
X168695400Y-106025400D01*
X168695400Y-106045400D01*
X169794650Y-106045400D01*
X169940801Y-105899249D01*
X171263600Y-107222049D01*
X171263599Y-110687008D01*
X171261650Y-110706799D01*
X171263599Y-110726590D01*
X171263599Y-110726596D01*
X171269434Y-110785839D01*
X171292489Y-110861842D01*
X171329929Y-110931887D01*
X171380315Y-110993283D01*
X171395696Y-111005906D01*
X171651667Y-111261877D01*
X171627333Y-111307403D01*
X171560031Y-111529268D01*
X171537306Y-111760000D01*
X171560031Y-111990732D01*
X171627333Y-112212597D01*
X171736626Y-112417070D01*
X171883709Y-112596291D01*
X172062930Y-112743374D01*
X172267403Y-112852667D01*
X172327885Y-112871014D01*
X172088748Y-112955843D01*
X171838645Y-113104822D01*
X171622412Y-113299731D01*
X171448359Y-113533080D01*
X171323175Y-113795901D01*
X171278524Y-113943110D01*
X171399845Y-114173000D01*
X172593000Y-114173000D01*
X172593000Y-114153000D01*
X172847000Y-114153000D01*
X172847000Y-114173000D01*
X174040155Y-114173000D01*
X174161476Y-113943110D01*
X174116825Y-113795901D01*
X173991641Y-113533080D01*
X173817588Y-113299731D01*
X173601355Y-113104822D01*
X173351252Y-112955843D01*
X173112115Y-112871014D01*
X173172597Y-112852667D01*
X173377070Y-112743374D01*
X173556291Y-112596291D01*
X173703374Y-112417070D01*
X173812667Y-112212597D01*
X173879969Y-111990732D01*
X173902694Y-111760000D01*
X173879969Y-111529268D01*
X173812667Y-111307403D01*
X173703374Y-111102930D01*
X173556291Y-110923709D01*
X173377070Y-110776626D01*
X173172597Y-110667333D01*
X172950732Y-110600031D01*
X172777812Y-110583000D01*
X172662188Y-110583000D01*
X172489268Y-110600031D01*
X172267403Y-110667333D01*
X172221877Y-110691667D01*
X172069999Y-110539789D01*
X172069999Y-110207152D01*
X172267403Y-110312667D01*
X172489268Y-110379969D01*
X172662188Y-110397000D01*
X172777812Y-110397000D01*
X172950732Y-110379969D01*
X173172597Y-110312667D01*
X173377070Y-110203374D01*
X173556291Y-110056291D01*
X173703374Y-109877070D01*
X173812667Y-109672597D01*
X173879969Y-109450732D01*
X173902694Y-109220000D01*
X173879969Y-108989268D01*
X173812667Y-108767403D01*
X173703374Y-108562930D01*
X173556291Y-108383709D01*
X173377070Y-108236626D01*
X173172597Y-108127333D01*
X172950732Y-108060031D01*
X172777812Y-108043000D01*
X172662188Y-108043000D01*
X172489268Y-108060031D01*
X172267403Y-108127333D01*
X172069999Y-108232848D01*
X172069999Y-107667152D01*
X172267403Y-107772667D01*
X172489268Y-107839969D01*
X172662188Y-107857000D01*
X172777812Y-107857000D01*
X172950732Y-107839969D01*
X173172597Y-107772667D01*
X173377070Y-107663374D01*
X173556291Y-107516291D01*
X173703374Y-107337070D01*
X173812667Y-107132597D01*
X173879969Y-106910732D01*
X173902694Y-106680000D01*
X173879969Y-106449268D01*
X173812667Y-106227403D01*
X173703374Y-106022930D01*
X173556291Y-105843709D01*
X173377070Y-105696626D01*
X173172597Y-105587333D01*
X172950732Y-105520031D01*
X172777812Y-105503000D01*
X172662188Y-105503000D01*
X172489268Y-105520031D01*
X172267403Y-105587333D01*
X172062930Y-105696626D01*
X171883709Y-105843709D01*
X171736626Y-106022930D01*
X171627333Y-106227403D01*
X171576605Y-106394632D01*
X169725172Y-104543200D01*
X171612349Y-104543200D01*
X171627333Y-104592597D01*
X171736626Y-104797070D01*
X171883709Y-104976291D01*
X172062930Y-105123374D01*
X172267403Y-105232667D01*
X172489268Y-105299969D01*
X172662188Y-105317000D01*
X172777812Y-105317000D01*
X172950732Y-105299969D01*
X173172597Y-105232667D01*
X173377070Y-105123374D01*
X173556291Y-104976291D01*
X173703374Y-104797070D01*
X173812667Y-104592597D01*
X173879969Y-104370732D01*
X173902694Y-104140000D01*
X173879969Y-103909268D01*
X173812667Y-103687403D01*
X173703374Y-103482930D01*
X173556291Y-103303709D01*
X173377070Y-103156626D01*
X173172597Y-103047333D01*
X172950732Y-102980031D01*
X172777812Y-102963000D01*
X172662188Y-102963000D01*
X172489268Y-102980031D01*
X172267403Y-103047333D01*
X172062930Y-103156626D01*
X171883709Y-103303709D01*
X171736626Y-103482930D01*
X171627333Y-103687403D01*
X171612349Y-103736800D01*
X165504211Y-103736800D01*
X165001286Y-103233876D01*
X164988663Y-103218495D01*
X164927268Y-103168109D01*
X164857223Y-103130669D01*
X164781220Y-103107614D01*
X164721977Y-103101779D01*
X164721970Y-103101779D01*
X164702179Y-103099830D01*
X164682388Y-103101779D01*
X164045258Y-103101779D01*
X163997166Y-103053687D01*
X163902007Y-102990104D01*
X163796271Y-102946307D01*
X163684023Y-102923979D01*
X163569577Y-102923979D01*
X163457329Y-102946307D01*
X163351593Y-102990104D01*
X163256434Y-103053687D01*
X163175508Y-103134613D01*
X163111925Y-103229772D01*
X163068128Y-103335508D01*
X163045800Y-103447756D01*
X163045800Y-103558989D01*
X160679479Y-103558989D01*
X161778059Y-102460410D01*
X163919542Y-102460410D01*
X163967634Y-102508502D01*
X164062793Y-102572085D01*
X164168529Y-102615882D01*
X164280777Y-102638210D01*
X164395223Y-102638210D01*
X164507471Y-102615882D01*
X164613207Y-102572085D01*
X164708366Y-102508502D01*
X164789292Y-102427576D01*
X164852875Y-102332417D01*
X164896672Y-102226681D01*
X164919000Y-102114433D01*
X164919000Y-102003200D01*
X171612349Y-102003200D01*
X171627333Y-102052597D01*
X171736626Y-102257070D01*
X171883709Y-102436291D01*
X172062930Y-102583374D01*
X172267403Y-102692667D01*
X172489268Y-102759969D01*
X172662188Y-102777000D01*
X172777812Y-102777000D01*
X172950732Y-102759969D01*
X173172597Y-102692667D01*
X173377070Y-102583374D01*
X173556291Y-102436291D01*
X173703374Y-102257070D01*
X173812667Y-102052597D01*
X173879969Y-101830732D01*
X173902694Y-101600000D01*
X173879969Y-101369268D01*
X173812667Y-101147403D01*
X173703374Y-100942930D01*
X173556291Y-100763709D01*
X173377070Y-100616626D01*
X173172597Y-100507333D01*
X172950732Y-100440031D01*
X172777812Y-100423000D01*
X172662188Y-100423000D01*
X172489268Y-100440031D01*
X172267403Y-100507333D01*
X172062930Y-100616626D01*
X171883709Y-100763709D01*
X171736626Y-100942930D01*
X171627333Y-101147403D01*
X171612349Y-101196800D01*
X171153410Y-101196800D01*
X172221877Y-100128333D01*
X172267403Y-100152667D01*
X172489268Y-100219969D01*
X172662188Y-100237000D01*
X172777812Y-100237000D01*
X172950732Y-100219969D01*
X173172597Y-100152667D01*
X173377070Y-100043374D01*
X173556291Y-99896291D01*
X173703374Y-99717070D01*
X173812667Y-99512597D01*
X173879969Y-99290732D01*
X173902694Y-99060000D01*
X173879969Y-98829268D01*
X173812667Y-98607403D01*
X173703374Y-98402930D01*
X173556291Y-98223709D01*
X173377070Y-98076626D01*
X173172597Y-97967333D01*
X172950732Y-97900031D01*
X172777812Y-97883000D01*
X172662188Y-97883000D01*
X172489268Y-97900031D01*
X172267403Y-97967333D01*
X172062930Y-98076626D01*
X171883709Y-98223709D01*
X171736626Y-98402930D01*
X171627333Y-98607403D01*
X171560031Y-98829268D01*
X171537306Y-99060000D01*
X171560031Y-99290732D01*
X171627333Y-99512597D01*
X171651667Y-99558123D01*
X170437389Y-100772401D01*
X169059200Y-100772401D01*
X169059200Y-100661168D01*
X169036872Y-100548920D01*
X168993075Y-100443184D01*
X168929492Y-100348025D01*
X168881400Y-100299933D01*
X168881400Y-100049587D01*
X168883349Y-100029799D01*
X168881400Y-100010011D01*
X168881400Y-100010002D01*
X168875565Y-99950759D01*
X168852510Y-99874756D01*
X168815070Y-99804711D01*
X168764684Y-99743316D01*
X168749304Y-99730694D01*
X168619907Y-99601297D01*
X168607284Y-99585916D01*
X168545889Y-99535530D01*
X168496982Y-99509389D01*
X168496982Y-98795202D01*
X168748400Y-98797872D01*
X168872882Y-98785612D01*
X168992580Y-98749302D01*
X169102894Y-98690337D01*
X169199585Y-98610985D01*
X169278937Y-98514294D01*
X169337902Y-98403980D01*
X169374212Y-98284282D01*
X169386472Y-98159800D01*
X169383400Y-97745550D01*
X169224650Y-97586800D01*
X168300400Y-97586800D01*
X168300400Y-97606800D01*
X168046400Y-97606800D01*
X168046400Y-97586800D01*
X168026400Y-97586800D01*
X168026400Y-97332800D01*
X168046400Y-97332800D01*
X168046400Y-95504000D01*
X168026400Y-95504000D01*
X168026400Y-95250000D01*
X168046400Y-95250000D01*
X168046400Y-94200750D01*
X168300400Y-94200750D01*
X168300400Y-95250000D01*
X168320400Y-95250000D01*
X168320400Y-95504000D01*
X168300400Y-95504000D01*
X168300400Y-97332800D01*
X169224650Y-97332800D01*
X169383400Y-97174050D01*
X169386302Y-96782692D01*
X169426329Y-96799272D01*
X169538577Y-96821600D01*
X169653023Y-96821600D01*
X169765271Y-96799272D01*
X169871007Y-96755475D01*
X169966166Y-96691892D01*
X170014258Y-96643800D01*
X171549499Y-96643800D01*
X171560031Y-96750732D01*
X171627333Y-96972597D01*
X171736626Y-97177070D01*
X171883709Y-97356291D01*
X172062930Y-97503374D01*
X172267403Y-97612667D01*
X172489268Y-97679969D01*
X172662188Y-97697000D01*
X172777812Y-97697000D01*
X172950732Y-97679969D01*
X173172597Y-97612667D01*
X173377070Y-97503374D01*
X173556291Y-97356291D01*
X173703374Y-97177070D01*
X173812667Y-96972597D01*
X173879969Y-96750732D01*
X173902694Y-96520000D01*
X173879969Y-96289268D01*
X173812667Y-96067403D01*
X173703374Y-95862930D01*
X173556291Y-95683709D01*
X173377070Y-95536626D01*
X173172597Y-95427333D01*
X172950732Y-95360031D01*
X172916000Y-95356610D01*
X172991109Y-95281501D01*
X173006484Y-95268884D01*
X173024314Y-95247159D01*
X173056870Y-95207489D01*
X173083012Y-95158582D01*
X173570000Y-95158582D01*
X173634103Y-95152268D01*
X173695743Y-95133570D01*
X173752550Y-95103206D01*
X173802343Y-95062343D01*
X173843206Y-95012550D01*
X173873570Y-94955743D01*
X173892268Y-94894103D01*
X173898582Y-94830000D01*
X173898582Y-93130000D01*
X173892268Y-93065897D01*
X173873570Y-93004257D01*
X173843206Y-92947450D01*
X173802343Y-92897657D01*
X173752550Y-92856794D01*
X173695743Y-92826430D01*
X173634103Y-92807732D01*
X173570000Y-92801418D01*
X171870000Y-92801418D01*
X171805897Y-92807732D01*
X171744257Y-92826430D01*
X171687450Y-92856794D01*
X171637657Y-92897657D01*
X171596794Y-92947450D01*
X171566430Y-93004257D01*
X171547732Y-93065897D01*
X171541418Y-93130000D01*
X171541418Y-94830000D01*
X171547732Y-94894103D01*
X171556498Y-94923000D01*
X170141258Y-94923000D01*
X170093166Y-94874908D01*
X169998007Y-94811325D01*
X169892271Y-94767528D01*
X169780023Y-94745200D01*
X169665577Y-94745200D01*
X169553329Y-94767528D01*
X169447593Y-94811325D01*
X169385167Y-94853037D01*
X169386472Y-94677000D01*
X169374212Y-94552518D01*
X169337902Y-94432820D01*
X169278937Y-94322506D01*
X169199585Y-94225815D01*
X169102894Y-94146463D01*
X168992580Y-94087498D01*
X168872882Y-94051188D01*
X168748400Y-94038928D01*
X168459150Y-94042000D01*
X168300400Y-94200750D01*
X168046400Y-94200750D01*
X167887650Y-94042000D01*
X167598400Y-94038928D01*
X167473918Y-94051188D01*
X167354220Y-94087498D01*
X167243906Y-94146463D01*
X167147215Y-94225815D01*
X167067863Y-94322506D01*
X167008898Y-94432820D01*
X166972588Y-94552518D01*
X166961469Y-94665416D01*
X166929474Y-94605557D01*
X166857520Y-94517880D01*
X166769843Y-94445926D01*
X166669814Y-94392460D01*
X166561277Y-94359535D01*
X166448401Y-94348418D01*
X165798399Y-94348418D01*
X165685523Y-94359535D01*
X165678328Y-94361718D01*
X164060307Y-92743697D01*
X164047684Y-92728316D01*
X163986289Y-92677930D01*
X163916244Y-92640490D01*
X163840241Y-92617435D01*
X163780998Y-92611600D01*
X163780991Y-92611600D01*
X163761200Y-92609651D01*
X163741409Y-92611600D01*
X161784658Y-92611600D01*
X161736566Y-92563508D01*
X161641407Y-92499925D01*
X161535671Y-92456128D01*
X161423423Y-92433800D01*
X161308977Y-92433800D01*
X161196729Y-92456128D01*
X161090993Y-92499925D01*
X160995834Y-92563508D01*
X160914908Y-92644434D01*
X160851325Y-92739593D01*
X160807528Y-92845329D01*
X160785200Y-92957577D01*
X160785200Y-93072023D01*
X160807528Y-93184271D01*
X160851325Y-93290007D01*
X160914908Y-93385166D01*
X160995834Y-93466092D01*
X161090993Y-93529675D01*
X161196729Y-93573472D01*
X161308977Y-93595800D01*
X161423423Y-93595800D01*
X161535671Y-93573472D01*
X161641407Y-93529675D01*
X161736566Y-93466092D01*
X161784658Y-93418000D01*
X163594190Y-93418000D01*
X165219818Y-95043629D01*
X165219818Y-95827001D01*
X165230935Y-95939877D01*
X165263860Y-96048414D01*
X165317326Y-96148443D01*
X165389280Y-96236120D01*
X165476957Y-96308074D01*
X165576986Y-96361540D01*
X165685523Y-96394465D01*
X165720200Y-96397880D01*
X165720201Y-96438920D01*
X165685523Y-96442335D01*
X165576986Y-96475260D01*
X165476957Y-96528726D01*
X165389280Y-96600680D01*
X165317326Y-96688357D01*
X165263860Y-96788386D01*
X165230935Y-96896923D01*
X165220588Y-97001978D01*
X164467507Y-96248897D01*
X164454884Y-96233516D01*
X164393489Y-96183130D01*
X164323444Y-96145690D01*
X164247441Y-96122635D01*
X164188198Y-96116800D01*
X164188191Y-96116800D01*
X164168400Y-96114851D01*
X164148609Y-96116800D01*
X148427651Y-96116800D01*
X148412667Y-96067403D01*
X148303374Y-95862930D01*
X148156291Y-95683709D01*
X147977070Y-95536626D01*
X147845509Y-95466305D01*
X148170000Y-95468072D01*
X148294482Y-95455812D01*
X148414180Y-95419502D01*
X148524494Y-95360537D01*
X148621185Y-95281185D01*
X148700537Y-95184494D01*
X148759502Y-95074180D01*
X148795812Y-94954482D01*
X148808072Y-94830000D01*
X148805000Y-94265750D01*
X148646250Y-94107000D01*
X147447000Y-94107000D01*
X147447000Y-94127000D01*
X147193000Y-94127000D01*
X147193000Y-94107000D01*
X145993750Y-94107000D01*
X145835000Y-94265750D01*
X145831928Y-94830000D01*
X145844188Y-94954482D01*
X145880498Y-95074180D01*
X145939463Y-95184494D01*
X146018815Y-95281185D01*
X146115506Y-95360537D01*
X146225820Y-95419502D01*
X146345518Y-95455812D01*
X146470000Y-95468072D01*
X146794491Y-95466305D01*
X146662930Y-95536626D01*
X146483709Y-95683709D01*
X146336626Y-95862930D01*
X146227333Y-96067403D01*
X146160031Y-96289268D01*
X146137306Y-96520000D01*
X146160031Y-96750732D01*
X146227333Y-96972597D01*
X146336626Y-97177070D01*
X146483709Y-97356291D01*
X146662930Y-97503374D01*
X146867403Y-97612667D01*
X147089268Y-97679969D01*
X147262188Y-97697000D01*
X147377812Y-97697000D01*
X147550732Y-97679969D01*
X147772597Y-97612667D01*
X147977070Y-97503374D01*
X148156291Y-97356291D01*
X148303374Y-97177070D01*
X148412667Y-96972597D01*
X148427651Y-96923200D01*
X164001390Y-96923200D01*
X165353451Y-98275262D01*
X165386700Y-98315776D01*
X165386700Y-98376523D01*
X165400086Y-98443818D01*
X164368400Y-98443818D01*
X164304297Y-98450132D01*
X164242657Y-98468830D01*
X164185850Y-98499194D01*
X164136057Y-98540057D01*
X164095194Y-98589850D01*
X164064830Y-98646657D01*
X164046132Y-98708297D01*
X164039818Y-98772400D01*
X164039818Y-100772401D01*
X163648812Y-100772401D01*
X162810800Y-99934390D01*
X162810800Y-99866377D01*
X162788472Y-99754129D01*
X162744675Y-99648393D01*
X162681092Y-99553234D01*
X162600166Y-99472308D01*
X162505007Y-99408725D01*
X162465215Y-99392243D01*
X162477892Y-99379566D01*
X162541475Y-99284407D01*
X162585272Y-99178671D01*
X162607600Y-99066423D01*
X162607600Y-98951977D01*
X162585272Y-98839729D01*
X162541475Y-98733993D01*
X162477892Y-98638834D01*
X162396966Y-98557908D01*
X162301807Y-98494325D01*
X162196071Y-98450528D01*
X162083823Y-98428200D01*
X161969377Y-98428200D01*
X161857129Y-98450528D01*
X161751393Y-98494325D01*
X161656234Y-98557908D01*
X161575308Y-98638834D01*
X161563304Y-98656800D01*
X148427651Y-98656800D01*
X148412667Y-98607403D01*
X148303374Y-98402930D01*
X148156291Y-98223709D01*
X147977070Y-98076626D01*
X147772597Y-97967333D01*
X147550732Y-97900031D01*
X147377812Y-97883000D01*
X147262188Y-97883000D01*
X147089268Y-97900031D01*
X146867403Y-97967333D01*
X146662930Y-98076626D01*
X146483709Y-98223709D01*
X146336626Y-98402930D01*
X146227333Y-98607403D01*
X146160031Y-98829268D01*
X146137306Y-99060000D01*
X146160031Y-99290732D01*
X146227333Y-99512597D01*
X146336626Y-99717070D01*
X146483709Y-99896291D01*
X146662930Y-100043374D01*
X146867403Y-100152667D01*
X147089268Y-100219969D01*
X147262188Y-100237000D01*
X147377812Y-100237000D01*
X147550732Y-100219969D01*
X147772597Y-100152667D01*
X147977070Y-100043374D01*
X148156291Y-99896291D01*
X148303374Y-99717070D01*
X148412667Y-99512597D01*
X148427651Y-99463200D01*
X155573180Y-99463200D01*
X155517325Y-99546793D01*
X155473528Y-99652529D01*
X155451200Y-99764777D01*
X155451200Y-99879223D01*
X155473528Y-99991471D01*
X155499343Y-100053794D01*
X148482797Y-100053794D01*
X148463006Y-100051845D01*
X148443215Y-100053794D01*
X148443208Y-100053794D01*
X148383965Y-100059629D01*
X148307961Y-100082684D01*
X148237917Y-100120124D01*
X148191900Y-100157889D01*
X148191897Y-100157892D01*
X148176522Y-100170510D01*
X148163904Y-100185885D01*
X147818122Y-100531667D01*
X147772597Y-100507333D01*
X147550732Y-100440031D01*
X147377812Y-100423000D01*
X147262188Y-100423000D01*
X147089268Y-100440031D01*
X146867403Y-100507333D01*
X146662930Y-100616626D01*
X146483709Y-100763709D01*
X146336626Y-100942930D01*
X146227333Y-101147403D01*
X146160031Y-101369268D01*
X146137306Y-101600000D01*
X146160031Y-101830732D01*
X146227333Y-102052597D01*
X146336626Y-102257070D01*
X146483709Y-102436291D01*
X146662930Y-102583374D01*
X146867403Y-102692667D01*
X147089268Y-102759969D01*
X147262188Y-102777000D01*
X147377812Y-102777000D01*
X147550732Y-102759969D01*
X147772597Y-102692667D01*
X147977070Y-102583374D01*
X148156291Y-102436291D01*
X148303374Y-102257070D01*
X148412667Y-102052597D01*
X148479969Y-101830732D01*
X148502694Y-101600000D01*
X148479969Y-101369268D01*
X148412667Y-101147403D01*
X148388333Y-101101878D01*
X148630017Y-100860194D01*
X155392663Y-100860194D01*
X155383260Y-100877786D01*
X155350335Y-100986323D01*
X155339218Y-101099199D01*
X155339218Y-101999201D01*
X155350335Y-102112077D01*
X155383260Y-102220614D01*
X155436726Y-102320643D01*
X155508680Y-102408320D01*
X155596357Y-102480274D01*
X155696386Y-102533740D01*
X155804923Y-102566665D01*
X155917799Y-102577782D01*
X156567801Y-102577782D01*
X156680677Y-102566665D01*
X156687872Y-102564482D01*
X157326776Y-103203387D01*
X156240894Y-103203387D01*
X156056403Y-103018897D01*
X156043781Y-103003517D01*
X155982386Y-102953131D01*
X155912341Y-102915691D01*
X155836338Y-102892636D01*
X155777095Y-102886801D01*
X155777088Y-102886801D01*
X155757297Y-102884852D01*
X155737506Y-102886801D01*
X148189786Y-102886801D01*
X148169998Y-102884852D01*
X148150210Y-102886801D01*
X148150201Y-102886801D01*
X148090958Y-102892636D01*
X148014955Y-102915691D01*
X147944910Y-102953131D01*
X147944908Y-102953132D01*
X147944909Y-102953132D01*
X147899859Y-102990104D01*
X147883515Y-103003517D01*
X147870897Y-103018892D01*
X147818122Y-103071667D01*
X147772597Y-103047333D01*
X147550732Y-102980031D01*
X147377812Y-102963000D01*
X147262188Y-102963000D01*
X147089268Y-102980031D01*
X146867403Y-103047333D01*
X146662930Y-103156626D01*
X146483709Y-103303709D01*
X146336626Y-103482930D01*
X146227333Y-103687403D01*
X146160031Y-103909268D01*
X146137306Y-104140000D01*
X146160031Y-104370732D01*
X146227333Y-104592597D01*
X146336626Y-104797070D01*
X146483709Y-104976291D01*
X146662930Y-105123374D01*
X146867403Y-105232667D01*
X147089268Y-105299969D01*
X147262188Y-105317000D01*
X147377812Y-105317000D01*
X147550732Y-105299969D01*
X147772597Y-105232667D01*
X147977070Y-105123374D01*
X148156291Y-104976291D01*
X148303374Y-104797070D01*
X148412667Y-104592597D01*
X148479969Y-104370732D01*
X148502694Y-104140000D01*
X148479969Y-103909268D01*
X148414426Y-103693201D01*
X149736588Y-103693201D01*
X147818123Y-105611667D01*
X147772597Y-105587333D01*
X147550732Y-105520031D01*
X147377812Y-105503000D01*
X147262188Y-105503000D01*
X147089268Y-105520031D01*
X146867403Y-105587333D01*
X146662930Y-105696626D01*
X146483709Y-105843709D01*
X146336626Y-106022930D01*
X146227333Y-106227403D01*
X146160031Y-106449268D01*
X146137306Y-106680000D01*
X146160031Y-106910732D01*
X146227333Y-107132597D01*
X146336626Y-107337070D01*
X146483709Y-107516291D01*
X146662930Y-107663374D01*
X146867403Y-107772667D01*
X147089268Y-107839969D01*
X147262188Y-107857000D01*
X147377812Y-107857000D01*
X147550732Y-107839969D01*
X147772597Y-107772667D01*
X147977070Y-107663374D01*
X148156291Y-107516291D01*
X148303374Y-107337070D01*
X148412667Y-107132597D01*
X148479969Y-106910732D01*
X148502694Y-106680000D01*
X148479969Y-106449268D01*
X148412667Y-106227403D01*
X148388333Y-106181877D01*
X150377238Y-104192973D01*
X155161953Y-104192973D01*
X155210045Y-104241065D01*
X155305204Y-104304648D01*
X155410940Y-104348445D01*
X155523188Y-104370773D01*
X155637634Y-104370773D01*
X155749882Y-104348445D01*
X155855618Y-104304648D01*
X155950777Y-104241065D01*
X156031703Y-104160139D01*
X156095286Y-104064980D01*
X156118148Y-104009787D01*
X157457995Y-104009787D01*
X157219005Y-104248778D01*
X157150992Y-104248778D01*
X157038744Y-104271106D01*
X156933008Y-104314903D01*
X156837849Y-104378486D01*
X156756923Y-104459412D01*
X156693340Y-104554571D01*
X156649543Y-104660307D01*
X156627215Y-104772555D01*
X156627215Y-104883780D01*
X154835200Y-104883780D01*
X154835200Y-104870177D01*
X154812872Y-104757929D01*
X154769075Y-104652193D01*
X154705492Y-104557034D01*
X154624566Y-104476108D01*
X154529407Y-104412525D01*
X154423671Y-104368728D01*
X154311423Y-104346400D01*
X154196977Y-104346400D01*
X154084729Y-104368728D01*
X153978993Y-104412525D01*
X153883834Y-104476108D01*
X153802908Y-104557034D01*
X153739325Y-104652193D01*
X153695528Y-104757929D01*
X153673200Y-104870177D01*
X153673200Y-104984623D01*
X153695528Y-105096871D01*
X153739325Y-105202607D01*
X153802908Y-105297766D01*
X153877042Y-105371900D01*
X153853708Y-105395234D01*
X153790125Y-105490393D01*
X153746328Y-105596129D01*
X153724000Y-105708377D01*
X153724000Y-105776390D01*
X152950292Y-106550098D01*
X152852001Y-106540418D01*
X152201999Y-106540418D01*
X152089123Y-106551535D01*
X151980586Y-106584460D01*
X151880557Y-106637926D01*
X151792880Y-106709880D01*
X151720926Y-106797557D01*
X151667460Y-106897586D01*
X151634535Y-107006123D01*
X151623418Y-107118999D01*
X151623418Y-108019001D01*
X151628343Y-108069010D01*
X151547221Y-108069010D01*
X151380582Y-107902371D01*
X151380582Y-107118999D01*
X151369465Y-107006123D01*
X151336540Y-106897586D01*
X151283074Y-106797557D01*
X151211120Y-106709880D01*
X151123443Y-106637926D01*
X151023414Y-106584460D01*
X150914877Y-106551535D01*
X150802001Y-106540418D01*
X150151999Y-106540418D01*
X150039123Y-106551535D01*
X149930586Y-106584460D01*
X149830557Y-106637926D01*
X149742880Y-106709880D01*
X149670926Y-106797557D01*
X149617460Y-106897586D01*
X149584535Y-107006123D01*
X149573418Y-107118999D01*
X149573418Y-108019001D01*
X149584535Y-108131877D01*
X149617460Y-108240414D01*
X149670926Y-108340443D01*
X149742880Y-108428120D01*
X149830557Y-108500074D01*
X149930586Y-108553540D01*
X150039123Y-108586465D01*
X150151999Y-108597582D01*
X150802001Y-108597582D01*
X150914877Y-108586465D01*
X150922072Y-108584282D01*
X151081108Y-108743319D01*
X151093726Y-108758694D01*
X151109101Y-108771312D01*
X151109103Y-108771314D01*
X151155120Y-108809079D01*
X151155121Y-108809080D01*
X151169564Y-108816800D01*
X148427651Y-108816800D01*
X148412667Y-108767403D01*
X148303374Y-108562930D01*
X148156291Y-108383709D01*
X147977070Y-108236626D01*
X147772597Y-108127333D01*
X147550732Y-108060031D01*
X147377812Y-108043000D01*
X147262188Y-108043000D01*
X147089268Y-108060031D01*
X146867403Y-108127333D01*
X146662930Y-108236626D01*
X146483709Y-108383709D01*
X146336626Y-108562930D01*
X146227333Y-108767403D01*
X146160031Y-108989268D01*
X146137306Y-109220000D01*
X146160031Y-109450732D01*
X146227333Y-109672597D01*
X146336626Y-109877070D01*
X146483709Y-110056291D01*
X146662930Y-110203374D01*
X146867403Y-110312667D01*
X147089268Y-110379969D01*
X147262188Y-110397000D01*
X147377812Y-110397000D01*
X147550732Y-110379969D01*
X147772597Y-110312667D01*
X147977070Y-110203374D01*
X148156291Y-110056291D01*
X148303374Y-109877070D01*
X148412667Y-109672597D01*
X148427651Y-109623200D01*
X150272242Y-109623200D01*
X150219793Y-109644925D01*
X150124634Y-109708508D01*
X150043708Y-109789434D01*
X149980125Y-109884593D01*
X149936328Y-109990329D01*
X149914000Y-110102577D01*
X149914000Y-110217023D01*
X149936328Y-110329271D01*
X149980125Y-110435007D01*
X150043708Y-110530166D01*
X150124634Y-110611092D01*
X150219793Y-110674675D01*
X150325529Y-110718472D01*
X150437777Y-110740800D01*
X150552223Y-110740800D01*
X150664471Y-110718472D01*
X150770207Y-110674675D01*
X150865366Y-110611092D01*
X150913458Y-110563000D01*
X152471230Y-110563000D01*
X152496175Y-110587945D01*
X152591334Y-110651528D01*
X152697070Y-110695325D01*
X152809318Y-110717653D01*
X152923764Y-110717653D01*
X153036012Y-110695325D01*
X153141748Y-110651528D01*
X153236907Y-110587945D01*
X153317833Y-110507019D01*
X153381416Y-110411860D01*
X153425213Y-110306124D01*
X153447541Y-110193876D01*
X153447541Y-110079430D01*
X153425213Y-109967182D01*
X153381416Y-109861446D01*
X153317833Y-109766287D01*
X153236907Y-109685361D01*
X153143876Y-109623200D01*
X155929579Y-109623200D01*
X154195980Y-111356800D01*
X148427651Y-111356800D01*
X148412667Y-111307403D01*
X148303374Y-111102930D01*
X148156291Y-110923709D01*
X147977070Y-110776626D01*
X147772597Y-110667333D01*
X147550732Y-110600031D01*
X147377812Y-110583000D01*
X147262188Y-110583000D01*
X147089268Y-110600031D01*
X146867403Y-110667333D01*
X146662930Y-110776626D01*
X146483709Y-110923709D01*
X146336626Y-111102930D01*
X146227333Y-111307403D01*
X146160031Y-111529268D01*
X146137306Y-111760000D01*
X146160031Y-111990732D01*
X146227333Y-112212597D01*
X146336626Y-112417070D01*
X146483709Y-112596291D01*
X146662930Y-112743374D01*
X146867403Y-112852667D01*
X147089268Y-112919969D01*
X147262188Y-112937000D01*
X147377812Y-112937000D01*
X147550732Y-112919969D01*
X147772597Y-112852667D01*
X147977070Y-112743374D01*
X148156291Y-112596291D01*
X148303374Y-112417070D01*
X148412667Y-112212597D01*
X148427651Y-112163200D01*
X153985704Y-112163200D01*
X153889467Y-112202579D01*
X153686526Y-112336922D01*
X153513693Y-112508275D01*
X153377610Y-112710054D01*
X153283507Y-112934504D01*
X153235000Y-113173000D01*
X153235000Y-113723000D01*
X154343000Y-113723000D01*
X154343000Y-113703000D01*
X154597000Y-113703000D01*
X154597000Y-113723000D01*
X154617000Y-113723000D01*
X154617000Y-113977000D01*
X154597000Y-113977000D01*
X154597000Y-115468731D01*
X154787609Y-115593462D01*
X154825282Y-115589591D01*
X154969001Y-115530783D01*
X154969001Y-117115000D01*
X154922998Y-117115000D01*
X154922998Y-117146748D01*
X154891250Y-117115000D01*
X154793331Y-117125661D01*
X154674058Y-117163345D01*
X154634389Y-117185139D01*
X154564250Y-117115000D01*
X154540761Y-117112123D01*
X154416014Y-117121305D01*
X154295456Y-117154647D01*
X154212944Y-117196163D01*
X154152391Y-117156538D01*
X154114718Y-117160409D01*
X153889467Y-117252579D01*
X153686526Y-117386922D01*
X153513693Y-117558275D01*
X153377610Y-117760054D01*
X153283507Y-117984504D01*
X153235000Y-118223000D01*
X153235000Y-118773000D01*
X154343000Y-118773000D01*
X154343000Y-118667250D01*
X154448750Y-118773000D01*
X154969000Y-118773000D01*
X154969000Y-119027000D01*
X154448750Y-119027000D01*
X154343000Y-119132750D01*
X154343000Y-119027000D01*
X153235000Y-119027000D01*
X153235000Y-119577000D01*
X153283507Y-119815496D01*
X153377610Y-120039946D01*
X153513693Y-120241725D01*
X153686526Y-120413078D01*
X153889467Y-120547421D01*
X154114718Y-120639591D01*
X154152391Y-120643462D01*
X154212944Y-120603837D01*
X154295456Y-120645353D01*
X154416014Y-120678695D01*
X154540761Y-120687877D01*
X154564250Y-120685000D01*
X154634389Y-120614861D01*
X154674058Y-120636655D01*
X154793331Y-120674339D01*
X154891250Y-120685000D01*
X154922998Y-120653252D01*
X154922998Y-120685000D01*
X154969000Y-120685000D01*
X154969000Y-121123500D01*
X145132000Y-121123500D01*
X145132000Y-117196890D01*
X145878524Y-117196890D01*
X145923175Y-117344099D01*
X146048359Y-117606920D01*
X146222412Y-117840269D01*
X146438645Y-118035178D01*
X146688748Y-118184157D01*
X146963109Y-118281481D01*
X147193000Y-118160814D01*
X147193000Y-116967000D01*
X147447000Y-116967000D01*
X147447000Y-118160814D01*
X147676891Y-118281481D01*
X147951252Y-118184157D01*
X148201355Y-118035178D01*
X148417588Y-117840269D01*
X148591641Y-117606920D01*
X148716825Y-117344099D01*
X148761476Y-117196890D01*
X148640155Y-116967000D01*
X147447000Y-116967000D01*
X147193000Y-116967000D01*
X145999845Y-116967000D01*
X145878524Y-117196890D01*
X145132000Y-117196890D01*
X145132000Y-116483110D01*
X145878524Y-116483110D01*
X145999845Y-116713000D01*
X147193000Y-116713000D01*
X147193000Y-116693000D01*
X147447000Y-116693000D01*
X147447000Y-116713000D01*
X148640155Y-116713000D01*
X148761476Y-116483110D01*
X148716825Y-116335901D01*
X148591641Y-116073080D01*
X148417588Y-115839731D01*
X148201355Y-115644822D01*
X147951252Y-115495843D01*
X147712115Y-115411014D01*
X147772597Y-115392667D01*
X147977070Y-115283374D01*
X148156291Y-115136291D01*
X148303374Y-114957070D01*
X148412667Y-114752597D01*
X148479969Y-114530732D01*
X148502694Y-114300000D01*
X148479969Y-114069268D01*
X148451980Y-113977000D01*
X153235000Y-113977000D01*
X153235000Y-114527000D01*
X153283507Y-114765496D01*
X153377610Y-114989946D01*
X153513693Y-115191725D01*
X153686526Y-115363078D01*
X153889467Y-115497421D01*
X154114718Y-115589591D01*
X154152391Y-115593462D01*
X154343000Y-115468731D01*
X154343000Y-113977000D01*
X153235000Y-113977000D01*
X148451980Y-113977000D01*
X148412667Y-113847403D01*
X148303374Y-113642930D01*
X148156291Y-113463709D01*
X147977070Y-113316626D01*
X147772597Y-113207333D01*
X147550732Y-113140031D01*
X147377812Y-113123000D01*
X147262188Y-113123000D01*
X147089268Y-113140031D01*
X146867403Y-113207333D01*
X146662930Y-113316626D01*
X146483709Y-113463709D01*
X146336626Y-113642930D01*
X146227333Y-113847403D01*
X146160031Y-114069268D01*
X146137306Y-114300000D01*
X146160031Y-114530732D01*
X146227333Y-114752597D01*
X146336626Y-114957070D01*
X146483709Y-115136291D01*
X146662930Y-115283374D01*
X146867403Y-115392667D01*
X146927885Y-115411014D01*
X146688748Y-115495843D01*
X146438645Y-115644822D01*
X146222412Y-115839731D01*
X146048359Y-116073080D01*
X145923175Y-116335901D01*
X145878524Y-116483110D01*
X145132000Y-116483110D01*
X145132000Y-93130000D01*
X145831928Y-93130000D01*
X145835000Y-93694250D01*
X145993750Y-93853000D01*
X147193000Y-93853000D01*
X147193000Y-92653750D01*
X147447000Y-92653750D01*
X147447000Y-93853000D01*
X148646250Y-93853000D01*
X148805000Y-93694250D01*
X148808072Y-93130000D01*
X148795812Y-93005518D01*
X148759502Y-92885820D01*
X148700537Y-92775506D01*
X148621185Y-92678815D01*
X148524494Y-92599463D01*
X148414180Y-92540498D01*
X148294482Y-92504188D01*
X148170000Y-92491928D01*
X147605750Y-92495000D01*
X147447000Y-92653750D01*
X147193000Y-92653750D01*
X147034250Y-92495000D01*
X146470000Y-92491928D01*
X146345518Y-92504188D01*
X146225820Y-92540498D01*
X146115506Y-92599463D01*
X146018815Y-92678815D01*
X145939463Y-92775506D01*
X145880498Y-92885820D01*
X145844188Y-93005518D01*
X145831928Y-93130000D01*
X145132000Y-93130000D01*
X145132000Y-88900000D01*
X146173928Y-88900000D01*
X146186188Y-89024482D01*
X146222498Y-89144180D01*
X146281463Y-89254494D01*
X146360815Y-89351185D01*
X146457506Y-89430537D01*
X146567820Y-89489502D01*
X146687518Y-89525812D01*
X146812000Y-89538072D01*
X147732750Y-89535000D01*
X147891500Y-89376250D01*
X147891500Y-86487000D01*
X148145500Y-86487000D01*
X148145500Y-89376250D01*
X148304250Y-89535000D01*
X149225000Y-89538072D01*
X149349482Y-89525812D01*
X149469180Y-89489502D01*
X149579494Y-89430537D01*
X149676185Y-89351185D01*
X149755537Y-89254494D01*
X149814502Y-89144180D01*
X149850812Y-89024482D01*
X149863072Y-88900000D01*
X154936928Y-88900000D01*
X154949188Y-89024482D01*
X154985498Y-89144180D01*
X155044463Y-89254494D01*
X155123815Y-89351185D01*
X155220506Y-89430537D01*
X155330820Y-89489502D01*
X155450518Y-89525812D01*
X155575000Y-89538072D01*
X156495750Y-89535000D01*
X156654500Y-89376250D01*
X156654500Y-86487000D01*
X156908500Y-86487000D01*
X156908500Y-89376250D01*
X157067250Y-89535000D01*
X157988000Y-89538072D01*
X158112482Y-89525812D01*
X158232180Y-89489502D01*
X158342494Y-89430537D01*
X158439185Y-89351185D01*
X158518537Y-89254494D01*
X158577502Y-89144180D01*
X158613812Y-89024482D01*
X158626072Y-88900000D01*
X161413928Y-88900000D01*
X161426188Y-89024482D01*
X161462498Y-89144180D01*
X161521463Y-89254494D01*
X161600815Y-89351185D01*
X161697506Y-89430537D01*
X161807820Y-89489502D01*
X161927518Y-89525812D01*
X162052000Y-89538072D01*
X162972750Y-89535000D01*
X163131500Y-89376250D01*
X163131500Y-86487000D01*
X163385500Y-86487000D01*
X163385500Y-89376250D01*
X163544250Y-89535000D01*
X164465000Y-89538072D01*
X164589482Y-89525812D01*
X164709180Y-89489502D01*
X164819494Y-89430537D01*
X164916185Y-89351185D01*
X164995537Y-89254494D01*
X165054502Y-89144180D01*
X165090812Y-89024482D01*
X165103072Y-88900000D01*
X170176928Y-88900000D01*
X170189188Y-89024482D01*
X170225498Y-89144180D01*
X170284463Y-89254494D01*
X170363815Y-89351185D01*
X170460506Y-89430537D01*
X170570820Y-89489502D01*
X170690518Y-89525812D01*
X170815000Y-89538072D01*
X171735750Y-89535000D01*
X171894500Y-89376250D01*
X171894500Y-86487000D01*
X172148500Y-86487000D01*
X172148500Y-89376250D01*
X172307250Y-89535000D01*
X173228000Y-89538072D01*
X173352482Y-89525812D01*
X173472180Y-89489502D01*
X173582494Y-89430537D01*
X173679185Y-89351185D01*
X173758537Y-89254494D01*
X173817502Y-89144180D01*
X173853812Y-89024482D01*
X173866072Y-88900000D01*
X173863000Y-86645750D01*
X173704250Y-86487000D01*
X172148500Y-86487000D01*
X171894500Y-86487000D01*
X170338750Y-86487000D01*
X170180000Y-86645750D01*
X170176928Y-88900000D01*
X165103072Y-88900000D01*
X165100000Y-86645750D01*
X164941250Y-86487000D01*
X163385500Y-86487000D01*
X163131500Y-86487000D01*
X161575750Y-86487000D01*
X161417000Y-86645750D01*
X161413928Y-88900000D01*
X158626072Y-88900000D01*
X158623000Y-86645750D01*
X158464250Y-86487000D01*
X156908500Y-86487000D01*
X156654500Y-86487000D01*
X155098750Y-86487000D01*
X154940000Y-86645750D01*
X154936928Y-88900000D01*
X149863072Y-88900000D01*
X149860000Y-86645750D01*
X149701250Y-86487000D01*
X148145500Y-86487000D01*
X147891500Y-86487000D01*
X146335750Y-86487000D01*
X146177000Y-86645750D01*
X146173928Y-88900000D01*
X145132000Y-88900000D01*
X145132000Y-83918000D01*
X146174062Y-83918000D01*
X146177000Y-86074250D01*
X146177000Y-86074250D01*
G37*
X146177000Y-86074250D02*
X146335750Y-86233000D01*
X147891500Y-86233000D01*
X147891500Y-86213000D01*
X148145500Y-86213000D01*
X148145500Y-86233000D01*
X149701250Y-86233000D01*
X149860000Y-86074250D01*
X149862938Y-83918000D01*
X154937062Y-83918000D01*
X154940000Y-86074250D01*
X155098750Y-86233000D01*
X156654500Y-86233000D01*
X156654500Y-86213000D01*
X156908500Y-86213000D01*
X156908500Y-86233000D01*
X158464250Y-86233000D01*
X158623000Y-86074250D01*
X158625938Y-83918000D01*
X161414062Y-83918000D01*
X161417000Y-86074250D01*
X161575750Y-86233000D01*
X163131500Y-86233000D01*
X163131500Y-86213000D01*
X163385500Y-86213000D01*
X163385500Y-86233000D01*
X164941250Y-86233000D01*
X165100000Y-86074250D01*
X165102938Y-83918000D01*
X170177062Y-83918000D01*
X170180000Y-86074250D01*
X170338750Y-86233000D01*
X171894500Y-86233000D01*
X171894500Y-86213000D01*
X172148500Y-86213000D01*
X172148500Y-86233000D01*
X173704250Y-86233000D01*
X173863000Y-86074250D01*
X173865938Y-83918000D01*
X174908001Y-83918000D01*
X174908000Y-121123500D01*
X165071000Y-121123500D01*
X165071000Y-120685000D01*
X165117002Y-120685000D01*
X165117002Y-120653252D01*
X165148750Y-120685000D01*
X165246669Y-120674339D01*
X165365942Y-120636655D01*
X165437882Y-120597132D01*
X165442998Y-120602248D01*
X165442998Y-120685000D01*
X165525750Y-120685000D01*
X165549239Y-120687877D01*
X165588326Y-120685000D01*
X165697002Y-120685000D01*
X165697002Y-120672330D01*
X165794544Y-120645353D01*
X165848789Y-120618059D01*
X165887609Y-120643462D01*
X165925282Y-120639591D01*
X166150533Y-120547421D01*
X166353474Y-120413078D01*
X166526307Y-120241725D01*
X166662390Y-120039946D01*
X166756493Y-119815496D01*
X166805000Y-119577000D01*
X166805000Y-119027000D01*
X165697000Y-119027000D01*
X165697000Y-119047000D01*
X165611250Y-119047000D01*
X165591250Y-119027000D01*
X165071000Y-119027000D01*
X165071000Y-118773000D01*
X165591250Y-118773000D01*
X165611250Y-118753000D01*
X165697000Y-118753000D01*
X165697000Y-118773000D01*
X166805000Y-118773000D01*
X166805000Y-118223000D01*
X166756493Y-117984504D01*
X166662390Y-117760054D01*
X166526307Y-117558275D01*
X166353474Y-117386922D01*
X166150533Y-117252579D01*
X165925282Y-117160409D01*
X165887609Y-117156538D01*
X165848789Y-117181941D01*
X165794544Y-117154647D01*
X165697002Y-117127670D01*
X165697002Y-117115000D01*
X165588326Y-117115000D01*
X165549239Y-117112123D01*
X165525750Y-117115000D01*
X165442998Y-117115000D01*
X165442998Y-117197752D01*
X165437882Y-117202868D01*
X165365942Y-117163345D01*
X165246669Y-117125661D01*
X165148750Y-117115000D01*
X165117002Y-117146748D01*
X165117002Y-117115000D01*
X165071000Y-117115000D01*
X165071000Y-115530783D01*
X165214718Y-115589591D01*
X165252391Y-115593462D01*
X165443000Y-115468731D01*
X165443000Y-113977000D01*
X165697000Y-113977000D01*
X165697000Y-115468731D01*
X165887609Y-115593462D01*
X165925282Y-115589591D01*
X166150533Y-115497421D01*
X166353474Y-115363078D01*
X166526307Y-115191725D01*
X166662390Y-114989946D01*
X166756493Y-114765496D01*
X166778582Y-114656890D01*
X171278524Y-114656890D01*
X171323175Y-114804099D01*
X171448359Y-115066920D01*
X171622412Y-115300269D01*
X171838645Y-115495178D01*
X172088748Y-115644157D01*
X172327885Y-115728986D01*
X172267403Y-115747333D01*
X172062930Y-115856626D01*
X171883709Y-116003709D01*
X171736626Y-116182930D01*
X171627333Y-116387403D01*
X171560031Y-116609268D01*
X171537306Y-116840000D01*
X171560031Y-117070732D01*
X171627333Y-117292597D01*
X171736626Y-117497070D01*
X171883709Y-117676291D01*
X172062930Y-117823374D01*
X172267403Y-117932667D01*
X172489268Y-117999969D01*
X172662188Y-118017000D01*
X172777812Y-118017000D01*
X172950732Y-117999969D01*
X173172597Y-117932667D01*
X173377070Y-117823374D01*
X173556291Y-117676291D01*
X173703374Y-117497070D01*
X173812667Y-117292597D01*
X173879969Y-117070732D01*
X173902694Y-116840000D01*
X173879969Y-116609268D01*
X173812667Y-116387403D01*
X173703374Y-116182930D01*
X173556291Y-116003709D01*
X173377070Y-115856626D01*
X173172597Y-115747333D01*
X173112115Y-115728986D01*
X173351252Y-115644157D01*
X173601355Y-115495178D01*
X173817588Y-115300269D01*
X173991641Y-115066920D01*
X174116825Y-114804099D01*
X174161476Y-114656890D01*
X174040155Y-114427000D01*
X172847000Y-114427000D01*
X172847000Y-114447000D01*
X172593000Y-114447000D01*
X172593000Y-114427000D01*
X171399845Y-114427000D01*
X171278524Y-114656890D01*
X166778582Y-114656890D01*
X166805000Y-114527000D01*
X166805000Y-113977000D01*
X165697000Y-113977000D01*
X165443000Y-113977000D01*
X165423000Y-113977000D01*
X165423000Y-113723000D01*
X165443000Y-113723000D01*
X165443000Y-112364650D01*
X165557200Y-112250450D01*
X165557200Y-112231269D01*
X165697000Y-112231269D01*
X165697000Y-113723000D01*
X166805000Y-113723000D01*
X166805000Y-113173000D01*
X166756493Y-112934504D01*
X166662390Y-112710054D01*
X166526307Y-112508275D01*
X166409278Y-112392248D01*
X166503380Y-112363702D01*
X166613694Y-112304737D01*
X166710385Y-112225385D01*
X166789737Y-112128694D01*
X166848702Y-112018380D01*
X166885012Y-111898682D01*
X166897272Y-111774200D01*
X166894200Y-111359950D01*
X166735450Y-111201200D01*
X165811200Y-111201200D01*
X165811200Y-112156539D01*
X165697000Y-112231269D01*
X165557200Y-112231269D01*
X165557200Y-111201200D01*
X165537200Y-111201200D01*
X165537200Y-110947200D01*
X165557200Y-110947200D01*
X165557200Y-109897950D01*
X165811200Y-109897950D01*
X165811200Y-110947200D01*
X166735450Y-110947200D01*
X166894200Y-110788450D01*
X166897272Y-110374200D01*
X166885012Y-110249718D01*
X166848702Y-110130020D01*
X166789737Y-110019706D01*
X166710385Y-109923015D01*
X166613694Y-109843663D01*
X166503380Y-109784698D01*
X166383682Y-109748388D01*
X166259200Y-109736128D01*
X165969950Y-109739200D01*
X165811200Y-109897950D01*
X165557200Y-109897950D01*
X165398450Y-109739200D01*
X165109200Y-109736128D01*
X164998400Y-109747040D01*
X164998400Y-108083518D01*
X166456790Y-109541909D01*
X166469408Y-109557284D01*
X166530803Y-109607670D01*
X166600848Y-109645110D01*
X166676851Y-109668165D01*
X166736094Y-109674000D01*
X166736103Y-109674000D01*
X166755891Y-109675949D01*
X166775679Y-109674000D01*
X167450142Y-109674000D01*
X167498234Y-109722092D01*
X167593393Y-109785675D01*
X167699129Y-109829472D01*
X167811377Y-109851800D01*
X167925823Y-109851800D01*
X168038071Y-109829472D01*
X168143807Y-109785675D01*
X168238966Y-109722092D01*
X168319892Y-109641166D01*
X168383475Y-109546007D01*
X168427272Y-109440271D01*
X168449600Y-109328023D01*
X168449600Y-109213577D01*
X168427272Y-109101329D01*
X168383475Y-108995593D01*
X168319892Y-108900434D01*
X168238966Y-108819508D01*
X168143807Y-108755925D01*
X168081123Y-108729960D01*
X168169207Y-108693475D01*
X168264366Y-108629892D01*
X168345292Y-108548966D01*
X168408875Y-108453807D01*
X168452672Y-108348071D01*
X168475000Y-108235823D01*
X168475000Y-108121377D01*
X168452672Y-108009129D01*
X168408875Y-107903393D01*
X168359921Y-107830129D01*
X168441400Y-107748650D01*
X168441400Y-106299400D01*
X168695400Y-106299400D01*
X168695400Y-107748650D01*
X168854150Y-107907400D01*
X169318400Y-107910472D01*
X169442882Y-107898212D01*
X169562580Y-107861902D01*
X169672894Y-107802937D01*
X169769585Y-107723585D01*
X169848937Y-107626894D01*
X169907902Y-107516580D01*
X169944212Y-107396882D01*
X169956472Y-107272400D01*
X169953400Y-106458150D01*
X169794650Y-106299400D01*
X168695400Y-106299400D01*
X168441400Y-106299400D01*
X168421400Y-106299400D01*
X168421400Y-106045400D01*
X168441400Y-106045400D01*
X168441400Y-106025400D01*
X168695400Y-106025400D01*
X168695400Y-106045400D01*
X169794650Y-106045400D01*
X169940801Y-105899249D01*
X171263600Y-107222049D01*
X171263599Y-110687008D01*
X171261650Y-110706799D01*
X171263599Y-110726590D01*
X171263599Y-110726596D01*
X171269434Y-110785839D01*
X171292489Y-110861842D01*
X171329929Y-110931887D01*
X171380315Y-110993283D01*
X171395696Y-111005906D01*
X171651667Y-111261877D01*
X171627333Y-111307403D01*
X171560031Y-111529268D01*
X171537306Y-111760000D01*
X171560031Y-111990732D01*
X171627333Y-112212597D01*
X171736626Y-112417070D01*
X171883709Y-112596291D01*
X172062930Y-112743374D01*
X172267403Y-112852667D01*
X172327885Y-112871014D01*
X172088748Y-112955843D01*
X171838645Y-113104822D01*
X171622412Y-113299731D01*
X171448359Y-113533080D01*
X171323175Y-113795901D01*
X171278524Y-113943110D01*
X171399845Y-114173000D01*
X172593000Y-114173000D01*
X172593000Y-114153000D01*
X172847000Y-114153000D01*
X172847000Y-114173000D01*
X174040155Y-114173000D01*
X174161476Y-113943110D01*
X174116825Y-113795901D01*
X173991641Y-113533080D01*
X173817588Y-113299731D01*
X173601355Y-113104822D01*
X173351252Y-112955843D01*
X173112115Y-112871014D01*
X173172597Y-112852667D01*
X173377070Y-112743374D01*
X173556291Y-112596291D01*
X173703374Y-112417070D01*
X173812667Y-112212597D01*
X173879969Y-111990732D01*
X173902694Y-111760000D01*
X173879969Y-111529268D01*
X173812667Y-111307403D01*
X173703374Y-111102930D01*
X173556291Y-110923709D01*
X173377070Y-110776626D01*
X173172597Y-110667333D01*
X172950732Y-110600031D01*
X172777812Y-110583000D01*
X172662188Y-110583000D01*
X172489268Y-110600031D01*
X172267403Y-110667333D01*
X172221877Y-110691667D01*
X172069999Y-110539789D01*
X172069999Y-110207152D01*
X172267403Y-110312667D01*
X172489268Y-110379969D01*
X172662188Y-110397000D01*
X172777812Y-110397000D01*
X172950732Y-110379969D01*
X173172597Y-110312667D01*
X173377070Y-110203374D01*
X173556291Y-110056291D01*
X173703374Y-109877070D01*
X173812667Y-109672597D01*
X173879969Y-109450732D01*
X173902694Y-109220000D01*
X173879969Y-108989268D01*
X173812667Y-108767403D01*
X173703374Y-108562930D01*
X173556291Y-108383709D01*
X173377070Y-108236626D01*
X173172597Y-108127333D01*
X172950732Y-108060031D01*
X172777812Y-108043000D01*
X172662188Y-108043000D01*
X172489268Y-108060031D01*
X172267403Y-108127333D01*
X172069999Y-108232848D01*
X172069999Y-107667152D01*
X172267403Y-107772667D01*
X172489268Y-107839969D01*
X172662188Y-107857000D01*
X172777812Y-107857000D01*
X172950732Y-107839969D01*
X173172597Y-107772667D01*
X173377070Y-107663374D01*
X173556291Y-107516291D01*
X173703374Y-107337070D01*
X173812667Y-107132597D01*
X173879969Y-106910732D01*
X173902694Y-106680000D01*
X173879969Y-106449268D01*
X173812667Y-106227403D01*
X173703374Y-106022930D01*
X173556291Y-105843709D01*
X173377070Y-105696626D01*
X173172597Y-105587333D01*
X172950732Y-105520031D01*
X172777812Y-105503000D01*
X172662188Y-105503000D01*
X172489268Y-105520031D01*
X172267403Y-105587333D01*
X172062930Y-105696626D01*
X171883709Y-105843709D01*
X171736626Y-106022930D01*
X171627333Y-106227403D01*
X171576605Y-106394632D01*
X169725172Y-104543200D01*
X171612349Y-104543200D01*
X171627333Y-104592597D01*
X171736626Y-104797070D01*
X171883709Y-104976291D01*
X172062930Y-105123374D01*
X172267403Y-105232667D01*
X172489268Y-105299969D01*
X172662188Y-105317000D01*
X172777812Y-105317000D01*
X172950732Y-105299969D01*
X173172597Y-105232667D01*
X173377070Y-105123374D01*
X173556291Y-104976291D01*
X173703374Y-104797070D01*
X173812667Y-104592597D01*
X173879969Y-104370732D01*
X173902694Y-104140000D01*
X173879969Y-103909268D01*
X173812667Y-103687403D01*
X173703374Y-103482930D01*
X173556291Y-103303709D01*
X173377070Y-103156626D01*
X173172597Y-103047333D01*
X172950732Y-102980031D01*
X172777812Y-102963000D01*
X172662188Y-102963000D01*
X172489268Y-102980031D01*
X172267403Y-103047333D01*
X172062930Y-103156626D01*
X171883709Y-103303709D01*
X171736626Y-103482930D01*
X171627333Y-103687403D01*
X171612349Y-103736800D01*
X165504211Y-103736800D01*
X165001286Y-103233876D01*
X164988663Y-103218495D01*
X164927268Y-103168109D01*
X164857223Y-103130669D01*
X164781220Y-103107614D01*
X164721977Y-103101779D01*
X164721970Y-103101779D01*
X164702179Y-103099830D01*
X164682388Y-103101779D01*
X164045258Y-103101779D01*
X163997166Y-103053687D01*
X163902007Y-102990104D01*
X163796271Y-102946307D01*
X163684023Y-102923979D01*
X163569577Y-102923979D01*
X163457329Y-102946307D01*
X163351593Y-102990104D01*
X163256434Y-103053687D01*
X163175508Y-103134613D01*
X163111925Y-103229772D01*
X163068128Y-103335508D01*
X163045800Y-103447756D01*
X163045800Y-103558989D01*
X160679479Y-103558989D01*
X161778059Y-102460410D01*
X163919542Y-102460410D01*
X163967634Y-102508502D01*
X164062793Y-102572085D01*
X164168529Y-102615882D01*
X164280777Y-102638210D01*
X164395223Y-102638210D01*
X164507471Y-102615882D01*
X164613207Y-102572085D01*
X164708366Y-102508502D01*
X164789292Y-102427576D01*
X164852875Y-102332417D01*
X164896672Y-102226681D01*
X164919000Y-102114433D01*
X164919000Y-102003200D01*
X171612349Y-102003200D01*
X171627333Y-102052597D01*
X171736626Y-102257070D01*
X171883709Y-102436291D01*
X172062930Y-102583374D01*
X172267403Y-102692667D01*
X172489268Y-102759969D01*
X172662188Y-102777000D01*
X172777812Y-102777000D01*
X172950732Y-102759969D01*
X173172597Y-102692667D01*
X173377070Y-102583374D01*
X173556291Y-102436291D01*
X173703374Y-102257070D01*
X173812667Y-102052597D01*
X173879969Y-101830732D01*
X173902694Y-101600000D01*
X173879969Y-101369268D01*
X173812667Y-101147403D01*
X173703374Y-100942930D01*
X173556291Y-100763709D01*
X173377070Y-100616626D01*
X173172597Y-100507333D01*
X172950732Y-100440031D01*
X172777812Y-100423000D01*
X172662188Y-100423000D01*
X172489268Y-100440031D01*
X172267403Y-100507333D01*
X172062930Y-100616626D01*
X171883709Y-100763709D01*
X171736626Y-100942930D01*
X171627333Y-101147403D01*
X171612349Y-101196800D01*
X171153410Y-101196800D01*
X172221877Y-100128333D01*
X172267403Y-100152667D01*
X172489268Y-100219969D01*
X172662188Y-100237000D01*
X172777812Y-100237000D01*
X172950732Y-100219969D01*
X173172597Y-100152667D01*
X173377070Y-100043374D01*
X173556291Y-99896291D01*
X173703374Y-99717070D01*
X173812667Y-99512597D01*
X173879969Y-99290732D01*
X173902694Y-99060000D01*
X173879969Y-98829268D01*
X173812667Y-98607403D01*
X173703374Y-98402930D01*
X173556291Y-98223709D01*
X173377070Y-98076626D01*
X173172597Y-97967333D01*
X172950732Y-97900031D01*
X172777812Y-97883000D01*
X172662188Y-97883000D01*
X172489268Y-97900031D01*
X172267403Y-97967333D01*
X172062930Y-98076626D01*
X171883709Y-98223709D01*
X171736626Y-98402930D01*
X171627333Y-98607403D01*
X171560031Y-98829268D01*
X171537306Y-99060000D01*
X171560031Y-99290732D01*
X171627333Y-99512597D01*
X171651667Y-99558123D01*
X170437389Y-100772401D01*
X169059200Y-100772401D01*
X169059200Y-100661168D01*
X169036872Y-100548920D01*
X168993075Y-100443184D01*
X168929492Y-100348025D01*
X168881400Y-100299933D01*
X168881400Y-100049587D01*
X168883349Y-100029799D01*
X168881400Y-100010011D01*
X168881400Y-100010002D01*
X168875565Y-99950759D01*
X168852510Y-99874756D01*
X168815070Y-99804711D01*
X168764684Y-99743316D01*
X168749304Y-99730694D01*
X168619907Y-99601297D01*
X168607284Y-99585916D01*
X168545889Y-99535530D01*
X168496982Y-99509389D01*
X168496982Y-98795202D01*
X168748400Y-98797872D01*
X168872882Y-98785612D01*
X168992580Y-98749302D01*
X169102894Y-98690337D01*
X169199585Y-98610985D01*
X169278937Y-98514294D01*
X169337902Y-98403980D01*
X169374212Y-98284282D01*
X169386472Y-98159800D01*
X169383400Y-97745550D01*
X169224650Y-97586800D01*
X168300400Y-97586800D01*
X168300400Y-97606800D01*
X168046400Y-97606800D01*
X168046400Y-97586800D01*
X168026400Y-97586800D01*
X168026400Y-97332800D01*
X168046400Y-97332800D01*
X168046400Y-95504000D01*
X168026400Y-95504000D01*
X168026400Y-95250000D01*
X168046400Y-95250000D01*
X168046400Y-94200750D01*
X168300400Y-94200750D01*
X168300400Y-95250000D01*
X168320400Y-95250000D01*
X168320400Y-95504000D01*
X168300400Y-95504000D01*
X168300400Y-97332800D01*
X169224650Y-97332800D01*
X169383400Y-97174050D01*
X169386302Y-96782692D01*
X169426329Y-96799272D01*
X169538577Y-96821600D01*
X169653023Y-96821600D01*
X169765271Y-96799272D01*
X169871007Y-96755475D01*
X169966166Y-96691892D01*
X170014258Y-96643800D01*
X171549499Y-96643800D01*
X171560031Y-96750732D01*
X171627333Y-96972597D01*
X171736626Y-97177070D01*
X171883709Y-97356291D01*
X172062930Y-97503374D01*
X172267403Y-97612667D01*
X172489268Y-97679969D01*
X172662188Y-97697000D01*
X172777812Y-97697000D01*
X172950732Y-97679969D01*
X173172597Y-97612667D01*
X173377070Y-97503374D01*
X173556291Y-97356291D01*
X173703374Y-97177070D01*
X173812667Y-96972597D01*
X173879969Y-96750732D01*
X173902694Y-96520000D01*
X173879969Y-96289268D01*
X173812667Y-96067403D01*
X173703374Y-95862930D01*
X173556291Y-95683709D01*
X173377070Y-95536626D01*
X173172597Y-95427333D01*
X172950732Y-95360031D01*
X172916000Y-95356610D01*
X172991109Y-95281501D01*
X173006484Y-95268884D01*
X173024314Y-95247159D01*
X173056870Y-95207489D01*
X173083012Y-95158582D01*
X173570000Y-95158582D01*
X173634103Y-95152268D01*
X173695743Y-95133570D01*
X173752550Y-95103206D01*
X173802343Y-95062343D01*
X173843206Y-95012550D01*
X173873570Y-94955743D01*
X173892268Y-94894103D01*
X173898582Y-94830000D01*
X173898582Y-93130000D01*
X173892268Y-93065897D01*
X173873570Y-93004257D01*
X173843206Y-92947450D01*
X173802343Y-92897657D01*
X173752550Y-92856794D01*
X173695743Y-92826430D01*
X173634103Y-92807732D01*
X173570000Y-92801418D01*
X171870000Y-92801418D01*
X171805897Y-92807732D01*
X171744257Y-92826430D01*
X171687450Y-92856794D01*
X171637657Y-92897657D01*
X171596794Y-92947450D01*
X171566430Y-93004257D01*
X171547732Y-93065897D01*
X171541418Y-93130000D01*
X171541418Y-94830000D01*
X171547732Y-94894103D01*
X171556498Y-94923000D01*
X170141258Y-94923000D01*
X170093166Y-94874908D01*
X169998007Y-94811325D01*
X169892271Y-94767528D01*
X169780023Y-94745200D01*
X169665577Y-94745200D01*
X169553329Y-94767528D01*
X169447593Y-94811325D01*
X169385167Y-94853037D01*
X169386472Y-94677000D01*
X169374212Y-94552518D01*
X169337902Y-94432820D01*
X169278937Y-94322506D01*
X169199585Y-94225815D01*
X169102894Y-94146463D01*
X168992580Y-94087498D01*
X168872882Y-94051188D01*
X168748400Y-94038928D01*
X168459150Y-94042000D01*
X168300400Y-94200750D01*
X168046400Y-94200750D01*
X167887650Y-94042000D01*
X167598400Y-94038928D01*
X167473918Y-94051188D01*
X167354220Y-94087498D01*
X167243906Y-94146463D01*
X167147215Y-94225815D01*
X167067863Y-94322506D01*
X167008898Y-94432820D01*
X166972588Y-94552518D01*
X166961469Y-94665416D01*
X166929474Y-94605557D01*
X166857520Y-94517880D01*
X166769843Y-94445926D01*
X166669814Y-94392460D01*
X166561277Y-94359535D01*
X166448401Y-94348418D01*
X165798399Y-94348418D01*
X165685523Y-94359535D01*
X165678328Y-94361718D01*
X164060307Y-92743697D01*
X164047684Y-92728316D01*
X163986289Y-92677930D01*
X163916244Y-92640490D01*
X163840241Y-92617435D01*
X163780998Y-92611600D01*
X163780991Y-92611600D01*
X163761200Y-92609651D01*
X163741409Y-92611600D01*
X161784658Y-92611600D01*
X161736566Y-92563508D01*
X161641407Y-92499925D01*
X161535671Y-92456128D01*
X161423423Y-92433800D01*
X161308977Y-92433800D01*
X161196729Y-92456128D01*
X161090993Y-92499925D01*
X160995834Y-92563508D01*
X160914908Y-92644434D01*
X160851325Y-92739593D01*
X160807528Y-92845329D01*
X160785200Y-92957577D01*
X160785200Y-93072023D01*
X160807528Y-93184271D01*
X160851325Y-93290007D01*
X160914908Y-93385166D01*
X160995834Y-93466092D01*
X161090993Y-93529675D01*
X161196729Y-93573472D01*
X161308977Y-93595800D01*
X161423423Y-93595800D01*
X161535671Y-93573472D01*
X161641407Y-93529675D01*
X161736566Y-93466092D01*
X161784658Y-93418000D01*
X163594190Y-93418000D01*
X165219818Y-95043629D01*
X165219818Y-95827001D01*
X165230935Y-95939877D01*
X165263860Y-96048414D01*
X165317326Y-96148443D01*
X165389280Y-96236120D01*
X165476957Y-96308074D01*
X165576986Y-96361540D01*
X165685523Y-96394465D01*
X165720200Y-96397880D01*
X165720201Y-96438920D01*
X165685523Y-96442335D01*
X165576986Y-96475260D01*
X165476957Y-96528726D01*
X165389280Y-96600680D01*
X165317326Y-96688357D01*
X165263860Y-96788386D01*
X165230935Y-96896923D01*
X165220588Y-97001978D01*
X164467507Y-96248897D01*
X164454884Y-96233516D01*
X164393489Y-96183130D01*
X164323444Y-96145690D01*
X164247441Y-96122635D01*
X164188198Y-96116800D01*
X164188191Y-96116800D01*
X164168400Y-96114851D01*
X164148609Y-96116800D01*
X148427651Y-96116800D01*
X148412667Y-96067403D01*
X148303374Y-95862930D01*
X148156291Y-95683709D01*
X147977070Y-95536626D01*
X147845509Y-95466305D01*
X148170000Y-95468072D01*
X148294482Y-95455812D01*
X148414180Y-95419502D01*
X148524494Y-95360537D01*
X148621185Y-95281185D01*
X148700537Y-95184494D01*
X148759502Y-95074180D01*
X148795812Y-94954482D01*
X148808072Y-94830000D01*
X148805000Y-94265750D01*
X148646250Y-94107000D01*
X147447000Y-94107000D01*
X147447000Y-94127000D01*
X147193000Y-94127000D01*
X147193000Y-94107000D01*
X145993750Y-94107000D01*
X145835000Y-94265750D01*
X145831928Y-94830000D01*
X145844188Y-94954482D01*
X145880498Y-95074180D01*
X145939463Y-95184494D01*
X146018815Y-95281185D01*
X146115506Y-95360537D01*
X146225820Y-95419502D01*
X146345518Y-95455812D01*
X146470000Y-95468072D01*
X146794491Y-95466305D01*
X146662930Y-95536626D01*
X146483709Y-95683709D01*
X146336626Y-95862930D01*
X146227333Y-96067403D01*
X146160031Y-96289268D01*
X146137306Y-96520000D01*
X146160031Y-96750732D01*
X146227333Y-96972597D01*
X146336626Y-97177070D01*
X146483709Y-97356291D01*
X146662930Y-97503374D01*
X146867403Y-97612667D01*
X147089268Y-97679969D01*
X147262188Y-97697000D01*
X147377812Y-97697000D01*
X147550732Y-97679969D01*
X147772597Y-97612667D01*
X147977070Y-97503374D01*
X148156291Y-97356291D01*
X148303374Y-97177070D01*
X148412667Y-96972597D01*
X148427651Y-96923200D01*
X164001390Y-96923200D01*
X165353451Y-98275262D01*
X165386700Y-98315776D01*
X165386700Y-98376523D01*
X165400086Y-98443818D01*
X164368400Y-98443818D01*
X164304297Y-98450132D01*
X164242657Y-98468830D01*
X164185850Y-98499194D01*
X164136057Y-98540057D01*
X164095194Y-98589850D01*
X164064830Y-98646657D01*
X164046132Y-98708297D01*
X164039818Y-98772400D01*
X164039818Y-100772401D01*
X163648812Y-100772401D01*
X162810800Y-99934390D01*
X162810800Y-99866377D01*
X162788472Y-99754129D01*
X162744675Y-99648393D01*
X162681092Y-99553234D01*
X162600166Y-99472308D01*
X162505007Y-99408725D01*
X162465215Y-99392243D01*
X162477892Y-99379566D01*
X162541475Y-99284407D01*
X162585272Y-99178671D01*
X162607600Y-99066423D01*
X162607600Y-98951977D01*
X162585272Y-98839729D01*
X162541475Y-98733993D01*
X162477892Y-98638834D01*
X162396966Y-98557908D01*
X162301807Y-98494325D01*
X162196071Y-98450528D01*
X162083823Y-98428200D01*
X161969377Y-98428200D01*
X161857129Y-98450528D01*
X161751393Y-98494325D01*
X161656234Y-98557908D01*
X161575308Y-98638834D01*
X161563304Y-98656800D01*
X148427651Y-98656800D01*
X148412667Y-98607403D01*
X148303374Y-98402930D01*
X148156291Y-98223709D01*
X147977070Y-98076626D01*
X147772597Y-97967333D01*
X147550732Y-97900031D01*
X147377812Y-97883000D01*
X147262188Y-97883000D01*
X147089268Y-97900031D01*
X146867403Y-97967333D01*
X146662930Y-98076626D01*
X146483709Y-98223709D01*
X146336626Y-98402930D01*
X146227333Y-98607403D01*
X146160031Y-98829268D01*
X146137306Y-99060000D01*
X146160031Y-99290732D01*
X146227333Y-99512597D01*
X146336626Y-99717070D01*
X146483709Y-99896291D01*
X146662930Y-100043374D01*
X146867403Y-100152667D01*
X147089268Y-100219969D01*
X147262188Y-100237000D01*
X147377812Y-100237000D01*
X147550732Y-100219969D01*
X147772597Y-100152667D01*
X147977070Y-100043374D01*
X148156291Y-99896291D01*
X148303374Y-99717070D01*
X148412667Y-99512597D01*
X148427651Y-99463200D01*
X155573180Y-99463200D01*
X155517325Y-99546793D01*
X155473528Y-99652529D01*
X155451200Y-99764777D01*
X155451200Y-99879223D01*
X155473528Y-99991471D01*
X155499343Y-100053794D01*
X148482797Y-100053794D01*
X148463006Y-100051845D01*
X148443215Y-100053794D01*
X148443208Y-100053794D01*
X148383965Y-100059629D01*
X148307961Y-100082684D01*
X148237917Y-100120124D01*
X148191900Y-100157889D01*
X148191897Y-100157892D01*
X148176522Y-100170510D01*
X148163904Y-100185885D01*
X147818122Y-100531667D01*
X147772597Y-100507333D01*
X147550732Y-100440031D01*
X147377812Y-100423000D01*
X147262188Y-100423000D01*
X147089268Y-100440031D01*
X146867403Y-100507333D01*
X146662930Y-100616626D01*
X146483709Y-100763709D01*
X146336626Y-100942930D01*
X146227333Y-101147403D01*
X146160031Y-101369268D01*
X146137306Y-101600000D01*
X146160031Y-101830732D01*
X146227333Y-102052597D01*
X146336626Y-102257070D01*
X146483709Y-102436291D01*
X146662930Y-102583374D01*
X146867403Y-102692667D01*
X147089268Y-102759969D01*
X147262188Y-102777000D01*
X147377812Y-102777000D01*
X147550732Y-102759969D01*
X147772597Y-102692667D01*
X147977070Y-102583374D01*
X148156291Y-102436291D01*
X148303374Y-102257070D01*
X148412667Y-102052597D01*
X148479969Y-101830732D01*
X148502694Y-101600000D01*
X148479969Y-101369268D01*
X148412667Y-101147403D01*
X148388333Y-101101878D01*
X148630017Y-100860194D01*
X155392663Y-100860194D01*
X155383260Y-100877786D01*
X155350335Y-100986323D01*
X155339218Y-101099199D01*
X155339218Y-101999201D01*
X155350335Y-102112077D01*
X155383260Y-102220614D01*
X155436726Y-102320643D01*
X155508680Y-102408320D01*
X155596357Y-102480274D01*
X155696386Y-102533740D01*
X155804923Y-102566665D01*
X155917799Y-102577782D01*
X156567801Y-102577782D01*
X156680677Y-102566665D01*
X156687872Y-102564482D01*
X157326776Y-103203387D01*
X156240894Y-103203387D01*
X156056403Y-103018897D01*
X156043781Y-103003517D01*
X155982386Y-102953131D01*
X155912341Y-102915691D01*
X155836338Y-102892636D01*
X155777095Y-102886801D01*
X155777088Y-102886801D01*
X155757297Y-102884852D01*
X155737506Y-102886801D01*
X148189786Y-102886801D01*
X148169998Y-102884852D01*
X148150210Y-102886801D01*
X148150201Y-102886801D01*
X148090958Y-102892636D01*
X148014955Y-102915691D01*
X147944910Y-102953131D01*
X147944908Y-102953132D01*
X147944909Y-102953132D01*
X147899859Y-102990104D01*
X147883515Y-103003517D01*
X147870897Y-103018892D01*
X147818122Y-103071667D01*
X147772597Y-103047333D01*
X147550732Y-102980031D01*
X147377812Y-102963000D01*
X147262188Y-102963000D01*
X147089268Y-102980031D01*
X146867403Y-103047333D01*
X146662930Y-103156626D01*
X146483709Y-103303709D01*
X146336626Y-103482930D01*
X146227333Y-103687403D01*
X146160031Y-103909268D01*
X146137306Y-104140000D01*
X146160031Y-104370732D01*
X146227333Y-104592597D01*
X146336626Y-104797070D01*
X146483709Y-104976291D01*
X146662930Y-105123374D01*
X146867403Y-105232667D01*
X147089268Y-105299969D01*
X147262188Y-105317000D01*
X147377812Y-105317000D01*
X147550732Y-105299969D01*
X147772597Y-105232667D01*
X147977070Y-105123374D01*
X148156291Y-104976291D01*
X148303374Y-104797070D01*
X148412667Y-104592597D01*
X148479969Y-104370732D01*
X148502694Y-104140000D01*
X148479969Y-103909268D01*
X148414426Y-103693201D01*
X149736588Y-103693201D01*
X147818123Y-105611667D01*
X147772597Y-105587333D01*
X147550732Y-105520031D01*
X147377812Y-105503000D01*
X147262188Y-105503000D01*
X147089268Y-105520031D01*
X146867403Y-105587333D01*
X146662930Y-105696626D01*
X146483709Y-105843709D01*
X146336626Y-106022930D01*
X146227333Y-106227403D01*
X146160031Y-106449268D01*
X146137306Y-106680000D01*
X146160031Y-106910732D01*
X146227333Y-107132597D01*
X146336626Y-107337070D01*
X146483709Y-107516291D01*
X146662930Y-107663374D01*
X146867403Y-107772667D01*
X147089268Y-107839969D01*
X147262188Y-107857000D01*
X147377812Y-107857000D01*
X147550732Y-107839969D01*
X147772597Y-107772667D01*
X147977070Y-107663374D01*
X148156291Y-107516291D01*
X148303374Y-107337070D01*
X148412667Y-107132597D01*
X148479969Y-106910732D01*
X148502694Y-106680000D01*
X148479969Y-106449268D01*
X148412667Y-106227403D01*
X148388333Y-106181877D01*
X150377238Y-104192973D01*
X155161953Y-104192973D01*
X155210045Y-104241065D01*
X155305204Y-104304648D01*
X155410940Y-104348445D01*
X155523188Y-104370773D01*
X155637634Y-104370773D01*
X155749882Y-104348445D01*
X155855618Y-104304648D01*
X155950777Y-104241065D01*
X156031703Y-104160139D01*
X156095286Y-104064980D01*
X156118148Y-104009787D01*
X157457995Y-104009787D01*
X157219005Y-104248778D01*
X157150992Y-104248778D01*
X157038744Y-104271106D01*
X156933008Y-104314903D01*
X156837849Y-104378486D01*
X156756923Y-104459412D01*
X156693340Y-104554571D01*
X156649543Y-104660307D01*
X156627215Y-104772555D01*
X156627215Y-104883780D01*
X154835200Y-104883780D01*
X154835200Y-104870177D01*
X154812872Y-104757929D01*
X154769075Y-104652193D01*
X154705492Y-104557034D01*
X154624566Y-104476108D01*
X154529407Y-104412525D01*
X154423671Y-104368728D01*
X154311423Y-104346400D01*
X154196977Y-104346400D01*
X154084729Y-104368728D01*
X153978993Y-104412525D01*
X153883834Y-104476108D01*
X153802908Y-104557034D01*
X153739325Y-104652193D01*
X153695528Y-104757929D01*
X153673200Y-104870177D01*
X153673200Y-104984623D01*
X153695528Y-105096871D01*
X153739325Y-105202607D01*
X153802908Y-105297766D01*
X153877042Y-105371900D01*
X153853708Y-105395234D01*
X153790125Y-105490393D01*
X153746328Y-105596129D01*
X153724000Y-105708377D01*
X153724000Y-105776390D01*
X152950292Y-106550098D01*
X152852001Y-106540418D01*
X152201999Y-106540418D01*
X152089123Y-106551535D01*
X151980586Y-106584460D01*
X151880557Y-106637926D01*
X151792880Y-106709880D01*
X151720926Y-106797557D01*
X151667460Y-106897586D01*
X151634535Y-107006123D01*
X151623418Y-107118999D01*
X151623418Y-108019001D01*
X151628343Y-108069010D01*
X151547221Y-108069010D01*
X151380582Y-107902371D01*
X151380582Y-107118999D01*
X151369465Y-107006123D01*
X151336540Y-106897586D01*
X151283074Y-106797557D01*
X151211120Y-106709880D01*
X151123443Y-106637926D01*
X151023414Y-106584460D01*
X150914877Y-106551535D01*
X150802001Y-106540418D01*
X150151999Y-106540418D01*
X150039123Y-106551535D01*
X149930586Y-106584460D01*
X149830557Y-106637926D01*
X149742880Y-106709880D01*
X149670926Y-106797557D01*
X149617460Y-106897586D01*
X149584535Y-107006123D01*
X149573418Y-107118999D01*
X149573418Y-108019001D01*
X149584535Y-108131877D01*
X149617460Y-108240414D01*
X149670926Y-108340443D01*
X149742880Y-108428120D01*
X149830557Y-108500074D01*
X149930586Y-108553540D01*
X150039123Y-108586465D01*
X150151999Y-108597582D01*
X150802001Y-108597582D01*
X150914877Y-108586465D01*
X150922072Y-108584282D01*
X151081108Y-108743319D01*
X151093726Y-108758694D01*
X151109101Y-108771312D01*
X151109103Y-108771314D01*
X151155120Y-108809079D01*
X151155121Y-108809080D01*
X151169564Y-108816800D01*
X148427651Y-108816800D01*
X148412667Y-108767403D01*
X148303374Y-108562930D01*
X148156291Y-108383709D01*
X147977070Y-108236626D01*
X147772597Y-108127333D01*
X147550732Y-108060031D01*
X147377812Y-108043000D01*
X147262188Y-108043000D01*
X147089268Y-108060031D01*
X146867403Y-108127333D01*
X146662930Y-108236626D01*
X146483709Y-108383709D01*
X146336626Y-108562930D01*
X146227333Y-108767403D01*
X146160031Y-108989268D01*
X146137306Y-109220000D01*
X146160031Y-109450732D01*
X146227333Y-109672597D01*
X146336626Y-109877070D01*
X146483709Y-110056291D01*
X146662930Y-110203374D01*
X146867403Y-110312667D01*
X147089268Y-110379969D01*
X147262188Y-110397000D01*
X147377812Y-110397000D01*
X147550732Y-110379969D01*
X147772597Y-110312667D01*
X147977070Y-110203374D01*
X148156291Y-110056291D01*
X148303374Y-109877070D01*
X148412667Y-109672597D01*
X148427651Y-109623200D01*
X150272242Y-109623200D01*
X150219793Y-109644925D01*
X150124634Y-109708508D01*
X150043708Y-109789434D01*
X149980125Y-109884593D01*
X149936328Y-109990329D01*
X149914000Y-110102577D01*
X149914000Y-110217023D01*
X149936328Y-110329271D01*
X149980125Y-110435007D01*
X150043708Y-110530166D01*
X150124634Y-110611092D01*
X150219793Y-110674675D01*
X150325529Y-110718472D01*
X150437777Y-110740800D01*
X150552223Y-110740800D01*
X150664471Y-110718472D01*
X150770207Y-110674675D01*
X150865366Y-110611092D01*
X150913458Y-110563000D01*
X152471230Y-110563000D01*
X152496175Y-110587945D01*
X152591334Y-110651528D01*
X152697070Y-110695325D01*
X152809318Y-110717653D01*
X152923764Y-110717653D01*
X153036012Y-110695325D01*
X153141748Y-110651528D01*
X153236907Y-110587945D01*
X153317833Y-110507019D01*
X153381416Y-110411860D01*
X153425213Y-110306124D01*
X153447541Y-110193876D01*
X153447541Y-110079430D01*
X153425213Y-109967182D01*
X153381416Y-109861446D01*
X153317833Y-109766287D01*
X153236907Y-109685361D01*
X153143876Y-109623200D01*
X155929579Y-109623200D01*
X154195980Y-111356800D01*
X148427651Y-111356800D01*
X148412667Y-111307403D01*
X148303374Y-111102930D01*
X148156291Y-110923709D01*
X147977070Y-110776626D01*
X147772597Y-110667333D01*
X147550732Y-110600031D01*
X147377812Y-110583000D01*
X147262188Y-110583000D01*
X147089268Y-110600031D01*
X146867403Y-110667333D01*
X146662930Y-110776626D01*
X146483709Y-110923709D01*
X146336626Y-111102930D01*
X146227333Y-111307403D01*
X146160031Y-111529268D01*
X146137306Y-111760000D01*
X146160031Y-111990732D01*
X146227333Y-112212597D01*
X146336626Y-112417070D01*
X146483709Y-112596291D01*
X146662930Y-112743374D01*
X146867403Y-112852667D01*
X147089268Y-112919969D01*
X147262188Y-112937000D01*
X147377812Y-112937000D01*
X147550732Y-112919969D01*
X147772597Y-112852667D01*
X147977070Y-112743374D01*
X148156291Y-112596291D01*
X148303374Y-112417070D01*
X148412667Y-112212597D01*
X148427651Y-112163200D01*
X153985704Y-112163200D01*
X153889467Y-112202579D01*
X153686526Y-112336922D01*
X153513693Y-112508275D01*
X153377610Y-112710054D01*
X153283507Y-112934504D01*
X153235000Y-113173000D01*
X153235000Y-113723000D01*
X154343000Y-113723000D01*
X154343000Y-113703000D01*
X154597000Y-113703000D01*
X154597000Y-113723000D01*
X154617000Y-113723000D01*
X154617000Y-113977000D01*
X154597000Y-113977000D01*
X154597000Y-115468731D01*
X154787609Y-115593462D01*
X154825282Y-115589591D01*
X154969001Y-115530783D01*
X154969001Y-117115000D01*
X154922998Y-117115000D01*
X154922998Y-117146748D01*
X154891250Y-117115000D01*
X154793331Y-117125661D01*
X154674058Y-117163345D01*
X154634389Y-117185139D01*
X154564250Y-117115000D01*
X154540761Y-117112123D01*
X154416014Y-117121305D01*
X154295456Y-117154647D01*
X154212944Y-117196163D01*
X154152391Y-117156538D01*
X154114718Y-117160409D01*
X153889467Y-117252579D01*
X153686526Y-117386922D01*
X153513693Y-117558275D01*
X153377610Y-117760054D01*
X153283507Y-117984504D01*
X153235000Y-118223000D01*
X153235000Y-118773000D01*
X154343000Y-118773000D01*
X154343000Y-118667250D01*
X154448750Y-118773000D01*
X154969000Y-118773000D01*
X154969000Y-119027000D01*
X154448750Y-119027000D01*
X154343000Y-119132750D01*
X154343000Y-119027000D01*
X153235000Y-119027000D01*
X153235000Y-119577000D01*
X153283507Y-119815496D01*
X153377610Y-120039946D01*
X153513693Y-120241725D01*
X153686526Y-120413078D01*
X153889467Y-120547421D01*
X154114718Y-120639591D01*
X154152391Y-120643462D01*
X154212944Y-120603837D01*
X154295456Y-120645353D01*
X154416014Y-120678695D01*
X154540761Y-120687877D01*
X154564250Y-120685000D01*
X154634389Y-120614861D01*
X154674058Y-120636655D01*
X154793331Y-120674339D01*
X154891250Y-120685000D01*
X154922998Y-120653252D01*
X154922998Y-120685000D01*
X154969000Y-120685000D01*
X154969000Y-121123500D01*
X145132000Y-121123500D01*
X145132000Y-117196890D01*
X145878524Y-117196890D01*
X145923175Y-117344099D01*
X146048359Y-117606920D01*
X146222412Y-117840269D01*
X146438645Y-118035178D01*
X146688748Y-118184157D01*
X146963109Y-118281481D01*
X147193000Y-118160814D01*
X147193000Y-116967000D01*
X147447000Y-116967000D01*
X147447000Y-118160814D01*
X147676891Y-118281481D01*
X147951252Y-118184157D01*
X148201355Y-118035178D01*
X148417588Y-117840269D01*
X148591641Y-117606920D01*
X148716825Y-117344099D01*
X148761476Y-117196890D01*
X148640155Y-116967000D01*
X147447000Y-116967000D01*
X147193000Y-116967000D01*
X145999845Y-116967000D01*
X145878524Y-117196890D01*
X145132000Y-117196890D01*
X145132000Y-116483110D01*
X145878524Y-116483110D01*
X145999845Y-116713000D01*
X147193000Y-116713000D01*
X147193000Y-116693000D01*
X147447000Y-116693000D01*
X147447000Y-116713000D01*
X148640155Y-116713000D01*
X148761476Y-116483110D01*
X148716825Y-116335901D01*
X148591641Y-116073080D01*
X148417588Y-115839731D01*
X148201355Y-115644822D01*
X147951252Y-115495843D01*
X147712115Y-115411014D01*
X147772597Y-115392667D01*
X147977070Y-115283374D01*
X148156291Y-115136291D01*
X148303374Y-114957070D01*
X148412667Y-114752597D01*
X148479969Y-114530732D01*
X148502694Y-114300000D01*
X148479969Y-114069268D01*
X148451980Y-113977000D01*
X153235000Y-113977000D01*
X153235000Y-114527000D01*
X153283507Y-114765496D01*
X153377610Y-114989946D01*
X153513693Y-115191725D01*
X153686526Y-115363078D01*
X153889467Y-115497421D01*
X154114718Y-115589591D01*
X154152391Y-115593462D01*
X154343000Y-115468731D01*
X154343000Y-113977000D01*
X153235000Y-113977000D01*
X148451980Y-113977000D01*
X148412667Y-113847403D01*
X148303374Y-113642930D01*
X148156291Y-113463709D01*
X147977070Y-113316626D01*
X147772597Y-113207333D01*
X147550732Y-113140031D01*
X147377812Y-113123000D01*
X147262188Y-113123000D01*
X147089268Y-113140031D01*
X146867403Y-113207333D01*
X146662930Y-113316626D01*
X146483709Y-113463709D01*
X146336626Y-113642930D01*
X146227333Y-113847403D01*
X146160031Y-114069268D01*
X146137306Y-114300000D01*
X146160031Y-114530732D01*
X146227333Y-114752597D01*
X146336626Y-114957070D01*
X146483709Y-115136291D01*
X146662930Y-115283374D01*
X146867403Y-115392667D01*
X146927885Y-115411014D01*
X146688748Y-115495843D01*
X146438645Y-115644822D01*
X146222412Y-115839731D01*
X146048359Y-116073080D01*
X145923175Y-116335901D01*
X145878524Y-116483110D01*
X145132000Y-116483110D01*
X145132000Y-93130000D01*
X145831928Y-93130000D01*
X145835000Y-93694250D01*
X145993750Y-93853000D01*
X147193000Y-93853000D01*
X147193000Y-92653750D01*
X147447000Y-92653750D01*
X147447000Y-93853000D01*
X148646250Y-93853000D01*
X148805000Y-93694250D01*
X148808072Y-93130000D01*
X148795812Y-93005518D01*
X148759502Y-92885820D01*
X148700537Y-92775506D01*
X148621185Y-92678815D01*
X148524494Y-92599463D01*
X148414180Y-92540498D01*
X148294482Y-92504188D01*
X148170000Y-92491928D01*
X147605750Y-92495000D01*
X147447000Y-92653750D01*
X147193000Y-92653750D01*
X147034250Y-92495000D01*
X146470000Y-92491928D01*
X146345518Y-92504188D01*
X146225820Y-92540498D01*
X146115506Y-92599463D01*
X146018815Y-92678815D01*
X145939463Y-92775506D01*
X145880498Y-92885820D01*
X145844188Y-93005518D01*
X145831928Y-93130000D01*
X145132000Y-93130000D01*
X145132000Y-88900000D01*
X146173928Y-88900000D01*
X146186188Y-89024482D01*
X146222498Y-89144180D01*
X146281463Y-89254494D01*
X146360815Y-89351185D01*
X146457506Y-89430537D01*
X146567820Y-89489502D01*
X146687518Y-89525812D01*
X146812000Y-89538072D01*
X147732750Y-89535000D01*
X147891500Y-89376250D01*
X147891500Y-86487000D01*
X148145500Y-86487000D01*
X148145500Y-89376250D01*
X148304250Y-89535000D01*
X149225000Y-89538072D01*
X149349482Y-89525812D01*
X149469180Y-89489502D01*
X149579494Y-89430537D01*
X149676185Y-89351185D01*
X149755537Y-89254494D01*
X149814502Y-89144180D01*
X149850812Y-89024482D01*
X149863072Y-88900000D01*
X154936928Y-88900000D01*
X154949188Y-89024482D01*
X154985498Y-89144180D01*
X155044463Y-89254494D01*
X155123815Y-89351185D01*
X155220506Y-89430537D01*
X155330820Y-89489502D01*
X155450518Y-89525812D01*
X155575000Y-89538072D01*
X156495750Y-89535000D01*
X156654500Y-89376250D01*
X156654500Y-86487000D01*
X156908500Y-86487000D01*
X156908500Y-89376250D01*
X157067250Y-89535000D01*
X157988000Y-89538072D01*
X158112482Y-89525812D01*
X158232180Y-89489502D01*
X158342494Y-89430537D01*
X158439185Y-89351185D01*
X158518537Y-89254494D01*
X158577502Y-89144180D01*
X158613812Y-89024482D01*
X158626072Y-88900000D01*
X161413928Y-88900000D01*
X161426188Y-89024482D01*
X161462498Y-89144180D01*
X161521463Y-89254494D01*
X161600815Y-89351185D01*
X161697506Y-89430537D01*
X161807820Y-89489502D01*
X161927518Y-89525812D01*
X162052000Y-89538072D01*
X162972750Y-89535000D01*
X163131500Y-89376250D01*
X163131500Y-86487000D01*
X163385500Y-86487000D01*
X163385500Y-89376250D01*
X163544250Y-89535000D01*
X164465000Y-89538072D01*
X164589482Y-89525812D01*
X164709180Y-89489502D01*
X164819494Y-89430537D01*
X164916185Y-89351185D01*
X164995537Y-89254494D01*
X165054502Y-89144180D01*
X165090812Y-89024482D01*
X165103072Y-88900000D01*
X170176928Y-88900000D01*
X170189188Y-89024482D01*
X170225498Y-89144180D01*
X170284463Y-89254494D01*
X170363815Y-89351185D01*
X170460506Y-89430537D01*
X170570820Y-89489502D01*
X170690518Y-89525812D01*
X170815000Y-89538072D01*
X171735750Y-89535000D01*
X171894500Y-89376250D01*
X171894500Y-86487000D01*
X172148500Y-86487000D01*
X172148500Y-89376250D01*
X172307250Y-89535000D01*
X173228000Y-89538072D01*
X173352482Y-89525812D01*
X173472180Y-89489502D01*
X173582494Y-89430537D01*
X173679185Y-89351185D01*
X173758537Y-89254494D01*
X173817502Y-89144180D01*
X173853812Y-89024482D01*
X173866072Y-88900000D01*
X173863000Y-86645750D01*
X173704250Y-86487000D01*
X172148500Y-86487000D01*
X171894500Y-86487000D01*
X170338750Y-86487000D01*
X170180000Y-86645750D01*
X170176928Y-88900000D01*
X165103072Y-88900000D01*
X165100000Y-86645750D01*
X164941250Y-86487000D01*
X163385500Y-86487000D01*
X163131500Y-86487000D01*
X161575750Y-86487000D01*
X161417000Y-86645750D01*
X161413928Y-88900000D01*
X158626072Y-88900000D01*
X158623000Y-86645750D01*
X158464250Y-86487000D01*
X156908500Y-86487000D01*
X156654500Y-86487000D01*
X155098750Y-86487000D01*
X154940000Y-86645750D01*
X154936928Y-88900000D01*
X149863072Y-88900000D01*
X149860000Y-86645750D01*
X149701250Y-86487000D01*
X148145500Y-86487000D01*
X147891500Y-86487000D01*
X146335750Y-86487000D01*
X146177000Y-86645750D01*
X146173928Y-88900000D01*
X145132000Y-88900000D01*
X145132000Y-83918000D01*
X146174062Y-83918000D01*
X146177000Y-86074250D01*
G36*
X164613693Y-112508275D02*
G01*
X164477610Y-112710054D01*
X164446803Y-112783534D01*
X164438206Y-112767450D01*
X164397343Y-112717657D01*
X164347550Y-112676794D01*
X164290743Y-112646430D01*
X164229103Y-112627732D01*
X164165000Y-112621418D01*
X164080786Y-112621418D01*
X164075747Y-112611283D01*
X164026395Y-112547400D01*
X164363400Y-112547400D01*
X164487282Y-112535199D01*
X164606404Y-112499064D01*
X164642379Y-112479835D01*
X164613693Y-112508275D01*
X164613693Y-112508275D01*
G37*
X164613693Y-112508275D02*
X164477610Y-112710054D01*
X164446803Y-112783534D01*
X164438206Y-112767450D01*
X164397343Y-112717657D01*
X164347550Y-112676794D01*
X164290743Y-112646430D01*
X164229103Y-112627732D01*
X164165000Y-112621418D01*
X164080786Y-112621418D01*
X164075747Y-112611283D01*
X164026395Y-112547400D01*
X164363400Y-112547400D01*
X164487282Y-112535199D01*
X164606404Y-112499064D01*
X164642379Y-112479835D01*
X164613693Y-112508275D01*
G36*
X157690518Y-109524188D02*
G01*
X157570820Y-109560498D01*
X157460506Y-109619463D01*
X157363815Y-109698815D01*
X157284463Y-109795506D01*
X157225498Y-109905820D01*
X157189188Y-110025518D01*
X157176928Y-110150000D01*
X157180000Y-110839250D01*
X157338750Y-110998000D01*
X157988000Y-110998000D01*
X157988000Y-110978000D01*
X158230989Y-110978000D01*
X158230990Y-111272000D01*
X157988000Y-111272000D01*
X157988000Y-111252000D01*
X157338750Y-111252000D01*
X157180000Y-111410750D01*
X157178364Y-111777700D01*
X157087675Y-111838297D01*
X157006749Y-111919223D01*
X156943166Y-112014382D01*
X156899369Y-112120118D01*
X156877041Y-112232366D01*
X156877041Y-112328018D01*
X156778750Y-112315000D01*
X156620000Y-112473750D01*
X156461250Y-112315000D01*
X156362143Y-112328126D01*
X156243566Y-112367945D01*
X156135036Y-112430132D01*
X156040724Y-112512297D01*
X155964253Y-112611283D01*
X155959214Y-112621418D01*
X155875000Y-112621418D01*
X155810897Y-112627732D01*
X155749257Y-112646430D01*
X155692450Y-112676794D01*
X155642657Y-112717657D01*
X155601794Y-112767450D01*
X155593197Y-112783534D01*
X155562390Y-112710054D01*
X155426307Y-112508275D01*
X155253474Y-112336922D01*
X155050533Y-112202579D01*
X154825282Y-112110409D01*
X154787609Y-112106538D01*
X154597002Y-112231268D01*
X154597002Y-112089547D01*
X154649474Y-112046484D01*
X154662097Y-112031103D01*
X156529411Y-110163790D01*
X156597423Y-110163790D01*
X156709671Y-110141462D01*
X156815407Y-110097665D01*
X156910566Y-110034082D01*
X156991492Y-109953156D01*
X157055075Y-109857997D01*
X157098872Y-109752261D01*
X157121200Y-109640013D01*
X157121200Y-109525567D01*
X157120411Y-109521600D01*
X157716795Y-109521600D01*
X157690518Y-109524188D01*
X157690518Y-109524188D01*
G37*
X157690518Y-109524188D02*
X157570820Y-109560498D01*
X157460506Y-109619463D01*
X157363815Y-109698815D01*
X157284463Y-109795506D01*
X157225498Y-109905820D01*
X157189188Y-110025518D01*
X157176928Y-110150000D01*
X157180000Y-110839250D01*
X157338750Y-110998000D01*
X157988000Y-110998000D01*
X157988000Y-110978000D01*
X158230989Y-110978000D01*
X158230990Y-111272000D01*
X157988000Y-111272000D01*
X157988000Y-111252000D01*
X157338750Y-111252000D01*
X157180000Y-111410750D01*
X157178364Y-111777700D01*
X157087675Y-111838297D01*
X157006749Y-111919223D01*
X156943166Y-112014382D01*
X156899369Y-112120118D01*
X156877041Y-112232366D01*
X156877041Y-112328018D01*
X156778750Y-112315000D01*
X156620000Y-112473750D01*
X156461250Y-112315000D01*
X156362143Y-112328126D01*
X156243566Y-112367945D01*
X156135036Y-112430132D01*
X156040724Y-112512297D01*
X155964253Y-112611283D01*
X155959214Y-112621418D01*
X155875000Y-112621418D01*
X155810897Y-112627732D01*
X155749257Y-112646430D01*
X155692450Y-112676794D01*
X155642657Y-112717657D01*
X155601794Y-112767450D01*
X155593197Y-112783534D01*
X155562390Y-112710054D01*
X155426307Y-112508275D01*
X155253474Y-112336922D01*
X155050533Y-112202579D01*
X154825282Y-112110409D01*
X154787609Y-112106538D01*
X154597002Y-112231268D01*
X154597002Y-112089547D01*
X154649474Y-112046484D01*
X154662097Y-112031103D01*
X156529411Y-110163790D01*
X156597423Y-110163790D01*
X156709671Y-110141462D01*
X156815407Y-110097665D01*
X156910566Y-110034082D01*
X156991492Y-109953156D01*
X157055075Y-109857997D01*
X157098872Y-109752261D01*
X157121200Y-109640013D01*
X157121200Y-109525567D01*
X157120411Y-109521600D01*
X157716795Y-109521600D01*
X157690518Y-109524188D01*
G36*
X160026418Y-105350000D02*
G01*
X160026418Y-107000000D01*
X160035614Y-107093367D01*
X160062848Y-107183145D01*
X160093778Y-107241011D01*
X159265780Y-108069010D01*
X153425657Y-108069010D01*
X153430582Y-108019001D01*
X153430582Y-107210228D01*
X153490810Y-107150000D01*
X157176928Y-107150000D01*
X157189188Y-107274482D01*
X157225498Y-107394180D01*
X157284463Y-107504494D01*
X157363815Y-107601185D01*
X157460506Y-107680537D01*
X157570820Y-107739502D01*
X157690518Y-107775812D01*
X157815000Y-107788072D01*
X157829250Y-107785000D01*
X157988000Y-107626250D01*
X157988000Y-106302000D01*
X157338750Y-106302000D01*
X157180000Y-106460750D01*
X157176928Y-107150000D01*
X153490810Y-107150000D01*
X154294210Y-106346600D01*
X154362223Y-106346600D01*
X154474471Y-106324272D01*
X154580207Y-106280475D01*
X154675366Y-106216892D01*
X154756292Y-106135966D01*
X154819875Y-106040807D01*
X154863672Y-105935071D01*
X154886000Y-105822823D01*
X154886000Y-105708377D01*
X154882380Y-105690180D01*
X157179113Y-105690180D01*
X157180000Y-105889250D01*
X157338750Y-106048000D01*
X157988000Y-106048000D01*
X157988000Y-106028000D01*
X158242000Y-106028000D01*
X158242000Y-106048000D01*
X158262000Y-106048000D01*
X158262000Y-106302000D01*
X158242000Y-106302000D01*
X158242000Y-107626250D01*
X158400750Y-107785000D01*
X158415000Y-107788072D01*
X158539482Y-107775812D01*
X158659180Y-107739502D01*
X158769494Y-107680537D01*
X158866185Y-107601185D01*
X158945537Y-107504494D01*
X158995081Y-107411806D01*
X159051855Y-107442152D01*
X159141633Y-107469386D01*
X159235000Y-107478582D01*
X159535000Y-107478582D01*
X159628367Y-107469386D01*
X159718145Y-107442152D01*
X159800886Y-107397926D01*
X159873409Y-107338409D01*
X159932926Y-107265886D01*
X159977152Y-107183145D01*
X160004386Y-107093367D01*
X160013582Y-107000000D01*
X160013582Y-105350000D01*
X160005939Y-105272399D01*
X160034061Y-105272399D01*
X160026418Y-105350000D01*
X160026418Y-105350000D01*
G37*
X160026418Y-105350000D02*
X160026418Y-107000000D01*
X160035614Y-107093367D01*
X160062848Y-107183145D01*
X160093778Y-107241011D01*
X159265780Y-108069010D01*
X153425657Y-108069010D01*
X153430582Y-108019001D01*
X153430582Y-107210228D01*
X153490810Y-107150000D01*
X157176928Y-107150000D01*
X157189188Y-107274482D01*
X157225498Y-107394180D01*
X157284463Y-107504494D01*
X157363815Y-107601185D01*
X157460506Y-107680537D01*
X157570820Y-107739502D01*
X157690518Y-107775812D01*
X157815000Y-107788072D01*
X157829250Y-107785000D01*
X157988000Y-107626250D01*
X157988000Y-106302000D01*
X157338750Y-106302000D01*
X157180000Y-106460750D01*
X157176928Y-107150000D01*
X153490810Y-107150000D01*
X154294210Y-106346600D01*
X154362223Y-106346600D01*
X154474471Y-106324272D01*
X154580207Y-106280475D01*
X154675366Y-106216892D01*
X154756292Y-106135966D01*
X154819875Y-106040807D01*
X154863672Y-105935071D01*
X154886000Y-105822823D01*
X154886000Y-105708377D01*
X154882380Y-105690180D01*
X157179113Y-105690180D01*
X157180000Y-105889250D01*
X157338750Y-106048000D01*
X157988000Y-106048000D01*
X157988000Y-106028000D01*
X158242000Y-106028000D01*
X158242000Y-106048000D01*
X158262000Y-106048000D01*
X158262000Y-106302000D01*
X158242000Y-106302000D01*
X158242000Y-107626250D01*
X158400750Y-107785000D01*
X158415000Y-107788072D01*
X158539482Y-107775812D01*
X158659180Y-107739502D01*
X158769494Y-107680537D01*
X158866185Y-107601185D01*
X158945537Y-107504494D01*
X158995081Y-107411806D01*
X159051855Y-107442152D01*
X159141633Y-107469386D01*
X159235000Y-107478582D01*
X159535000Y-107478582D01*
X159628367Y-107469386D01*
X159718145Y-107442152D01*
X159800886Y-107397926D01*
X159873409Y-107338409D01*
X159932926Y-107265886D01*
X159977152Y-107183145D01*
X160004386Y-107093367D01*
X160013582Y-107000000D01*
X160013582Y-105350000D01*
X160005939Y-105272399D01*
X160034061Y-105272399D01*
X160026418Y-105350000D01*
M02*
