M48
; DRILL file {KiCad (5.1.4-0-10_14)} date Monday, 10 February 2020 at 15:43:17
; FORMAT={-:-/ absolute / metric / decimal}
; #@! TF.CreationDate,2020-02-10T15:43:17-05:00
; #@! TF.GenerationSoftware,Kicad,Pcbnew,(5.1.4-0-10_14)
FMAT,2
METRIC
T1C0.400
T2C0.432
T3C0.600
T4C1.000
%
G90
G05
T1
X158.02Y-114.3
X158.82Y-114.3
X159.62Y-114.3
X160.42Y-114.3
X161.22Y-114.3
X162.02Y-114.3
T2
X148.031Y-89.713
X150.495Y-110.16
X151.587Y-102.54
X152.146Y-111.252
X152.867Y-110.137
X154.254Y-104.927
X154.305Y-105.766
X155.58Y-103.79
X156.027Y-100.457
X156.032Y-99.822
X156.243Y-101.549
X156.388Y-107.467
X156.54Y-109.583
X156.794Y-89.738
X157.208Y-104.83
X157.458Y-112.29
X158.445Y-104.384
X158.474Y-103.19
X159.385Y-106.172
X159.41Y-103.48
X159.487Y-109.118
X159.715Y-112.614
X160.146Y-111.646
X160.604Y-112.649
X161.366Y-93.015
X161.925Y-111.125
X162.027Y-99.009
X162.23Y-99.924
X163.246Y-89.713
X163.627Y-103.505
X164.0Y-112.569
X164.338Y-102.057
X165.968Y-98.319
X166.268Y-105.959
X167.869Y-109.271
X167.894Y-108.179
X168.478Y-100.718
X169.342Y-97.46
X169.596Y-96.241
X169.723Y-95.326
X172.06Y-89.738
T4
X147.32Y-93.98
X147.32Y-96.52
X147.32Y-99.06
X147.32Y-101.6
X147.32Y-104.14
X147.32Y-106.68
X147.32Y-109.22
X147.32Y-111.76
X147.32Y-114.3
X147.32Y-116.84
X172.72Y-93.98
X172.72Y-96.52
X172.72Y-99.06
X172.72Y-101.6
X172.72Y-104.14
X172.72Y-106.68
X172.72Y-109.22
X172.72Y-111.76
X172.72Y-114.3
X172.72Y-116.84
T3
G00X154.47Y-114.4
M15
G01X154.47Y-113.3
M16
G05
G00X154.47Y-119.45
M15
G01X154.47Y-118.35
M16
G05
G00X165.57Y-114.4
M15
G01X165.57Y-113.3
M16
G05
G00X165.57Y-119.45
M15
G01X165.57Y-118.35
M16
G05
T0
M30
